<?xml version="1.0" encoding="utf-8"?>
<!-- Generator: Adobe Illustrator 24.1.3, SVG Export Plug-In . SVG Version: 6.00 Build 0)  -->
<svg version="1.1" id="Layer_1" xmlns="http://www.w3.org/2000/svg" xmlns:xlink="http://www.w3.org/1999/xlink" x="0px" y="0px"
	 viewBox="0 0 245 244.7" style="enable-background:new 0 0 245 244.7;" xml:space="preserve">
<style type="text/css">
	.st0{opacity:0.33;}
	.st1{fill-rule:evenodd;clip-rule:evenodd;fill:#020303;}
	.st2{filter:url(#Adobe_OpacityMaskFilter);}
	.st3{fill-rule:evenodd;clip-rule:evenodd;fill:#FFFFFF;}
	.st4{mask:url(#mask-2_1_);fill-rule:evenodd;clip-rule:evenodd;fill:#020303;}
	.st5{filter:url(#Adobe_OpacityMaskFilter_1_);}
	.st6{mask:url(#mask-4_1_);fill-rule:evenodd;clip-rule:evenodd;fill:#020303;}
	.st7{filter:url(#Adobe_OpacityMaskFilter_2_);}
	.st8{mask:url(#mask-6_1_);fill-rule:evenodd;clip-rule:evenodd;fill:#020303;}
	.st9{filter:url(#Adobe_OpacityMaskFilter_3_);}
	.st10{mask:url(#mask-8_1_);fill-rule:evenodd;clip-rule:evenodd;fill:#020303;}
	.st11{filter:url(#Adobe_OpacityMaskFilter_4_);}
	.st12{mask:url(#mask-10_1_);fill-rule:evenodd;clip-rule:evenodd;fill:#020303;}
	.st13{filter:url(#Adobe_OpacityMaskFilter_5_);}
	.st14{mask:url(#mask-12_1_);fill-rule:evenodd;clip-rule:evenodd;fill:#020303;}
	.st15{filter:url(#Adobe_OpacityMaskFilter_6_);}
	.st16{mask:url(#mask-14_1_);fill-rule:evenodd;clip-rule:evenodd;fill:#020303;}
	.st17{filter:url(#Adobe_OpacityMaskFilter_7_);}
	.st18{mask:url(#mask-16_1_);fill-rule:evenodd;clip-rule:evenodd;fill:#020303;}
	.st19{filter:url(#Adobe_OpacityMaskFilter_8_);}
	.st20{mask:url(#mask-18_1_);fill-rule:evenodd;clip-rule:evenodd;fill:#020303;}
	.st21{filter:url(#Adobe_OpacityMaskFilter_9_);}
	.st22{mask:url(#mask-20_1_);fill-rule:evenodd;clip-rule:evenodd;fill:#020303;}
	.st23{filter:url(#Adobe_OpacityMaskFilter_10_);}
	.st24{mask:url(#mask-22_1_);fill-rule:evenodd;clip-rule:evenodd;fill:#020303;}
	.st25{filter:url(#Adobe_OpacityMaskFilter_11_);}
	.st26{mask:url(#mask-24_1_);fill-rule:evenodd;clip-rule:evenodd;fill:#020303;}
	.st27{filter:url(#Adobe_OpacityMaskFilter_12_);}
	.st28{mask:url(#mask-26_1_);fill-rule:evenodd;clip-rule:evenodd;fill:#020303;}
	.st29{filter:url(#Adobe_OpacityMaskFilter_13_);}
	.st30{mask:url(#mask-28_1_);fill-rule:evenodd;clip-rule:evenodd;fill:#020303;}
	.st31{filter:url(#Adobe_OpacityMaskFilter_14_);}
	.st32{mask:url(#mask-30_1_);fill-rule:evenodd;clip-rule:evenodd;fill:#020303;}
	.st33{filter:url(#Adobe_OpacityMaskFilter_15_);}
	.st34{mask:url(#mask-32_1_);fill-rule:evenodd;clip-rule:evenodd;fill:#020303;}
	.st35{filter:url(#Adobe_OpacityMaskFilter_16_);}
	.st36{mask:url(#mask-34_1_);fill-rule:evenodd;clip-rule:evenodd;fill:#020303;}
	.st37{filter:url(#Adobe_OpacityMaskFilter_17_);}
	.st38{mask:url(#mask-36_1_);fill-rule:evenodd;clip-rule:evenodd;fill:#020303;}
	.st39{filter:url(#Adobe_OpacityMaskFilter_18_);}
	.st40{mask:url(#mask-38_1_);fill-rule:evenodd;clip-rule:evenodd;fill:#020303;}
	.st41{filter:url(#Adobe_OpacityMaskFilter_19_);}
	.st42{mask:url(#mask-40_1_);fill-rule:evenodd;clip-rule:evenodd;fill:#020303;}
	.st43{filter:url(#Adobe_OpacityMaskFilter_20_);}
	.st44{mask:url(#mask-42_1_);fill-rule:evenodd;clip-rule:evenodd;fill:#020303;}
	.st45{filter:url(#Adobe_OpacityMaskFilter_21_);}
	.st46{mask:url(#mask-44_1_);fill-rule:evenodd;clip-rule:evenodd;fill:#020303;}
	.st47{filter:url(#Adobe_OpacityMaskFilter_22_);}
	.st48{mask:url(#mask-46_1_);fill-rule:evenodd;clip-rule:evenodd;fill:#020303;}
	.st49{filter:url(#Adobe_OpacityMaskFilter_23_);}
	.st50{mask:url(#mask-48_1_);fill-rule:evenodd;clip-rule:evenodd;fill:#020303;}
	.st51{filter:url(#Adobe_OpacityMaskFilter_24_);}
	.st52{mask:url(#mask-50_1_);fill-rule:evenodd;clip-rule:evenodd;fill:#020303;}
	.st53{filter:url(#Adobe_OpacityMaskFilter_25_);}
	.st54{mask:url(#mask-52_1_);fill-rule:evenodd;clip-rule:evenodd;fill:#020303;}
</style>
<g id="Welcome" class="st0">
	<g id="Desktop">
		<g id="Group-613">
			<path id="Fill-1" class="st1" d="M20.6,31.1c1.6,1.8,3.1,3.6,4.7,5.5c1.8-1.6,3.6-3.1,5.5-4.7c1.3-1.1,3,0.9,1.7,2
				c-2.2,1.8-4.3,3.7-6.5,5.5c-0.3,0.3-0.6,0.4-0.9,0.3l0,0c-0.3,0-0.6-0.2-0.9-0.5c-1.8-2.2-3.7-4.3-5.5-6.5
				C17.4,31.6,19.4,29.8,20.6,31.1"/>
			<path id="Fill-3" class="st1" d="M49.2,36.5c-1.9-1.4-3.8-2.9-5.8-4.3c-1.4,1.9-2.9,3.8-4.3,5.8c-1,1.4-3.1-0.2-2.1-1.6
				c1.7-2.3,3.4-4.6,5.1-6.8c0.2-0.3,0.5-0.5,0.9-0.5l0,0c0.3-0.1,0.6,0,1,0.2c2.3,1.7,4.6,3.4,6.8,5.1
				C52.2,35.4,50.6,37.5,49.2,36.5"/>
			<path id="Fill-5" class="st1" d="M67.1,33.8c-1.2-2.1-2.5-4.1-3.7-6.2c-2.1,1.2-4.1,2.5-6.2,3.7c-1.5,0.9-2.8-1.4-1.4-2.3
				c2.4-1.5,4.9-2.9,7.3-4.4c0.3-0.2,0.7-0.2,1-0.1l0,0c0.3,0.1,0.6,0.3,0.8,0.6c1.5,2.4,2.9,4.9,4.4,7.3
				C70.3,33.9,68,35.3,67.1,33.8"/>
			<path id="Fill-7" class="st1" d="M31.7,46.3c-1.9,1.4-3.9,2.8-5.8,4.2c1.4,1.9,2.8,3.9,4.2,5.8c1,1.4-1.2,2.9-2.1,1.5
				c-1.7-2.3-3.3-4.6-5-6.9c-0.2-0.3-0.3-0.7-0.2-1l0,0c0-0.3,0.2-0.6,0.5-0.8c2.3-1.7,4.6-3.3,6.9-5C31.6,43.1,33.1,45.3,31.7,46.3
				"/>
			<path id="Fill-9" class="st1" d="M57.4,59.4c1.8-1.6,3.5-3.3,5.3-4.9c-1.6-1.8-3.3-3.5-4.9-5.3c-1.2-1.2,0.8-3,1.9-1.8
				c1.9,2.1,3.9,4.2,5.8,6.2c0.3,0.3,0.4,0.6,0.4,0.9l0,0c0,0.3-0.1,0.6-0.4,0.9c-2.1,1.9-4.2,3.9-6.2,5.8
				C58,62.5,56.2,60.5,57.4,59.4"/>
			<path id="Fill-11" class="st1" d="M51.9,58.1c-0.6,2.3-1.1,4.7-1.7,7c2.3,0.6,4.7,1.1,7,1.7c1.7,0.4,1,3-0.6,2.6
				c-2.8-0.7-5.5-1.3-8.3-2c-0.4-0.1-0.7-0.3-0.8-0.6l0,0c-0.2-0.3-0.2-0.6-0.2-1c0.7-2.8,1.3-5.5,2-8.3
				C49.7,55.8,52.2,56.4,51.9,58.1"/>
			<path id="Fill-13" class="st1" d="M71.4,62.6c-1.5,1.8-3.1,3.7-4.6,5.5c1.8,1.5,3.7,3.1,5.5,4.6c1.3,1.1-0.4,3.1-1.7,2
				c-2.2-1.8-4.4-3.6-6.5-5.5c-0.3-0.3-0.5-0.6-0.5-0.9l0,0c0-0.3,0-0.6,0.3-1c1.8-2.2,3.6-4.4,5.4-6.5
				C70.4,59.6,72.5,61.3,71.4,62.6"/>
			<path id="Fill-15" class="st1" d="M71.4,79c2.4,0.4,4.7,0.9,7.1,1.3c0.4-2.4,0.9-4.7,1.3-7.1c0.3-1.7,2.9-1.2,2.6,0.5
				c-0.5,2.8-1,5.6-1.5,8.4c-0.1,0.4-0.3,0.7-0.5,0.8l0,0c-0.2,0.2-0.6,0.3-1,0.2c-2.8-0.5-5.6-1-8.4-1.5
				C69.2,81.3,69.7,78.7,71.4,79"/>
			<path id="Fill-17" class="st1" d="M34.2,64.7c1.9-1.5,3.7-3,5.6-4.6c-1.5-1.9-3-3.7-4.6-5.6c-1.1-1.3,1-3,2-1.7
				c1.8,2.2,3.6,4.4,5.4,6.6c0.3,0.3,0.3,0.6,0.3,1l0,0c0,0.3-0.2,0.6-0.5,0.9c-2.2,1.8-4.4,3.6-6.6,5.4
				C34.5,67.8,32.9,65.8,34.2,64.7"/>
			<path id="Fill-19" class="st1" d="M40.5,43.4c1.9,1.5,3.7,3,5.6,4.5c1.5-1.9,3-3.7,4.5-5.6c1.1-1.3,3.1,0.3,2.1,1.7
				c-1.8,2.2-3.6,4.4-5.3,6.6c-0.3,0.3-0.6,0.5-0.9,0.5l0,0c-0.3,0-0.6,0-1-0.3c-2.2-1.8-4.4-3.6-6.6-5.3
				C37.5,44.4,39.1,42.3,40.5,43.4"/>
			<path id="Fill-21" class="st1" d="M61.3,37.9c1.6,1.8,3.2,3.5,4.8,5.3c1.8-1.6,3.5-3.2,5.3-4.8c1.3-1.2,3,0.8,1.8,2
				c-2.1,1.9-4.2,3.8-6.3,5.7c-0.3,0.3-0.6,0.4-0.9,0.3l0,0c-0.3,0-0.6-0.1-0.9-0.4c-1.9-2.1-3.8-4.2-5.7-6.3
				C58.2,38.4,60.2,36.7,61.3,37.9"/>
			<path id="Fill-23" class="st1" d="M90.6,41.5c-1.6-1.8-3.3-3.5-4.9-5.2c-1.7,1.6-3.5,3.3-5.2,4.9c-1.2,1.2-3.1-0.8-1.8-1.9
				c2.1-1.9,4.1-3.9,6.2-5.8c0.3-0.3,0.6-0.4,0.9-0.4l0,0c0.3,0,0.6,0.1,0.9,0.4c1.9,2.1,3.9,4.1,5.8,6.2
				C93.7,41,91.7,42.8,90.6,41.5"/>
			<path id="Fill-25" class="st1" d="M92.6,58.6c0.9-2.2,1.8-4.4,2.8-6.6c-2.2-0.9-4.4-1.8-6.6-2.8c-1.6-0.7-0.6-3.1,1-2.4
				c2.6,1.1,5.2,2.2,7.9,3.3c0.4,0.2,0.6,0.4,0.7,0.7l0,0c0.1,0.3,0.1,0.6,0,1c-1.1,2.6-2.2,5.2-3.3,7.9
				C94.4,61.1,91.9,60.1,92.6,58.6"/>
			<path id="Fill-27" class="st1" d="M87,70.6c-0.6-2.3-1.3-4.6-1.9-6.9c-2.3,0.6-4.6,1.3-6.9,1.9c-1.6,0.4-2.3-2.1-0.7-2.6
				c2.7-0.7,5.5-1.5,8.2-2.2c0.4-0.1,0.7,0,1,0.1l0,0c0.3,0.1,0.5,0.4,0.6,0.8c0.7,2.7,1.5,5.5,2.2,8.2C90,71.6,87.5,72.3,87,70.6"
				/>
			<path id="Fill-29" class="st1" d="M83.3,55.3c-1.7-1.7-3.4-3.4-5.1-5.1c-1.7,1.7-3.4,3.4-5.1,5.1c-1.2,1.2-3.1-0.7-1.9-1.9
				c2-2,4-4,6-6c0.3-0.3,0.6-0.4,0.9-0.4h0c0.3,0,0.6,0.1,0.9,0.4c2,2,4,4,6,6C86.4,54.6,84.5,56.5,83.3,55.3"/>
			<path id="Fill-31" class="st1" d="M123.6,33.2c-1.4,2-2.7,3.9-4.1,5.9c2,1.4,3.9,2.7,5.9,4.1c1.4,1-0.1,3.1-1.5,2.2
				c-2.3-1.6-4.7-3.2-7-4.9c-0.3-0.2-0.5-0.5-0.5-0.8l0,0c-0.1-0.3,0-0.6,0.2-1c1.6-2.3,3.2-4.7,4.9-7
				C122.4,30.3,124.6,31.8,123.6,33.2"/>
			<path id="Fill-33" class="st1" d="M109.9,34.9c-1.6-1.8-3.1-3.6-4.7-5.5c-1.8,1.6-3.6,3.1-5.5,4.7c-1.3,1.1-3-0.9-1.7-2
				c2.2-1.8,4.3-3.7,6.5-5.5c0.3-0.3,0.6-0.4,0.9-0.3l0,0c0.3,0,0.6,0.1,0.9,0.5c1.8,2.2,3.7,4.3,5.5,6.5
				C113.1,34.5,111.1,36.2,109.9,34.9"/>
			<path id="Fill-35" class="st1" d="M99.9,39.7c1.6,1.8,3.2,3.5,4.9,5.3c1.8-1.6,3.5-3.2,5.3-4.9c1.3-1.2,3,0.8,1.8,1.9
				c-2.1,1.9-4.2,3.8-6.3,5.8c-0.3,0.3-0.6,0.4-0.9,0.3l0,0c-0.3,0-0.6-0.1-0.9-0.4c-1.9-2.1-3.8-4.2-5.8-6.3
				C96.8,40.3,98.8,38.5,99.9,39.7"/>
			<path id="Fill-37" class="st1" d="M111.6,58.4c2.1-1.2,4.1-2.4,6.2-3.7c-1.2-2.1-2.4-4.1-3.7-6.2c-0.9-1.5,1.4-2.8,2.3-1.4
				c1.4,2.4,2.9,4.9,4.3,7.3c0.2,0.3,0.2,0.7,0.1,1l0,0c-0.1,0.3-0.3,0.6-0.6,0.8c-2.4,1.4-4.9,2.9-7.3,4.3
				C111.4,61.5,110.1,59.3,111.6,58.4"/>
			<path id="Fill-39" class="st1" d="M76.1,92.7c-2.4,0.3-4.8,0.5-7.2,0.8c0.3,2.4,0.5,4.8,0.8,7.1c0.2,1.7-2.5,2-2.6,0.3
				c-0.3-2.8-0.6-5.6-0.9-8.5c0-0.4,0.1-0.7,0.3-1l0,0c0.2-0.2,0.5-0.4,0.9-0.5c2.8-0.3,5.6-0.6,8.5-0.9
				C77.5,89.8,77.8,92.5,76.1,92.7"/>
			<path id="Fill-41" class="st1" d="M47.8,92.7c2.3,0.7,4.6,1.4,6.9,2.1c0.7-2.3,1.4-4.6,2.1-6.9c0.5-1.6,3-0.9,2.5,0.8
				c-0.8,2.7-1.6,5.4-2.5,8.1c-0.1,0.4-0.3,0.6-0.6,0.8l0,0c-0.3,0.2-0.6,0.2-1,0.1c-2.7-0.8-5.4-1.6-8.1-2.5
				C45.4,94.7,46.2,92.2,47.8,92.7"/>
			<path id="Fill-43" class="st1" d="M45.3,103.7c-2.3-0.8-4.5-1.6-6.8-2.5c-0.8,2.3-1.6,4.5-2.5,6.8c-0.6,1.6-3.1,0.7-2.5-0.9
				c1-2.7,1.9-5.3,2.9-8c0.1-0.4,0.4-0.6,0.7-0.7l0,0c0.3-0.1,0.6-0.2,1,0c2.7,1,5.3,1.9,8,2.9C47.8,101.8,46.9,104.3,45.3,103.7"/>
			<path id="Fill-45" class="st1" d="M128.2,78.1c-1.8,1.6-3.6,3.2-5.4,4.8c1.6,1.8,3.2,3.6,4.8,5.4c1.1,1.3-0.8,3-2,1.8
				c-1.9-2.1-3.8-4.2-5.7-6.4c-0.3-0.3-0.4-0.6-0.3-0.9l0,0c0-0.3,0.1-0.6,0.4-0.9c2.1-1.9,4.2-3.8,6.4-5.7
				C127.7,75,129.5,77,128.2,78.1"/>
			<path id="Fill-47" class="st1" d="M135.3,96.5c1-2.2,2-4.3,3.1-6.5c-2.2-1-4.3-2-6.5-3.1c-1.5-0.7-0.4-3.1,1.1-2.4
				c2.6,1.2,5.1,2.4,7.7,3.6c0.4,0.2,0.6,0.4,0.7,0.7l0,0c0.1,0.3,0.1,0.6-0.1,1c-1.2,2.6-2.4,5.1-3.6,7.7
				C137,99.1,134.6,98,135.3,96.5"/>
			<path id="Fill-49" class="st1" d="M136.2,76.6c1.8-1.6,3.6-3.1,5.5-4.7c-1.6-1.8-3.1-3.6-4.7-5.5c-1.1-1.3,0.9-3,2-1.7
				c1.8,2.2,3.7,4.3,5.5,6.5c0.3,0.3,0.4,0.6,0.3,0.9l0,0c0,0.3-0.1,0.6-0.5,0.9c-2.2,1.8-4.3,3.7-6.5,5.5
				C136.7,79.7,134.9,77.7,136.2,76.6"/>
			<path id="Fill-51" class="st1" d="M161.5,70.1c-2.4-0.4-4.7-0.8-7.1-1.2c-0.4,2.4-0.8,4.7-1.2,7.1c-0.3,1.7-2.9,1.3-2.6-0.4
				c0.5-2.8,0.9-5.6,1.4-8.4c0.1-0.4,0.3-0.7,0.5-0.8l0,0c0.2-0.2,0.6-0.3,1-0.2c2.8,0.5,5.6,0.9,8.4,1.4
				C163.6,67.7,163.1,70.4,161.5,70.1"/>
			<path id="Fill-53" class="st1" d="M150.4,92.3c0.3-2.4,0.6-4.8,0.8-7.1c-2.4-0.3-4.8-0.6-7.1-0.8c-1.7-0.2-1.4-2.8,0.3-2.6
				c2.8,0.3,5.6,0.7,8.5,1c0.4,0,0.7,0.2,0.9,0.5l0,0c0.2,0.2,0.3,0.6,0.3,1c-0.3,2.8-0.7,5.6-1,8.5C152.8,94.3,150.2,94,150.4,92.3
				"/>
			<path id="Fill-55" class="st1" d="M171.1,68.8c2.1,1.1,4.3,2.2,6.4,3.3c1.1-2.1,2.2-4.3,3.3-6.4c0.8-1.5,3.1-0.3,2.4,1.2
				c-1.3,2.5-2.6,5.1-3.9,7.6c-0.2,0.4-0.5,0.6-0.8,0.7l0,0c-0.3,0.1-0.6,0.1-1-0.1c-2.5-1.3-5.1-2.6-7.6-3.9
				C168.4,70.4,169.6,68.1,171.1,68.8"/>
			<path id="Fill-57" class="st1" d="M171.3,81.4c-2.3-0.7-4.6-1.4-6.9-2.1c-0.7,2.3-1.4,4.6-2.1,6.9c-0.5,1.6-3,0.9-2.5-0.8
				c0.8-2.7,1.6-5.4,2.5-8.1c0.1-0.4,0.3-0.6,0.6-0.8l0,0c0.3-0.2,0.6-0.2,1-0.1c2.7,0.8,5.4,1.6,8.1,2.5
				C173.7,79.4,173,81.9,171.3,81.4"/>
			<path id="Fill-59" class="st1" d="M97.2,119.1c1.2,2.1,2.4,4.2,3.6,6.2c2.1-1.2,4.2-2.4,6.2-3.6c1.5-0.8,2.8,1.4,1.3,2.3
				c-2.5,1.4-4.9,2.8-7.4,4.2c-0.4,0.2-0.7,0.2-1,0.1l0,0c-0.3-0.1-0.6-0.3-0.8-0.6c-1.4-2.5-2.8-4.9-4.2-7.4
				C94.1,118.9,96.4,117.6,97.2,119.1"/>
			<path id="Fill-61" class="st1" d="M105,105c-1,2.2-1.9,4.4-2.9,6.6c2.2,1,4.4,1.9,6.6,2.9c1.6,0.7,0.5,3.1-1.1,2.4
				c-2.6-1.1-5.2-2.3-7.8-3.4c-0.4-0.2-0.6-0.4-0.7-0.7l0,0c-0.1-0.3-0.1-0.6,0-1c1.1-2.6,2.3-5.2,3.4-7.8
				C103.3,102.3,105.7,103.4,105,105"/>
			<path id="Fill-63" class="st1" d="M117.5,117.9c0.6-2.3,1.1-4.7,1.7-7c-2.3-0.5-4.7-1.1-7-1.6c-1.7-0.4-1.1-3,0.6-2.6
				c2.8,0.7,5.5,1.3,8.3,2c0.4,0.1,0.7,0.3,0.8,0.6l0,0c0.2,0.3,0.2,0.6,0.2,1c-0.7,2.8-1.3,5.5-2,8.3
				C119.7,120.2,117.1,119.6,117.5,117.9"/>
			<path id="Fill-65" class="st1" d="M99.4,94.7c2.3,0.5,4.7,1.1,7,1.6c0.5-2.3,1.1-4.7,1.6-7c0.4-1.7,3-1.1,2.6,0.6
				c-0.6,2.8-1.2,5.5-1.9,8.3c-0.1,0.4-0.3,0.7-0.6,0.8l0,0c-0.3,0.2-0.6,0.3-1,0.2c-2.8-0.6-5.5-1.2-8.3-1.9
				C97.2,96.9,97.8,94.3,99.4,94.7"/>
			<path id="Fill-67" class="st1" d="M93.7,91.3c-2.2-1-4.3-2.1-6.5-3.1c-1,2.2-2.1,4.3-3.1,6.5c-0.7,1.5-3.1,0.4-2.4-1.1
				c1.2-2.6,2.4-5.1,3.7-7.7c0.2-0.4,0.4-0.6,0.7-0.7l0,0c0.3-0.1,0.6-0.1,1,0.1c2.6,1.2,5.1,2.4,7.7,3.7
				C96.4,89.7,95.3,92.1,93.7,91.3"/>
			<path id="Fill-69" class="st1" d="M115,78.5c-2.4-0.3-4.8-0.6-7.1-0.9c-0.3,2.4-0.6,4.8-0.9,7.1c-0.2,1.7-2.8,1.3-2.6-0.3
				c0.4-2.8,0.7-5.6,1.1-8.4c0.1-0.4,0.2-0.7,0.5-0.9l0,0c0.2-0.2,0.6-0.3,1-0.3c2.8,0.4,5.6,0.7,8.4,1.1
				C117,76.1,116.7,78.7,115,78.5"/>
			<path id="Fill-71" class="st1" d="M88.5,78.1c2.4,0.1,4.8,0.2,7.2,0.2c0.1-2.4,0.2-4.8,0.2-7.2c0.1-1.7,2.7-1.6,2.6,0.1
				c-0.1,2.8-0.2,5.7-0.3,8.5c0,0.4-0.2,0.7-0.4,0.9l0,0c-0.2,0.2-0.5,0.4-0.9,0.3c-2.8-0.1-5.7-0.2-8.5-0.3
				C86.7,80.6,86.8,78,88.5,78.1"/>
			<path id="Fill-73" class="st1" d="M106.3,56.7c-1,2.2-2,4.4-3,6.6c2.2,1,4.4,2,6.6,3c1.6,0.7,0.5,3.1-1.1,2.4
				c-2.6-1.2-5.2-2.3-7.8-3.5c-0.4-0.2-0.6-0.4-0.7-0.7l0,0c-0.1-0.3-0.1-0.6,0-1c1.2-2.6,2.3-5.2,3.5-7.8
				C104.6,54.1,107,55.2,106.3,56.7"/>
			<path id="Fill-75" class="st1" d="M130.3,69.7c-2-1.3-4-2.7-6-4c-1.3,2-2.7,4-4,6c-0.9,1.4-3.1-0.1-2.2-1.5
				c1.6-2.4,3.1-4.7,4.7-7.1c0.2-0.3,0.5-0.5,0.8-0.6l0,0c0.3-0.1,0.6,0,1,0.2c2.4,1.6,4.7,3.1,7.1,4.7
				C133.2,68.5,131.7,70.7,130.3,69.7"/>
			<path id="Fill-77" class="st1" d="M119.2,92.2c0,2.4-0.1,4.8-0.1,7.2c2.4,0,4.8,0.1,7.2,0.1c1.7,0,1.7,2.7,0,2.6
				c-2.8,0-5.7-0.1-8.5-0.1c-0.4,0-0.7-0.2-0.9-0.4l0,0c-0.2-0.2-0.4-0.5-0.4-0.9c0-2.8,0.1-5.7,0.1-8.5
				C116.6,90.5,119.2,90.5,119.2,92.2"/>
			<path id="Fill-79" class="st1" d="M0,3.9c2.6-1.2,5.1-2.4,7.7-3.5C7.9,0.3,8.1,0.2,8.2,0h-6C1.5,0.3,0.7,0.7,0,1V3.9z"/>
			<path id="Fill-81" class="st1" d="M9.3,5.9L9.3,5.9c0,0.3,0.1,0.7,0.3,1c1.9,2.1,3.8,4.2,5.7,6.3c1.1,1.3,3.1-0.5,2-1.8
				c-1.6-1.8-3.2-3.5-4.8-5.3c1.8-1.6,3.5-3.2,5.3-4.8c0.4-0.4,0.5-0.8,0.4-1.2h-3c-1.8,1.7-3.7,3.3-5.5,5C9.4,5.3,9.3,5.6,9.3,5.9"
				/>
			<g id="Group-85" transform="translate(0.000000, 9.973000)">
				<g id="Clip-84">
				</g>
				<defs>
					<filter id="Adobe_OpacityMaskFilter" filterUnits="userSpaceOnUse" x="0" y="-1.3" width="9.4" height="9.9">
						<feColorMatrix  type="matrix" values="1 0 0 0 0  0 1 0 0 0  0 0 1 0 0  0 0 0 1 0"/>
					</filter>
				</defs>
				<mask maskUnits="userSpaceOnUse" x="0" y="-1.3" width="9.4" height="9.9" id="mask-2_1_">
					<g class="st2">
						<polygon id="path-1_1_" class="st3" points="0,-1.3 9.4,-1.3 9.4,8.6 0,8.6 						"/>
					</g>
				</mask>
				<path id="Fill-83" class="st4" d="M7,8C7.9,9.4,10.1,8,9.2,6.6c-1.5-2.4-3-4.8-4.5-7.2C4.5-1,4.2-1.2,3.9-1.3l0,0
					c-0.3-0.1-0.6,0-1,0.2C1.9-0.5,1,0.1,0,0.7v3.1c1.1-0.7,2.1-1.3,3.2-2C4.4,3.9,5.7,5.9,7,8"/>
			</g>
			<g id="Group-88" transform="translate(243.000000, 2.973000)">
				<g id="Clip-87">
				</g>
				<defs>
					<filter id="Adobe_OpacityMaskFilter_1_" filterUnits="userSpaceOnUse" x="0.1" y="-2" width="1.9" height="3">
						<feColorMatrix  type="matrix" values="1 0 0 0 0  0 1 0 0 0  0 0 1 0 0  0 0 0 1 0"/>
					</filter>
				</defs>
				<mask maskUnits="userSpaceOnUse" x="0.1" y="-2" width="1.9" height="3" id="mask-4_1_">
					<g class="st5">
						<polygon id="path-3_1_" class="st3" points="0.1,-2 2,-2 2,1.1 0.1,1.1 						"/>
					</g>
				</mask>
				<path id="Fill-86" class="st6" d="M2,1C2,1,2,1,2,1L2-2C1.6-1.8,1.2-1.6,0.9-1.5C-0.7-0.7,0.4,1.7,2,1"/>
			</g>
			<path id="Fill-89" class="st1" d="M242,15.6c1-0.6,2-1.2,2.9-1.8v-3.1c-1.4,0.9-2.9,1.8-4.3,2.7C239.2,14.2,240.6,16.5,242,15.6"
				/>
			<path id="Fill-91" class="st1" d="M221.3,17.2L221.3,17.2c-0.2,0.3-0.3,0.6-0.2,1c0.7,2.8,1.4,5.5,2.1,8.3c0.4,1.7,3,1,2.6-0.6
				c-0.6-2.3-1.2-4.7-1.8-7c2.3-0.6,4.6-1.2,7-1.8c1.7-0.4,1-3-0.6-2.6c-2.8,0.7-5.5,1.4-8.3,2.1C221.7,16.7,221.4,16.9,221.3,17.2"
				/>
			<path id="Fill-93" class="st1" d="M22.2,19.4c2.3-1.7,4.6-3.3,6.9-5c0.3-0.2,0.5-0.5,0.5-0.9l0,0c0.1-0.3,0-0.6-0.2-1
				c-1.7-2.3-3.3-4.6-5-6.9c-1-1.4-3.1,0.2-2.1,1.6c1.4,1.9,2.8,3.9,4.2,5.8c-1.9,1.4-3.9,2.8-5.8,4.2
				C19.3,18.3,20.8,20.5,22.2,19.4"/>
			<path id="Fill-95" class="st1" d="M31,7c2.3,1.6,4.7,3.2,7,4.8c0.3,0.2,0.7,0.3,1,0.2l0,0c0.3,0,0.6-0.2,0.8-0.6
				c1.6-2.4,3.2-4.7,4.8-7c1-1.4-1.2-2.9-2.2-1.5c-1.3,2-2.7,4-4,6c-2-1.3-4-2.7-6-4C31,3.8,29.5,6,31,7"/>
			<path id="Fill-97" class="st1" d="M41.7,23.4c-2.1-1.9-4.2-3.8-6.3-5.7c-0.3-0.3-0.6-0.4-0.9-0.3l0,0c-0.3,0-0.6,0.1-0.9,0.4
				c-1.9,2.1-3.8,4.2-5.7,6.3c-1.1,1.3,0.8,3,2,1.8c1.6-1.8,3.2-3.5,4.8-5.3c1.8,1.6,3.5,3.2,5.3,4.8C41.2,26.5,43,24.6,41.7,23.4"
				/>
			<path id="Fill-99" class="st1" d="M49.4,10.9c0.1,0.3,0.4,0.5,0.8,0.6c2.8,0.7,5.5,1.4,8.3,2.1c1.7,0.4,2.3-2.1,0.6-2.6
				c-2.3-0.6-4.6-1.2-7-1.8c0.6-2.3,1.2-4.6,1.8-7c0.4-1.7-2.1-2.3-2.6-0.6c-0.7,2.7-1.4,5.5-2.1,8.3C49.2,10.2,49.3,10.6,49.4,10.9
				L49.4,10.9z"/>
			<g id="Group-103" transform="translate(59.000000, 1.973000)">
				<g id="Clip-102">
				</g>
				<defs>
					<filter id="Adobe_OpacityMaskFilter_2_" filterUnits="userSpaceOnUse" x="0.5" y="-2" width="3.3" height="2.3">
						<feColorMatrix  type="matrix" values="1 0 0 0 0  0 1 0 0 0  0 0 1 0 0  0 0 0 1 0"/>
					</filter>
				</defs>
				<mask maskUnits="userSpaceOnUse" x="0.5" y="-2" width="3.3" height="2.3" id="mask-6_1_">
					<g class="st7">
						<polygon id="path-5_1_" class="st3" points="0.5,-2 3.7,-2 3.7,0.3 0.5,0.3 						"/>
					</g>
				</mask>
				<path id="Fill-101" class="st8" d="M3-0.4c0.2-0.5,0.5-1,0.7-1.5H0.8C0.7-1.8,0.7-1.7,0.6-1.6C-0.1,0,2.3,1.1,3-0.4"/>
			</g>
			<path id="Fill-104" class="st1" d="M63.2,8.3c2.2,1,4.4,1.9,6.6,2.9c-1,2.2-1.9,4.4-2.9,6.6c-0.7,1.6,1.7,2.6,2.4,1.1
				c1.2-2.6,2.3-5.2,3.5-7.8c0.2-0.4,0.2-0.7,0-1l0,0c-0.1-0.3-0.3-0.6-0.7-0.7c-2.6-1.2-5.2-2.3-7.8-3.5
				C62.7,5.2,61.6,7.6,63.2,8.3"/>
			<g id="Group-108" transform="translate(70.000000, 1.973000)">
				<g id="Clip-107">
				</g>
				<defs>
					<filter id="Adobe_OpacityMaskFilter_3_" filterUnits="userSpaceOnUse" x="0.9" y="-2" width="11.1" height="3.9">
						<feColorMatrix  type="matrix" values="1 0 0 0 0  0 1 0 0 0  0 0 1 0 0  0 0 0 1 0"/>
					</filter>
				</defs>
				<mask maskUnits="userSpaceOnUse" x="0.9" y="-2" width="11.1" height="3.9" id="mask-8_1_">
					<g class="st9">
						<polygon id="path-7_1_" class="st3" points="0.9,-2 12,-2 12,1.9 0.9,1.9 						"/>
					</g>
				</mask>
				<path id="Fill-106" class="st10" d="M1.2,1.2L1.2,1.2c0.2,0.3,0.5,0.4,0.9,0.4C5,1.7,7.8,1.8,10.7,1.9c1.7,0.1,1.8-2.6,0.1-2.6
					C8.4-0.8,6-0.9,3.6-1c0-0.3,0-0.7,0-1H0.9c0,0.7,0,1.5-0.1,2.2C0.9,0.7,1,1,1.2,1.2"/>
			</g>
			<path id="Fill-109" class="st1" d="M79.7,17.2c1-2.2,2-4.4,3-6.6c2.2,1,4.4,2,6.6,3c1.6,0.7,2.6-1.7,1.1-2.4
				c-2.6-1.2-5.2-2.3-7.8-3.5c-0.4-0.2-0.7-0.2-1,0l0,0c-0.3,0.1-0.6,0.3-0.7,0.7c-1.2,2.6-2.3,5.2-3.5,7.8
				C76.5,17.6,79,18.7,79.7,17.2"/>
			<path id="Fill-111" class="st1" d="M73.1,22.9c-1.4-1-3,1.1-1.6,2.1c2.3,1.7,4.5,3.4,6.8,5.1c0.3,0.2,0.7,0.3,1,0.3l0,0
				c0.3,0,0.6-0.2,0.9-0.5c1.7-2.3,3.4-4.5,5.1-6.8c1-1.4-1.1-3-2.1-1.6c-1.4,1.9-2.9,3.8-4.3,5.7C76.9,25.8,75,24.3,73.1,22.9"/>
			<path id="Fill-113" class="st1" d="M91.4,29.7c0.2,1.7,2.8,1.4,2.6-0.3c-0.3-2.4-0.6-4.8-0.9-7.1c2.4-0.3,4.8-0.6,7.1-0.9
				c1.7-0.2,1.4-2.8-0.3-2.6c-2.8,0.3-5.6,0.7-8.5,1c-0.4,0-0.7,0.2-0.9,0.5l0,0c-0.2,0.2-0.3,0.6-0.3,1
				C90.8,24.1,91.1,26.9,91.4,29.7"/>
			<path id="Fill-115" class="st1" d="M92.3,2.3c-0.4-0.8-0.7-1.5-1.1-2.3h-2.9c0.5,1.1,1.1,2.3,1.6,3.4C90.6,5,93,3.9,92.3,2.3"/>
			<path id="Fill-117" class="st1" d="M44.2,17c1.3,2.5,2.6,5,3.9,7.5c0.2,0.4,0.5,0.6,0.8,0.6l0,0c0.3,0.1,0.6,0.1,1-0.1
				c2.5-1.3,5-2.6,7.5-3.9c1.5-0.8,0.3-3.1-1.2-2.3c-2.1,1.1-4.2,2.2-6.4,3.3c-1.1-2.1-2.2-4.2-3.3-6.4C45.7,14.3,43.4,15.5,44.2,17
				"/>
			<path id="Fill-119" class="st1" d="M206.6,21.6c2.4,0.4,4.7,0.7,7.1,1.1c-0.4,2.4-0.7,4.7-1.1,7.1c-0.3,1.7,2.3,2.1,2.6,0.4
				c0.4-2.8,0.9-5.6,1.3-8.4c0.1-0.4,0-0.7-0.2-1l0,0c-0.2-0.3-0.5-0.5-0.9-0.5c-2.8-0.4-5.6-0.9-8.4-1.3
				C205.4,18.7,205,21.3,206.6,21.6"/>
			<path id="Fill-121" class="st1" d="M231.5,0.1c-0.1,0.3-0.1,0.6,0.1,1c1.3,2.5,2.6,5,4,7.5c0.8,1.5,3.1,0.3,2.3-1.2
				c-1.1-2.1-2.2-4.2-3.3-6.4c0.6-0.3,1.3-0.7,1.9-1L231.5,0.1C231.5,0,231.5,0,231.5,0.1L231.5,0.1z"/>
			<path id="Fill-123" class="st1" d="M222,0.2c0-0.1,0-0.1,0-0.2h-2.7c0.1,0.3,0.1,0.5,0.2,0.8C219.9,2.5,222.4,1.8,222,0.2"/>
			<path id="Fill-125" class="st1" d="M218,12.5c0.3,0.3,0.6,0.4,0.9,0.4h0c0.3,0,0.6-0.1,0.9-0.4c2-2,3.9-4.1,5.9-6.1
				c1.2-1.2-0.7-3.1-1.9-1.8c-1.7,1.7-3.3,3.5-5,5.2c-1.7-1.7-3.4-3.3-5.2-5c-1.2-1.2-3.1,0.7-1.8,1.9C213.9,8.5,216,10.5,218,12.5"
				/>
			<path id="Fill-127" class="st1" d="M193,30.5c1.4-2,2.7-3.9,4.1-5.9c2,1.4,3.9,2.7,5.9,4.1c1.4,1,2.9-1.2,1.5-2.2
				c-2.3-1.6-4.7-3.2-7-4.9c-0.3-0.2-0.7-0.3-1-0.2l0,0c-0.3,0-0.6,0.2-0.8,0.5c-1.6,2.3-3.2,4.7-4.9,7
				C189.9,30.4,192,31.9,193,30.5"/>
			<path id="Fill-129" class="st1" d="M195.2,13.8c2.8,0.5,5.6,0.9,8.4,1.4c0.4,0.1,0.7,0,1-0.2l0,0c0.3-0.2,0.5-0.5,0.5-0.9
				c0.5-2.8,0.9-5.6,1.4-8.4c0.3-1.7-2.3-2.1-2.6-0.4c-0.4,2.4-0.8,4.7-1.2,7.1c-2.4-0.4-4.7-0.8-7.1-1.2
				C193.9,10.9,193.5,13.5,195.2,13.8"/>
			<path id="Fill-131" class="st1" d="M180.1,44.6c-0.4,1.7,2.2,2.3,2.6,0.6c0.6-2.3,1.1-4.7,1.7-7c2.3,0.6,4.7,1.1,7,1.7
				c1.7,0.4,2.3-2.2,0.6-2.6c-2.8-0.7-5.5-1.3-8.3-2c-0.4-0.1-0.7,0-1,0.2l0,0c-0.3,0.2-0.5,0.4-0.6,0.8
				C181.4,39,180.7,41.8,180.1,44.6"/>
			<path id="Fill-133" class="st1" d="M182,13.6c0,0.3,0.2,0.6,0.5,0.9c2.2,1.7,4.5,3.5,6.7,5.2c1.3,1,3-1,1.6-2.1
				c-1.9-1.5-3.8-2.9-5.7-4.4c1.5-1.9,2.9-3.8,4.4-5.7c1-1.3-1-3-2.1-1.6c-1.7,2.2-3.5,4.5-5.2,6.7C182,12.9,182,13.3,182,13.6
				L182,13.6z"/>
			<path id="Fill-135" class="st1" d="M170.3,25.9c2.3,1.6,4.6,3.3,7,4.9c0.3,0.2,0.7,0.3,1,0.2l0,0c0.3,0,0.6-0.2,0.8-0.5
				c1.6-2.3,3.3-4.6,4.9-7c1-1.4-1.2-2.9-2.2-1.5c-1.4,2-2.8,3.9-4.1,5.9c-2-1.4-3.9-2.8-5.9-4.1C170.4,22.8,168.9,24.9,170.3,25.9"
				/>
			<path id="Fill-137" class="st1" d="M185.7,1.4c0.9-0.5,1.7-0.9,2.6-1.4h-4.5C183.7,0.9,184.6,1.9,185.7,1.4"/>
			<path id="Fill-139" class="st1" d="M197.7,3.2c-0.6-1.1-1.1-2.1-1.7-3.2h-3c0.8,1.5,1.5,2.9,2.3,4.4
				C196.2,5.9,198.5,4.7,197.7,3.2"/>
			<path id="Fill-141" class="st1" d="M175,49.7c-1.8-1.6-3.6-3.2-5.4-4.8c1.6-1.8,3.2-3.6,4.8-5.4c1.1-1.3-0.9-3-2-1.8
				c-1.9,2.1-3.7,4.3-5.6,6.4c-0.3,0.3-0.4,0.6-0.3,0.9l0,0c0,0.3,0.1,0.6,0.4,0.9c2.1,1.9,4.3,3.8,6.4,5.6
				C174.5,52.8,176.3,50.8,175,49.7"/>
			<path id="Fill-143" class="st1" d="M100.8,14.4c1.1,1.3,3.1-0.5,2-1.8c-1.6-1.8-3.2-3.5-4.8-5.3c1.8-1.6,3.5-3.2,5.3-4.8
				c1.3-1.1-0.5-3.1-1.8-2c-2.1,1.9-4.2,3.8-6.3,5.7c-0.3,0.3-0.4,0.6-0.4,0.9l0,0c0,0.3,0.1,0.6,0.3,0.9
				C97,10.2,98.9,12.3,100.8,14.4"/>
			<path id="Fill-145" class="st1" d="M108,21.9c2.3-1.7,4.6-3.3,6.9-5c0.3-0.2,0.5-0.5,0.5-0.9l0,0c0.1-0.3,0-0.6-0.2-1
				c-1.7-2.3-3.3-4.6-5-6.9c-1-1.4-3.1,0.2-2.1,1.6c1.4,1.9,2.8,3.9,4.2,5.8c-1.9,1.4-3.9,2.8-5.8,4.2
				C105.1,20.7,106.6,22.9,108,21.9"/>
			<path id="Fill-147" class="st1" d="M109.1,0.1c0.2,0.3,0.5,0.4,0.9,0.5c2.8,0.4,5.6,0.7,8.4,1.1c1.1,0.1,1.6-0.9,1.4-1.7
				L109.1,0.1C109.1,0,109.1,0,109.1,0.1L109.1,0.1z"/>
			<path id="Fill-149" class="st1" d="M117,8.9c2.3,1.6,4.7,3.2,7,4.8c0.3,0.2,0.7,0.3,1,0.2l0,0c0.3,0,0.6-0.2,0.8-0.6
				c1.6-2.3,3.2-4.7,4.8-7c1-1.4-1.2-2.9-2.2-1.5c-1.3,2-2.7,4-4,6c-2-1.3-4-2.7-6-4C117.1,5.7,115.6,7.9,117,8.9"/>
			<path id="Fill-151" class="st1" d="M122.4,19.8c-0.3-0.3-0.6-0.4-0.9-0.3l0,0c-0.3,0-0.6,0.1-0.9,0.4c-1.9,2.1-3.8,4.2-5.8,6.3
				c-1.2,1.3,0.8,3,1.9,1.8c1.6-1.8,3.2-3.5,4.9-5.3c1.8,1.6,3.5,3.2,5.3,4.9c1.3,1.2,3-0.8,1.8-1.9
				C126.5,23.7,124.5,21.7,122.4,19.8"/>
			<g id="Group-155" transform="translate(124.000000, 0.973000)">
				<g id="Clip-154">
				</g>
				<defs>
					<filter id="Adobe_OpacityMaskFilter_4_" filterUnits="userSpaceOnUse" x="0.7" y="-1" width="1.9" height="0.4">
						<feColorMatrix  type="matrix" values="1 0 0 0 0  0 1 0 0 0  0 0 1 0 0  0 0 0 1 0"/>
					</filter>
				</defs>
				<mask maskUnits="userSpaceOnUse" x="0.7" y="-1" width="1.9" height="0.4" id="mask-10_1_">
					<g class="st11">
						<polygon id="path-9_1_" class="st3" points="0.7,-1 2.6,-1 2.6,-0.3 0.7,-0.3 						"/>
					</g>
				</mask>
				<path id="Fill-153" class="st12" d="M2.6-1H0.7C1.2-0.5,2-0.4,2.6-1"/>
			</g>
			<path id="Fill-156" class="st1" d="M135.5,12.2c0.1,0.3,0.4,0.5,0.8,0.6c2.8,0.7,5.5,1.4,8.3,2.1c1.7,0.4,2.3-2.1,0.6-2.6
				c-2.3-0.6-4.6-1.2-7-1.8c0.6-2.3,1.2-4.6,1.8-7c0.4-1.7-2.1-2.3-2.6-0.6c-0.7,2.8-1.4,5.5-2.1,8.3
				C135.3,11.6,135.4,11.9,135.5,12.2L135.5,12.2z"/>
			<path id="Fill-158" class="st1" d="M148.1,3c0.5-1,1-2,1.4-3h-2.9c-0.3,0.6-0.6,1.3-0.9,1.9C145,3.4,147.4,4.6,148.1,3"/>
			<path id="Fill-160" class="st1" d="M148.7,9.5c2.2,1,4.4,1.9,6.6,2.9c-1,2.2-1.9,4.4-2.9,6.6c-0.7,1.6,1.7,2.6,2.4,1.1
				c1.2-2.6,2.3-5.2,3.5-7.8c0.2-0.4,0.2-0.7,0-1l0,0c-0.1-0.3-0.3-0.6-0.7-0.7c-2.6-1.2-5.2-2.3-7.8-3.5
				C148.2,6.4,147.1,8.8,148.7,9.5"/>
			<path id="Fill-162" class="st1" d="M157.2,5L157.2,5c0.2,0.3,0.5,0.4,0.9,0.4c2.8,0.1,5.7,0.2,8.5,0.3c1.7,0.1,1.8-2.6,0.1-2.6
				c-2.4-0.1-4.8-0.2-7.2-0.2c0-0.9,0.1-1.9,0.1-2.8H157c0,1.4-0.1,2.7-0.1,4.1C156.8,4.5,157,4.8,157.2,5"/>
			<path id="Fill-164" class="st1" d="M165.6,19.9c1-2.2,2-4.4,3-6.6c2.2,1,4.4,2,6.6,3c1.6,0.7,2.6-1.7,1.1-2.4
				c-2.6-1.2-5.2-2.3-7.8-3.5c-0.4-0.2-0.7-0.2-1,0l0,0c-0.3,0.1-0.6,0.3-0.7,0.7c-1.2,2.6-2.3,5.2-3.5,7.8
				C162.5,20.3,164.9,21.4,165.6,19.9"/>
			<path id="Fill-166" class="st1" d="M158.5,27.6c2,1.3,4,2.7,6,4c-1.3,2-2.7,4-4,6c-0.9,1.4,1.3,2.9,2.2,1.5
				c1.6-2.4,3.1-4.7,4.7-7.1c0.2-0.3,0.3-0.7,0.2-1l0,0c0-0.3-0.2-0.6-0.6-0.8c-2.4-1.6-4.7-3.1-7.1-4.7
				C158.6,24.5,157.1,26.7,158.5,27.6"/>
			<path id="Fill-168" class="st1" d="M178.3,4.4c-0.7-1.5-1.4-3-2.1-4.4h-2.9c0.9,1.9,1.7,3.7,2.6,5.6C176.6,7.1,179,6,178.3,4.4"
				/>
			<path id="Fill-170" class="st1" d="M8.4,244.6c0.1-0.3,0.1-0.6,0-1c-1.2-2.6-2.4-5.2-3.5-7.7c-0.7-1.6-3.1-0.5-2.4,1.1
				c1,2.2,2,4.4,3,6.5c-1.1,0.5-2.1,1-3.2,1.5h6C8.3,244.9,8.4,244.8,8.4,244.6L8.4,244.6z"/>
			<g id="Group-174" transform="translate(15.000000, 244.973000)">
				<g id="Clip-173">
				</g>
				<defs>
					<filter id="Adobe_OpacityMaskFilter_5_" filterUnits="userSpaceOnUse" x="0.2" y="-1.1" width="3" height="1.1">
						<feColorMatrix  type="matrix" values="1 0 0 0 0  0 1 0 0 0  0 0 1 0 0  0 0 0 1 0"/>
					</filter>
				</defs>
				<mask maskUnits="userSpaceOnUse" x="0.2" y="-1.1" width="3" height="1.1" id="mask-12_1_">
					<g class="st13">
						<polygon id="path-11_1_" class="st3" points="0.2,-1.1 3.2,-1.1 3.2,0 0.2,0 						"/>
					</g>
				</mask>
				<path id="Fill-172" class="st14" d="M1-0.7C0.8-0.5,0.5-0.2,0.2,0h3C3-0.9,1.9-1.5,1-0.7"/>
			</g>
			<path id="Fill-175" class="st1" d="M21.6,232.2c2,1.4,3.9,2.7,5.9,4.1c-1.4,2-2.7,3.9-4.1,5.9c-1,1.4,1.2,2.9,2.2,1.5
				c1.6-2.3,3.2-4.7,4.8-7c0.2-0.3,0.3-0.7,0.2-1l0,0c0-0.3-0.2-0.6-0.5-0.8c-2.3-1.6-4.7-3.2-7-4.8
				C21.7,229.1,20.2,231.2,21.6,232.2"/>
			<path id="Fill-177" class="st1" d="M17.3,236.1c-2.3-0.7-4.6-1.4-6.9-2.1c0.7-2.3,1.4-4.6,2.1-6.9c0.5-1.6-2-2.4-2.5-0.8
				c-0.8,2.7-1.7,5.4-2.5,8.1c-0.1,0.4-0.1,0.7,0.1,1l0,0c0.1,0.3,0.4,0.5,0.8,0.6c2.7,0.8,5.4,1.7,8.1,2.5
				C18.2,239.1,19,236.6,17.3,236.1"/>
			<path id="Fill-179" class="st1" d="M52.1,238.6c-2.3-1.6-4.7-3.2-7-4.9c-0.3-0.2-0.7-0.3-1-0.2l0,0c-0.3,0-0.6,0.2-0.8,0.5
				c-1.6,2.3-3.2,4.7-4.9,7c-1,1.4,1.2,2.9,2.2,1.5c1.4-2,2.7-3.9,4.1-5.9c2,1.4,3.9,2.7,5.9,4.1C52,241.8,53.5,239.6,52.1,238.6"/>
			<path id="Fill-181" class="st1" d="M65.7,237.8L65.7,237.8c-0.1-0.3-0.3-0.6-0.7-0.8c-2.6-1.2-5.1-2.4-7.7-3.7
				c-1.5-0.7-2.7,1.7-1.1,2.4c2.2,1,4.3,2.1,6.5,3.1c-1,2-1.9,4.1-2.9,6.1h2.9c1-2.1,2-4.1,2.9-6.1
				C65.8,238.5,65.8,238.1,65.7,237.8"/>
			<g id="Group-185" transform="translate(70.000000, 238.973000)">
				<g id="Clip-184">
				</g>
				<defs>
					<filter id="Adobe_OpacityMaskFilter_6_" filterUnits="userSpaceOnUse" x="0.9" y="-1.5" width="2.9" height="7.5">
						<feColorMatrix  type="matrix" values="1 0 0 0 0  0 1 0 0 0  0 0 1 0 0  0 0 0 1 0"/>
					</filter>
				</defs>
				<mask maskUnits="userSpaceOnUse" x="0.9" y="-1.5" width="2.9" height="7.5" id="mask-14_1_">
					<g class="st15">
						<polygon id="path-13_1_" class="st3" points="0.9,-1.5 3.8,-1.5 3.8,6 0.9,6 						"/>
					</g>
				</mask>
				<path id="Fill-183" class="st16" d="M1.2-0.3C1.1,1.8,1,3.9,0.9,6h2.6c0.1-2.1,0.1-4.1,0.2-6.2C3.9-1.9,1.2-2,1.2-0.3"/>
			</g>
			<path id="Fill-186" class="st1" d="M95.7,237.7c1.5-0.7,0.4-3.1-1.1-2.4c-2.6,1.2-5.1,2.4-7.7,3.6c-0.4,0.2-0.6,0.4-0.7,0.7l0,0
				c-0.1,0.3-0.1,0.6,0,1c0.7,1.4,1.3,2.8,2,4.3h2.9c-0.7-1.4-1.3-2.8-2-4.2C91.4,239.8,93.6,238.8,95.7,237.7"/>
			<path id="Fill-188" class="st1" d="M95.8,224.7c-1.7,1.7-3.4,3.4-5.1,5.1c-1.7-1.7-3.4-3.4-5.1-5.1c-1.2-1.2-3.1,0.7-1.9,1.9
				c2,2,4,4,6,6c0.3,0.3,0.6,0.4,0.9,0.4h0c0.3,0,0.6-0.1,0.9-0.4c2-2,4-4,6-6C98.8,225.3,97,223.5,95.8,224.7"/>
			<path id="Fill-190" class="st1" d="M77.8,227.9c-0.3-0.1-0.6-0.2-1,0c-2.7,1-5.3,2-8,3c-1.6,0.6-0.6,3.1,0.9,2.5
				c2.2-0.9,4.5-1.7,6.7-2.6c0.9,2.2,1.7,4.5,2.6,6.7c0.6,1.6,3.1,0.6,2.5-0.9c-1-2.6-2-5.3-3-7.9C78.3,228.2,78.1,228,77.8,227.9
				L77.8,227.9z"/>
			<g id="Group-194" transform="translate(231.000000, 241.973000)">
				<g id="Clip-193">
				</g>
				<defs>
					<filter id="Adobe_OpacityMaskFilter_7_" filterUnits="userSpaceOnUse" x="0.5" y="-1.9" width="10.1" height="4.9">
						<feColorMatrix  type="matrix" values="1 0 0 0 0  0 1 0 0 0  0 0 1 0 0  0 0 0 1 0"/>
					</filter>
				</defs>
				<mask maskUnits="userSpaceOnUse" x="0.5" y="-1.9" width="10.1" height="4.9" id="mask-16_1_">
					<g class="st17">
						<polygon id="path-15_1_" class="st3" points="0.5,-1.9 10.6,-1.9 10.6,3 0.5,3 						"/>
					</g>
				</mask>
				<path id="Fill-192" class="st18" d="M8.7-1.7c-2.5,1.3-5,2.6-7.5,4C0.8,2.4,0.6,2.7,0.5,3h4.9c1.5-0.8,3-1.6,4.5-2.4
					C11.4-0.2,10.2-2.5,8.7-1.7"/>
			</g>
			<g id="Group-197" transform="translate(217.000000, 234.973000)">
				<g id="Clip-196">
				</g>
				<defs>
					<filter id="Adobe_OpacityMaskFilter_8_" filterUnits="userSpaceOnUse" x="0.4" y="-1.1" width="10.9" height="11.1">
						<feColorMatrix  type="matrix" values="1 0 0 0 0  0 1 0 0 0  0 0 1 0 0  0 0 0 1 0"/>
					</filter>
				</defs>
				<mask maskUnits="userSpaceOnUse" x="0.4" y="-1.1" width="10.9" height="11.1" id="mask-18_1_">
					<g class="st19">
						<polygon id="path-17_1_" class="st3" points="0.4,-1.1 11.3,-1.1 11.3,10 0.4,10 						"/>
					</g>
				</mask>
				<path id="Fill-195" class="st20" d="M10.3,1.5c1.7-0.4,1-3-0.6-2.6C7-0.4,4.2,0.3,1.5,0.9C1.1,1,0.8,1.2,0.6,1.5l0,0
					c-0.2,0.3-0.2,0.6-0.2,1C1.1,5,1.7,7.5,2.3,10H5C4.4,7.7,3.9,5.5,3.4,3.2C5.7,2.6,8,2.1,10.3,1.5"/>
			</g>
			<g id="Group-200" transform="translate(183.000000, 240.973000)">
				<g id="Clip-199">
				</g>
				<defs>
					<filter id="Adobe_OpacityMaskFilter_9_" filterUnits="userSpaceOnUse" x="0.8" y="-1.1" width="12.3" height="5.1">
						<feColorMatrix  type="matrix" values="1 0 0 0 0  0 1 0 0 0  0 0 1 0 0  0 0 0 1 0"/>
					</filter>
				</defs>
				<mask maskUnits="userSpaceOnUse" x="0.8" y="-1.1" width="12.3" height="5.1" id="mask-20_1_">
					<g class="st21">
						<polygon id="path-19_1_" class="st3" points="0.8,-1.1 13.1,-1.1 13.1,4 0.8,4 						"/>
					</g>
				</mask>
				<path id="Fill-198" class="st22" d="M10-1L10-1C9.7-1.1,9.4-1.1,9-0.9C6.5,0.4,4,1.7,1.5,3C1,3.3,0.8,3.6,0.8,4h4.5
					c1.2-0.7,2.5-1.3,3.8-2c0.3,0.7,0.7,1.3,1,2h3c-0.8-1.5-1.5-2.9-2.3-4.4C10.6-0.7,10.3-0.9,10-1"/>
			</g>
			<path id="Fill-201" class="st1" d="M212,242.1c-2.4,0.1-4.8,0.1-7.2,0.2c-0.1-2.4-0.1-4.8-0.2-7.2c0-1.7-2.7-1.6-2.6,0.1
				c0.1,2.8,0.2,5.7,0.2,8.5c0,0.4,0.2,0.7,0.4,0.9l0,0c0.2,0.2,0.5,0.4,0.9,0.4c2.8-0.1,5.7-0.2,8.5-0.2
				C213.8,244.7,213.7,242.1,212,242.1"/>
			<g id="Group-205" transform="translate(108.000000, 235.973000)">
				<g id="Clip-204">
				</g>
				<defs>
					<filter id="Adobe_OpacityMaskFilter_10_" filterUnits="userSpaceOnUse" x="0.8" y="-1.5" width="11" height="10.5">
						<feColorMatrix  type="matrix" values="1 0 0 0 0  0 1 0 0 0  0 0 1 0 0  0 0 0 1 0"/>
					</filter>
				</defs>
				<mask maskUnits="userSpaceOnUse" x="0.8" y="-1.5" width="11" height="10.5" id="mask-22_1_">
					<g class="st23">
						<polygon id="path-21_1_" class="st3" points="0.8,-1.5 11.8,-1.5 11.8,9 0.8,9 						"/>
					</g>
				</mask>
				<path id="Fill-203" class="st24" d="M10.7,8C8.4,7.7,6,7.4,3.6,7.1C3.9,4.7,4.2,2.3,4.5,0c0.2-1.7-2.4-2-2.6-0.3
					C1.6,2.4,1.2,5.2,0.8,8.1C0.8,8.4,0.9,8.8,1,9h10.8C11.7,8.5,11.4,8.1,10.7,8"/>
			</g>
			<g id="Group-208" transform="translate(124.000000, 236.973000)">
				<g id="Clip-207">
				</g>
				<defs>
					<filter id="Adobe_OpacityMaskFilter_11_" filterUnits="userSpaceOnUse" x="0.3" y="-1.2" width="14.5" height="9.2">
						<feColorMatrix  type="matrix" values="1 0 0 0 0  0 1 0 0 0  0 0 1 0 0  0 0 0 1 0"/>
					</filter>
				</defs>
				<mask maskUnits="userSpaceOnUse" x="0.3" y="-1.2" width="14.5" height="9.2" id="mask-24_1_">
					<g class="st25">
						<polygon id="path-23_1_" class="st3" points="0.3,-1.2 14.8,-1.2 14.8,8 0.3,8 						"/>
					</g>
				</mask>
				<path id="Fill-206" class="st26" d="M6.8,1.9c2,1.4,3.9,2.7,5.9,4.1c1.4,1,2.9-1.2,1.5-2.2c-2.3-1.6-4.7-3.2-7-4.9
					c-0.3-0.2-0.7-0.3-1-0.2l0,0C5.9-1.1,5.6-1,5.4-0.6C3.8,1.7,2.2,4,0.5,6.3C0.1,7,0.3,7.6,0.7,8h1.9c0,0,0.1-0.1,0.1-0.1
					C4.1,5.9,5.5,3.9,6.8,1.9"/>
			</g>
			<g id="Group-211" transform="translate(141.000000, 235.973000)">
				<g id="Clip-210">
				</g>
				<defs>
					<filter id="Adobe_OpacityMaskFilter_12_" filterUnits="userSpaceOnUse" x="0.6" y="-1.2" width="10.3" height="10.2">
						<feColorMatrix  type="matrix" values="1 0 0 0 0  0 1 0 0 0  0 0 1 0 0  0 0 0 1 0"/>
					</filter>
				</defs>
				<mask maskUnits="userSpaceOnUse" x="0.6" y="-1.2" width="10.3" height="10.2" id="mask-26_1_">
					<g class="st27">
						<polygon id="path-25_1_" class="st3" points="0.6,-1.2 10.9,-1.2 10.9,9 0.6,9 						"/>
					</g>
				</mask>
				<path id="Fill-209" class="st28" d="M10.8,3.4L10.8,3.4c-0.1-0.3-0.3-0.6-0.7-0.8C7.6,1.4,5,0.1,2.4-1.1
					C0.9-1.8-0.2,0.6,1.3,1.3c2.2,1,4.3,2.1,6.5,3.1C7.1,5.9,6.3,7.5,5.6,9h2.9c0.7-1.5,1.5-3.1,2.2-4.6C10.9,4,10.9,3.6,10.8,3.4"
					/>
			</g>
			<g id="Group-214" transform="translate(156.000000, 240.973000)">
				<g id="Clip-213">
				</g>
				<defs>
					<filter id="Adobe_OpacityMaskFilter_13_" filterUnits="userSpaceOnUse" x="1" y="-1.7" width="2.8" height="5.7">
						<feColorMatrix  type="matrix" values="1 0 0 0 0  0 1 0 0 0  0 0 1 0 0  0 0 0 1 0"/>
					</filter>
				</defs>
				<mask maskUnits="userSpaceOnUse" x="1" y="-1.7" width="2.8" height="5.7" id="mask-28_1_">
					<g class="st29">
						<polygon id="path-27_1_" class="st3" points="1,-1.7 3.8,-1.7 3.8,4 1,4 						"/>
					</g>
				</mask>
				<path id="Fill-212" class="st30" d="M1.1-0.5C1.1,1,1,2.5,1,4h2.6c0-1.5,0.1-2.9,0.1-4.4C3.8-2.1,1.2-2.2,1.1-0.5"/>
			</g>
			<path id="Fill-215" class="st1" d="M181.8,239.9c1.5-0.7,0.4-3.1-1.1-2.4c-2.6,1.2-5.1,2.4-7.7,3.6c-0.4,0.2-0.6,0.4-0.7,0.7l0,0
				c-0.1,0.3-0.1,0.6,0,1c0.3,0.7,0.7,1.4,1,2.2h2.9c-0.3-0.7-0.6-1.4-1-2.1C177.5,241.9,179.6,240.9,181.8,239.9"/>
			<path id="Fill-217" class="st1" d="M131.6,20c1.3,2.5,2.6,5,3.9,7.5c0.2,0.4,0.5,0.6,0.8,0.6l0,0c0.3,0.1,0.6,0.1,1-0.1
				c2.5-1.3,5-2.6,7.5-3.9c1.5-0.8,0.3-3.1-1.2-2.3c-2.1,1.1-4.2,2.2-6.4,3.3c-1.1-2.1-2.2-4.2-3.3-6.4
				C133.1,17.3,130.8,18.5,131.6,20"/>
			<g id="Group-221" transform="translate(0.000000, 22.973000)">
				<g id="Clip-220">
				</g>
				<defs>
					<filter id="Adobe_OpacityMaskFilter_14_" filterUnits="userSpaceOnUse" x="0" y="-1.7" width="2.9" height="4.1">
						<feColorMatrix  type="matrix" values="1 0 0 0 0  0 1 0 0 0  0 0 1 0 0  0 0 0 1 0"/>
					</filter>
				</defs>
				<mask maskUnits="userSpaceOnUse" x="0" y="-1.7" width="2.9" height="4.1" id="mask-30_1_">
					<g class="st31">
						<polygon id="path-29_1_" class="st3" points="0,-1.7 2.9,-1.7 2.9,2.4 0,2.4 						"/>
					</g>
				</mask>
				<path id="Fill-219" class="st32" d="M0.8-1.4C0.5-1.2,0.3-1.1,0-0.9v3.3c0.8-0.6,1.6-1.1,2.3-1.7C3.7-0.3,2.2-2.4,0.8-1.4"/>
			</g>
			<path id="Fill-222" class="st1" d="M11.5,32.2c0.3-2.4,0.6-4.8,0.9-7.1c2.4,0.3,4.8,0.6,7.1,0.9c1.7,0.2,2-2.4,0.3-2.6
				c-2.8-0.4-5.6-0.7-8.4-1.1c-0.4-0.1-0.7,0.1-1,0.3l0,0C10.2,22.7,10,23,10,23.4c-0.4,2.8-0.7,5.6-1.1,8.4
				C8.6,33.5,11.3,33.9,11.5,32.2"/>
			<path id="Fill-224" class="st1" d="M6.5,41.7c-2-1.3-4-2.7-6-4c1.3-2,2.7-4,4-6c1-1.4-1.2-2.9-2.2-1.5c-0.8,1.2-1.6,2.4-2.4,3.6
				v6.6c1.7,1.1,3.4,2.3,5.1,3.4C6.5,44.9,8,42.7,6.5,41.7"/>
			<path id="Fill-226" class="st1" d="M14.9,51.5c1.6-2.3,3.2-4.7,4.9-7c0.2-0.3,0.3-0.7,0.2-1l0,0c0-0.3-0.2-0.6-0.5-0.8
				c-2.3-1.6-4.7-3.2-7-4.9c-1.4-1-2.9,1.2-1.5,2.2c2,1.4,3.9,2.7,5.9,4.1c-1.4,2-2.7,3.9-4.1,5.9C11.7,51.4,13.9,52.9,14.9,51.5"/>
			<path id="Fill-228" class="st1" d="M6.9,50.7C4.6,50.1,2.3,49.5,0,49v2.7c2.1,0.5,4.2,1.1,6.3,1.6C7.9,53.7,8.6,51.1,6.9,50.7"/>
			<path id="Fill-230" class="st1" d="M7,61.3c2.6,1.2,5.1,2.4,7.7,3.7c0.4,0.2,0.7,0.2,1,0.1l0,0c0.3-0.1,0.6-0.3,0.7-0.7
				c1.2-2.6,2.4-5.1,3.7-7.7c0.7-1.5-1.7-2.7-2.4-1.1c-1,2.2-2.1,4.3-3.1,6.5c-2.2-1-4.3-2.1-6.5-3.1C6.6,58.2,5.4,60.6,7,61.3"/>
			<path id="Fill-232" class="st1" d="M0.7,62.5c-0.2,0.6-0.5,1.1-0.7,1.7v6.5c1-2.4,2.1-4.7,3.2-7.1C3.8,62,1.4,61,0.7,62.5"/>
			<path id="Fill-234" class="st1" d="M7.3,80.1c0.1-2.4,0.2-4.8,0.2-7.2c2.4,0.1,4.8,0.2,7.2,0.2c1.7,0.1,1.8-2.6,0.1-2.6
				c-2.8-0.1-5.7-0.2-8.5-0.3c-0.4,0-0.7,0.1-0.9,0.3l0,0c-0.2,0.2-0.4,0.5-0.4,0.9c-0.1,2.8-0.2,5.7-0.3,8.5
				C4.6,81.7,7.2,81.8,7.3,80.1"/>
			<g id="Group-238" transform="translate(0.000000, 81.973000)">
				<g id="Clip-237">
				</g>
				<defs>
					<filter id="Adobe_OpacityMaskFilter_15_" filterUnits="userSpaceOnUse" x="0" y="-2" width="1" height="3.7">
						<feColorMatrix  type="matrix" values="1 0 0 0 0  0 1 0 0 0  0 0 1 0 0  0 0 0 1 0"/>
					</filter>
				</defs>
				<mask maskUnits="userSpaceOnUse" x="0" y="-2" width="1" height="3.7" id="mask-32_1_">
					<g class="st33">
						<polygon id="path-31_1_" class="st3" points="0,-2 1,-2 1,1.7 0,1.7 						"/>
					</g>
				</mask>
				<path id="Fill-236" class="st34" d="M0.9-1.1L0.9-1.1C0.8-1.5,0.6-1.7,0.2-1.9C0.1-1.9,0.1-2,0-2v3.7c0.3-0.6,0.6-1.3,0.9-1.9
					C1-0.5,1-0.9,0.9-1.1"/>
			</g>
			<path id="Fill-239" class="st1" d="M16.1,96.8c0.6,1.6,3.1,0.6,2.5-0.9c-1-2.6-2-5.3-3-7.9c-0.1-0.4-0.4-0.6-0.7-0.7l0,0
				c-0.3-0.1-0.6-0.2-1,0c-2.7,1-5.3,2-8,3c-1.6,0.6-0.6,3.1,0.9,2.5c2.2-0.9,4.5-1.7,6.7-2.6C14.4,92.3,15.3,94.6,16.1,96.8"/>
			<path id="Fill-241" class="st1" d="M18.6,101.8c-1.7-0.3-2.2,2.3-0.5,2.6c2.8,0.5,5.6,1.1,8.4,1.7c0.4,0.1,0.7,0,1-0.2l0,0
				c0.3-0.2,0.5-0.4,0.6-0.8c0.6-2.8,1.1-5.6,1.7-8.3c0.3-1.7-2.3-2.2-2.6-0.5c-0.5,2.4-0.9,4.7-1.4,7.1
				C23.3,102.8,21,102.3,18.6,101.8"/>
			<path id="Fill-243" class="st1" d="M33.5,83.7c-0.7-1.5-3.1-0.4-2.4,1.1c1.2,2.6,2.4,5.1,3.6,7.7c0.2,0.4,0.4,0.6,0.7,0.7l0,0
				c0.3,0.1,0.6,0.1,1-0.1c2.6-1.2,5.1-2.4,7.7-3.6c1.5-0.7,0.4-3.1-1.1-2.4c-2.2,1-4.3,2-6.5,3.1C35.5,88,34.5,85.8,33.5,83.7"/>
			<path id="Fill-245" class="st1" d="M63.2,83.3c1.2,1.2,3.1-0.6,1.9-1.8c-2-2.1-3.9-4.1-5.9-6.2c-0.3-0.3-0.6-0.4-0.9-0.4l0,0
				c-0.3,0-0.6,0.1-0.9,0.4c-2.1,2-4.1,3.9-6.2,5.9c-1.2,1.2,0.6,3.1,1.8,1.9c1.7-1.7,3.5-3.3,5.2-5C59.9,79.8,61.6,81.6,63.2,83.3"
				/>
			<path id="Fill-247" class="st1" d="M47.9,76.2c1.6,0.6,2.5-1.9,0.9-2.5c-2.7-1-5.3-1.9-8-2.9c-0.4-0.1-0.7-0.1-1,0l0,0
				c-0.3,0.1-0.5,0.4-0.7,0.7c-1,2.7-1.9,5.3-2.9,8c-0.6,1.6,1.9,2.5,2.5,0.9c0.8-2.3,1.6-4.5,2.4-6.8
				C43.4,74.5,45.7,75.3,47.9,76.2"/>
			<path id="Fill-249" class="st1" d="M83.7,186.8c2.4,0.4,4.7,0.9,7.1,1.3c0.4-2.4,0.9-4.7,1.3-7.1c0.3-1.7,2.9-1.2,2.6,0.5
				c-0.5,2.8-1,5.6-1.5,8.4c-0.1,0.4-0.3,0.7-0.5,0.8l0,0c-0.2,0.2-0.6,0.3-1,0.2c-2.8-0.5-5.6-1-8.4-1.5
				C81.6,189.1,82.1,186.5,83.7,186.8"/>
			<path id="Fill-251" class="st1" d="M97.6,178.2c-0.6-2.3-1.3-4.6-1.9-6.9c-2.3,0.6-4.6,1.3-6.9,1.9c-1.6,0.4-2.3-2.1-0.7-2.6
				c2.7-0.7,5.5-1.5,8.2-2.2c0.4-0.1,0.7,0,1,0.1l0,0c0.3,0.1,0.5,0.4,0.6,0.8c0.7,2.7,1.5,5.5,2.2,8.2
				C100.6,179.2,98.1,179.9,97.6,178.2"/>
			<path id="Fill-253" class="st1" d="M93.2,200.1c-2.4,0.3-4.8,0.5-7.2,0.8c0.3,2.4,0.5,4.8,0.8,7.1c0.2,1.7-2.5,2-2.6,0.3
				c-0.3-2.8-0.6-5.6-0.9-8.5c0-0.4,0.1-0.7,0.3-1l0,0c0.2-0.2,0.5-0.4,0.9-0.5c2.8-0.3,5.6-0.6,8.5-0.9
				C94.7,197.3,94.9,199.9,93.2,200.1"/>
			<path id="Fill-255" class="st1" d="M83.2,215.2c2.4,0.4,4.7,0.8,7.1,1.2c0.4-2.4,0.8-4.7,1.2-7.1c0.3-1.7,2.9-1.2,2.6,0.5
				c-0.5,2.8-1,5.6-1.5,8.4c-0.1,0.4-0.3,0.7-0.5,0.8l0,0c-0.2,0.2-0.6,0.3-1,0.2c-2.8-0.5-5.6-1-8.4-1.5
				C81.1,217.6,81.5,215,83.2,215.2"/>
			<path id="Fill-257" class="st1" d="M62.2,229.4c-1.9-1.4-3.8-2.9-5.7-4.3c-1.4,1.9-2.9,3.8-4.3,5.7c-1,1.4-3.1-0.2-2.1-1.6
				c1.7-2.3,3.4-4.5,5.1-6.8c0.2-0.3,0.5-0.5,0.9-0.5l0,0c0.3-0.1,0.6,0,1,0.3c2.3,1.7,4.5,3.4,6.8,5.1
				C65.1,228.3,63.5,230.4,62.2,229.4"/>
			<path id="Fill-259" class="st1" d="M36.1,233.7c0.3-2.4,0.6-4.8,0.9-7.1c-2.4-0.3-4.8-0.6-7.1-0.9c-1.7-0.2-1.4-2.8,0.3-2.6
				c2.8,0.4,5.6,0.7,8.4,1.1c0.4,0.1,0.7,0.2,0.9,0.5l0,0c0.2,0.2,0.3,0.6,0.3,1c-0.4,2.8-0.7,5.6-1.1,8.4
				C38.5,235.7,35.9,235.4,36.1,233.7"/>
			<path id="Fill-261" class="st1" d="M102.1,188.7c0.1,2.4,0.3,4.8,0.4,7.2c2.4-0.1,4.8-0.3,7.2-0.4c1.7-0.1,1.8,2.5,0.1,2.6
				c-2.8,0.2-5.7,0.3-8.5,0.5c-0.4,0-0.7-0.1-0.9-0.3l0,0c-0.2-0.2-0.4-0.5-0.4-0.9c-0.2-2.8-0.3-5.7-0.5-8.5
				C99.3,187.2,102,187,102.1,188.7"/>
			<path id="Fill-263" class="st1" d="M31.9,73.1c-2.3-0.5-4.7-1.1-7-1.6c0.5-2.3,1.1-4.7,1.6-7c0.4-1.7-2.2-2.3-2.6-0.6
				c-0.6,2.8-1.3,5.5-1.9,8.3c-0.1,0.4,0,0.7,0.2,1l0,0c0.2,0.3,0.4,0.5,0.8,0.6c2.8,0.6,5.5,1.3,8.3,1.9
				C33,76.1,33.6,73.5,31.9,73.1"/>
			<path id="Fill-265" class="st1" d="M15.2,82.1c2.4-0.1,4.8-0.3,7.2-0.4c0.1,2.4,0.3,4.8,0.4,7.2c0.1,1.7,2.7,1.5,2.6-0.2
				c-0.2-2.8-0.4-5.7-0.5-8.5c0-0.4-0.2-0.7-0.4-0.9l0,0c-0.2-0.2-0.5-0.3-0.9-0.3c-2.8,0.2-5.7,0.4-8.5,0.5
				C13.3,79.6,13.5,82.2,15.2,82.1"/>
			<path id="Fill-267" class="st1" d="M16.9,217c-0.1-0.4-0.3-0.7-0.6-0.8l0,0c-0.3-0.2-0.6-0.2-1-0.2c-2.8,0.7-5.5,1.3-8.3,2
				c-1.7,0.4-1,3,0.6,2.6c2.3-0.6,4.7-1.1,7-1.7c0.6,2.3,1.1,4.7,1.7,7c0.4,1.7,3,1,2.6-0.6C18.2,222.5,17.5,219.7,16.9,217"/>
			<g id="Group-271" transform="translate(0.000000, 222.973000)">
				<g id="Clip-270">
				</g>
				<defs>
					<filter id="Adobe_OpacityMaskFilter_16_" filterUnits="userSpaceOnUse" x="0" y="-1.8" width="3.7" height="5.5">
						<feColorMatrix  type="matrix" values="1 0 0 0 0  0 1 0 0 0  0 0 1 0 0  0 0 0 1 0"/>
					</filter>
				</defs>
				<mask maskUnits="userSpaceOnUse" x="0" y="-1.8" width="3.7" height="5.5" id="mask-34_1_">
					<g class="st35">
						<polygon id="path-33_1_" class="st3" points="0,-1.8 3.7,-1.8 3.7,3.7 0,3.7 						"/>
					</g>
				</mask>
				<path id="Fill-269" class="st36" d="M3.3,1.4C2.2,0.3,1.1-0.7,0-1.8v3.7c0.5,0.5,1,0.9,1.5,1.4C2.7,4.5,4.5,2.6,3.3,1.4"/>
			</g>
			<path id="Fill-272" class="st1" d="M1.2,212.3c-0.4,0.4-0.8,0.8-1.2,1.3v3.8c1-1.1,2.1-2.1,3.1-3.2C4.3,213,2.4,211.1,1.2,212.3"
				/>
			<g id="Group-276" transform="translate(0.000000, 203.973000)">
				<g id="Clip-275">
				</g>
				<defs>
					<filter id="Adobe_OpacityMaskFilter_17_" filterUnits="userSpaceOnUse" x="0" y="-1.3" width="4.3" height="3.2">
						<feColorMatrix  type="matrix" values="1 0 0 0 0  0 1 0 0 0  0 0 1 0 0  0 0 0 1 0"/>
					</filter>
				</defs>
				<mask maskUnits="userSpaceOnUse" x="0" y="-1.3" width="4.3" height="3.2" id="mask-36_1_">
					<g class="st37">
						<polygon id="path-35_1_" class="st3" points="0,-1.3 4.3,-1.3 4.3,1.9 0,1.9 						"/>
					</g>
				</mask>
				<path id="Fill-274" class="st38" d="M3.2-0.8C2.1-1,1.1-1.1,0-1.3v2.7c0.9,0.2,1.9,0.3,2.8,0.5C4.5,2.1,4.9-0.5,3.2-0.8"/>
			</g>
			<path id="Fill-277" class="st1" d="M2.6,186.8c-0.9-0.7-1.8-1.4-2.6-2v3.4c0.3,0.3,0.7,0.5,1,0.8C2.3,190,4,187.9,2.6,186.8"/>
			<path id="Fill-279" class="st1" d="M13.5,192.3L13.5,192.3c0.1-0.3,0.1-0.7-0.1-1c-1.3-2.5-2.6-5-4-7.5c-0.8-1.5-3.1-0.3-2.3,1.2
				c1.1,2.1,2.2,4.2,3.3,6.4c-2.1,1.1-4.2,2.2-6.4,3.3c-1.5,0.8-0.3,3.1,1.2,2.3c2.5-1.3,5-2.6,7.5-4
				C13.2,192.9,13.4,192.6,13.5,192.3"/>
			<path id="Fill-281" class="st1" d="M18.3,201c-2.8,0.1-5.7,0.1-8.5,0.2c-0.4,0-0.7,0.2-0.9,0.4l0,0c-0.2,0.2-0.4,0.5-0.4,0.9
				c0.1,2.8,0.2,5.7,0.2,8.5c0,1.7,2.7,1.6,2.6-0.1c-0.1-2.4-0.1-4.8-0.2-7.2c2.4-0.1,4.8-0.1,7.2-0.2C20.1,203.6,20,201,18.3,201"
				/>
			<g id="Group-285" transform="translate(0.000000, 95.973000)">
				<g id="Clip-284">
				</g>
				<defs>
					<filter id="Adobe_OpacityMaskFilter_18_" filterUnits="userSpaceOnUse" x="0" y="-1.9" width="8.3" height="8.9">
						<feColorMatrix  type="matrix" values="1 0 0 0 0  0 1 0 0 0  0 0 1 0 0  0 0 0 1 0"/>
					</filter>
				</defs>
				<mask maskUnits="userSpaceOnUse" x="0" y="-1.9" width="8.3" height="8.9" id="mask-38_1_">
					<g class="st39">
						<polygon id="path-37_1_" class="st3" points="0,-1.9 8.3,-1.9 8.3,7.1 0,7.1 						"/>
					</g>
				</mask>
				<path id="Fill-283" class="st40" d="M6,6.6c1.1,1.3,3.1-0.5,2-1.8C6.1,2.7,4.2,0.6,2.2-1.5C2-1.8,1.7-1.9,1.3-1.9l0,0
					C1-1.9,0.7-1.8,0.4-1.5C0.3-1.4,0.1-1.3,0-1.2v3.6C0.4,2,0.8,1.7,1.2,1.3C2.8,3.1,4.4,4.8,6,6.6"/>
			</g>
			<path id="Fill-286" class="st1" d="M0,107.4v3c0.3-0.2,0.6-0.4,0.9-0.6C2,108.9,1.1,107.3,0,107.4"/>
			<path id="Fill-288" class="st1" d="M9.5,118.8c0.3-2.4,0.6-4.8,0.9-7.1c2.4,0.3,4.8,0.6,7.1,0.9c1.7,0.2,2-2.4,0.3-2.6
				c-2.8-0.4-5.6-0.7-8.4-1.1c-0.4-0.1-0.7,0.1-1,0.3l0,0C8.2,109.3,8,109.6,8,110c-0.4,2.8-0.7,5.6-1.1,8.4
				C6.6,120.2,9.3,120.5,9.5,118.8"/>
			<path id="Fill-290" class="st1" d="M3.8,127.8c-1.3-0.9-2.5-1.7-3.8-2.6v3.2c0.8,0.5,1.5,1,2.3,1.5C3.7,131,5.2,128.8,3.8,127.8"
				/>
			<path id="Fill-292" class="st1" d="M0,116v4.6c0.6-0.9,1.2-1.8,1.8-2.7C2.7,116.6,1,115.3,0,116"/>
			<path id="Fill-294" class="st1" d="M12.6,137.6c1.6-2.3,3.2-4.7,4.9-7c0.2-0.3,0.3-0.7,0.2-1l0,0c0-0.3-0.2-0.6-0.5-0.8
				c-2.3-1.6-4.7-3.2-7-4.9c-1.4-1-2.9,1.2-1.5,2.2c2,1.4,3.9,2.7,5.9,4.1c-1.4,2-2.7,3.9-4.1,5.9C9.5,137.4,11.7,139,12.6,137.6"/>
			<g id="Group-298" transform="translate(0.000000, 136.973000)">
				<g id="Clip-297">
				</g>
				<defs>
					<filter id="Adobe_OpacityMaskFilter_19_" filterUnits="userSpaceOnUse" x="0" y="-1.6" width="6.5" height="4">
						<feColorMatrix  type="matrix" values="1 0 0 0 0  0 1 0 0 0  0 0 1 0 0  0 0 0 1 0"/>
					</filter>
				</defs>
				<mask maskUnits="userSpaceOnUse" x="0" y="-1.6" width="6.5" height="4" id="mask-40_1_">
					<g class="st41">
						<polygon id="path-39_1_" class="st3" points="0,-1.6 6.5,-1.6 6.5,2.4 0,2.4 						"/>
					</g>
				</mask>
				<path id="Fill-296" class="st42" d="M5.6-0.2C3.7-0.6,1.8-1.1,0-1.6v2.7C1.6,1.6,3.3,2,4.9,2.4C6.6,2.8,7.2,0.2,5.6-0.2"/>
			</g>
			<path id="Fill-299" class="st1" d="M5.5,147.4c2.6,1.2,5.1,2.4,7.7,3.7c0.4,0.2,0.7,0.2,1,0.1l0,0c0.3-0.1,0.6-0.3,0.7-0.7
				c1.2-2.6,2.4-5.1,3.7-7.7c0.7-1.5-1.7-2.7-2.4-1.1c-1,2.2-2.1,4.3-3.1,6.5c-2.2-1-4.3-2.1-6.5-3.1C5.1,144.3,3.9,146.7,5.5,147.4
				"/>
			<path id="Fill-301" class="st1" d="M0,147.2v5.1c0.5-1.1,1-2.2,1.4-3.3C1.9,148,0.9,147.1,0,147.2"/>
			<path id="Fill-303" class="st1" d="M5.5,166c0.1-2.4,0.2-4.8,0.2-7.2c2.4,0.1,4.8,0.2,7.2,0.2c1.7,0.1,1.8-2.6,0.1-2.6
				c-2.8-0.1-5.7-0.2-8.5-0.3c-0.4,0-0.7,0.1-0.9,0.3l0,0c-0.2,0.2-0.4,0.5-0.4,0.9c-0.1,2.8-0.2,5.7-0.3,8.5
				C2.8,167.6,5.4,167.7,5.5,166"/>
			<path id="Fill-305" class="st1" d="M4.1,177.6c2.2-1,4.3-2,6.5-3c1,2.2,2,4.3,3,6.5c0.7,1.5,3.1,0.4,2.4-1.1
				c-1.2-2.6-2.4-5.1-3.6-7.7c-0.2-0.4-0.4-0.6-0.7-0.7l0,0c-0.3-0.1-0.6-0.1-1,0c-2.6,1.2-5.1,2.4-7.7,3.6
				C1.4,176,2.5,178.4,4.1,177.6"/>
			<path id="Fill-307" class="st1" d="M47.3,114.3c-2.4,0.2-4.8,0.3-7.2,0.5c0.2,2.4,0.3,4.8,0.5,7.2c0.1,1.7-2.5,1.9-2.6,0.2
				c-0.2-2.8-0.4-5.7-0.6-8.5c0-0.4,0.1-0.7,0.3-0.9l0,0c0.2-0.2,0.5-0.4,0.9-0.4c2.8-0.2,5.7-0.4,8.5-0.6
				C48.8,111.5,49,114.2,47.3,114.3"/>
			<path id="Fill-309" class="st1" d="M18.4,118.8c2.4,0.4,4.7,0.9,7.1,1.3c0.4-2.4,0.9-4.7,1.3-7.1c0.3-1.7,2.9-1.2,2.6,0.5
				c-0.5,2.8-1,5.6-1.5,8.4c-0.1,0.4-0.3,0.7-0.5,0.8l0,0c-0.2,0.2-0.6,0.3-1,0.2c-2.8-0.5-5.6-1-8.4-1.5
				C16.2,121.1,16.7,118.5,18.4,118.8"/>
			<path id="Fill-311" class="st1" d="M61.7,164.9c-0.6,2.3-1.1,4.7-1.7,7c2.3,0.6,4.7,1.1,7,1.7c1.7,0.4,1.1,3-0.6,2.6
				c-2.8-0.7-5.5-1.3-8.3-2c-0.4-0.1-0.7-0.3-0.8-0.6l0,0c-0.2-0.3-0.2-0.6-0.2-1c0.7-2.8,1.3-5.5,2-8.3
				C59.6,162.6,62.1,163.2,61.7,164.9"/>
			<path id="Fill-313" class="st1" d="M42.1,152.7c-0.2,2.4-0.4,4.8-0.6,7.2c2.4,0.2,4.8,0.4,7.2,0.6c1.7,0.2,1.5,2.8-0.2,2.6
				c-2.8-0.3-5.7-0.5-8.5-0.8c-0.4,0-0.7-0.2-0.9-0.5l0,0c-0.2-0.2-0.3-0.6-0.3-1c0.3-2.8,0.5-5.7,0.8-8.5
				C39.6,150.8,42.2,151,42.1,152.7"/>
			<path id="Fill-315" class="st1" d="M81.9,170.2c-1.5,1.8-3.1,3.7-4.6,5.5c1.8,1.5,3.7,3.1,5.5,4.6c1.3,1.1-0.4,3.1-1.7,2
				c-2.2-1.8-4.4-3.6-6.5-5.5c-0.3-0.3-0.5-0.6-0.5-0.9l0,0c0-0.3,0-0.6,0.3-1c1.8-2.2,3.6-4.4,5.4-6.5
				C81,167.2,83,168.9,81.9,170.2"/>
			<path id="Fill-317" class="st1" d="M65,199.3c2.1,1.2,4.1,2.5,6.2,3.7c1.2-2.1,2.5-4.1,3.7-6.2c0.9-1.5,3.1-0.1,2.3,1.4
				c-1.5,2.4-2.9,4.9-4.4,7.3c-0.2,0.3-0.5,0.5-0.8,0.6l0,0c-0.3,0.1-0.6,0.1-1-0.2c-2.4-1.5-4.9-2.9-7.3-4.4
				C62.2,200.7,63.6,198.4,65,199.3"/>
			<path id="Fill-319" class="st1" d="M58.9,217.4c0.7-2.3,1.4-4.6,2.1-6.9c-2.3-0.7-4.6-1.4-6.9-2.1c-1.6-0.5-0.9-3,0.8-2.5
				c2.7,0.8,5.4,1.7,8.1,2.5c0.4,0.1,0.6,0.4,0.8,0.6l0,0c0.2,0.3,0.2,0.6,0.1,1c-0.8,2.7-1.7,5.4-2.5,8.1
				C60.9,219.8,58.4,219,58.9,217.4"/>
			<path id="Fill-321" class="st1" d="M31.9,203.6c2.1,1.2,4.1,2.4,6.2,3.6c1.2-2.1,2.4-4.1,3.6-6.2c0.9-1.5,3.1-0.1,2.3,1.3
				c-1.4,2.4-2.9,4.9-4.3,7.3c-0.2,0.4-0.5,0.5-0.8,0.6l0,0c-0.3,0.1-0.6,0.1-1-0.1c-2.4-1.4-4.9-2.9-7.3-4.3
				C29.1,205,30.4,202.7,31.9,203.6"/>
			<path id="Fill-323" class="st1" d="M25.6,218.7c0.1-2.4,0.3-4.8,0.4-7.2c-2.4-0.1-4.8-0.3-7.2-0.4c-1.7-0.1-1.5-2.7,0.2-2.6
				c2.8,0.2,5.7,0.3,8.5,0.5c0.4,0,0.7,0.2,0.9,0.4l0,0c0.2,0.2,0.3,0.5,0.3,0.9c-0.2,2.8-0.3,5.7-0.5,8.5
				C28.1,220.6,25.5,220.4,25.6,218.7"/>
			<path id="Fill-325" class="st1" d="M76.4,211.9c-1.7,1.7-3.5,3.3-5.2,5c1.7,1.7,3.3,3.4,5,5.2c1.2,1.2-0.7,3.1-1.9,1.8
				c-2-2-3.9-4.1-5.9-6.1c-0.3-0.3-0.4-0.6-0.4-0.9v0c0-0.3,0.1-0.6,0.4-0.9c2-2,4.1-3.9,6.1-5.9C75.7,208.8,77.6,210.7,76.4,211.9"
				/>
			<path id="Fill-327" class="st1" d="M49,212.9c-1.9,1.4-3.9,2.8-5.8,4.2c1.4,1.9,2.8,3.9,4.2,5.8c1,1.4-1.1,2.9-2.1,1.5
				c-1.7-2.3-3.3-4.6-5-6.9c-0.2-0.3-0.3-0.7-0.2-1l0,0c0-0.3,0.2-0.6,0.5-0.8c2.3-1.7,4.6-3.3,6.9-5
				C48.9,209.8,50.4,211.9,49,212.9"/>
			<path id="Fill-329" class="st1" d="M67.3,108.9c2.4,0.4,4.7,0.8,7.1,1.2c0.4-2.4,0.8-4.7,1.2-7.1c0.3-1.7,2.9-1.2,2.6,0.5
				c-0.5,2.8-1,5.6-1.5,8.4c-0.1,0.4-0.3,0.7-0.5,0.8l0,0c-0.2,0.2-0.6,0.3-1,0.2c-2.8-0.5-5.6-1-8.4-1.5
				C65.2,111.2,65.6,108.6,67.3,108.9"/>
			<path id="Fill-331" class="st1" d="M84.4,115.5c-0.5,2.3-1,4.7-1.6,7c2.3,0.5,4.7,1,7,1.6c1.7,0.4,1.1,3-0.6,2.6
				c-2.8-0.6-5.5-1.2-8.3-1.9c-0.4-0.1-0.7-0.3-0.8-0.6l0,0c-0.2-0.3-0.3-0.6-0.2-1c0.6-2.8,1.2-5.5,1.9-8.3
				C82.2,113.3,84.7,113.9,84.4,115.5"/>
			<path id="Fill-333" class="st1" d="M91.4,99.5c-1.4,2-2.7,3.9-4.1,5.9c2,1.4,3.9,2.7,5.9,4.1c1.4,1-0.1,3.1-1.5,2.2
				c-2.3-1.6-4.7-3.2-7-4.9c-0.3-0.2-0.5-0.5-0.5-0.8l0,0c-0.1-0.3,0-0.6,0.2-1c1.6-2.3,3.2-4.7,4.9-7
				C90.2,96.6,92.4,98.1,91.4,99.5"/>
			<path id="Fill-335" class="st1" d="M102.7,150.3c-1.6-1.8-3.3-3.5-4.9-5.2c-1.7,1.6-3.5,3.3-5.2,4.9c-1.2,1.2-3.1-0.8-1.8-1.9
				c2.1-1.9,4.1-3.9,6.2-5.8c0.3-0.3,0.6-0.4,0.9-0.4l0,0c0.3,0,0.6,0.1,0.9,0.4c1.9,2.1,3.9,4.1,5.8,6.2
				C105.8,149.7,103.9,151.6,102.7,150.3"/>
			<path id="Fill-337" class="st1" d="M94.6,162.9c-1.7-1.7-3.4-3.4-5.1-5.1c-1.7,1.7-3.4,3.4-5.1,5.1c-1.2,1.2-3.1-0.7-1.9-1.9
				c2-2,4-4,6-6c0.3-0.3,0.6-0.4,0.9-0.4h0c0.3,0,0.6,0.1,0.9,0.4c2,2,4,4,6,6C97.7,162.2,95.9,164.1,94.6,162.9"/>
			<path id="Fill-339" class="st1" d="M84,133.7c-1.4-1-3,1.1-1.6,2.1c2.3,1.7,4.5,3.4,6.8,5.1c0.3,0.2,0.7,0.3,1,0.3l0,0
				c0.3,0,0.6-0.2,0.9-0.5c1.7-2.3,3.4-4.5,5.1-6.8c1-1.4-1.1-3-2.1-1.6c-1.4,1.9-2.9,3.8-4.3,5.7C87.9,136.6,85.9,135.2,84,133.7"
				/>
			<path id="Fill-341" class="st1" d="M61.4,105.5c-2.1,1.1-4.3,2.2-6.4,3.3c1.1,2.1,2.2,4.3,3.3,6.4c0.8,1.5-1.6,2.7-2.4,1.2
				c-1.3-2.5-2.6-5.1-3.9-7.6c-0.2-0.4-0.2-0.7-0.1-1l0,0c0.1-0.3,0.3-0.6,0.7-0.8c2.5-1.3,5.1-2.6,7.6-3.9
				C61.7,102.4,62.9,104.8,61.4,105.5"/>
			<path id="Fill-343" class="st1" d="M72.8,124.1c-2-1.3-4.1-2.6-6.1-3.8c-1.3,2-2.6,4.1-3.8,6.1c-0.9,1.4-3.1,0-2.2-1.4
				c1.5-2.4,3-4.8,4.5-7.2c0.2-0.3,0.5-0.5,0.8-0.6l0,0c0.3-0.1,0.6,0,1,0.2c2.4,1.5,4.8,3,7.2,4.5C75.7,122.7,74.3,125,72.8,124.1"
				/>
			<path id="Fill-345" class="st1" d="M60.5,143.1c-1.9-1.4-3.8-2.9-5.8-4.3c-1.4,1.9-2.9,3.8-4.3,5.8c-1,1.4-3.1-0.2-2.1-1.6
				c1.7-2.3,3.4-4.6,5.1-6.8c0.2-0.3,0.5-0.5,0.9-0.5l0,0c0.3-0.1,0.6,0,1,0.2c2.3,1.7,4.6,3.4,6.8,5.1
				C63.5,142,61.9,144.2,60.5,143.1"/>
			<path id="Fill-347" class="st1" d="M75.8,138.8c-1.2-2.1-2.5-4.1-3.7-6.2c-2.1,1.2-4.1,2.5-6.2,3.7c-1.5,0.9-2.8-1.4-1.4-2.3
				c2.4-1.5,4.9-2.9,7.3-4.4c0.3-0.2,0.7-0.2,1-0.2l0,0c0.3,0.1,0.6,0.3,0.8,0.6c1.5,2.4,2.9,4.9,4.4,7.3
				C78.9,138.9,76.7,140.3,75.8,138.8"/>
			<path id="Fill-349" class="st1" d="M68.9,167c1.8-1.6,3.5-3.3,5.3-4.9c-1.6-1.8-3.3-3.5-4.9-5.3c-1.2-1.2,0.8-3.1,1.9-1.8
				c1.9,2.1,3.9,4.2,5.8,6.2c0.3,0.3,0.4,0.6,0.4,0.9v0c0,0.3-0.1,0.6-0.4,0.9c-2.1,1.9-4.2,3.9-6.2,5.8
				C69.5,170.1,67.7,168.2,68.9,167"/>
			<path id="Fill-351" class="st1" d="M50.8,150.5c1.9,1.5,3.7,3,5.6,4.5c1.5-1.9,3-3.7,4.5-5.6c1.1-1.3,3.1,0.3,2.1,1.7
				c-1.8,2.2-3.6,4.4-5.3,6.6c-0.3,0.3-0.6,0.5-0.9,0.5l0,0c-0.3,0-0.6,0-1-0.3c-2.2-1.8-4.4-3.6-6.6-5.3
				C47.8,151.5,49.5,149.5,50.8,150.5"/>
			<path id="Fill-353" class="st1" d="M79,154.6c-0.5-2.4-0.9-4.7-1.4-7.1c-2.4,0.5-4.7,0.9-7.1,1.4c-1.7,0.3-2.2-2.3-0.5-2.6
				c2.8-0.5,5.6-1.1,8.4-1.6c0.4-0.1,0.7,0,1,0.2l0,0c0.3,0.2,0.5,0.4,0.5,0.8c0.5,2.8,1.1,5.6,1.6,8.4
				C81.9,155.8,79.3,156.3,79,154.6"/>
			<path id="Fill-355" class="st1" d="M44.7,131.2c2.8-0.2,5.7-0.5,8.5-0.7c0.4,0,0.7-0.2,0.9-0.5l0,0c0.2-0.2,0.3-0.5,0.3-1
				c-0.2-2.8-0.5-5.7-0.7-8.5c-0.1-1.7-2.8-1.5-2.6,0.2c0.2,2.4,0.4,4.8,0.6,7.2c-2.4,0.2-4.8,0.4-7.2,0.6
				C42.7,128.7,43,131.3,44.7,131.2"/>
			<path id="Fill-357" class="st1" d="M32,146.7c2.8-0.3,5.6-0.6,8.5-0.9c0.4,0,0.7-0.2,0.9-0.5l0,0c0.2-0.2,0.3-0.6,0.3-1
				c-0.3-2.8-0.6-5.6-0.9-8.5c-0.2-1.7-2.8-1.4-2.6,0.3c0.3,2.4,0.5,4.8,0.8,7.2c-2.4,0.2-4.8,0.5-7.2,0.8
				C30,144.2,30.3,146.9,32,146.7"/>
			<path id="Fill-359" class="st1" d="M23,147.7c-0.1,2.8-0.3,5.7-0.4,8.5c0,0.4,0.1,0.7,0.3,0.9l0,0c0.2,0.2,0.5,0.4,0.9,0.4
				c2.8,0.1,5.7,0.3,8.5,0.4c1.7,0.1,1.8-2.6,0.1-2.6c-2.4-0.1-4.8-0.2-7.2-0.4c0.1-2.4,0.2-4.8,0.4-7.2
				C25.8,146.1,23.1,146,23,147.7"/>
			<path id="Fill-361" class="st1" d="M34.4,130.1c-2.8-0.4-5.6-0.8-8.4-1.2c-0.4-0.1-0.7,0-1,0.2l0,0c-0.3,0.2-0.4,0.5-0.5,0.9
				c-0.4,2.8-0.8,5.6-1.2,8.4c-0.2,1.7,2.4,2.1,2.6,0.4c0.3-2.4,0.7-4.7,1-7.1c2.4,0.3,4.7,0.7,7.1,1
				C35.7,132.9,36.1,130.3,34.4,130.1"/>
			<path id="Fill-363" class="st1" d="M47.7,193.5c-1.1-1.3-3.1,0.5-2,1.8c1.9,2.1,3.8,4.2,5.7,6.3c0.3,0.3,0.6,0.4,0.9,0.4l0,0
				c0.3,0,0.6-0.1,0.9-0.3c2.1-1.9,4.2-3.8,6.3-5.7c1.3-1.1-0.5-3.1-1.8-2c-1.8,1.6-3.6,3.2-5.3,4.8
				C50.9,197.1,49.3,195.3,47.7,193.5"/>
			<path id="Fill-365" class="st1" d="M75.2,191c1.2,1.2,3.1-0.6,1.9-1.8c-2-2.1-3.9-4.1-5.9-6.2c-0.3-0.3-0.6-0.4-0.9-0.4l0,0
				c-0.3,0-0.6,0.1-0.9,0.4c-2.1,2-4.1,3.9-6.2,5.9c-1.2,1.2,0.6,3.1,1.8,1.9c1.7-1.7,3.5-3.3,5.2-5C71.9,187.5,73.6,189.2,75.2,191
				"/>
			<path id="Fill-367" class="st1" d="M59.5,184.7c1.6,0.6,2.5-1.9,0.9-2.5c-2.7-1-5.3-1.9-8-2.9c-0.4-0.1-0.7-0.1-1,0l0,0
				c-0.3,0.1-0.5,0.4-0.7,0.7c-1,2.7-1.9,5.3-2.9,8c-0.6,1.6,1.9,2.5,2.5,0.9c0.8-2.3,1.6-4.5,2.4-6.8
				C55,183.1,57.2,183.9,59.5,184.7"/>
			<path id="Fill-369" class="st1" d="M40.3,169c-1.2-1.2-3.1,0.7-1.9,1.9c2,2,4,4,6.1,6c0.3,0.3,0.6,0.4,0.9,0.4h0
				c0.3,0,0.6-0.1,0.9-0.4c2-2,4-4,6-6.1c1.2-1.2-0.7-3.1-1.9-1.9c-1.7,1.7-3.4,3.4-5,5.1C43.7,172.4,42,170.7,40.3,169"/>
			<path id="Fill-371" class="st1" d="M24.9,178.7c-1.6,0.5-0.9,3,0.7,2.5c2.7-0.8,5.4-1.6,8.2-2.4c0.4-0.1,0.6-0.3,0.8-0.6l0,0
				c0.2-0.3,0.2-0.6,0.1-1c-0.8-2.7-1.6-5.4-2.4-8.2c-0.5-1.6-3-0.9-2.5,0.7c0.7,2.3,1.4,4.6,2,6.9C29.5,177.3,27.2,178,24.9,178.7"
				/>
			<path id="Fill-373" class="st1" d="M43.1,185.5c1.6-0.5,0.8-3-0.8-2.5c-2.7,0.9-5.4,1.8-8.1,2.7c-0.4,0.1-0.6,0.4-0.8,0.7l0,0
				c-0.2,0.3-0.2,0.6-0.1,1c0.9,2.7,1.8,5.4,2.7,8.1c0.5,1.6,3,0.8,2.5-0.8c-0.8-2.3-1.5-4.6-2.3-6.8
				C38.6,187,40.9,186.3,43.1,185.5"/>
			<path id="Fill-375" class="st1" d="M23.4,187.1c0.4-1.7-2.2-2.2-2.6-0.6c-0.6,2.8-1.2,5.5-1.8,8.3c-0.1,0.4,0,0.7,0.2,1l0,0
				c0.2,0.3,0.4,0.5,0.8,0.6c2.8,0.6,5.5,1.2,8.3,1.8c1.7,0.4,2.2-2.2,0.6-2.6c-2.3-0.5-4.7-1-7-1.5
				C22.4,191.8,22.9,189.4,23.4,187.1"/>
			<path id="Fill-377" class="st1" d="M24.4,162.9c-1.3,2-2.7,4-4,6c-2-1.3-4-2.7-6-4c-1.4-1-2.9,1.2-1.5,2.2
				c2.3,1.6,4.7,3.2,7.1,4.8c0.3,0.2,0.7,0.3,1,0.2l0,0c0.3,0,0.6-0.2,0.8-0.6c1.6-2.3,3.2-4.7,4.8-7
				C27.6,163,25.4,161.5,24.4,162.9"/>
			<path id="Fill-379" class="st1" d="M159.4,111.8c-1.7,1.7-3.4,3.4-5.1,5.1c1.7,1.7,3.4,3.4,5.1,5.1c1.2,1.2-0.7,3.1-1.9,1.9
				c-2-2-4-4-6-6c-0.3-0.3-0.4-0.6-0.4-0.9l0,0c0-0.3,0.1-0.6,0.4-0.9c2-2,4-4,6-6C158.7,108.7,160.6,110.6,159.4,111.8"/>
			<path id="Fill-381" class="st1" d="M143.7,119.8c-2.4,0.2-4.8,0.3-7.2,0.5c0.2,2.4,0.3,4.8,0.5,7.2c0.1,1.7-2.5,1.9-2.6,0.2
				c-0.2-2.8-0.4-5.7-0.6-8.5c0-0.4,0.1-0.7,0.3-0.9l0,0c0.2-0.2,0.5-0.4,0.9-0.4c2.8-0.2,5.7-0.4,8.5-0.6
				C145.2,117,145.4,119.6,143.7,119.8"/>
			<path id="Fill-383" class="st1" d="M128.5,109.5c2.4,0.2,4.8,0.5,7.2,0.7c0.2-2.4,0.5-4.8,0.7-7.2c0.2-1.7,2.8-1.4,2.6,0.3
				c-0.3,2.8-0.6,5.6-0.9,8.5c0,0.4-0.2,0.7-0.5,0.9l0,0c-0.2,0.2-0.6,0.3-1,0.3c-2.8-0.3-5.6-0.6-8.5-0.9
				C126.5,112,126.8,109.3,128.5,109.5"/>
			<path id="Fill-385" class="st1" d="M116.5,126.1c2.4,0.4,4.7,0.9,7.1,1.3c0.4-2.4,0.9-4.7,1.3-7.1c0.3-1.7,2.9-1.2,2.6,0.5
				c-0.5,2.8-1,5.6-1.5,8.4c-0.1,0.4-0.3,0.7-0.5,0.8l0,0c-0.2,0.2-0.6,0.3-1,0.2c-2.8-0.5-5.6-1-8.4-1.5
				C114.4,128.4,114.9,125.8,116.5,126.1"/>
			<path id="Fill-387" class="st1" d="M171.6,132.6c-2-1.3-4.1-2.6-6.1-3.8c-1.3,2-2.6,4.1-3.8,6.1c-0.9,1.4-3.1,0-2.2-1.4
				c1.5-2.4,3-4.8,4.5-7.2c0.2-0.3,0.5-0.5,0.8-0.6l0,0c0.3-0.1,0.6,0,1,0.2c2.4,1.5,4.8,3,7.2,4.5
				C174.4,131.3,173,133.6,171.6,132.6"/>
			<path id="Fill-389" class="st1" d="M158.4,146.4c-1.9-1.4-3.8-2.9-5.8-4.3c-1.4,1.9-2.9,3.8-4.3,5.8c-1,1.4-3.1-0.2-2.1-1.6
				c1.7-2.3,3.4-4.6,5.1-6.8c0.2-0.3,0.5-0.5,0.9-0.5l0,0c0.3-0.1,0.6,0,1,0.2c2.3,1.7,4.6,3.4,6.8,5.1
				C161.3,145.3,159.8,147.4,158.4,146.4"/>
			<path id="Fill-391" class="st1" d="M176.1,146.2c-1.2-2.1-2.5-4.1-3.7-6.2c-2.1,1.2-4.1,2.5-6.2,3.7c-1.5,0.9-2.8-1.4-1.4-2.3
				c2.4-1.5,4.9-2.9,7.3-4.4c0.3-0.2,0.7-0.2,1-0.2l0,0c0.3,0.1,0.6,0.3,0.8,0.6c1.5,2.4,2.9,4.9,4.4,7.3
				C179.2,146.3,177,147.7,176.1,146.2"/>
			<path id="Fill-393" class="st1" d="M139.9,157.4c-0.2,2.4-0.4,4.8-0.6,7.2c2.4,0.2,4.8,0.4,7.2,0.6c1.7,0.2,1.5,2.8-0.2,2.6
				c-2.8-0.3-5.7-0.5-8.5-0.8c-0.4,0-0.7-0.2-0.9-0.5l0,0c-0.2-0.2-0.3-0.6-0.3-1c0.3-2.8,0.5-5.7,0.8-8.5
				C137.4,155.5,140.1,155.7,139.9,157.4"/>
			<path id="Fill-395" class="st1" d="M148.1,153.9c1.9,1.5,3.7,3,5.6,4.5c1.5-1.9,3-3.7,4.5-5.6c1.1-1.3,3.1,0.3,2.1,1.7
				c-1.8,2.2-3.6,4.4-5.3,6.6c-0.3,0.3-0.6,0.5-0.9,0.5l0,0c-0.3,0-0.6,0-1-0.3c-2.2-1.8-4.4-3.6-6.6-5.3
				C145.1,154.9,146.7,152.8,148.1,153.9"/>
			<path id="Fill-397" class="st1" d="M170,150.3c1.6,1.8,3.2,3.5,4.8,5.3c1.8-1.6,3.5-3.2,5.3-4.8c1.3-1.1,3,0.8,1.8,2
				c-2.1,1.9-4.2,3.8-6.3,5.7c-0.3,0.3-0.6,0.4-0.9,0.3l0,0c-0.3,0-0.6-0.1-0.9-0.4c-1.9-2.1-3.8-4.2-5.7-6.3
				C166.9,150.8,168.9,149,170,150.3"/>
			<path id="Fill-399" class="st1" d="M171.9,218c-1.8,1.6-3.5,3.3-5.3,4.9c1.6,1.8,3.3,3.5,4.9,5.2c1.2,1.2-0.8,3.1-1.9,1.8
				c-1.9-2.1-3.9-4.1-5.8-6.2c-0.3-0.3-0.4-0.6-0.4-0.9l0,0c0-0.3,0.1-0.6,0.4-0.9c2.1-1.9,4.1-3.9,6.2-5.8
				C171.3,214.9,173.1,216.8,171.9,218"/>
			<path id="Fill-401" class="st1" d="M177,231.3c2.1-1.1,4.3-2.2,6.4-3.3c-1.1-2.1-2.2-4.3-3.3-6.4c-0.8-1.5,1.6-2.7,2.4-1.2
				c1.3,2.5,2.6,5.1,3.9,7.6c0.2,0.4,0.2,0.7,0.1,1l0,0c-0.1,0.3-0.3,0.6-0.7,0.8c-2.5,1.3-5.1,2.6-7.6,3.9
				C176.7,234.4,175.5,232,177,231.3"/>
			<path id="Fill-403" class="st1" d="M200.7,227.2c-2.4,0.2-4.8,0.3-7.2,0.5c0.2,2.4,0.3,4.8,0.5,7.2c0.1,1.7-2.5,1.9-2.6,0.2
				c-0.2-2.8-0.4-5.7-0.6-8.5c0-0.4,0.1-0.7,0.3-0.9l0,0c0.2-0.2,0.5-0.4,0.9-0.4c2.8-0.2,5.7-0.4,8.5-0.6
				C202.3,224.4,202.4,227.1,200.7,227.2"/>
			<path id="Fill-405" class="st1" d="M218,227.7c-2.3-0.6-4.7-1.1-7-1.7c-0.6,2.3-1.1,4.7-1.7,7c-0.4,1.7-3,1-2.6-0.6
				c0.7-2.8,1.4-5.5,2-8.3c0.1-0.4,0.3-0.7,0.6-0.8l0,0c0.3-0.2,0.6-0.2,1-0.1c2.8,0.7,5.5,1.4,8.3,2
				C220.3,225.5,219.6,228.1,218,227.7"/>
			<path id="Fill-407" class="st1" d="M226.8,228.1c-0.1-2.4-0.2-4.8-0.2-7.2c-2.4,0.1-4.8,0.2-7.2,0.2c-1.7,0.1-1.8-2.6-0.1-2.6
				c2.8-0.1,5.7-0.2,8.5-0.3c0.4,0,0.7,0.1,0.9,0.3l0,0c0.2,0.2,0.4,0.5,0.4,0.9c0.1,2.8,0.2,5.7,0.3,8.5
				C229.5,229.8,226.9,229.8,226.8,228.1"/>
			<path id="Fill-409" class="st1" d="M132,229.2c-2.3-0.7-4.6-1.3-6.9-2c-0.7,2.3-1.3,4.6-2,6.9c-0.5,1.6-3,0.9-2.5-0.7
				c0.8-2.7,1.6-5.5,2.3-8.2c0.1-0.4,0.3-0.6,0.6-0.8l0,0c0.3-0.2,0.6-0.2,1-0.1c2.7,0.8,5.5,1.6,8.2,2.3
				C134.4,227.2,133.7,229.7,132,229.2"/>
			<path id="Fill-411" class="st1" d="M114.1,230.3c-2.1-1.2-4.2-2.4-6.2-3.6c-1.2,2.1-2.4,4.2-3.6,6.2c-0.8,1.5-3.1,0.2-2.3-1.3
				c1.4-2.5,2.8-4.9,4.2-7.4c0.2-0.4,0.5-0.5,0.8-0.6l0,0c0.3-0.1,0.6-0.1,1,0.1c2.5,1.4,4.9,2.8,7.4,4.2
				C116.9,228.9,115.6,231.2,114.1,230.3"/>
			<path id="Fill-413" class="st1" d="M108.9,207.9c-2.4,0-4.8,0.1-7.2,0.1c0,2.4,0.1,4.8,0.1,7.2c0,1.7-2.6,1.7-2.6,0
				c0-2.8-0.1-5.7-0.1-8.5c0-0.4,0.1-0.7,0.4-0.9l0,0c0.2-0.2,0.5-0.4,0.9-0.4c2.8,0,5.7-0.1,8.5-0.1
				C110.6,205.2,110.6,207.8,108.9,207.9"/>
			<path id="Fill-415" class="st1" d="M151.1,226.9c1.5-1.8,3.1-3.7,4.6-5.5c-1.8-1.5-3.7-3.1-5.5-4.6c-1.3-1.1,0.4-3.1,1.7-2
				c2.2,1.8,4.4,3.6,6.5,5.4c0.3,0.3,0.5,0.6,0.5,0.9l0,0c0,0.3,0,0.6-0.3,1c-1.8,2.2-3.6,4.4-5.4,6.5
				C152.1,229.9,150.1,228.2,151.1,226.9"/>
			<path id="Fill-417" class="st1" d="M165.3,240.7c-0.7-2.3-1.4-4.6-2-6.9c-2.3,0.7-4.6,1.4-6.9,2c-1.6,0.5-2.4-2.1-0.8-2.5
				c2.7-0.8,5.4-1.6,8.2-2.4c0.4-0.1,0.7-0.1,1,0.1l0,0c0.3,0.1,0.5,0.4,0.6,0.8c0.8,2.7,1.6,5.4,2.4,8.2
				C168.3,241.6,165.8,242.3,165.3,240.7"/>
			<path id="Fill-419" class="st1" d="M144.4,217.7c-1.9,1.4-3.9,2.8-5.8,4.2c1.4,1.9,2.8,3.9,4.2,5.8c1,1.4-1.1,2.9-2.1,1.5
				c-1.7-2.3-3.3-4.6-5-6.9c-0.2-0.3-0.3-0.7-0.2-1l0,0c0-0.3,0.2-0.6,0.5-0.8c2.3-1.7,4.6-3.3,6.9-5
				C144.2,214.6,145.8,216.8,144.4,217.7"/>
			<path id="Fill-421" class="st1" d="M140.7,135.2c2.8-0.2,5.7-0.5,8.5-0.7c0.4,0,0.7-0.2,0.9-0.5l0,0c0.2-0.2,0.3-0.5,0.3-1
				c-0.2-2.8-0.5-5.7-0.7-8.5c-0.1-1.7-2.8-1.5-2.6,0.2c0.2,2.4,0.4,4.8,0.6,7.2c-2.4,0.2-4.8,0.4-7.2,0.6
				C138.8,132.7,139,135.3,140.7,135.2"/>
			<path id="Fill-423" class="st1" d="M130.9,152.7c2.8-0.3,5.6-0.6,8.5-0.9c0.4,0,0.7-0.2,0.9-0.5l0,0c0.2-0.2,0.3-0.6,0.3-1
				c-0.3-2.8-0.6-5.6-0.9-8.5c-0.2-1.7-2.8-1.4-2.6,0.3c0.3,2.4,0.5,4.8,0.8,7.2c-2.4,0.2-4.8,0.5-7.2,0.7
				C128.9,150.2,129.2,152.8,130.9,152.7"/>
			<path id="Fill-425" class="st1" d="M105.4,158.4c2.9-0.4,5.8-0.7,8.6-1.1c0.4-0.1,0.7-0.2,0.9-0.5l0,0c0.2-0.2,0.3-0.6,0.3-1
				c-0.2-2.9-0.5-5.8-0.7-8.6c-0.1-1.7-2.8-1.4-2.7,0.3c0.2,2.4,0.4,4.9,0.6,7.3c-2.4,0.3-4.9,0.6-7.3,0.9
				C103.4,155.9,103.6,158.6,105.4,158.4"/>
			<path id="Fill-427" class="st1" d="M121,152.2c-0.1,2.8-0.3,5.7-0.4,8.5c0,0.4,0.1,0.7,0.3,0.9l0,0c0.2,0.2,0.5,0.4,0.9,0.4
				c2.8,0.1,5.7,0.3,8.5,0.4c1.7,0.1,1.8-2.6,0.1-2.6c-2.4-0.1-4.8-0.2-7.2-0.4c0.1-2.4,0.2-4.8,0.4-7.2
				C123.7,150.7,121.1,150.5,121,152.2"/>
			<path id="Fill-429" class="st1" d="M133.1,135.9c-2.8-0.4-5.6-0.8-8.4-1.2c-0.4-0.1-0.7,0-1,0.2l0,0c-0.3,0.2-0.4,0.5-0.5,0.9
				c-0.4,2.8-0.8,5.6-1.2,8.4c-0.2,1.7,2.4,2.1,2.6,0.4c0.3-2.4,0.7-4.7,1-7.1c2.4,0.3,4.7,0.7,7.1,1
				C134.4,138.7,134.8,136.1,133.1,135.9"/>
			<path id="Fill-431" class="st1" d="M115.6,139.1c-1.5-2.4-3-4.8-4.5-7.2c-0.2-0.3-0.5-0.5-0.8-0.6l0,0c-0.3-0.1-0.6,0-1,0.2
				c-2.4,1.5-4.8,3-7.2,4.5c-1.4,0.9,0,3.1,1.4,2.2c2-1.3,4.1-2.5,6.1-3.8c1.3,2,2.5,4.1,3.8,6.1
				C114.3,141.9,116.5,140.5,115.6,139.1"/>
			<path id="Fill-433" class="st1" d="M114.1,164.3c-1.6,1.8-3.1,3.6-4.7,5.5c-1.8-1.6-3.6-3.1-5.5-4.7c-1.3-1.1-3,0.9-1.7,2
				c2.2,1.8,4.3,3.7,6.5,5.5c0.3,0.3,0.6,0.4,0.9,0.3l0,0c0.3,0,0.6-0.1,0.9-0.5c1.8-2.2,3.7-4.3,5.5-6.5
				C117.2,164.7,115.2,163,114.1,164.3"/>
			<path id="Fill-435" class="st1" d="M163.9,171.3l5.3-4.9c-1.6-1.8-3.3-3.5-4.9-5.3c-1.2-1.2,0.8-3,1.9-1.8
				c1.9,2.1,3.9,4.2,5.8,6.2c0.3,0.3,0.4,0.6,0.4,0.9l0,0c0,0.3-0.1,0.6-0.4,0.9c-2.1,1.9-4.2,3.9-6.2,5.8
				C164.4,174.4,162.6,172.5,163.9,171.3"/>
			<path id="Fill-437" class="st1" d="M157.8,170.1c-0.2,2.4-0.3,4.8-0.5,7.2c2.4,0.2,4.8,0.3,7.2,0.5c1.7,0.1,1.5,2.8-0.2,2.6
				c-2.8-0.2-5.7-0.4-8.5-0.6c-0.4,0-0.7-0.2-0.9-0.4l0,0c-0.2-0.2-0.3-0.5-0.3-1c0.2-2.8,0.4-5.7,0.6-8.5
				C155.3,168.2,157.9,168.4,157.8,170.1"/>
			<path id="Fill-439" class="st1" d="M158.4,208.8c2.4,0.3,4.7,0.7,7.1,1c0.3-2.4,0.7-4.7,1-7.1c0.2-1.7,2.9-1.3,2.6,0.4
				c-0.4,2.8-0.8,5.6-1.2,8.4c-0.1,0.4-0.2,0.7-0.5,0.9l0,0c-0.2,0.2-0.6,0.3-1,0.2c-2.8-0.4-5.6-0.8-8.4-1.2
				C156.3,211.2,156.7,208.5,158.4,208.8"/>
			<path id="Fill-441" class="st1" d="M127.6,207.4c1.6,1.7,3.3,3.5,4.9,5.2c1.7-1.6,3.5-3.3,5.2-4.9c1.2-1.2,3.1,0.8,1.8,1.9
				c-2.1,1.9-4.1,3.9-6.2,5.8c-0.3,0.3-0.6,0.4-0.9,0.4h0c-0.3,0-0.6-0.1-0.9-0.4c-1.9-2.1-3.9-4.1-5.8-6.2
				C124.5,208,126.4,206.2,127.6,207.4"/>
			<path id="Fill-443" class="st1" d="M110.3,212.7c1.7,1.7,3.4,3.3,5.2,5c1.7-1.7,3.3-3.4,5-5.2c1.2-1.2,3.1,0.6,1.9,1.8
				c-2,2-3.9,4.1-5.9,6.1c-0.3,0.3-0.6,0.4-0.9,0.4h0c-0.3,0-0.6-0.1-0.9-0.4c-2-2-4.1-3.9-6.1-5.9
				C107.2,213.4,109.1,211.5,110.3,212.7"/>
			<path id="Fill-445" class="st1" d="M144.8,200c-1.1-1.3-3.1,0.5-2,1.8c1.9,2.1,3.8,4.2,5.7,6.3c0.3,0.3,0.6,0.4,0.9,0.4l0,0
				c0.3,0,0.6-0.1,0.9-0.3c2.1-1.9,4.2-3.8,6.3-5.7c1.3-1.1-0.5-3.1-1.8-2c-1.8,1.6-3.6,3.2-5.3,4.8
				C148,203.6,146.4,201.8,144.8,200"/>
			<path id="Fill-447" class="st1" d="M174.2,197.5c1.2,1.2,3.1-0.6,1.9-1.8c-2-2.1-3.9-4.1-5.9-6.2c-0.3-0.3-0.6-0.4-0.9-0.4h0
				c-0.3,0-0.6,0.1-0.9,0.4c-2.1,2-4.1,3.9-6.2,5.9c-1.2,1.2,0.6,3.1,1.8,1.9c1.7-1.7,3.5-3.3,5.2-5
				C170.9,194,172.6,195.8,174.2,197.5"/>
			<path id="Fill-449" class="st1" d="M158.2,189.8c1.6,0.6,2.5-1.9,0.9-2.5c-2.7-1-5.3-1.9-8-2.9c-0.4-0.1-0.7-0.1-1,0l0,0
				c-0.3,0.1-0.5,0.4-0.7,0.7c-1,2.7-1.9,5.3-2.9,8c-0.6,1.6,1.9,2.5,2.5,0.9c0.8-2.3,1.6-4.5,2.4-6.8
				C153.7,188.1,156,188.9,158.2,189.8"/>
			<path id="Fill-451" class="st1" d="M137.4,173.4c-1.2-1.2-3.1,0.7-1.9,1.9c2,2,4,4,6.1,6c0.3,0.3,0.6,0.4,0.9,0.4h0
				c0.3,0,0.6-0.1,0.9-0.4c2-2,4-4,6-6.1c1.2-1.2-0.7-3.1-1.9-1.9c-1.7,1.7-3.4,3.4-5,5.1C140.8,176.8,139.1,175.1,137.4,173.4"/>
			<path id="Fill-453" class="st1" d="M124.2,187.2c-1.6,0.5-0.9,3,0.7,2.5c2.7-0.8,5.4-1.6,8.2-2.4c0.4-0.1,0.6-0.3,0.8-0.6l0,0
				c0.2-0.3,0.2-0.6,0.1-1c-0.8-2.7-1.6-5.4-2.4-8.2c-0.5-1.6-3-0.9-2.5,0.7c0.7,2.3,1.4,4.6,2,6.9
				C128.8,185.8,126.5,186.5,124.2,187.2"/>
			<path id="Fill-455" class="st1" d="M128.9,170.5c1.7-0.3,1.2-2.9-0.5-2.6c-2.8,0.5-5.6,1.1-8.4,1.6c-0.4,0.1-0.7,0.3-0.8,0.5l0,0
				c-0.2,0.3-0.3,0.6-0.2,1c0.5,2.8,1.1,5.6,1.6,8.4c0.3,1.7,2.9,1.2,2.6-0.5c-0.5-2.4-0.9-4.7-1.4-7.1
				C124.2,171.4,126.5,170.9,128.9,170.5"/>
			<path id="Fill-457" class="st1" d="M141.5,192.6c1.6-0.5,0.8-3-0.8-2.5c-2.7,0.9-5.4,1.8-8.1,2.7c-0.4,0.1-0.6,0.4-0.8,0.6l0,0
				c-0.2,0.3-0.2,0.6-0.1,1c0.9,2.7,1.8,5.4,2.7,8.1c0.5,1.6,3,0.8,2.5-0.8c-0.8-2.3-1.5-4.6-2.3-6.8
				C136.9,194.1,139.2,193.4,141.5,192.6"/>
			<path id="Fill-459" class="st1" d="M125.9,198.7c1.7-0.1,1.5-2.8-0.2-2.6c-2.8,0.2-5.7,0.4-8.5,0.6c-0.4,0-0.7,0.2-0.9,0.4l0,0
				c-0.2,0.2-0.3,0.5-0.3,1c0.2,2.8,0.4,5.7,0.6,8.5c0.1,1.7,2.8,1.5,2.6-0.2c-0.2-2.4-0.3-4.8-0.5-7.2
				C121.1,199,123.5,198.8,125.9,198.7"/>
			<path id="Fill-461" class="st1" d="M104.8,183.7c2.4,0.1,4.8,0.1,7.2,0.2c-0.1,2.4-0.1,4.8-0.2,7.2c0,1.7,2.6,1.8,2.6,0.1
				c0.1-2.8,0.1-5.7,0.2-8.5c0-0.4-0.1-0.7-0.4-0.9l0,0c-0.2-0.2-0.5-0.4-0.9-0.4c-2.8-0.1-5.7-0.2-8.5-0.2
				C103.1,181,103.1,183.7,104.8,183.7"/>
			<path id="Fill-463" class="st1" d="M222.7,60.9c-0.7-2.3-1.5-4.6-2.2-6.9c-2.3,0.7-4.6,1.5-6.9,2.2c-1.6,0.5-2.4-2-0.8-2.5
				c2.7-0.9,5.4-1.7,8.1-2.6c0.4-0.1,0.7-0.1,1,0.1l0,0c0.3,0.1,0.5,0.4,0.6,0.8c0.9,2.7,1.7,5.4,2.6,8.1
				C225.7,61.7,223.2,62.5,222.7,60.9"/>
			<path id="Fill-465" class="st1" d="M217,36.4c0.3,2.4,0.6,4.8,0.9,7.1c2.4-0.3,4.8-0.6,7.1-0.9c1.7-0.2,2,2.4,0.3,2.6
				c-2.8,0.4-5.6,0.7-8.4,1.1c-0.4,0.1-0.7-0.1-1-0.3l0,0c-0.3-0.2-0.4-0.5-0.5-0.9c-0.4-2.8-0.7-5.6-1.1-8.4
				C214.1,35,216.8,34.7,217,36.4"/>
			<path id="Fill-467" class="st1" d="M235.5,38.1c-1.4-2-2.7-3.9-4.1-5.9c-2,1.4-3.9,2.7-5.9,4.1c-1.4,1-2.9-1.2-1.5-2.2
				c2.3-1.6,4.7-3.2,7-4.9c0.3-0.2,0.7-0.3,1-0.2l0,0c0.3,0,0.6,0.2,0.8,0.5c1.6,2.3,3.2,4.7,4.9,7C238.6,38,236.4,39.5,235.5,38.1"
				/>
			<path id="Fill-469" class="st1" d="M207.5,44.4c-0.5-2.4-0.9-4.7-1.4-7c-2.3,0.5-4.7,0.9-7.1,1.4c-1.7,0.3-2.2-2.3-0.5-2.6
				c2.8-0.6,5.6-1.1,8.3-1.7c0.4-0.1,0.7,0,1,0.2l0,0c0.3,0.2,0.5,0.4,0.6,0.8c0.6,2.8,1.1,5.6,1.7,8.3
				C210.4,45.6,207.8,46.1,207.5,44.4"/>
			<path id="Fill-471" class="st1" d="M207.4,60.6c-0.8-1.5-3.1-0.3-2.4,1.2c1.3,2.5,2.6,5,3.9,7.6c0.2,0.4,0.5,0.6,0.8,0.7l0,0
				c0.3,0.1,0.6,0.1,1-0.1c2.5-1.3,5-2.6,7.6-3.9c1.5-0.8,0.3-3.1-1.2-2.4c-2.1,1.1-4.3,2.2-6.4,3.3
				C209.6,64.8,208.5,62.7,207.4,60.6"/>
			<path id="Fill-473" class="st1" d="M179.6,55.8c-1.7,0-1.7,2.6,0,2.6c2.8,0,5.7,0,8.5,0c0.4,0,0.7-0.2,0.9-0.4l0,0
				c0.2-0.2,0.4-0.5,0.4-0.9v-8.5c0-1.7-2.6-1.7-2.6,0c0,2.4,0,4.8,0,7.2C184.4,55.8,182,55.8,179.6,55.8"/>
			<path id="Fill-475" class="st1" d="M198.8,70.9c0.3,1.7,2.9,1.1,2.6-0.5c-0.6-2.8-1.2-5.6-1.7-8.3c-0.1-0.4-0.3-0.7-0.6-0.8l0,0
				c-0.3-0.2-0.6-0.3-1-0.2c-2.8,0.6-5.6,1.2-8.3,1.7c-1.7,0.4-1.1,2.9,0.5,2.6c2.3-0.5,4.7-1,7-1.5
				C197.8,66.3,198.3,68.6,198.8,70.9"/>
			<path id="Fill-477" class="st1" d="M211.8,85c0.2,1.7,2.8,1.4,2.6-0.3c-0.3-2.8-0.6-5.6-0.9-8.5c0-0.4-0.2-0.7-0.5-0.9l0,0
				c-0.2-0.2-0.6-0.3-1-0.3c-2.8,0.3-5.6,0.6-8.5,0.9c-1.7,0.2-1.4,2.8,0.3,2.6c2.4-0.3,4.8-0.5,7.1-0.8
				C211.3,80.2,211.5,82.6,211.8,85"/>
			<path id="Fill-479" class="st1" d="M195.3,81.1c1.2,1.3,3.1-0.5,2-1.8c-1.9-2.1-3.8-4.2-5.7-6.3c-0.3-0.3-0.6-0.4-0.9-0.4l0,0
				c-0.3,0-0.6,0.1-0.9,0.3c-2.1,1.9-4.2,3.8-6.3,5.7c-1.3,1.1,0.5,3.1,1.8,2c1.8-1.6,3.5-3.2,5.3-4.9
				C192.1,77.5,193.7,79.3,195.3,81.1"/>
			<path id="Fill-481" class="st1" d="M195.1,87.1c-1.4-1-2.9,1.1-1.6,2.1c2.3,1.7,4.6,3.4,6.8,5.1c0.3,0.2,0.7,0.3,1,0.2l0,0
				c0.3,0,0.6-0.2,0.9-0.5c1.7-2.3,3.4-4.6,5.1-6.8c1-1.4-1.1-2.9-2.1-1.6c-1.4,1.9-2.9,3.9-4.3,5.8C198.9,89.9,197,88.5,195.1,87.1
				"/>
			<path id="Fill-483" class="st1" d="M184.9,90.5c1.4,0.9,2.9-1.3,1.4-2.2c-2.4-1.5-4.8-3-7.2-4.6c-0.3-0.2-0.7-0.3-1-0.2l0,0
				c-0.3,0.1-0.6,0.2-0.8,0.6c-1.5,2.4-3,4.8-4.6,7.2c-0.9,1.4,1.3,2.9,2.2,1.4c1.3-2,2.6-4,3.9-6.1C180.9,88,182.9,89.2,184.9,90.5
				"/>
			<path id="Fill-485" class="st1" d="M166.6,102.7c0.1,1.7,2.7,1.6,2.6-0.1c-0.2-2.8-0.3-5.7-0.5-8.5c0-0.4-0.2-0.7-0.4-0.9l0,0
				c-0.2-0.2-0.5-0.3-0.9-0.3c-2.8,0.2-5.7,0.3-8.5,0.5c-1.7,0.1-1.6,2.7,0.1,2.6c2.4-0.1,4.8-0.3,7.2-0.4
				C166.3,97.9,166.4,100.3,166.6,102.7"/>
			<path id="Fill-487" class="st1" d="M168.2,110.6c-0.2-1.7-2.8-1.4-2.6,0.3c0.3,2.8,0.7,5.6,1,8.5c0,0.4,0.2,0.7,0.5,0.9l0,0
				c0.2,0.2,0.6,0.3,1,0.3c2.8-0.3,5.6-0.7,8.5-1c1.7-0.2,1.4-2.8-0.3-2.6c-2.4,0.3-4.8,0.6-7.1,0.9
				C168.8,115.4,168.5,113,168.2,110.6"/>
			<path id="Fill-489" class="st1" d="M174.8,107.1c-1.6,0.5-0.9,3,0.7,2.5c2.7-0.8,5.4-1.6,8.2-2.4c0.4-0.1,0.6-0.3,0.8-0.6l0,0
				c0.2-0.3,0.2-0.6,0.1-1c-0.8-2.7-1.6-5.4-2.4-8.2c-0.5-1.6-3-0.9-2.5,0.7l2,6.9C179.4,105.8,177.1,106.5,174.8,107.1"/>
			<path id="Fill-491" class="st1" d="M192.6,96c-0.3-1.7-2.9-1.2-2.6,0.5c0.6,2.8,1.1,5.6,1.7,8.4c0.1,0.4,0.3,0.7,0.6,0.8l0,0
				c0.3,0.2,0.6,0.3,1,0.2c2.8-0.5,5.6-1.1,8.4-1.6c1.7-0.3,1.2-2.9-0.5-2.6c-2.4,0.5-4.7,0.9-7.1,1.4
				C193.5,100.7,193.1,98.3,192.6,96"/>
			<path id="Fill-493" class="st1" d="M193.3,112.6c1.7-0.4,1-3-0.7-2.6c-2.7,0.7-5.5,1.4-8.2,2.1c-0.4,0.1-0.7,0.3-0.8,0.6l0,0
				c-0.2,0.3-0.2,0.6-0.1,1c0.7,2.8,1.4,5.5,2.1,8.3c0.4,1.7,3,1,2.6-0.7c-0.6-2.3-1.2-4.6-1.8-7C188.7,113.8,191,113.2,193.3,112.6
				"/>
			<path id="Fill-495" class="st1" d="M198,116.9c-1.7,0.2-1.4,2.8,0.3,2.6c2.8-0.3,5.6-0.6,8.5-0.9c0.4,0,0.7-0.2,0.9-0.5l0,0
				c0.2-0.2,0.3-0.6,0.3-1c-0.3-2.8-0.6-5.6-0.9-8.5c-0.2-1.7-2.8-1.4-2.6,0.3c0.2,2.4,0.5,4.8,0.7,7.2
				C202.8,116.4,200.4,116.7,198,116.9"/>
			<path id="Fill-497" class="st1" d="M223.8,109.4c1.7-0.4,1.1-2.9-0.5-2.6c-2.8,0.6-5.6,1.2-8.3,1.8c-0.4,0.1-0.7,0.3-0.8,0.6l0,0
				c-0.2,0.3-0.3,0.6-0.2,1c0.6,2.8,1.2,5.6,1.7,8.3c0.4,1.7,2.9,1.1,2.6-0.5c-0.5-2.3-1-4.7-1.5-7
				C219.1,110.4,221.4,109.9,223.8,109.4"/>
			<path id="Fill-499" class="st1" d="M212.9,135.6c-1.3,1.1,0.5,3.1,1.8,2c2.1-1.9,4.2-3.8,6.3-5.7c0.3-0.3,0.4-0.6,0.4-0.9l0,0
				c0-0.3-0.1-0.6-0.3-0.9c-1.9-2.1-3.8-4.2-5.7-6.4c-1.1-1.3-3.1,0.5-2,1.8c1.6,1.8,3.2,3.6,4.8,5.4
				C216.5,132.4,214.7,134,212.9,135.6"/>
			<path id="Fill-501" class="st1" d="M179.9,136.3c-0.7,1.6,1.8,2.6,2.4,1c1.1-2.6,2.2-5.2,3.3-7.8c0.2-0.4,0.1-0.7,0-1l0,0
				c-0.1-0.3-0.3-0.6-0.7-0.7c-2.6-1.1-5.2-2.2-7.8-3.3c-1.6-0.7-2.6,1.8-1,2.4c2.2,0.9,4.4,1.9,6.6,2.8
				C181.7,131.9,180.8,134.1,179.9,136.3"/>
			<path id="Fill-503" class="st1" d="M217.2,93.3c1.5-0.8,0.4-3.1-1.2-2.3c-2.5,1.3-5.1,2.6-7.6,3.9c-0.4,0.2-0.6,0.5-0.7,0.8l0,0
				c-0.1,0.3-0.1,0.6,0.1,1c1.2,2.5,2.5,5,3.7,7.5c0.7,1.5,3.1,0.3,2.4-1.2c-1-2.1-2.1-4.2-3.1-6.4C212.9,95.5,215,94.4,217.2,93.3"
				/>
			<path id="Fill-505" class="st1" d="M143,51.4c0-1.7-2.6-1.7-2.6,0c0,2.8,0,5.7,0,8.5c0,0.4,0.1,0.7,0.4,0.9l0,0
				c0.2,0.2,0.5,0.4,0.9,0.4c2.8,0,5.7,0,8.5,0c1.7,0,1.7-2.6,0-2.6c-2.4,0-4.8,0-7.2,0C143,56.2,143,53.8,143,51.4"/>
			<path id="Fill-507" class="st1" d="M147,98.2c-0.4-1.7-3-1.1-2.6,0.6c0.6,2.8,1.2,5.5,1.9,8.3c0.1,0.4,0.3,0.7,0.6,0.8l0,0
				c0.3,0.2,0.6,0.3,1,0.2c2.8-0.6,5.5-1.2,8.3-1.9c1.7-0.4,1.1-3-0.6-2.6c-2.3,0.5-4.7,1-7,1.6C148,102.9,147.5,100.6,147,98.2"/>
			<path id="Fill-509" class="st1" d="M159.4,52.4c1.1,1.3,3.1-0.3,2.1-1.6c-1.8-2.2-3.5-4.5-5.3-6.7c-0.2-0.3-0.6-0.5-0.9-0.5l0,0
				c-0.3,0-0.6,0-1,0.3c-2.2,1.8-4.5,3.5-6.7,5.3c-1.3,1.1,0.3,3.1,1.6,2.1c1.9-1.5,3.8-3,5.7-4.4C156.4,48.6,157.9,50.5,159.4,52.4
				"/>
			<path id="Fill-511" class="st1" d="M172.6,63.1c1.1,1.3,3.1-0.3,2.1-1.6c-1.8-2.2-3.5-4.5-5.3-6.7c-0.2-0.3-0.6-0.5-0.9-0.5l0,0
				c-0.3,0-0.6,0-1,0.3c-2.2,1.8-4.5,3.5-6.7,5.3c-1.3,1.1,0.3,3.1,1.6,2.1c1.9-1.5,3.8-3,5.7-4.4C169.6,59.3,171.1,61.2,172.6,63.1
				"/>
			<path id="Fill-513" class="st1" d="M138.2,43.2c0.3,1.7,2.9,1.2,2.6-0.5c-0.5-2.8-1.1-5.6-1.6-8.4c-0.1-0.4-0.3-0.7-0.5-0.8l0,0
				c-0.3-0.2-0.6-0.3-1-0.2c-2.8,0.5-5.6,1.1-8.4,1.6c-1.7,0.3-1.2,2.9,0.5,2.6c2.4-0.5,4.7-0.9,7.1-1.4
				C137.3,38.5,137.8,40.8,138.2,43.2"/>
			<path id="Fill-515" class="st1" d="M197.6,46.7c-0.6-1.6-3.1-0.6-2.5,1c1.1,2.6,2.1,5.3,3.2,7.9c0.1,0.4,0.4,0.6,0.7,0.7l0,0
				c0.3,0.1,0.6,0.2,1,0c2.6-1.1,5.3-2.1,7.9-3.2c1.6-0.6,0.6-3.1-1-2.5c-2.2,0.9-4.4,1.8-6.7,2.7C199.4,51.1,198.5,48.9,197.6,46.7
				"/>
			<path id="Fill-517" class="st1" d="M151,27.3c0.7-1.5-1.6-2.7-2.4-1.2c-1.2,2.6-2.5,5.1-3.7,7.7c-0.2,0.4-0.2,0.7-0.1,1l0,0
				c0.1,0.3,0.3,0.6,0.7,0.7c2.6,1.2,5.1,2.5,7.7,3.7c1.5,0.7,2.7-1.6,1.2-2.4c-2.2-1-4.3-2.1-6.5-3.1C148.9,31.6,150,29.5,151,27.3
				"/>
			<path id="Fill-519" class="st1" d="M134.8,58.7c-1.9-1.5-3.7-3-5.6-4.5c1.5-1.9,3-3.7,4.5-5.6c1.1-1.3-1-3-2.1-1.7
				c-1.8,2.2-3.6,4.4-5.4,6.6c-0.3,0.3-0.3,0.6-0.3,1l0,0c0,0.3,0.2,0.6,0.5,0.9c2.2,1.8,4.4,3.6,6.6,5.4
				C134.4,61.8,136.1,59.7,134.8,58.7"/>
			<path id="Fill-521" class="st1" d="M235.7,20c-1-1.4-3.1,0.2-2.1,1.6c1.7,2.3,3.3,4.6,5,6.9c0.2,0.3,0.5,0.5,0.9,0.5l0,0
				c0.3,0.1,0.6,0,1-0.2c1.5-1.1,3-2.2,4.5-3.3v-3.3c-1.7,1.2-3.3,2.4-5,3.7C238.5,23.8,237.1,21.9,235.7,20"/>
			<path id="Fill-523" class="st1" d="M242.4,38.3L242.4,38.3c0.1,0.3,0.2,0.6,0.6,0.9c0.7,0.4,1.3,0.9,2,1.3v-6.6
				c-0.8,1.2-1.6,2.3-2.3,3.5C242.4,37.7,242.4,38,242.4,38.3"/>
			<path id="Fill-525" class="st1" d="M242.6,48.8L242.6,48.8c-0.3,0.2-0.5,0.4-0.6,0.8c-0.7,2.8-1.4,5.5-2.1,8.3
				c-0.4,1.7,2.1,2.3,2.6,0.6c0.6-2.3,1.2-4.6,1.8-7c0.2,0.1,0.5,0.1,0.7,0.2V49c-0.4-0.1-0.9-0.2-1.3-0.3
				C243.2,48.5,242.9,48.6,242.6,48.8"/>
			<path id="Fill-527" class="st1" d="M236.2,66.2c-1.6-0.7-2.6,1.7-1.1,2.4c2.6,1.2,5.2,2.3,7.8,3.5c0.4,0.2,0.7,0.2,1,0l0,0
				c0.3-0.1,0.6-0.3,0.7-0.7c0.1-0.2,0.2-0.5,0.3-0.7v-6.5c-0.7,1.6-1.5,3.3-2.2,4.9C240.6,68.1,238.4,67.1,236.2,66.2"/>
			<path id="Fill-529" class="st1" d="M233.1,92.6c-1.2,2.1-2.3,4.2-3.5,6.3c-2.1-1.2-4.2-2.3-6.3-3.5c-1.5-0.8-2.8,1.5-1.3,2.3
				c2.5,1.4,5,2.7,7.5,4.1c0.4,0.2,0.7,0.2,1,0.1l0,0c0.3-0.1,0.6-0.3,0.8-0.6c1.4-2.5,2.7-5,4.1-7.5
				C236.2,92.4,233.9,91.1,233.1,92.6"/>
			<path id="Fill-531" class="st1" d="M236.3,79c2.2,1,4.4,2,6.6,3c-1,2.2-2,4.4-3,6.6c-0.7,1.6,1.7,2.6,2.4,1.1
				c0.9-2,1.8-3.9,2.6-5.9V80c-2.5-1.1-5-2.3-7.6-3.4C235.9,75.9,234.8,78.3,236.3,79"/>
			<path id="Fill-533" class="st1" d="M229.8,63.5c-2.3,1.6-4.7,3.2-7,4.9c-0.3,0.2-0.5,0.5-0.5,0.8l0,0c-0.1,0.3,0,0.6,0.2,1
				c1.6,2.3,3.2,4.7,4.9,7c1,1.4,3.1-0.1,2.2-1.5c-1.4-2-2.7-3.9-4.1-5.9c2-1.4,3.9-2.7,5.9-4.1C232.8,64.7,231.2,62.5,229.8,63.5"
				/>
			<path id="Fill-535" class="st1" d="M218.9,81.1c1.3,2.5,2.5,5.1,3.8,7.6c0.2,0.4,0.5,0.6,0.8,0.7l0,0c0.3,0.1,0.6,0.1,1-0.1
				c2.5-1.3,5.1-2.5,7.6-3.8c1.5-0.8,0.3-3.1-1.2-2.4c-2.1,1.1-4.3,2.1-6.4,3.2c-1.1-2.1-2.1-4.3-3.2-6.4
				C220.6,78.4,218.2,79.6,218.9,81.1"/>
			<path id="Fill-537" class="st1" d="M229.1,48.2L229.1,48.2c-0.1,0.3-0.1,0.7,0.1,1c1.3,2.5,2.6,5,3.9,7.5
				c0.8,1.5,3.1,0.3,2.3-1.2c-1.1-2.1-2.2-4.2-3.3-6.4c2.1-1.1,4.2-2.2,6.4-3.3c1.5-0.8,0.3-3.1-1.2-2.3c-2.5,1.3-5,2.6-7.5,3.9
				C229.3,47.7,229.1,47.9,229.1,48.2"/>
			<path id="Fill-539" class="st1" d="M227.8,202.8c-0.6,1.6,1.8,2.6,2.5,1c1.1-2.6,2.1-5.3,3.2-7.9c0.2-0.4,0.1-0.7,0-1l0,0
				c-0.1-0.3-0.3-0.5-0.7-0.7c-2.6-1.1-5.3-2.1-7.9-3.2c-1.6-0.6-2.6,1.8-1,2.5c2.2,0.9,4.4,1.8,6.7,2.7
				C229.6,198.4,228.7,200.6,227.8,202.8"/>
			<path id="Fill-541" class="st1" d="M222.4,201.9c1.5-0.9,0.1-3.1-1.4-2.3c-2.4,1.5-4.9,2.9-7.3,4.4c-0.3,0.2-0.5,0.5-0.6,0.8l0,0
				c-0.1,0.3-0.1,0.6,0.2,1c1.5,2.4,2.9,4.9,4.4,7.3c0.9,1.5,3.1,0.1,2.3-1.4c-1.2-2.1-2.5-4.1-3.7-6.2
				C218.3,204.4,220.4,203.2,222.4,201.9"/>
			<path id="Fill-543" class="st1" d="M200.2,216.5c-1.7,0.4-1,3,0.6,2.6c2.8-0.7,5.5-1.3,8.3-2c0.4-0.1,0.7-0.3,0.8-0.6l0,0
				c0.2-0.3,0.2-0.6,0.2-1c-0.7-2.8-1.3-5.5-2-8.3c-0.4-1.7-3-1-2.6,0.6c0.6,2.3,1.1,4.7,1.7,7C204.9,215.4,202.5,215.9,200.2,216.5
				"/>
			<path id="Fill-545" class="st1" d="M185.8,211.6c-1.6-0.6-2.5,1.9-0.9,2.5c2.7,1,5.3,2,7.9,3c0.4,0.1,0.7,0.1,1,0l0,0
				c0.3-0.1,0.5-0.3,0.7-0.7c1-2.6,2-5.3,3-7.9c0.6-1.6-1.9-2.5-2.5-0.9c-0.9,2.2-1.7,4.5-2.6,6.7
				C190.3,213.3,188,212.5,185.8,211.6"/>
			<path id="Fill-547" class="st1" d="M206.8,187.3c-0.6-1.6-3.1-0.7-2.5,0.9c0.9,2.7,1.9,5.4,2.8,8c0.1,0.4,0.4,0.6,0.7,0.7l0,0
				c0.3,0.1,0.6,0.2,1,0.1c2.7-0.9,5.4-1.9,8-2.8c1.6-0.6,0.7-3.1-0.9-2.5c-2.3,0.8-4.5,1.6-6.8,2.4
				C208.4,191.8,207.6,189.6,206.8,187.3"/>
			<path id="Fill-549" class="st1" d="M197.9,182.9c0.2,1.7,2.9,1.3,2.6-0.4c-0.4-2.8-0.8-5.6-1.2-8.4c-0.1-0.4-0.3-0.7-0.5-0.9l0,0
				c-0.2-0.2-0.6-0.3-1-0.2c-2.8,0.4-5.6,0.8-8.4,1.2c-1.7,0.2-1.3,2.9,0.4,2.6c2.4-0.3,4.7-0.7,7.1-1
				C197.2,178.2,197.5,180.5,197.9,182.9"/>
			<path id="Fill-551" class="st1" d="M201.5,201c1.3,1.1,3-1,1.7-2c-2.2-1.8-4.4-3.6-6.6-5.4c-0.3-0.3-0.6-0.3-1-0.3l0,0
				c-0.3,0-0.6,0.2-0.9,0.5c-1.8,2.2-3.6,4.4-5.4,6.6c-1.1,1.3,1,3,2.1,1.7c1.5-1.9,3-3.7,4.6-5.6C197.8,198,199.7,199.5,201.5,201"
				/>
			<path id="Fill-553" class="st1" d="M178.9,187.3c-1.5-0.7-2.7,1.6-1.2,2.4c2.6,1.2,5.1,2.5,7.7,3.7c0.4,0.2,0.7,0.2,1,0.1l0,0
				c0.3-0.1,0.6-0.3,0.7-0.7c1.2-2.6,2.5-5.1,3.7-7.7c0.7-1.5-1.6-2.7-2.4-1.2c-1,2.2-2.1,4.3-3.1,6.5
				C183.2,189.4,181.1,188.3,178.9,187.3"/>
			<path id="Fill-555" class="st1" d="M184.8,203.7c1.7-0.1,1.6-2.7-0.1-2.6c-2.8,0.2-5.7,0.3-8.5,0.5c-0.4,0-0.7,0.2-0.9,0.4l0,0
				c-0.2,0.2-0.3,0.5-0.3,0.9c0.2,2.8,0.3,5.7,0.5,8.5c0.1,1.7,2.7,1.6,2.6-0.1c-0.1-2.4-0.3-4.8-0.4-7.2
				C180.1,204,182.5,203.9,184.8,203.7"/>
			<g id="Group-559" transform="translate(239.000000, 214.973000)">
				<g id="Clip-558">
				</g>
				<defs>
					<filter id="Adobe_OpacityMaskFilter_20_" filterUnits="userSpaceOnUse" x="0.9" y="-1.4" width="5.1" height="11.3">
						<feColorMatrix  type="matrix" values="1 0 0 0 0  0 1 0 0 0  0 0 1 0 0  0 0 0 1 0"/>
					</filter>
				</defs>
				<mask maskUnits="userSpaceOnUse" x="0.9" y="-1.4" width="5.1" height="11.3" id="mask-42_1_">
					<g class="st43">
						<polygon id="path-41_1_" class="st3" points="0.9,-1.4 6,-1.4 6,9.9 0.9,9.9 						"/>
					</g>
				</mask>
				<path id="Fill-557" class="st44" d="M0.9,4.4L0.9,4.4c0,0.3,0.1,0.7,0.4,0.9c1.6,1.5,3.1,3,4.7,4.5V6.2C5.3,5.6,4.7,5,4.1,4.4
					C4.7,3.7,5.3,3.1,6,2.4v-3.8C4.4,0.2,2.8,1.9,1.3,3.5C1,3.8,0.9,4.1,0.9,4.4"/>
			</g>
			<path id="Fill-560" class="st1" d="M235.1,225.6c1.3,2,2.6,4,3.9,6c-2,1.3-4,2.6-6,3.9c-1.4,0.9,0,3.1,1.4,2.2
				c2.4-1.5,4.8-3.1,7.1-4.6c0.3-0.2,0.5-0.5,0.6-0.8l0,0c0.1-0.3,0-0.6-0.2-1c-1.5-2.4-3.1-4.8-4.6-7.1
				C236.4,222.8,234.2,224.2,235.1,225.6"/>
			<path id="Fill-562" class="st1" d="M240.1,209.8c1-1.4-1.1-3-2.1-1.6c-1.5,1.9-2.9,3.8-4.4,5.7c-1.9-1.5-3.8-2.9-5.7-4.4
				c-1.3-1-3,1.1-1.6,2.1c2.2,1.7,4.5,3.5,6.7,5.2c0.3,0.2,0.7,0.3,1,0.3l0,0c0.3,0,0.6-0.2,0.9-0.5
				C236.7,214.3,238.4,212,240.1,209.8"/>
			<g id="Group-566" transform="translate(238.000000, 194.973000)">
				<g id="Clip-565">
				</g>
				<defs>
					<filter id="Adobe_OpacityMaskFilter_21_" filterUnits="userSpaceOnUse" x="0.3" y="-1.6" width="6.7" height="11.9">
						<feColorMatrix  type="matrix" values="1 0 0 0 0  0 1 0 0 0  0 0 1 0 0  0 0 0 1 0"/>
					</filter>
				</defs>
				<mask maskUnits="userSpaceOnUse" x="0.3" y="-1.6" width="6.7" height="11.9" id="mask-44_1_">
					<g class="st45">
						<polygon id="path-43_1_" class="st3" points="0.3,-1.6 7,-1.6 7,10.4 0.3,10.4 						"/>
					</g>
				</mask>
				<path id="Fill-564" class="st46" d="M4.3-0.1C4.6-1.7,2-2.2,1.7-0.5C1.2,2.3,0.7,5.1,0.3,7.9c-0.1,0.4,0,0.7,0.2,1l0,0
					C0.7,9.2,1,9.4,1.4,9.4C3.2,9.7,5.1,10,7,10.4V7.7C5.7,7.5,4.4,7.2,3.1,7C3.5,4.7,3.9,2.3,4.3-0.1"/>
			</g>
			<path id="Fill-567" class="st1" d="M222.3,183.1c-2.3,0.6-4.6,1.2-7,1.8c-0.6-2.3-1.2-4.6-1.8-7c-0.4-1.7-3-1-2.6,0.7
				c0.7,2.7,1.4,5.5,2.1,8.2c0.1,0.4,0.3,0.7,0.6,0.8l0,0c0.3,0.2,0.6,0.2,1,0.1c2.7-0.7,5.5-1.4,8.2-2.1
				C224.6,185.2,224,182.7,222.3,183.1"/>
			<g id="Group-571" transform="translate(233.000000, 182.973000)">
				<g id="Clip-570">
				</g>
				<defs>
					<filter id="Adobe_OpacityMaskFilter_22_" filterUnits="userSpaceOnUse" x="0.5" y="-1.6" width="11.5" height="9.4">
						<feColorMatrix  type="matrix" values="1 0 0 0 0  0 1 0 0 0  0 0 1 0 0  0 0 0 1 0"/>
					</filter>
				</defs>
				<mask maskUnits="userSpaceOnUse" x="0.5" y="-1.6" width="11.5" height="9.4" id="mask-46_1_">
					<g class="st47">
						<polygon id="path-45_1_" class="st3" points="0.5,-1.6 12,-1.6 12,7.7 0.5,7.7 						"/>
					</g>
				</mask>
				<path id="Fill-569" class="st48" d="M6.9-1.6L6.9-1.6C6.6-1.6,6.3-1.4,6-1.1C4.3,1.1,2.5,3.3,0.8,5.6c-1,1.3,1,3,2.1,1.6
					c1.5-1.9,2.9-3.8,4.4-5.7C8.9,2.8,10.4,4,12,5.2V1.8c-1.4-1.1-2.7-2.1-4.1-3.2C7.6-1.6,7.2-1.7,6.9-1.6"/>
			</g>
			<path id="Fill-572" class="st1" d="M226.7,176.1c1.4-2,2.8-3.9,4.1-5.9c1-1.4-1.2-2.9-2.2-1.5c-1.6,2.3-3.3,4.6-4.9,7
				c-0.2,0.3-0.3,0.7-0.2,1l0,0c0,0.3,0.2,0.6,0.5,0.8c2.3,1.6,4.6,3.3,7,4.9c1.4,1,2.9-1.2,1.5-2.2
				C230.6,178.9,228.6,177.5,226.7,176.1"/>
			<path id="Fill-574" class="st1" d="M206.8,166.8L206.8,166.8c-0.3,0.2-0.5,0.4-0.6,0.8c-0.7,2.8-1.4,5.5-2.1,8.2
				c-0.4,1.7,2.1,2.3,2.6,0.7c0.6-2.3,1.2-4.6,1.8-7c2.3,0.6,4.6,1.2,7,1.8c1.7,0.4,2.3-2.1,0.7-2.6c-2.7-0.7-5.5-1.4-8.2-2.1
				C207.4,166.6,207,166.7,206.8,166.8"/>
			<path id="Fill-576" class="st1" d="M172,175.2L172,175.2c-0.3,0.2-0.5,0.5-0.5,0.9c-0.3,2.8-0.6,5.6-0.9,8.5
				c-0.2,1.7,2.4,2,2.6,0.3c0.3-2.4,0.5-4.8,0.8-7.1c2.4,0.3,4.8,0.5,7.1,0.8c1.7,0.2,2-2.4,0.3-2.6c-2.8-0.3-5.6-0.6-8.5-0.9
				C172.5,174.9,172.2,175,172,175.2"/>
			<path id="Fill-578" class="st1" d="M181.5,170.5L181.5,170.5c0.3,0.2,0.6,0.3,1,0.2c2.8-0.7,5.5-1.3,8.3-2c1.7-0.4,1-3-0.6-2.6
				c-2.3,0.6-4.7,1.1-7,1.7c-0.6-2.3-1.1-4.7-1.7-7c-0.4-1.7-3-1-2.6,0.6c0.7,2.8,1.3,5.5,2,8.3C181,170.1,181.3,170.3,181.5,170.5"
				/>
			<path id="Fill-580" class="st1" d="M197.4,155.5L197.4,155.5c-0.3-0.2-0.6-0.3-1-0.3c-2.8,0.4-5.6,0.8-8.4,1.2
				c-1.7,0.2-1.3,2.9,0.4,2.6c2.4-0.3,4.7-0.7,7.1-1c0.3,2.4,0.6,4.7,1,7.1c0.2,1.7,2.9,1.3,2.6-0.4c-0.4-2.8-0.8-5.6-1.2-8.4
				C197.9,156,197.7,155.7,197.4,155.5"/>
			<path id="Fill-582" class="st1" d="M185.6,148.4L185.6,148.4c0.2,0.3,0.4,0.5,0.8,0.6c2.8,0.6,5.5,1.3,8.3,1.9
				c1.7,0.4,2.3-2.2,0.6-2.6c-2.3-0.5-4.7-1.1-7-1.6c0.5-2.3,1.1-4.7,1.6-7c0.4-1.7-2.2-2.3-2.6-0.6c-0.6,2.8-1.3,5.5-1.9,8.3
				C185.3,147.8,185.4,148.2,185.6,148.4"/>
			<path id="Fill-584" class="st1" d="M203.2,150.9L203.2,150.9c-0.2,0.3-0.2,0.6-0.1,1c0.7,2.7,1.5,5.5,2.2,8.2
				c0.4,1.6,3,1,2.6-0.7c-0.6-2.3-1.3-4.6-1.9-6.9c2.3-0.6,4.6-1.3,6.9-1.9c1.6-0.4,0.9-3-0.7-2.6c-2.7,0.7-5.5,1.5-8.2,2.2
				C203.6,150.4,203.3,150.6,203.2,150.9"/>
			<path id="Fill-586" class="st1" d="M220,154.7c2.1-1.9,4.2-3.8,6.4-5.7c0.3-0.3,0.4-0.6,0.4-0.9v0c0-0.3-0.1-0.6-0.3-0.9
				c-1.9-2.1-3.8-4.2-5.7-6.4c-1.1-1.3-3.1,0.5-2,1.8c1.6,1.8,3.2,3.6,4.8,5.4c-1.8,1.6-3.6,3.2-5.4,4.8
				C217,153.9,218.7,155.9,220,154.7"/>
			<path id="Fill-588" class="st1" d="M195.3,141.3c2.6,1.1,5.2,2.2,7.9,3.3c0.4,0.2,0.7,0.1,1,0l0,0c0.3-0.1,0.5-0.3,0.7-0.7
				c1.1-2.6,2.2-5.2,3.3-7.9c0.7-1.6-1.8-2.6-2.4-1c-0.9,2.2-1.8,4.4-2.8,6.6c-2.2-0.9-4.4-1.8-6.6-2.8
				C194.7,138.2,193.7,140.7,195.3,141.3"/>
			<path id="Fill-590" class="st1" d="M190.8,127.8c2.3,1.7,4.5,3.4,6.8,5.1c0.3,0.2,0.7,0.3,1,0.3l0,0c0.3,0,0.6-0.2,0.9-0.5
				c1.7-2.3,3.4-4.5,5.1-6.8c1-1.4-1.1-3-2.1-1.6c-1.4,1.9-2.9,3.8-4.3,5.7c-1.9-1.4-3.8-2.9-5.7-4.3
				C191.1,124.6,189.5,126.8,190.8,127.8"/>
			<g id="Group-594" transform="translate(238.000000, 95.973000)">
				<g id="Clip-593">
				</g>
				<defs>
					<filter id="Adobe_OpacityMaskFilter_23_" filterUnits="userSpaceOnUse" x="0.6" y="-1.2" width="6.4" height="7.7">
						<feColorMatrix  type="matrix" values="1 0 0 0 0  0 1 0 0 0  0 0 1 0 0  0 0 0 1 0"/>
					</filter>
				</defs>
				<mask maskUnits="userSpaceOnUse" x="0.6" y="-1.2" width="6.4" height="7.7" id="mask-48_1_">
					<g class="st49">
						<polygon id="path-47_1_" class="st3" points="0.6,-1.2 7,-1.2 7,6.5 0.6,6.5 						"/>
					</g>
				</mask>
				<path id="Fill-592" class="st50" d="M2.8,6.1C4.2,4.9,5.6,3.6,7,2.4v-3.6C5,0.6,3,2.4,1,4.2C-0.2,5.3,1.6,7.3,2.8,6.1"/>
			</g>
			<path id="Fill-595" class="st1" d="M238.5,111.9c-1.4-1.9-2.8-3.9-4.2-5.8c-1-1.4-3.1,0.2-2.1,1.6c1.7,2.3,3.3,4.6,5,6.9
				c0.2,0.3,0.5,0.5,0.9,0.5l0,0c0.3,0.1,0.6,0,1-0.2c2-1.5,4-2.9,6-4.4v-3c-0.2,0-0.5,0.1-0.7,0.3
				C242.3,109,240.4,110.5,238.5,111.9"/>
			<g id="Group-599" transform="translate(239.000000, 117.973000)">
				<g id="Clip-598">
				</g>
				<defs>
					<filter id="Adobe_OpacityMaskFilter_24_" filterUnits="userSpaceOnUse" x="0.6" y="-2" width="5.4" height="12.5">
						<feColorMatrix  type="matrix" values="1 0 0 0 0  0 1 0 0 0  0 0 1 0 0  0 0 0 1 0"/>
					</filter>
				</defs>
				<mask maskUnits="userSpaceOnUse" x="0.6" y="-2" width="5.4" height="12.5" id="mask-50_1_">
					<g class="st51">
						<polygon id="path-49_1_" class="st3" points="0.6,-2 6,-2 6,10.5 0.6,10.5 						"/>
					</g>
				</mask>
				<path id="Fill-597" class="st52" d="M5.6-1.6C4,0.7,2.4,3.1,0.9,5.4c-0.2,0.3-0.3,0.7-0.2,1l0,0c0,0.3,0.2,0.6,0.6,0.8
					C2.8,8.4,4.4,9.4,6,10.5V7.3c-0.7-0.5-1.5-1-2.2-1.5C4.5,4.8,5.2,3.7,6,2.6V-2C5.8-1.9,5.7-1.8,5.6-1.6"/>
			</g>
			<path id="Fill-600" class="st1" d="M226.1,115.5c1.8,1.6,3.5,3.3,5.3,4.9c-1.6,1.8-3.2,3.5-4.9,5.3c-1.2,1.3,0.8,3,1.9,1.8
				c1.9-2.1,3.8-4.2,5.8-6.3c0.3-0.3,0.4-0.6,0.3-0.9l0,0c0-0.3-0.1-0.6-0.4-0.9c-2.1-1.9-4.2-3.8-6.3-5.8
				C226.7,112.4,224.9,114.4,226.1,115.5"/>
			<path id="Fill-602" class="st1" d="M241.3,134.8L241.3,134.8c-0.3,0.2-0.5,0.4-0.6,0.8c-0.7,2.8-1.4,5.5-2.1,8.3
				c-0.4,1.7,2.1,2.3,2.6,0.7c0.6-2.3,1.2-4.6,1.8-7c0.7,0.2,1.4,0.3,2.1,0.5v-2.7c-0.9-0.2-1.8-0.5-2.7-0.7
				C241.9,134.6,241.5,134.7,241.3,134.8"/>
			<g id="Group-606" transform="translate(232.000000, 148.973000)">
				<g id="Clip-605">
				</g>
				<defs>
					<filter id="Adobe_OpacityMaskFilter_25_" filterUnits="userSpaceOnUse" x="0.7" y="-1.7" width="12.3" height="10.4">
						<feColorMatrix  type="matrix" values="1 0 0 0 0  0 1 0 0 0  0 0 1 0 0  0 0 0 1 0"/>
					</filter>
				</defs>
				<mask maskUnits="userSpaceOnUse" x="0.7" y="-1.7" width="12.3" height="10.4" id="mask-52_1_">
					<g class="st53">
						<polygon id="path-51_1_" class="st3" points="0.7,-1.7 13,-1.7 13,8.7 0.7,8.7 						"/>
					</g>
				</mask>
				<path id="Fill-604" class="st54" d="M12-1C11,1.2,10,3.4,9.1,5.6c-2.2-1-4.4-1.9-6.6-2.9C1,2-0.1,4.4,1.4,5.1
					C4,6.2,6.6,7.4,9.2,8.5c0.4,0.2,0.7,0.2,1,0l0,0c0.3-0.1,0.6-0.3,0.7-0.7c0.7-1.5,1.3-3,2-4.5v-5.1C12.6-1.7,12.2-1.5,12-1"/>
			</g>
			<path id="Fill-607" class="st1" d="M234.1,164.8c2.2,1,4.4,2,6.6,3c-1,2.2-2,4.4-3,6.6c-0.7,1.6,1.7,2.6,2.4,1.1
				c1.2-2.6,2.3-5.2,3.5-7.8c0.2-0.4,0.2-0.7,0-1l0,0c-0.1-0.3-0.3-0.6-0.7-0.7c-2.6-1.2-5.2-2.3-7.8-3.5
				C233.6,161.7,232.5,164.1,234.1,164.8"/>
			<path id="Fill-609" class="st1" d="M214.4,161.7c2.4,1.6,4.7,3.1,7.1,4.7c0.3,0.2,0.7,0.3,1,0.2l0,0c0.3,0,0.6-0.2,0.8-0.6
				c1.6-2.4,3.1-4.7,4.7-7.1c0.9-1.4-1.3-2.9-2.2-1.5c-1.3,2-2.7,4-4,6c-2-1.3-4-2.7-6-4C214.5,158.6,213,160.8,214.4,161.7"/>
			<path id="Fill-611" class="st1" d="M227,134.4L227,134.4c-0.1,0.3-0.1,0.7,0.1,1c1.3,2.5,2.6,5,3.9,7.5c0.8,1.5,3.1,0.3,2.3-1.2
				c-1.1-2.1-2.2-4.2-3.3-6.4c2.1-1.1,4.2-2.2,6.4-3.3c1.5-0.8,0.3-3.1-1.2-2.3c-2.5,1.3-5,2.6-7.5,3.9
				C227.3,133.8,227.1,134.1,227,134.4"/>
		</g>
	</g>
</g>
</svg>
