<?xml version="1.0" encoding="utf-8"?>
<!-- Generator: Adobe Illustrator 24.1.3, SVG Export Plug-In . SVG Version: 6.00 Build 0)  -->
<svg version="1.1" id="Layer_1" xmlns="http://www.w3.org/2000/svg" xmlns:xlink="http://www.w3.org/1999/xlink" x="0px" y="0px"
	 viewBox="0 0 710 323" style="enable-background:new 0 0 710 323;" xml:space="preserve">
<style type="text/css">
	.st0{fill-rule:evenodd;clip-rule:evenodd;fill:#FFFFFF;}
	.st1{fill:#979797;}
	.st2{enable-background:new    ;}
	.st3{fill:#0C153C;}
	.st4{fill-rule:evenodd;clip-rule:evenodd;fill:#496FEE;}
	.st5{fill:#FFFFFF;}
	.st6{fill-rule:evenodd;clip-rule:evenodd;fill:#F8F4F4;}
	.st7{fill:#34495E;}
	.st8{fill-rule:evenodd;clip-rule:evenodd;}
	.st9{fill-rule:evenodd;clip-rule:evenodd;fill:#D8D8D8;}
	.st10{fill-rule:evenodd;clip-rule:evenodd;fill:#B3B2B2;}
	.st11{fill-rule:evenodd;clip-rule:evenodd;fill:#0C153E;}
</style>
<g id="Welcome">
	<g id="Desktop-HD" transform="translate(-40.000000, -707.000000)">
		<g id="Product-Demo" transform="translate(1.000000, 683.000000)">
			<g id="Product-Demo-Screenshot" transform="translate(39.000000, 24.000000)">
				<g id="Rectangle_1_">
					<rect y="0" class="st0" width="710" height="323"/>
				</g>
				<g id="Table" transform="translate(15.000000, 117.000000)">
					<g id="Line-2-Copy-4">
						<rect x="0.5" y="170.5" class="st1" width="675" height="1"/>
					</g>
					<g class="st2">
						<path class="st3" d="M622.3,148.2c1.1,0,1.9,0.4,2.4,1l-0.6,1c-0.4-0.5-0.9-0.8-1.8-0.8c-1.6,0-2.4,1.5-2.4,3.1
							c0,0.1,0,0.2,0,0.3c0.4-0.6,1.3-1.3,2.4-1.3c1.6,0,2.9,0.9,2.9,2.8c0,1.6-1.2,2.9-3.1,2.9c-2.5,0-3.5-2.1-3.5-4.5
							C618.6,150.3,619.8,148.2,622.3,148.2z M622,152.6c-0.8,0-1.6,0.5-2,1.2c0.1,1,0.6,2.2,2.1,2.2c1.2,0,1.9-0.9,1.9-1.7
							C623.9,153.2,623,152.6,622,152.6z"/>
						<path class="st3" d="M628.5,148.2c1.3,0,2.1,0.9,2.1,2.2c0,1.2-0.9,2.1-2.1,2.1c-1.3,0-2.1-0.9-2.1-2.1
							C626.4,149.1,627.2,148.2,628.5,148.2z M628.5,149c-0.7,0-1.2,0.6-1.2,1.4c0,0.8,0.5,1.4,1.2,1.4c0.7,0,1.2-0.6,1.2-1.4
							C629.7,149.6,629.2,149,628.5,149z M633.2,148.3h0.8l-5.6,8.7h-0.8L633.2,148.3z M633.1,152.9c1.3,0,2.1,0.9,2.1,2.2
							c0,1.2-0.9,2.1-2.1,2.1c-1.3,0-2.1-0.9-2.1-2.1C631,153.8,631.8,152.9,633.1,152.9z M633.1,153.6c-0.7,0-1.2,0.6-1.2,1.4
							c0,0.8,0.5,1.4,1.2,1.4s1.2-0.6,1.2-1.4C634.3,154.2,633.8,153.6,633.1,153.6z"/>
					</g>
					<g class="st2">
						<path class="st3" d="M553.7,156.5c-0.4,0.4-0.9,0.6-1.8,0.6c-0.6,0-1-0.2-1.3-0.3c-0.3-0.1-0.6-0.3-1-0.3
							c-0.4,0-1,0.2-1.5,0.5l-0.5-0.9c1-0.5,1.6-1.1,1.6-1.9c0-0.3-0.1-0.5-0.2-0.8h-1.8v-0.8h1.2l0,0c-0.4-0.5-0.9-1.1-0.9-1.9
							c0-1.5,1.4-2.6,3-2.6c1.2,0,2.2,0.5,2.7,1.5l-1,0.6c-0.2-0.5-0.8-1-1.6-1c-0.9,0-1.7,0.6-1.7,1.5c0,0.7,0.3,1.1,0.7,1.6
							l0.2,0.3h1.9v0.8h-1.5c0,0.1,0.1,0.3,0.1,0.5c0,0.7-0.4,1.3-0.9,1.6c0.2-0.1,0.5-0.1,0.7-0.1c0.4,0,0.7,0.1,1,0.3
							c0.3,0.1,0.5,0.2,0.9,0.2c0.6,0,1-0.3,1.2-0.5L553.7,156.5z"/>
						<path class="st3" d="M556.5,150l-1.4,1.5l-0.8-0.8l2.3-2.4h1.1v8.7h-1.3V150z"/>
						<path class="st3" d="M560.6,155.2c0.4,0.5,1,0.8,1.8,0.8c1.7,0,2.4-1.6,2.4-3.1v-0.3c-0.4,0.6-1.3,1.3-2.4,1.3
							c-1.6,0-2.9-0.9-2.9-2.8c0-1.5,1.2-2.9,3.1-2.9c2.5,0,3.5,2.1,3.5,4.5c0,2.4-1.2,4.5-3.7,4.5c-1.1,0-1.9-0.4-2.4-1
							L560.6,155.2z M562.7,149.3c-1.2,0-1.9,0.9-1.9,1.7c0,1.2,0.9,1.7,1.9,1.7c0.8,0,1.6-0.5,2-1.2
							C564.7,150.6,564.1,149.3,562.7,149.3z"/>
						<path class="st3" d="M568.6,155.2c0.4,0.5,1,0.8,1.8,0.8c1.7,0,2.4-1.6,2.4-3.1v-0.3c-0.4,0.6-1.3,1.3-2.4,1.3
							c-1.6,0-2.9-0.9-2.9-2.8c0-1.5,1.2-2.9,3.1-2.9c2.5,0,3.5,2.1,3.5,4.5c0,2.4-1.2,4.5-3.7,4.5c-1.1,0-1.9-0.4-2.4-1
							L568.6,155.2z M570.7,149.3c-1.2,0-1.9,0.9-1.9,1.7c0,1.2,0.9,1.7,1.9,1.7c0.8,0,1.6-0.5,2-1.2
							C572.7,150.6,572.1,149.3,570.7,149.3z"/>
						<path class="st3" d="M576.1,155.5c0.4,0,0.8,0.4,0.8,0.8c0,0.4-0.4,0.8-0.8,0.8c-0.4,0-0.8-0.4-0.8-0.8
							C575.3,155.9,575.7,155.5,576.1,155.5z"/>
						<path class="st3" d="M579.6,155.2c0.4,0.5,1,0.8,1.8,0.8c1.7,0,2.4-1.6,2.4-3.1v-0.3c-0.4,0.6-1.3,1.3-2.4,1.3
							c-1.6,0-2.9-0.9-2.9-2.8c0-1.5,1.2-2.9,3.1-2.9c2.5,0,3.5,2.1,3.5,4.5c0,2.4-1.2,4.5-3.7,4.5c-1.1,0-1.9-0.4-2.4-1
							L579.6,155.2z M581.7,149.3c-1.2,0-1.9,0.9-1.9,1.7c0,1.2,0.9,1.7,1.9,1.7c0.8,0,1.6-0.5,2-1.2
							C583.6,150.6,583.1,149.3,581.7,149.3z"/>
						<path class="st3" d="M587.5,155.2c0.4,0.5,1,0.8,1.8,0.8c1.7,0,2.4-1.6,2.4-3.1v-0.3c-0.4,0.6-1.3,1.3-2.4,1.3
							c-1.6,0-2.9-0.9-2.9-2.8c0-1.5,1.2-2.9,3.1-2.9c2.5,0,3.5,2.1,3.5,4.5c0,2.4-1.2,4.5-3.7,4.5c-1.1,0-1.9-0.4-2.4-1
							L587.5,155.2z M589.6,149.3c-1.2,0-1.9,0.9-1.9,1.7c0,1.2,0.9,1.7,1.9,1.7c0.8,0,1.6-0.5,2-1.2
							C591.6,150.6,591.1,149.3,589.6,149.3z"/>
					</g>
					<g class="st2">
						<path class="st3" d="M40.2,154.8c0.6,0.6,1.5,1.2,2.7,1.2c1.4,0,1.9-0.7,1.9-1.3c0-0.9-1-1.2-2.1-1.5c-1.4-0.4-3-0.8-3-2.5
							c0-1.4,1.3-2.5,3.1-2.5c1.3,0,2.4,0.4,3.2,1.2l-0.8,1c-0.7-0.7-1.6-1-2.5-1c-1,0-1.6,0.5-1.6,1.2c0,0.8,0.9,1,2,1.3
							c1.4,0.4,3.1,0.8,3.1,2.7c0,1.4-0.9,2.6-3.3,2.6c-1.5,0-2.7-0.6-3.4-1.4L40.2,154.8z"/>
						<path class="st3" d="M51.7,156.3c-0.5,0.5-1.2,0.8-2.1,0.8c-1,0-2.2-0.7-2.2-2.1c0-1.4,1.1-2.1,2.2-2.1c0.8,0,1.6,0.3,2.1,0.8
							v-1c0-0.8-0.6-1.2-1.5-1.2c-0.7,0-1.3,0.3-1.9,0.8l-0.5-0.8c0.7-0.7,1.6-1,2.6-1c1.4,0,2.5,0.6,2.5,2.2v4.2h-1.2V156.3z
							 M51.7,154.6c-0.4-0.5-1-0.7-1.6-0.7c-0.8,0-1.4,0.5-1.4,1.2s0.6,1.2,1.4,1.2c0.6,0,1.3-0.2,1.6-0.7V154.6z"/>
						<path class="st3" d="M62.6,152.8c0-0.7-0.3-1.2-1.1-1.2c-0.6,0-1.3,0.4-1.6,0.9v4.5h-1.2v-4.2c0-0.7-0.3-1.2-1.1-1.2
							c-0.6,0-1.2,0.5-1.5,0.9v4.5H55v-6.3h1.2v0.9c0.3-0.4,1.1-1,2-1c0.9,0,1.5,0.5,1.7,1.2c0.4-0.6,1.2-1.2,2.1-1.2
							c1.2,0,1.8,0.6,1.8,1.9v4.5h-1.2V152.8z"/>
						<path class="st3" d="M65.9,155.3c0.4,0.5,1.3,0.9,2.1,0.9c0.9,0,1.4-0.4,1.4-0.9c0-0.6-0.7-0.8-1.5-1
							c-1.1-0.2-2.3-0.5-2.3-1.9c0-1,0.9-1.9,2.4-1.9c1.1,0,1.9,0.4,2.4,0.9l-0.5,0.8c-0.4-0.4-1.1-0.8-1.9-0.8s-1.3,0.3-1.3,0.8
							c0,0.5,0.7,0.7,1.5,0.9c1.1,0.2,2.4,0.5,2.4,2c0,1.1-0.9,1.9-2.5,1.9c-1.1,0-2-0.3-2.6-1L65.9,155.3z"/>
						<path class="st3" d="M76.4,156.1c-0.5,0.5-1.3,1-2.2,1c-1.3,0-2-0.7-2-2v-4.4h1.2v4c0,1,0.5,1.4,1.3,1.4
							c0.7,0,1.4-0.4,1.7-0.9v-4.5h1.2v6.3h-1.2V156.1z"/>
						<path class="st3" d="M83.9,153c0-1-0.5-1.4-1.3-1.4c-0.7,0-1.4,0.4-1.7,0.9v4.5h-1.2v-6.3h1.2v0.9c0.4-0.5,1.2-1,2.2-1
							c1.3,0,2,0.7,2,2v4.4h-1.2V153z"/>
						<path class="st3" d="M87.7,157.8c0.5,0.6,1.2,0.8,2,0.8c1,0,2-0.5,2-1.8V156c-0.5,0.6-1.2,1.1-2.1,1.1c-1.6,0-2.8-1.2-2.8-3.2
							c0-2,1.2-3.2,2.8-3.2c0.8,0,1.6,0.4,2.1,1.1v-0.9h1.2v6c0,2.2-1.6,2.8-3.1,2.8c-1.1,0-1.8-0.2-2.6-0.9L87.7,157.8z
							 M91.7,152.5c-0.3-0.5-1-0.9-1.7-0.9c-1.2,0-1.9,0.9-1.9,2.2c0,1.3,0.7,2.2,1.9,2.2c0.7,0,1.4-0.4,1.7-0.9V152.5z"/>
						<path class="st3" d="M102.7,148.2c1.6,0,2.7,0.7,3.4,1.7l-1.1,0.6c-0.5-0.7-1.4-1.2-2.4-1.2c-1.8,0-3.2,1.4-3.2,3.3
							c0,1.9,1.4,3.3,3.2,3.3c1,0,1.8-0.5,2.2-0.9v-1.6h-2.8v-1.1h4.1v3.2c-0.8,0.9-2,1.5-3.5,1.5c-2.5,0-4.5-1.8-4.5-4.5
							S100.2,148.2,102.7,148.2z"/>
						<path class="st3" d="M111.9,156.3c-0.5,0.5-1.2,0.8-2.1,0.8c-1,0-2.2-0.7-2.2-2.1c0-1.4,1.1-2.1,2.2-2.1
							c0.8,0,1.6,0.3,2.1,0.8v-1c0-0.8-0.6-1.2-1.5-1.2c-0.7,0-1.3,0.3-1.9,0.8l-0.5-0.8c0.7-0.7,1.6-1,2.6-1c1.4,0,2.5,0.6,2.5,2.2
							v4.2h-1.2V156.3z M111.9,154.6c-0.4-0.5-1-0.7-1.6-0.7c-0.8,0-1.4,0.5-1.4,1.2s0.6,1.2,1.4,1.2c0.6,0,1.3-0.2,1.6-0.7V154.6z"
							/>
						<path class="st3" d="M115.2,148.3h1.2v8.7h-1.2V148.3z"/>
						<path class="st3" d="M122.3,156.3c-0.5,0.5-1.2,0.8-2.1,0.8c-1,0-2.2-0.7-2.2-2.1c0-1.4,1.1-2.1,2.2-2.1
							c0.8,0,1.6,0.3,2.1,0.8v-1c0-0.8-0.6-1.2-1.5-1.2c-0.7,0-1.3,0.3-1.9,0.8l-0.5-0.8c0.7-0.7,1.6-1,2.6-1c1.4,0,2.5,0.6,2.5,2.2
							v4.2h-1.2V156.3z M122.3,154.6c-0.4-0.5-1-0.7-1.6-0.7c-0.8,0-1.4,0.5-1.4,1.2s0.6,1.2,1.4,1.2c0.6,0,1.3-0.2,1.6-0.7V154.6z"
							/>
						<path class="st3" d="M127.9,154.6l-1.8,2.4h-1.3l2.4-3.2l-2.2-3.1h1.3l1.6,2.3l1.6-2.3h1.3l-2.2,3.1l2.4,3.2h-1.3L127.9,154.6
							z"/>
						<path class="st3" d="M132.6,158.5c0.4,0,0.7-0.1,0.9-0.6l0.4-0.8l-2.6-6.3h1.2l2,4.9l2-4.9h1.3l-3.1,7.5c-0.4,1-1.1,1.3-2,1.4
							c-0.2,0-0.5,0-0.7-0.1l0.2-1.1C132.2,158.5,132.5,158.5,132.6,158.5z"/>
						<path class="st3" d="M144.7,149.5H142v-1.1h6.7v1.1H146v7.5h-1.3V149.5z"/>
						<path class="st3" d="M152.9,156.3c-0.5,0.5-1.2,0.8-2.1,0.8c-1,0-2.2-0.7-2.2-2.1c0-1.4,1.1-2.1,2.2-2.1
							c0.8,0,1.6,0.3,2.1,0.8v-1c0-0.8-0.6-1.2-1.5-1.2c-0.7,0-1.3,0.3-1.9,0.8l-0.5-0.8c0.7-0.7,1.6-1,2.6-1c1.4,0,2.5,0.6,2.5,2.2
							v4.2h-1.2V156.3z M152.9,154.6c-0.4-0.5-1-0.7-1.6-0.7c-0.8,0-1.4,0.5-1.4,1.2s0.6,1.2,1.4,1.2c0.6,0,1.3-0.2,1.6-0.7V154.6z"
							/>
						<path class="st3" d="M156.2,148.3h1.2v3.3c0.5-0.7,1.2-1.1,2.1-1.1c1.6,0,2.8,1.3,2.8,3.3c0,2.1-1.2,3.3-2.8,3.3
							c-0.8,0-1.6-0.4-2.1-1.1v0.9h-1.2V148.3z M159.1,156.1c1.2,0,1.9-0.9,1.9-2.2c0-1.3-0.7-2.3-1.9-2.3c-0.7,0-1.4,0.4-1.7,0.9
							v2.7C157.7,155.7,158.4,156.1,159.1,156.1z"/>
						<path class="st3" d="M173,155.2h-4.3l-0.7,1.8h-1.4l3.4-8.7h1.6l3.4,8.7h-1.4L173,155.2z M169.2,154h3.5l-1.8-4.6L169.2,154z"
							/>
						<path class="st3" d="M179.6,153.8c0-2.1,0.7-4.2,1.9-5.7l0.7,0.5c-0.8,1.6-1.3,3.1-1.3,5.2s0.5,3.6,1.3,5.2l-0.7,0.5
							C180.3,158,179.6,155.9,179.6,153.8z"/>
						<path class="st3" d="M183.4,156c3.3-2.5,4.7-3.8,4.7-5.2c0-1-0.8-1.5-1.7-1.5c-1,0-1.8,0.4-2.4,1.1l-0.8-0.8
							c0.7-0.9,1.9-1.4,3.1-1.4c1.6,0,3,0.9,3,2.6c0,1.7-1.6,3.2-4,5h4v1.1h-6.1V156z"/>
						<path class="st3" d="M194.6,148.2c2.4,0,3.4,2.3,3.4,4.5s-1,4.5-3.4,4.5s-3.4-2.3-3.4-4.5S192.2,148.2,194.6,148.2z
							 M194.6,149.4c-1.5,0-2.1,1.6-2.1,3.3s0.5,3.3,2.1,3.3s2.1-1.6,2.1-3.3S196.1,149.4,194.6,149.4z"/>
						<path class="st3" d="M201.2,150l-1.4,1.5l-0.8-0.8l2.3-2.4h1.1v8.7h-1.3V150z"/>
						<path class="st3" d="M205.4,155.2c0.4,0.5,1,0.8,1.8,0.8c1.7,0,2.4-1.6,2.4-3.1v-0.3c-0.4,0.6-1.3,1.3-2.4,1.3
							c-1.6,0-2.9-0.9-2.9-2.8c0-1.5,1.2-2.9,3.1-2.9c2.5,0,3.5,2.1,3.5,4.5c0,2.4-1.2,4.5-3.7,4.5c-1.1,0-1.9-0.4-2.4-1
							L205.4,155.2z M207.5,149.3c-1.2,0-1.9,0.9-1.9,1.7c0,1.2,0.9,1.7,1.9,1.7c0.8,0,1.6-0.5,2-1.2
							C209.5,150.6,208.9,149.3,207.5,149.3z"/>
						<path class="st3" d="M211.9,148.6l0.7-0.5c1.2,1.6,1.9,3.7,1.9,5.7s-0.7,4.2-1.9,5.7l-0.7-0.5c0.9-1.6,1.4-3.1,1.4-5.2
							S212.8,150.3,211.9,148.6z"/>
						<path class="st3" d="M221.3,150l-1.4,1.5l-0.8-0.8l2.3-2.4h1.1v8.7h-1.3V150z"/>
						<path class="st3" d="M227.8,148.2c2.4,0,3.4,2.3,3.4,4.5s-1,4.5-3.4,4.5s-3.4-2.3-3.4-4.5S225.4,148.2,227.8,148.2z
							 M227.8,149.4c-1.5,0-2.1,1.6-2.1,3.3s0.5,3.3,2.1,3.3s2.1-1.6,2.1-3.3S229.4,149.4,227.8,149.4z"/>
						<path class="st3" d="M233.2,155.5c0.4,0,0.8,0.4,0.8,0.8c0,0.4-0.4,0.8-0.8,0.8s-0.8-0.4-0.8-0.8
							C232.4,155.9,232.8,155.5,233.2,155.5z"/>
						<path class="st3" d="M236.3,150l-1.4,1.5l-0.8-0.8l2.3-2.4h1.1v8.7h-1.3V150z"/>
						<path class="st3" d="M239.5,148.9c0-0.4,0.3-0.7,0.7-0.7c0.4,0,0.7,0.3,0.7,0.7c0,0.2-0.4,2.9-0.4,2.9h-0.6
							C239.9,151.8,239.5,149.1,239.5,148.9z M241.5,148.9c0-0.4,0.3-0.7,0.7-0.7c0.4,0,0.7,0.3,0.7,0.7c0,0.2-0.4,2.9-0.4,2.9h-0.5
							C241.9,151.8,241.5,149.1,241.5,148.9z"/>
						<path class="st3" d="M250.4,149.5h-2.7v-1.1h6.7v1.1h-2.7v7.5h-1.3V149.5z"/>
						<path class="st3" d="M258.7,156.3c-0.5,0.5-1.2,0.8-2.1,0.8c-1,0-2.2-0.7-2.2-2.1c0-1.4,1.1-2.1,2.2-2.1
							c0.8,0,1.6,0.3,2.1,0.8v-1c0-0.8-0.6-1.2-1.5-1.2c-0.7,0-1.3,0.3-1.9,0.8l-0.5-0.8c0.7-0.7,1.6-1,2.6-1c1.4,0,2.5,0.6,2.5,2.2
							v4.2h-1.2V156.3z M258.7,154.6c-0.4-0.5-1-0.7-1.6-0.7c-0.8,0-1.4,0.5-1.4,1.2s0.6,1.2,1.4,1.2c0.6,0,1.3-0.2,1.6-0.7V154.6z"
							/>
						<path class="st3" d="M261.9,148.3h1.2v3.3c0.5-0.7,1.2-1.1,2.1-1.1c1.6,0,2.8,1.3,2.8,3.3c0,2.1-1.2,3.3-2.8,3.3
							c-0.8,0-1.6-0.4-2.1-1.1v0.9h-1.2V148.3z M264.9,156.1c1.2,0,1.9-0.9,1.9-2.2c0-1.3-0.7-2.3-1.9-2.3c-0.7,0-1.4,0.4-1.7,0.9
							v2.7C263.4,155.7,264.1,156.1,264.9,156.1z"/>
						<path class="st3" d="M269.7,148.3h1.2v8.7h-1.2V148.3z"/>
						<path class="st3" d="M275.7,150.6c1.9,0,3.1,1.5,3.1,3.4v0.3h-5c0.1,1.1,0.9,2,2.1,2c0.7,0,1.4-0.3,1.9-0.7l0.5,0.8
							c-0.6,0.6-1.5,0.9-2.5,0.9c-1.9,0-3.3-1.3-3.3-3.3C272.6,152,273.9,150.6,275.7,150.6z M273.8,153.4h3.8
							c0-0.8-0.6-1.9-1.9-1.9C274.5,151.5,273.9,152.5,273.8,153.4z"/>
						<path class="st3" d="M280.7,155.6v-3.9h-1v-1h1V149h1.2v1.7h1.3v1h-1.3v3.6c0,0.4,0.2,0.8,0.6,0.8c0.3,0,0.5-0.1,0.6-0.2
							l0.3,0.9c-0.2,0.2-0.6,0.4-1.2,0.4C281.2,157.2,280.7,156.6,280.7,155.6z"/>
						<path class="st3" d="M284.5,158.2c0.4-0.3,0.8-0.8,0.9-1.2c0,0-0.1,0-0.2,0c-0.4,0-0.7-0.3-0.7-0.7c0-0.4,0.4-0.8,0.8-0.8
							c0.5,0,0.9,0.4,0.9,1.1c0,0.8-0.5,1.6-1.1,2.1L284.5,158.2z"/>
						<path class="st3" d="M297.1,155.2h-4.3l-0.7,1.8h-1.4l3.4-8.7h1.6l3.4,8.7h-1.4L297.1,155.2z M293.2,154h3.5l-1.8-4.6
							L293.2,154z"/>
						<path class="st3" d="M304.7,153c0-1-0.5-1.4-1.3-1.4c-0.7,0-1.4,0.4-1.7,0.9v4.5h-1.2v-6.3h1.2v0.9c0.4-0.5,1.2-1,2.2-1
							c1.3,0,2,0.7,2,2v4.4h-1.2V153z"/>
						<path class="st3" d="M312.5,156.1c-0.5,0.6-1.2,1.1-2.1,1.1c-1.6,0-2.8-1.2-2.8-3.3c0-2,1.2-3.3,2.8-3.3
							c0.8,0,1.5,0.4,2.1,1.1v-3.3h1.2v8.7h-1.2V156.1z M312.5,152.5c-0.3-0.5-1-0.9-1.7-0.9c-1.2,0-1.9,0.9-1.9,2.3
							c0,1.3,0.7,2.2,1.9,2.2c0.7,0,1.4-0.4,1.7-0.9V152.5z"/>
						<path class="st3" d="M315.7,150.7h1.2v1c0.5-0.6,1.2-1.1,2.1-1.1v1.2c-0.1,0-0.2,0-0.4,0c-0.6,0-1.4,0.4-1.7,0.9v4.4h-1.2
							V150.7z"/>
						<path class="st3" d="M320,153.9c0-1.8,1.2-3.3,3.2-3.3c2,0,3.2,1.5,3.2,3.3c0,1.8-1.2,3.3-3.2,3.3
							C321.2,157.2,320,155.7,320,153.9z M325.1,153.9c0-1.2-0.7-2.2-2-2.2c-1.2,0-2,1.1-2,2.2c0,1.2,0.7,2.3,2,2.3
							C324.4,156.1,325.1,155,325.1,153.9z"/>
						<path class="st3" d="M327.9,148.9c0-0.4,0.4-0.8,0.8-0.8c0.4,0,0.8,0.3,0.8,0.8s-0.3,0.7-0.8,0.7
							C328.2,149.7,327.9,149.3,327.9,148.9z M328,150.7h1.2v6.3H328V150.7z"/>
						<path class="st3" d="M335.8,156.1c-0.5,0.6-1.2,1.1-2.1,1.1c-1.6,0-2.8-1.2-2.8-3.3c0-2,1.2-3.3,2.8-3.3
							c0.8,0,1.5,0.4,2.1,1.1v-3.3h1.2v8.7h-1.2V156.1z M335.8,152.5c-0.3-0.5-1-0.9-1.7-0.9c-1.2,0-1.9,0.9-1.9,2.3
							c0,1.3,0.7,2.2,1.9,2.2c0.7,0,1.4-0.4,1.7-0.9V152.5z"/>
						<path class="st3" d="M338.9,158.2c0.4-0.3,0.8-0.8,0.9-1.2c0,0-0.1,0-0.2,0c-0.4,0-0.7-0.3-0.7-0.7c0-0.4,0.4-0.8,0.8-0.8
							c0.5,0,0.9,0.4,0.9,1.1c0,0.8-0.5,1.6-1.1,2.1L338.9,158.2z"/>
						<path class="st3" d="M346.1,154.9c0.5,0.7,1.4,1.1,2.4,1.1c1.2,0,1.9-0.6,1.9-1.5c0-1-0.8-1.4-2-1.4c-0.4,0-0.8,0-0.9,0V152
							c0.1,0,0.6,0,0.9,0c1.1,0,1.9-0.4,1.9-1.3c0-0.9-0.8-1.4-1.9-1.4c-0.9,0-1.6,0.4-2.3,1l-0.7-0.8c0.7-0.8,1.7-1.4,3.1-1.4
							c1.8,0,3,0.9,3,2.3c0,1.2-1,1.8-1.9,2c0.8,0.1,2,0.8,2,2.1c0,1.5-1.2,2.5-3.2,2.5c-1.5,0-2.6-0.6-3.2-1.4L346.1,154.9z"/>
						<path class="st3" d="M353.3,156c3.2-2.5,4.7-3.8,4.7-5.2c0-1-0.8-1.5-1.7-1.5c-1,0-1.8,0.4-2.4,1.1l-0.8-0.8
							c0.7-0.9,1.9-1.4,3.1-1.4c1.6,0,3,0.9,3,2.6c0,1.7-1.6,3.2-4,5h4v1.1h-6.1V156z"/>
						<path class="st3" d="M365.6,148.2c1.6,0,2.7,0.7,3.4,1.7l-1.1,0.6c-0.5-0.7-1.4-1.2-2.4-1.2c-1.8,0-3.2,1.4-3.2,3.3
							c0,1.9,1.4,3.3,3.2,3.3c1,0,1.8-0.5,2.2-0.9v-1.6H365v-1.1h4.1v3.2c-0.8,0.9-2,1.5-3.5,1.5c-2.5,0-4.5-1.8-4.5-4.5
							S363.1,148.2,365.6,148.2z"/>
						<path class="st3" d="M371,148.3h4.1c1.5,0,2.4,0.9,2.4,2.2c0,1.1-0.7,1.8-1.5,2c0.9,0.1,1.7,1.1,1.7,2.1
							c0,1.4-0.9,2.3-2.5,2.3H371V148.3z M374.8,152c0.9,0,1.4-0.5,1.4-1.3c0-0.7-0.5-1.3-1.4-1.3h-2.5v2.5H374.8z M374.9,155.9
							c0.9,0,1.5-0.5,1.5-1.4c0-0.7-0.5-1.3-1.5-1.3h-2.6v2.7H374.9z"/>
						<path class="st3" d="M379.3,158.2c0.4-0.3,0.8-0.8,0.9-1.2c0,0-0.1,0-0.2,0c-0.4,0-0.7-0.3-0.7-0.7c0-0.4,0.4-0.8,0.8-0.8
							c0.5,0,0.9,0.4,0.9,1.1c0,0.8-0.5,1.6-1.1,2.1L379.3,158.2z"/>
						<path class="st3" d="M386.2,156c3.2-2.5,4.7-3.8,4.7-5.2c0-1-0.8-1.5-1.7-1.5c-1,0-1.8,0.4-2.4,1.1l-0.8-0.8
							c0.7-0.9,1.9-1.4,3.1-1.4c1.6,0,3,0.9,3,2.6c0,1.7-1.6,3.2-4,5h4v1.1h-6.1V156z"/>
						<path class="st3" d="M398.5,148.2c1.6,0,2.7,0.7,3.4,1.7l-1.1,0.6c-0.5-0.7-1.4-1.2-2.4-1.2c-1.8,0-3.2,1.4-3.2,3.3
							c0,1.9,1.4,3.3,3.2,3.3c1,0,1.8-0.5,2.2-0.9v-1.6h-2.8v-1.1h4.1v3.2c-0.8,0.9-2,1.5-3.5,1.5c-2.5,0-4.5-1.8-4.5-4.5
							S396,148.2,398.5,148.2z"/>
						<path class="st3" d="M403.9,148.3h4.1c1.5,0,2.4,0.9,2.4,2.2c0,1.1-0.7,1.8-1.5,2c0.9,0.1,1.7,1.1,1.7,2.1
							c0,1.4-0.9,2.3-2.5,2.3h-4.2V148.3z M407.7,152c0.9,0,1.4-0.5,1.4-1.3c0-0.7-0.5-1.3-1.4-1.3h-2.5v2.5H407.7z M407.8,155.9
							c0.9,0,1.5-0.5,1.5-1.4c0-0.7-0.5-1.3-1.5-1.3h-2.6v2.7H407.8z"/>
						<path class="st3" d="M418.9,153.7h-1.6v3.3H416v-8.7h3.7c1.7,0,2.8,1.1,2.8,2.7c0,1.6-1.1,2.4-2.2,2.5l2.2,3.5H421
							L418.9,153.7z M419.5,149.5h-2.2v3h2.2c0.9,0,1.6-0.6,1.6-1.5S420.4,149.5,419.5,149.5z"/>
						<path class="st3" d="M429.8,155.2h-4.3l-0.7,1.8h-1.4l3.4-8.7h1.6l3.4,8.7h-1.4L429.8,155.2z M425.9,154h3.5l-1.8-4.6
							L425.9,154z"/>
						<path class="st3" d="M440.6,150.1l-2.8,6.9h-0.5l-2.8-6.9v6.9h-1.3v-8.7h1.9l2.5,6.2l2.5-6.2h1.9v8.7h-1.3V150.1z"/>
						<path class="st3" d="M443.9,158.2c0.4-0.3,0.8-0.8,0.9-1.2c0,0-0.1,0-0.2,0c-0.4,0-0.7-0.3-0.7-0.7c0-0.4,0.4-0.8,0.8-0.8
							c0.5,0,0.9,0.4,0.9,1.1c0,0.8-0.5,1.6-1.1,2.1L443.9,158.2z"/>
						<path class="st3" d="M455.9,150.3l-1.8,6.7h-1.4l-2.5-8.7h1.5l1.8,7l1.9-7h1.1l1.9,7l1.8-7h1.5L459,157h-1.4L455.9,150.3z"/>
						<path class="st3" d="M462.7,148.9c0-0.4,0.4-0.8,0.8-0.8c0.4,0,0.8,0.3,0.8,0.8s-0.3,0.7-0.8,0.7
							C463,149.7,462.7,149.3,462.7,148.9z M462.8,150.7h1.2v6.3h-1.2V150.7z"/>
						<path class="st3" d="M465.5,153.3h3.1v1h-3.1V153.3z"/>
						<path class="st3" d="M470.3,148.3h5.8v1.1h-4.5v2.5h4.4v1.1h-4.4v3.8h-1.3V148.3z"/>
						<path class="st3" d="M477.5,148.9c0-0.4,0.4-0.8,0.8-0.8c0.4,0,0.8,0.3,0.8,0.8s-0.3,0.7-0.8,0.7
							C477.9,149.7,477.5,149.3,477.5,148.9z M477.7,150.7h1.2v6.3h-1.2V150.7z"/>
						<path class="st3" d="M480.8,158.2c0.4-0.3,0.8-0.8,0.9-1.2c0,0-0.1,0-0.2,0c-0.4,0-0.7-0.3-0.7-0.7c0-0.4,0.4-0.8,0.8-0.8
							c0.5,0,0.9,0.4,0.9,1.1c0,0.8-0.5,1.6-1.1,2.1L480.8,158.2z"/>
						<path class="st3" d="M487.9,148.3h4.1c1.5,0,2.4,0.9,2.4,2.2c0,1.1-0.7,1.8-1.5,2c0.9,0.1,1.7,1.1,1.7,2.1
							c0,1.4-0.9,2.3-2.5,2.3h-4.2V148.3z M491.7,152c0.9,0,1.4-0.5,1.4-1.3c0-0.7-0.5-1.3-1.4-1.3h-2.5v2.5H491.7z M491.8,155.9
							c0.9,0,1.5-0.5,1.5-1.4c0-0.7-0.5-1.3-1.5-1.3h-2.6v2.7H491.8z"/>
						<path class="st3" d="M496.4,148.3h1.2v8.7h-1.2V148.3z"/>
						<path class="st3" d="M503.5,156.3c-0.5,0.5-1.2,0.8-2.1,0.8c-1,0-2.2-0.7-2.2-2.1c0-1.4,1.1-2.1,2.2-2.1
							c0.8,0,1.6,0.3,2.1,0.8v-1c0-0.8-0.6-1.2-1.5-1.2c-0.7,0-1.3,0.3-1.9,0.8l-0.5-0.8c0.7-0.7,1.6-1,2.6-1c1.4,0,2.5,0.6,2.5,2.2
							v4.2h-1.2V156.3z M503.5,154.6c-0.4-0.5-1-0.7-1.6-0.7c-0.8,0-1.4,0.5-1.4,1.2s0.6,1.2,1.4,1.2c0.6,0,1.3-0.2,1.6-0.7V154.6z"
							/>
						<path class="st3" d="M509.6,150.6c1.2,0,1.9,0.5,2.4,1.1l-0.8,0.7c-0.4-0.5-0.9-0.8-1.5-0.8c-1.2,0-2,0.9-2,2.2
							c0,1.3,0.8,2.3,2,2.3c0.6,0,1.1-0.3,1.5-0.8l0.8,0.7c-0.5,0.6-1.2,1.1-2.4,1.1c-1.9,0-3.2-1.4-3.2-3.3
							C506.4,152,507.7,150.6,509.6,150.6z"/>
						<path class="st3" d="M515.6,154.3l-0.9,1v1.7h-1.2v-8.7h1.2v5.6l3-3.2h1.5l-2.7,2.8l2.7,3.4h-1.5L515.6,154.3z"/>
					</g>
					<g id="Checkboxes-_x2F_--filled-_x2F_-Active" transform="translate(13.000000, 145.000000)">
						<g transform="translate(0.000000, 1.000000)">
							<g id="Check_box_base">
								<path class="st4" d="M2,0h11.1c1.1,0,2,0.9,2,2v12c0,1.1-0.9,2-2,2H2c-1.1,0-2-0.9-2-2V2C0,0.9,0.9,0,2,0z"/>
							</g>
							<g id="Icon-:-thick-check" transform="translate(3.764706, 6.000000)">
								<g id="Stroke-23">
									<path class="st5" d="M2.1,5.8c-0.3,0-0.5-0.1-0.7-0.3l-2-2.2C-1,2.8-1,2.2-0.6,1.8c0.4-0.4,1-0.3,1.4,0.1l2,2.2
										c0.4,0.4,0.3,1-0.1,1.4C2.6,5.7,2.3,5.8,2.1,5.8z"/>
								</g>
								<g id="Stroke-25">
									<path class="st5" d="M2.4,5.6c-0.2,0-0.5-0.1-0.7-0.3C1.3,5,1.2,4.4,1.6,4l4.2-4.6c0.4-0.4,1-0.4,1.4-0.1
										c0.4,0.4,0.4,1,0.1,1.4L3.1,5.3C2.9,5.5,2.6,5.6,2.4,5.6z"/>
								</g>
							</g>
						</g>
					</g>
					<g id="Line-2-Copy-3">
						<rect x="0.5" y="134.5" class="st1" width="675" height="1"/>
					</g>
					<g class="st2">
						<path class="st3" d="M622.3,112.2c1.1,0,1.9,0.4,2.4,1l-0.6,1c-0.4-0.5-0.9-0.8-1.8-0.8c-1.6,0-2.4,1.5-2.4,3.1
							c0,0.1,0,0.2,0,0.3c0.4-0.6,1.3-1.3,2.4-1.3c1.6,0,2.9,0.9,2.9,2.8c0,1.6-1.2,2.9-3.1,2.9c-2.5,0-3.5-2.1-3.5-4.5
							C618.6,114.3,619.8,112.2,622.3,112.2z M622,116.6c-0.8,0-1.6,0.5-2,1.2c0.1,1,0.6,2.2,2.1,2.2c1.2,0,1.9-0.9,1.9-1.7
							C623.9,117.2,623,116.6,622,116.6z"/>
						<path class="st3" d="M628.5,112.2c1.3,0,2.1,0.9,2.1,2.2c0,1.2-0.9,2.1-2.1,2.1c-1.3,0-2.1-0.9-2.1-2.1
							C626.4,113.1,627.2,112.2,628.5,112.2z M628.5,113c-0.7,0-1.2,0.6-1.2,1.4c0,0.8,0.5,1.4,1.2,1.4c0.7,0,1.2-0.6,1.2-1.4
							C629.7,113.6,629.2,113,628.5,113z M633.2,112.3h0.8l-5.6,8.7h-0.8L633.2,112.3z M633.1,116.9c1.3,0,2.1,0.9,2.1,2.2
							c0,1.2-0.9,2.1-2.1,2.1c-1.3,0-2.1-0.9-2.1-2.1C631,117.8,631.8,116.9,633.1,116.9z M633.1,117.6c-0.7,0-1.2,0.6-1.2,1.4
							c0,0.8,0.5,1.4,1.2,1.4s1.2-0.6,1.2-1.4C634.3,118.2,633.8,117.6,633.1,117.6z"/>
					</g>
					<g class="st2">
						<path class="st3" d="M553.7,120.5c-0.4,0.4-0.9,0.6-1.8,0.6c-0.6,0-1-0.2-1.3-0.3c-0.3-0.1-0.6-0.3-1-0.3
							c-0.4,0-1,0.2-1.5,0.5l-0.5-0.9c1-0.5,1.6-1.1,1.6-1.9c0-0.3-0.1-0.5-0.2-0.8h-1.8v-0.8h1.2l0,0c-0.4-0.5-0.9-1.1-0.9-1.9
							c0-1.5,1.4-2.6,3-2.6c1.2,0,2.2,0.5,2.7,1.5l-1,0.6c-0.2-0.5-0.8-1-1.6-1c-0.9,0-1.7,0.6-1.7,1.5c0,0.7,0.3,1.1,0.7,1.6
							l0.2,0.3h1.9v0.8h-1.5c0,0.1,0.1,0.3,0.1,0.5c0,0.7-0.4,1.3-0.9,1.6c0.2-0.1,0.5-0.1,0.7-0.1c0.4,0,0.7,0.1,1,0.3
							c0.3,0.1,0.5,0.2,0.9,0.2c0.6,0,1-0.3,1.2-0.5L553.7,120.5z"/>
						<path class="st3" d="M556.5,114l-1.4,1.5l-0.8-0.8l2.3-2.4h1.1v8.7h-1.3V114z"/>
						<path class="st3" d="M559.7,120c3.2-2.5,4.7-3.8,4.7-5.2c0-1-0.8-1.5-1.7-1.5c-1,0-1.8,0.4-2.4,1.1l-0.8-0.8
							c0.7-0.9,1.9-1.4,3.1-1.4c1.6,0,3,0.9,3,2.6c0,1.7-1.6,3.2-4,5h4v1.1h-6.1V120z"/>
						<path class="st3" d="M568.6,119.2c0.4,0.5,1,0.8,1.8,0.8c1.7,0,2.4-1.6,2.4-3.1v-0.3c-0.4,0.6-1.3,1.3-2.4,1.3
							c-1.6,0-2.9-0.9-2.9-2.8c0-1.5,1.2-2.9,3.1-2.9c2.5,0,3.5,2.1,3.5,4.5c0,2.4-1.2,4.5-3.7,4.5c-1.1,0-1.9-0.4-2.4-1
							L568.6,119.2z M570.6,113.3c-1.2,0-1.9,0.9-1.9,1.7c0,1.2,0.9,1.7,1.9,1.7c0.8,0,1.6-0.5,2-1.2
							C572.6,114.6,572.1,113.3,570.6,113.3z"/>
						<path class="st3" d="M576.1,119.5c0.4,0,0.8,0.4,0.8,0.8c0,0.4-0.4,0.8-0.8,0.8c-0.4,0-0.8-0.4-0.8-0.8
							C575.2,119.9,575.6,119.5,576.1,119.5z"/>
						<path class="st3" d="M579.5,119.2c0.4,0.5,1,0.8,1.8,0.8c1.7,0,2.4-1.6,2.4-3.1v-0.3c-0.4,0.6-1.3,1.3-2.4,1.3
							c-1.6,0-2.9-0.9-2.9-2.8c0-1.5,1.2-2.9,3.1-2.9c2.5,0,3.5,2.1,3.5,4.5c0,2.4-1.2,4.5-3.7,4.5c-1.1,0-1.9-0.4-2.4-1
							L579.5,119.2z M581.6,113.3c-1.2,0-1.9,0.9-1.9,1.7c0,1.2,0.9,1.7,1.9,1.7c0.8,0,1.6-0.5,2-1.2
							C583.6,114.6,583,113.3,581.6,113.3z"/>
						<path class="st3" d="M587.5,119.2c0.4,0.5,1,0.8,1.8,0.8c1.7,0,2.4-1.6,2.4-3.1v-0.3c-0.4,0.6-1.3,1.3-2.4,1.3
							c-1.6,0-2.9-0.9-2.9-2.8c0-1.5,1.2-2.9,3.1-2.9c2.5,0,3.5,2.1,3.5,4.5c0,2.4-1.2,4.5-3.7,4.5c-1.1,0-1.9-0.4-2.4-1
							L587.5,119.2z M589.6,113.3c-1.2,0-1.9,0.9-1.9,1.7c0,1.2,0.9,1.7,1.9,1.7c0.8,0,1.6-0.5,2-1.2
							C591.6,114.6,591,113.3,589.6,113.3z"/>
					</g>
					<g class="st2">
						<path class="st3" d="M42.1,117.2l-0.8,0.9v2.8H40v-8.7h1.3v4.3l3.6-4.3h1.6l-3.6,4.1l3.9,4.6h-1.6L42.1,117.2z"/>
						<path class="st3" d="M47.3,117.9c0-1.8,1.2-3.3,3.2-3.3c2,0,3.2,1.5,3.2,3.3c0,1.8-1.2,3.3-3.2,3.3
							C48.5,121.2,47.3,119.7,47.3,117.9z M52.4,117.9c0-1.2-0.7-2.2-1.9-2.2c-1.2,0-2,1.1-2,2.2c0,1.2,0.7,2.3,2,2.3
							C51.7,120.1,52.4,119,52.4,117.9z"/>
						<path class="st3" d="M55.4,112.3h1.2v3.3c0.5-0.7,1.2-1.1,2.1-1.1c1.6,0,2.8,1.3,2.8,3.3c0,2.1-1.2,3.3-2.8,3.3
							c-0.8,0-1.6-0.4-2.1-1.1v0.9h-1.2V112.3z M58.3,120.1c1.2,0,1.9-0.9,1.9-2.2c0-1.3-0.7-2.3-1.9-2.3c-0.7,0-1.4,0.4-1.7,0.9
							v2.7C56.8,119.7,57.6,120.1,58.3,120.1z"/>
						<path class="st3" d="M62.7,117.9c0-1.8,1.2-3.3,3.2-3.3c2,0,3.2,1.5,3.2,3.3c0,1.8-1.2,3.3-3.2,3.3
							C63.9,121.2,62.7,119.7,62.7,117.9z M67.8,117.9c0-1.2-0.7-2.2-1.9-2.2c-1.2,0-2,1.1-2,2.2c0,1.2,0.7,2.3,2,2.3
							C67.2,120.1,67.8,119,67.8,117.9z"/>
						<path class="st3" d="M74.4,112.3h1.3v7.5h3.9v1.1h-5.2V112.3z"/>
						<path class="st3" d="M81.1,112.9c0-0.4,0.4-0.8,0.8-0.8c0.4,0,0.8,0.3,0.8,0.8s-0.3,0.7-0.8,0.7
							C81.4,113.7,81.1,113.3,81.1,112.9z M81.3,114.7h1.2v6.3h-1.2V114.7z"/>
						<path class="st3" d="M84.5,112.3h1.2v3.3c0.5-0.7,1.2-1.1,2.1-1.1c1.6,0,2.8,1.3,2.8,3.3c0,2.1-1.2,3.3-2.8,3.3
							c-0.8,0-1.6-0.4-2.1-1.1v0.9h-1.2V112.3z M87.5,120.1c1.2,0,1.9-0.9,1.9-2.2c0-1.3-0.7-2.3-1.9-2.3c-0.7,0-1.4,0.4-1.7,0.9
							v2.7C86,119.7,86.7,120.1,87.5,120.1z"/>
						<path class="st3" d="M92.3,114.7h1.2v1c0.5-0.6,1.2-1.1,2.1-1.1v1.2c-0.1,0-0.2,0-0.4,0c-0.6,0-1.4,0.4-1.7,0.9v4.4h-1.2
							V114.7z"/>
						<path class="st3" d="M100.8,120.3c-0.5,0.5-1.2,0.8-2.1,0.8c-1,0-2.2-0.7-2.2-2.1c0-1.4,1.1-2.1,2.2-2.1
							c0.8,0,1.6,0.3,2.1,0.8v-1c0-0.8-0.6-1.2-1.5-1.2c-0.7,0-1.3,0.3-1.9,0.8l-0.5-0.8c0.7-0.7,1.6-1,2.6-1c1.4,0,2.5,0.6,2.5,2.2
							v4.2h-1.2V120.3z M100.8,118.6c-0.4-0.5-1-0.7-1.6-0.7c-0.8,0-1.4,0.5-1.4,1.2s0.6,1.2,1.4,1.2c0.6,0,1.3-0.2,1.6-0.7V118.6z"
							/>
						<path class="st3" d="M113.8,117.1H109v3.9h-1.3v-8.7h1.3v3.6h4.8v-3.6h1.3v8.7h-1.3V117.1z"/>
						<path class="st3" d="M116.9,120c3.2-2.5,4.7-3.8,4.7-5.2c0-1-0.8-1.5-1.7-1.5c-1,0-1.8,0.4-2.4,1.1l-0.8-0.8
							c0.7-0.9,1.9-1.4,3.1-1.4c1.6,0,3,0.9,3,2.6c0,1.7-1.6,3.2-4,5h4v1.1h-6.1V120z"/>
						<path class="st3" d="M128.2,112.2c2.4,0,3.4,2.3,3.4,4.5s-1,4.5-3.4,4.5s-3.4-2.3-3.4-4.5S125.8,112.2,128.2,112.2z
							 M128.2,113.4c-1.5,0-2.1,1.6-2.1,3.3s0.5,3.3,2.1,3.3s2.1-1.6,2.1-3.3S129.7,113.4,128.2,113.4z"/>
						<path class="st3" d="M139.7,114.6c1.9,0,3.1,1.5,3.1,3.4v0.3h-5c0.1,1.1,0.9,2,2.1,2c0.7,0,1.4-0.3,1.9-0.7l0.5,0.8
							c-0.6,0.6-1.5,0.9-2.5,0.9c-1.9,0-3.3-1.3-3.3-3.3C136.5,116,137.9,114.6,139.7,114.6z M137.8,117.4h3.8
							c0-0.8-0.6-1.9-1.9-1.9C138.4,115.5,137.8,116.5,137.8,117.4z"/>
						<path class="st3" d="M147.4,117.7h-1.6v3.3h-1.3v-8.7h3.7c1.7,0,2.8,1.1,2.8,2.7c0,1.6-1.1,2.4-2.2,2.5l2.2,3.5h-1.5
							L147.4,117.7z M148,113.5h-2.2v3h2.2c0.9,0,1.6-0.6,1.6-1.5S148.9,113.5,148,113.5z"/>
						<path class="st3" d="M155.1,114.6c1.9,0,3.1,1.5,3.1,3.4v0.3h-5c0.1,1.1,0.9,2,2.1,2c0.7,0,1.4-0.3,1.9-0.7l0.5,0.8
							c-0.6,0.6-1.5,0.9-2.5,0.9c-1.9,0-3.3-1.3-3.3-3.3C151.9,116,153.2,114.6,155.1,114.6z M153.2,117.4h3.8
							c0-0.8-0.6-1.9-1.9-1.9C153.8,115.5,153.2,116.5,153.2,117.4z"/>
						<path class="st3" d="M163.7,120.3c-0.5,0.5-1.2,0.8-2.1,0.8c-1,0-2.2-0.7-2.2-2.1c0-1.4,1.1-2.1,2.2-2.1
							c0.8,0,1.6,0.3,2.1,0.8v-1c0-0.8-0.6-1.2-1.5-1.2c-0.7,0-1.3,0.3-1.9,0.8l-0.5-0.8c0.7-0.7,1.6-1,2.6-1c1.4,0,2.5,0.6,2.5,2.2
							v4.2h-1.2V120.3z M163.7,118.6c-0.4-0.5-1-0.7-1.6-0.7c-0.8,0-1.4,0.5-1.4,1.2s0.6,1.2,1.4,1.2c0.6,0,1.3-0.2,1.6-0.7V118.6z"
							/>
						<path class="st3" d="M171.5,120.1c-0.5,0.6-1.2,1.1-2.1,1.1c-1.6,0-2.8-1.2-2.8-3.3c0-2,1.2-3.3,2.8-3.3
							c0.8,0,1.5,0.4,2.1,1.1v-3.3h1.2v8.7h-1.2V120.1z M171.5,116.5c-0.3-0.5-1-0.9-1.7-0.9c-1.2,0-1.9,0.9-1.9,2.3
							c0,1.3,0.7,2.2,1.9,2.2c0.7,0,1.4-0.4,1.7-0.9V116.5z"/>
						<path class="st3" d="M177.5,114.6c1.9,0,3.1,1.5,3.1,3.4v0.3h-5c0.1,1.1,0.9,2,2.1,2c0.7,0,1.4-0.3,1.9-0.7l0.5,0.8
							c-0.6,0.6-1.5,0.9-2.5,0.9c-1.9,0-3.3-1.3-3.3-3.3C174.3,116,175.7,114.6,177.5,114.6z M175.6,117.4h3.8
							c0-0.8-0.6-1.9-1.9-1.9C176.2,115.5,175.6,116.5,175.6,117.4z"/>
						<path class="st3" d="M182.2,114.7h1.2v1c0.5-0.6,1.2-1.1,2.1-1.1v1.2c-0.1,0-0.2,0-0.4,0c-0.6,0-1.4,0.4-1.7,0.9v4.4h-1.2
							V114.7z"/>
						<path class="st3" d="M185.6,122.2c0.4-0.3,0.8-0.8,0.9-1.2c0,0-0.1,0-0.2,0c-0.4,0-0.7-0.3-0.7-0.7c0-0.4,0.4-0.8,0.8-0.8
							c0.5,0,0.9,0.4,0.9,1.1c0,0.8-0.5,1.6-1.1,2.1L185.6,122.2z"/>
						<path class="st3" d="M196.7,113.5h-4.6v-1.1h6.1v0.9l-3.5,7.8h-1.4L196.7,113.5z"/>
						<path class="st3" d="M199.5,112.9c0-0.4,0.3-0.7,0.7-0.7s0.7,0.3,0.7,0.7c0,0.2-0.4,2.9-0.4,2.9h-0.6
							C199.9,115.8,199.5,113.1,199.5,112.9z M201.5,112.9c0-0.4,0.3-0.7,0.7-0.7c0.4,0,0.7,0.3,0.7,0.7c0,0.2-0.4,2.9-0.4,2.9h-0.5
							C201.9,115.8,201.5,113.1,201.5,112.9z"/>
						<path class="st3" d="M207.9,116.7c0-2.7,2-4.5,4.4-4.5c1.7,0,2.8,0.8,3.4,1.8l-1.1,0.6c-0.5-0.7-1.3-1.3-2.3-1.3
							c-1.8,0-3.1,1.4-3.1,3.3c0,1.9,1.4,3.3,3.1,3.3c1,0,1.9-0.5,2.3-1.3l1.1,0.6c-0.7,1-1.7,1.8-3.4,1.8
							C209.9,121.2,207.9,119.3,207.9,116.7z"/>
						<path class="st3" d="M221.2,120.3c-0.5,0.5-1.2,0.8-2.1,0.8c-1,0-2.2-0.7-2.2-2.1c0-1.4,1.1-2.1,2.2-2.1
							c0.8,0,1.6,0.3,2.1,0.8v-1c0-0.8-0.6-1.2-1.5-1.2c-0.7,0-1.3,0.3-1.9,0.8l-0.5-0.8c0.7-0.7,1.6-1,2.6-1c1.4,0,2.5,0.6,2.5,2.2
							v4.2h-1.2V120.3z M221.2,118.6c-0.4-0.5-1-0.7-1.6-0.7c-0.8,0-1.4,0.5-1.4,1.2s0.6,1.2,1.4,1.2c0.6,0,1.3-0.2,1.6-0.7V118.6z"
							/>
						<path class="st3" d="M224.5,114.7h1.2v1c0.5-0.6,1.2-1.1,2.1-1.1v1.2c-0.1,0-0.2,0-0.4,0c-0.6,0-1.4,0.4-1.7,0.9v4.4h-1.2
							V114.7z"/>
						<path class="st3" d="M229.3,119.6v-3.9h-1v-1h1V113h1.2v1.7h1.3v1h-1.3v3.6c0,0.4,0.2,0.8,0.6,0.8c0.3,0,0.5-0.1,0.6-0.2
							l0.3,0.9c-0.2,0.2-0.6,0.4-1.2,0.4C229.8,121.2,229.3,120.6,229.3,119.6z"/>
						<path class="st3" d="M237.2,120.3c-0.5,0.5-1.2,0.8-2.1,0.8c-1,0-2.2-0.7-2.2-2.1c0-1.4,1.1-2.1,2.2-2.1
							c0.8,0,1.6,0.3,2.1,0.8v-1c0-0.8-0.6-1.2-1.5-1.2c-0.7,0-1.3,0.3-1.9,0.8l-0.5-0.8c0.7-0.7,1.6-1,2.6-1c1.4,0,2.5,0.6,2.5,2.2
							v4.2h-1.2V120.3z M237.2,118.6c-0.4-0.5-1-0.7-1.6-0.7c-0.8,0-1.4,0.5-1.4,1.2s0.6,1.2,1.4,1.2c0.6,0,1.3-0.2,1.6-0.7V118.6z"
							/>
						<path class="st3" d="M244.1,112.3h5.8v1.1h-4.5v2.5h4.4v1.1h-4.4v2.7h4.5v1.1h-5.8V112.3z"/>
						<path class="st3" d="M251.2,117.3h3.1v1h-3.1V117.3z"/>
						<path class="st3" d="M255.9,112.3h1.3v8.7h-1.3V112.3z"/>
						<path class="st3" d="M263.6,117c0-1-0.5-1.4-1.3-1.4c-0.7,0-1.4,0.4-1.7,0.9v4.5h-1.2v-6.3h1.2v0.9c0.4-0.5,1.2-1,2.2-1
							c1.3,0,2,0.7,2,2v4.4h-1.2V117z"/>
						<path class="st3" d="M268.9,118.3l-0.9,1v1.7h-1.2v-8.7h1.2v5.6l3-3.2h1.5l-2.7,2.8l2.7,3.4H271L268.9,118.3z"/>
						<path class="st3" d="M279.5,113.5h-2.7v-1.1h6.7v1.1h-2.7v7.5h-1.3V113.5z"/>
						<path class="st3" d="M283.3,117.9c0-1.8,1.2-3.3,3.2-3.3c2,0,3.2,1.5,3.2,3.3c0,1.8-1.2,3.3-3.2,3.3
							C284.5,121.2,283.3,119.7,283.3,117.9z M288.4,117.9c0-1.2-0.7-2.2-2-2.2c-1.2,0-2,1.1-2,2.2c0,1.2,0.7,2.3,2,2.3
							C287.7,120.1,288.4,119,288.4,117.9z"/>
						<path class="st3" d="M295.6,120.1c-0.5,0.5-1.3,1-2.2,1c-1.3,0-2-0.7-2-2v-4.4h1.2v4c0,1,0.5,1.4,1.3,1.4
							c0.7,0,1.4-0.4,1.7-0.9v-4.5h1.2v6.3h-1.2V120.1z"/>
						<path class="st3" d="M301.6,114.6c1.2,0,1.9,0.5,2.4,1.1l-0.8,0.7c-0.4-0.5-0.9-0.8-1.5-0.8c-1.2,0-2,0.9-2,2.2
							c0,1.3,0.8,2.3,2,2.3c0.6,0,1.1-0.3,1.5-0.8l0.8,0.7c-0.5,0.6-1.2,1.1-2.4,1.1c-1.9,0-3.2-1.4-3.2-3.3
							C298.4,116,299.7,114.6,301.6,114.6z"/>
						<path class="st3" d="M309.7,117c0-1-0.5-1.4-1.3-1.4c-0.7,0-1.4,0.4-1.7,0.9v4.5h-1.2v-8.7h1.2v3.3c0.4-0.5,1.3-1,2.2-1
							c1.3,0,2,0.7,2,2v4.4h-1.2V117z"/>
						<path class="st3" d="M313,119.3c0.4,0.5,1.3,0.9,2.1,0.9c0.9,0,1.4-0.4,1.4-0.9c0-0.6-0.7-0.8-1.5-1c-1.1-0.2-2.3-0.5-2.3-1.9
							c0-1,0.9-1.9,2.4-1.9c1.1,0,1.9,0.4,2.4,0.9l-0.5,0.8c-0.4-0.4-1.1-0.8-1.9-0.8s-1.3,0.3-1.3,0.8c0,0.5,0.7,0.7,1.5,0.9
							c1.1,0.2,2.4,0.5,2.4,2c0,1.1-0.9,1.9-2.5,1.9c-1.1,0-2-0.3-2.6-1L313,119.3z"/>
						<path class="st3" d="M322.1,114.6c1.2,0,1.9,0.5,2.4,1.1l-0.8,0.7c-0.4-0.5-0.9-0.8-1.5-0.8c-1.2,0-2,0.9-2,2.2
							c0,1.3,0.8,2.3,2,2.3c0.6,0,1.1-0.3,1.5-0.8l0.8,0.7c-0.5,0.6-1.2,1.1-2.4,1.1c-1.9,0-3.2-1.4-3.2-3.3
							C319,116,320.3,114.6,322.1,114.6z"/>
						<path class="st3" d="M326,114.7h1.2v1c0.5-0.6,1.2-1.1,2.1-1.1v1.2c-0.1,0-0.2,0-0.4,0c-0.6,0-1.4,0.4-1.7,0.9v4.4H326V114.7z
							"/>
						<path class="st3" d="M333.4,114.6c1.9,0,3.1,1.5,3.1,3.4v0.3h-5c0.1,1.1,0.9,2,2.1,2c0.7,0,1.4-0.3,1.9-0.7l0.5,0.8
							c-0.6,0.6-1.5,0.9-2.5,0.9c-1.9,0-3.3-1.3-3.3-3.3C330.3,116,331.6,114.6,333.4,114.6z M331.5,117.4h3.8
							c0-0.8-0.6-1.9-1.9-1.9C332.1,115.5,331.5,116.5,331.5,117.4z"/>
						<path class="st3" d="M340.9,114.6c1.9,0,3.1,1.5,3.1,3.4v0.3h-5c0.1,1.1,0.9,2,2.1,2c0.7,0,1.4-0.3,1.9-0.7l0.5,0.8
							c-0.6,0.6-1.5,0.9-2.5,0.9c-1.9,0-3.2-1.3-3.2-3.3C337.8,116,339.1,114.6,340.9,114.6z M339,117.4h3.8c0-0.8-0.6-1.9-1.9-1.9
							C339.7,115.5,339.1,116.5,339,117.4z"/>
						<path class="st3" d="M349.9,117c0-1-0.5-1.4-1.3-1.4c-0.7,0-1.4,0.4-1.7,0.9v4.5h-1.2v-6.3h1.2v0.9c0.4-0.5,1.2-1,2.2-1
							c1.3,0,2,0.7,2,2v4.4h-1.2V117z"/>
						<path class="st3" d="M353,122.2c0.4-0.3,0.8-0.8,0.9-1.2c0,0-0.1,0-0.2,0c-0.4,0-0.7-0.3-0.7-0.7c0-0.4,0.4-0.8,0.8-0.8
							c0.5,0,0.9,0.4,0.9,1.1c0,0.8-0.5,1.6-1.1,2.1L353,122.2z"/>
						<path class="st3" d="M365,114.3l-1.8,6.7h-1.4l-2.5-8.7h1.5l1.8,7l1.9-7h1.1l1.9,7l1.8-7h1.5l-2.5,8.7h-1.4L365,114.3z"/>
						<path class="st3" d="M375.3,120.3c-0.5,0.5-1.2,0.8-2.1,0.8c-1,0-2.2-0.7-2.2-2.1c0-1.4,1.1-2.1,2.2-2.1
							c0.8,0,1.6,0.3,2.1,0.8v-1c0-0.8-0.6-1.2-1.5-1.2c-0.7,0-1.3,0.3-1.9,0.8l-0.5-0.8c0.7-0.7,1.6-1,2.6-1c1.4,0,2.5,0.6,2.5,2.2
							v4.2h-1.2V120.3z M375.3,118.6c-0.4-0.5-1-0.7-1.6-0.7c-0.8,0-1.4,0.5-1.4,1.2s0.6,1.2,1.4,1.2c0.6,0,1.3-0.2,1.6-0.7V118.6z"
							/>
						<path class="st3" d="M378.8,119.6v-3.9h-1v-1h1V113h1.2v1.7h1.3v1H380v3.6c0,0.4,0.2,0.8,0.6,0.8c0.3,0,0.5-0.1,0.6-0.2
							l0.3,0.9c-0.2,0.2-0.6,0.4-1.2,0.4C379.3,121.2,378.8,120.6,378.8,119.6z"/>
						<path class="st3" d="M385.5,114.6c1.9,0,3.1,1.5,3.1,3.4v0.3h-5c0.1,1.1,0.9,2,2.1,2c0.7,0,1.4-0.3,1.9-0.7l0.5,0.8
							c-0.6,0.6-1.5,0.9-2.5,0.9c-1.9,0-3.2-1.3-3.2-3.3C382.4,116,383.7,114.6,385.5,114.6z M383.6,117.4h3.8
							c0-0.8-0.6-1.9-1.9-1.9C384.3,115.5,383.7,116.5,383.6,117.4z"/>
						<path class="st3" d="M390.3,114.7h1.2v1c0.5-0.6,1.2-1.1,2.1-1.1v1.2c-0.1,0-0.2,0-0.4,0c-0.6,0-1.4,0.4-1.7,0.9v4.4h-1.2
							V114.7z"/>
						<path class="st3" d="M394.9,123.4v-8.7h1.2v0.9c0.5-0.6,1.2-1.1,2.1-1.1c1.6,0,2.8,1.2,2.8,3.3c0,2.1-1.2,3.3-2.8,3.3
							c-0.8,0-1.5-0.4-2.1-1.1v3.3H394.9z M397.8,115.6c-0.7,0-1.4,0.4-1.7,0.9v2.7c0.3,0.5,1,0.9,1.7,0.9c1.2,0,1.9-0.9,1.9-2.3
							C399.7,116.6,399,115.6,397.8,115.6z"/>
						<path class="st3" d="M402.7,114.7h1.2v1c0.5-0.6,1.2-1.1,2.1-1.1v1.2c-0.1,0-0.2,0-0.4,0c-0.6,0-1.4,0.4-1.7,0.9v4.4h-1.2
							V114.7z"/>
						<path class="st3" d="M406.9,117.9c0-1.8,1.2-3.3,3.2-3.3c2,0,3.2,1.5,3.2,3.3c0,1.8-1.2,3.3-3.2,3.3
							C408.1,121.2,406.9,119.7,406.9,117.9z M412,117.9c0-1.2-0.7-2.2-2-2.2c-1.2,0-2,1.1-2,2.2c0,1.2,0.7,2.3,2,2.3
							C411.3,120.1,412,119,412,117.9z"/>
						<path class="st3" d="M414.6,117.9c0-1.8,1.2-3.3,3.2-3.3c2,0,3.2,1.5,3.2,3.3c0,1.8-1.2,3.3-3.2,3.3
							C415.8,121.2,414.6,119.7,414.6,117.9z M419.7,117.9c0-1.2-0.7-2.2-2-2.2c-1.2,0-2,1.1-2,2.2c0,1.2,0.7,2.3,2,2.3
							C419,120.1,419.7,119,419.7,117.9z"/>
						<path class="st3" d="M422.9,115.7h-1v-1h1v-0.4c0-1.4,0.8-2.1,1.9-2.1c0.4,0,0.8,0.1,1,0.2l-0.3,0.9c-0.2-0.1-0.4-0.1-0.6-0.1
							c-0.6,0-0.9,0.4-0.9,1.1v0.4h1.3v1h-1.3v5.3h-1.2V115.7z"/>
						<path class="st3" d="M425.9,122.2c0.4-0.3,0.8-0.8,0.9-1.2c0,0-0.1,0-0.2,0c-0.4,0-0.7-0.3-0.7-0.7c0-0.4,0.4-0.8,0.8-0.8
							c0.5,0,0.9,0.4,0.9,1.1c0,0.8-0.5,1.6-1.1,2.1L425.9,122.2z"/>
						<path class="st3" d="M434.7,116.5c-1-0.3-1.9-0.9-1.9-2.1c0-1.6,1.6-2.3,3.1-2.3c1.5,0,3.1,0.7,3.1,2.3c0,1.1-0.9,1.8-1.9,2.1
							c1.1,0.3,2,1.1,2,2.3c0,1.5-1.5,2.4-3.2,2.4c-1.8,0-3.2-0.8-3.2-2.4C432.7,117.7,433.7,116.9,434.7,116.5z M436,117.1
							c-0.5,0.1-1.9,0.5-1.9,1.5c0,0.8,0.9,1.4,1.9,1.4c1,0,1.9-0.5,1.9-1.4C437.8,117.6,436.5,117.2,436,117.1z M436,113.4
							c-1,0-1.8,0.5-1.8,1.3c0,0.9,1.2,1.3,1.8,1.4c0.5-0.1,1.8-0.4,1.8-1.4C437.7,113.8,436.9,113.4,436,113.4z"/>
						<path class="st3" d="M445.1,112.2c1.6,0,2.7,0.7,3.4,1.7l-1.1,0.6c-0.5-0.7-1.4-1.2-2.4-1.2c-1.8,0-3.2,1.4-3.2,3.3
							c0,1.9,1.4,3.3,3.2,3.3c1,0,1.8-0.5,2.2-0.9v-1.6h-2.8v-1.1h4.1v3.2c-0.8,0.9-2,1.5-3.5,1.5c-2.5,0-4.5-1.8-4.5-4.5
							S442.6,112.2,445.1,112.2z"/>
						<path class="st3" d="M450.5,112.3h4.1c1.5,0,2.4,0.9,2.4,2.2c0,1.1-0.7,1.8-1.5,2c0.9,0.1,1.7,1.1,1.7,2.1
							c0,1.4-0.9,2.3-2.5,2.3h-4.2V112.3z M454.3,116c0.9,0,1.4-0.5,1.4-1.3c0-0.7-0.5-1.3-1.4-1.3h-2.5v2.5H454.3z M454.4,119.9
							c0.9,0,1.5-0.5,1.5-1.4c0-0.7-0.5-1.3-1.5-1.3h-2.6v2.7H454.4z"/>
						<path class="st3" d="M458.8,122.2c0.4-0.3,0.8-0.8,0.9-1.2c0,0-0.1,0-0.2,0c-0.4,0-0.7-0.3-0.7-0.7c0-0.4,0.4-0.8,0.8-0.8
							c0.5,0,0.9,0.4,0.9,1.1c0,0.8-0.5,1.6-1.1,2.1L458.8,122.2z"/>
						<path class="st3" d="M465.9,112.3h4.1c1.5,0,2.4,0.9,2.4,2.2c0,1.1-0.7,1.8-1.5,2c0.9,0.1,1.7,1.1,1.7,2.1
							c0,1.4-0.9,2.3-2.5,2.3h-4.2V112.3z M469.8,116c0.9,0,1.4-0.5,1.4-1.3c0-0.7-0.5-1.3-1.4-1.3h-2.5v2.5H469.8z M469.8,119.9
							c0.9,0,1.5-0.5,1.5-1.4c0-0.7-0.5-1.3-1.5-1.3h-2.6v2.7H469.8z"/>
						<path class="st3" d="M474.4,112.3h1.2v8.7h-1.2V112.3z"/>
						<path class="st3" d="M481.6,120.3c-0.5,0.5-1.2,0.8-2.1,0.8c-1,0-2.2-0.7-2.2-2.1c0-1.4,1.1-2.1,2.2-2.1
							c0.8,0,1.6,0.3,2.1,0.8v-1c0-0.8-0.6-1.2-1.5-1.2c-0.7,0-1.3,0.3-1.9,0.8l-0.5-0.8c0.7-0.7,1.6-1,2.6-1c1.4,0,2.5,0.6,2.5,2.2
							v4.2h-1.2V120.3z M481.6,118.6c-0.4-0.5-1-0.7-1.6-0.7c-0.8,0-1.4,0.5-1.4,1.2s0.6,1.2,1.4,1.2c0.7,0,1.3-0.2,1.6-0.7V118.6z"
							/>
						<path class="st3" d="M487.7,114.6c1.2,0,1.9,0.5,2.4,1.1l-0.8,0.7c-0.4-0.5-0.9-0.8-1.5-0.8c-1.2,0-2,0.9-2,2.2
							c0,1.3,0.8,2.3,2,2.3c0.6,0,1.1-0.3,1.5-0.8l0.8,0.7c-0.5,0.6-1.2,1.1-2.4,1.1c-1.9,0-3.2-1.4-3.2-3.3
							C484.5,116,485.8,114.6,487.7,114.6z"/>
						<path class="st3" d="M493.6,118.3l-0.9,1v1.7h-1.2v-8.7h1.2v5.6l3-3.2h1.5l-2.7,2.8l2.7,3.4h-1.5L493.6,118.3z"/>
					</g>
					<g id="Checkboxes-_x2F_--filled-_x2F_-Active_1_" transform="translate(13.000000, 109.000000)">
						<g transform="translate(0.000000, 1.000000)">
							<g id="Check_box_base_1_">
								<path class="st4" d="M2,0h11.1c1.1,0,2,0.9,2,2v12c0,1.1-0.9,2-2,2H2c-1.1,0-2-0.9-2-2V2C0,0.9,0.9,0,2,0z"/>
							</g>
							<g id="Icon-:-thick-check_1_" transform="translate(3.764706, 6.000000)">
								<g id="Stroke-23_1_">
									<path class="st5" d="M2.1,5.8c-0.3,0-0.5-0.1-0.7-0.3l-2-2.2C-1,2.8-1,2.2-0.6,1.8c0.4-0.4,1-0.3,1.4,0.1l2,2.2
										c0.4,0.4,0.3,1-0.1,1.4C2.6,5.7,2.3,5.8,2.1,5.8z"/>
								</g>
								<g id="Stroke-25_1_">
									<path class="st5" d="M2.4,5.6c-0.2,0-0.5-0.1-0.7-0.3C1.3,5,1.2,4.4,1.6,4l4.2-4.6c0.4-0.4,1-0.4,1.4-0.1
										c0.4,0.4,0.4,1,0.1,1.4L3.1,5.3C2.9,5.5,2.6,5.6,2.4,5.6z"/>
								</g>
							</g>
						</g>
					</g>
					<g id="Line-2-Copy-2">
						<rect x="0.5" y="98.5" class="st1" width="675" height="1"/>
					</g>
					<g class="st2">
						<path class="st3" d="M622.5,82.9h-4.1v-1.1l3.6-5.5h1.8v5.4h1.2v1.1h-1.2V85h-1.3V82.9z M619.7,81.8h2.8v-4.3L619.7,81.8z"/>
						<path class="st3" d="M628.1,76.2c1.3,0,2.1,0.9,2.1,2.2c0,1.2-0.9,2.1-2.1,2.1c-1.3,0-2.1-0.9-2.1-2.1
							C626,77.1,626.9,76.2,628.1,76.2z M628.1,77c-0.7,0-1.2,0.6-1.2,1.4c0,0.8,0.5,1.4,1.2,1.4c0.7,0,1.2-0.6,1.2-1.4
							C629.4,77.6,628.9,77,628.1,77z M632.8,76.3h0.8l-5.6,8.7h-0.8L632.8,76.3z M632.7,80.9c1.3,0,2.1,0.9,2.1,2.2
							c0,1.2-0.9,2.1-2.1,2.1c-1.3,0-2.1-0.9-2.1-2.1C630.6,81.8,631.5,80.9,632.7,80.9z M632.7,81.6c-0.7,0-1.2,0.6-1.2,1.4
							c0,0.8,0.5,1.4,1.2,1.4c0.7,0,1.2-0.6,1.2-1.4C634,82.2,633.5,81.6,632.7,81.6z"/>
					</g>
					<g class="st2">
						<path class="st3" d="M553.7,84.5c-0.4,0.4-0.9,0.6-1.8,0.6c-0.6,0-1-0.2-1.3-0.3c-0.3-0.1-0.6-0.3-1-0.3c-0.4,0-1,0.2-1.5,0.5
							l-0.5-0.9c1-0.5,1.6-1.1,1.6-1.9c0-0.3-0.1-0.5-0.2-0.8h-1.8v-0.8h1.2l0,0c-0.4-0.5-0.9-1.1-0.9-1.9c0-1.5,1.4-2.6,3-2.6
							c1.2,0,2.2,0.5,2.7,1.5l-1,0.6c-0.2-0.5-0.8-1-1.6-1c-0.9,0-1.7,0.6-1.7,1.5c0,0.7,0.3,1.1,0.7,1.6l0.2,0.3h1.9v0.8h-1.5
							c0,0.1,0.1,0.3,0.1,0.5c0,0.7-0.4,1.3-0.9,1.6c0.2-0.1,0.5-0.1,0.7-0.1c0.4,0,0.7,0.1,1,0.3c0.3,0.1,0.5,0.2,0.9,0.2
							c0.6,0,1-0.3,1.2-0.5L553.7,84.5z"/>
						<path class="st3" d="M558.6,82.9h-4.1v-1.1l3.6-5.5h1.8v5.4h1.2v1.1h-1.2V85h-1.3V82.9z M555.8,81.8h2.8v-4.3L555.8,81.8z"/>
						<path class="st3" d="M566.7,77.5h-4.6v-1.1h6.1v0.9l-3.5,7.8h-1.4L566.7,77.5z"/>
						<path class="st3" d="M570.4,83.2c0.4,0.5,1,0.8,1.8,0.8c1.7,0,2.4-1.6,2.4-3.1v-0.3c-0.4,0.6-1.3,1.3-2.4,1.3
							c-1.6,0-2.9-0.9-2.9-2.8c0-1.5,1.2-2.9,3.1-2.9c2.5,0,3.5,2.1,3.5,4.5c0,2.4-1.2,4.5-3.7,4.5c-1.1,0-1.9-0.4-2.4-1L570.4,83.2
							z M572.5,77.3c-1.2,0-1.9,0.9-1.9,1.7c0,1.2,0.9,1.7,1.9,1.7c0.8,0,1.6-0.5,2-1.2C574.5,78.6,573.9,77.3,572.5,77.3z"/>
						<path class="st3" d="M577.9,83.5c0.4,0,0.8,0.4,0.8,0.8c0,0.4-0.4,0.8-0.8,0.8c-0.4,0-0.8-0.4-0.8-0.8
							C577.1,83.9,577.5,83.5,577.9,83.5z"/>
						<path class="st3" d="M583.7,76.2c2.4,0,3.4,2.3,3.4,4.5s-1,4.5-3.4,4.5s-3.4-2.3-3.4-4.5S581.3,76.2,583.7,76.2z M583.7,77.4
							c-1.5,0-2.1,1.6-2.1,3.3s0.5,3.3,2.1,3.3s2.1-1.6,2.1-3.3S585.2,77.4,583.7,77.4z"/>
						<path class="st3" d="M591.9,76.2c2.4,0,3.4,2.3,3.4,4.5s-1,4.5-3.4,4.5c-2.4,0-3.4-2.3-3.4-4.5S589.5,76.2,591.9,76.2z
							 M591.9,77.4c-1.5,0-2.1,1.6-2.1,3.3s0.5,3.3,2.1,3.3c1.5,0,2.1-1.6,2.1-3.3S593.4,77.4,591.9,77.4z"/>
					</g>
					<g class="st2">
						<path class="st3" d="M39.7,84c3.3-2.5,4.7-3.8,4.7-5.2c0-1-0.8-1.5-1.7-1.5c-1,0-1.8,0.4-2.4,1.1l-0.8-0.8
							c0.7-0.9,1.9-1.4,3.1-1.4c1.6,0,3,0.9,3,2.6c0,1.7-1.6,3.2-4,5h4V85h-6.1V84z"/>
						<path class="st3" d="M50.9,76.2c2.4,0,3.4,2.3,3.4,4.5s-1,4.5-3.4,4.5s-3.4-2.3-3.4-4.5S48.5,76.2,50.9,76.2z M50.9,77.4
							c-1.5,0-2.1,1.6-2.1,3.3s0.5,3.3,2.1,3.3s2.1-1.6,2.1-3.3S52.4,77.4,50.9,77.4z"/>
						<path class="st3" d="M57.5,78l-1.4,1.5l-0.8-0.8l2.3-2.4h1.1V85h-1.3V78z"/>
						<path class="st3" d="M61.7,83.2c0.4,0.5,1,0.8,1.8,0.8c1.7,0,2.4-1.6,2.4-3.1v-0.3c-0.4,0.6-1.3,1.3-2.4,1.3
							c-1.6,0-2.9-0.9-2.9-2.8c0-1.5,1.2-2.9,3.1-2.9c2.5,0,3.5,2.1,3.5,4.5c0,2.4-1.2,4.5-3.7,4.5c-1.1,0-1.9-0.4-2.4-1L61.7,83.2z
							 M63.8,77.3c-1.2,0-1.9,0.9-1.9,1.7c0,1.2,0.9,1.7,1.9,1.7c0.8,0,1.6-0.5,2-1.2C65.8,78.6,65.2,77.3,63.8,77.3z"/>
						<path class="st3" d="M78.1,83.2h-4.3L73.1,85h-1.4l3.4-8.7h1.6l3.4,8.7h-1.4L78.1,83.2z M74.2,82h3.5l-1.8-4.6L74.2,82z"/>
						<path class="st3" d="M81.4,87.4v-8.7h1.2v0.9c0.5-0.6,1.2-1.1,2.1-1.1c1.6,0,2.8,1.2,2.8,3.3c0,2.1-1.2,3.3-2.8,3.3
							c-0.8,0-1.5-0.4-2.1-1.1v3.3H81.4z M84.3,79.6c-0.7,0-1.4,0.4-1.7,0.9v2.7c0.3,0.5,1,0.9,1.7,0.9c1.2,0,1.9-0.9,1.9-2.3
							C86.2,80.6,85.5,79.6,84.3,79.6z"/>
						<path class="st3" d="M89.2,87.4v-8.7h1.2v0.9c0.5-0.6,1.2-1.1,2.1-1.1c1.6,0,2.8,1.2,2.8,3.3c0,2.1-1.2,3.3-2.8,3.3
							c-0.8,0-1.5-0.4-2.1-1.1v3.3H89.2z M92.1,79.6c-0.7,0-1.4,0.4-1.7,0.9v2.7c0.3,0.5,1,0.9,1.7,0.9c1.2,0,1.9-0.9,1.9-2.3
							C94,80.6,93.2,79.6,92.1,79.6z"/>
						<path class="st3" d="M96.9,76.3h1.2V85h-1.2V76.3z"/>
						<path class="st3" d="M102.9,78.6c1.9,0,3.1,1.5,3.1,3.4v0.3h-5c0.1,1.1,0.9,2,2.1,2c0.7,0,1.4-0.3,1.9-0.7l0.5,0.8
							c-0.6,0.6-1.5,0.9-2.5,0.9c-1.9,0-3.3-1.3-3.3-3.3C99.8,80,101.1,78.6,102.9,78.6z M101,81.4h3.8c0-0.8-0.6-1.9-1.9-1.9
							C101.7,79.5,101.1,80.5,101,81.4z"/>
						<path class="st3" d="M111.1,76.9c0-0.4,0.4-0.8,0.8-0.8c0.4,0,0.8,0.3,0.8,0.8s-0.3,0.7-0.8,0.7
							C111.4,77.7,111.1,77.3,111.1,76.9z M111.3,78.7h1.2V85h-1.2V78.7z"/>
						<path class="st3" d="M114.6,76.3h3.7c1.8,0,2.8,1.2,2.8,2.7c0,1.4-1,2.7-2.8,2.7h-2.4V85h-1.3V76.3z M118,77.5h-2.2v3h2.2
							c0.9,0,1.6-0.6,1.6-1.5S119,77.5,118,77.5z"/>
						<path class="st3" d="M126.1,84.3c-0.5,0.5-1.2,0.8-2.1,0.8c-1,0-2.2-0.7-2.2-2.1c0-1.4,1.1-2.1,2.2-2.1c0.8,0,1.6,0.3,2.1,0.8
							v-1c0-0.8-0.6-1.2-1.5-1.2c-0.7,0-1.3,0.3-1.9,0.8l-0.5-0.8c0.7-0.7,1.6-1,2.6-1c1.4,0,2.5,0.6,2.5,2.2V85h-1.2V84.3z
							 M126.1,82.6c-0.4-0.5-1-0.7-1.6-0.7c-0.8,0-1.4,0.5-1.4,1.2s0.6,1.2,1.4,1.2c0.6,0,1.3-0.2,1.6-0.7V82.6z"/>
						<path class="st3" d="M133.9,84.1c-0.5,0.6-1.2,1.1-2.1,1.1c-1.6,0-2.8-1.2-2.8-3.3c0-2,1.2-3.3,2.8-3.3c0.8,0,1.5,0.4,2.1,1.1
							v-3.3h1.2V85h-1.2V84.1z M133.9,80.5c-0.3-0.5-1-0.9-1.7-0.9c-1.2,0-1.9,0.9-1.9,2.3c0,1.3,0.7,2.2,1.9,2.2
							c0.7,0,1.4-0.4,1.7-0.9V80.5z"/>
						<path class="st3" d="M146.3,83.2H142l-0.7,1.8h-1.4l3.4-8.7h1.6l3.4,8.7H147L146.3,83.2z M142.4,82h3.5l-1.8-4.6L142.4,82z"/>
						<path class="st3" d="M149.5,76.9c0-0.4,0.4-0.8,0.8-0.8c0.4,0,0.8,0.3,0.8,0.8s-0.3,0.7-0.8,0.7
							C149.8,77.7,149.5,77.3,149.5,76.9z M149.6,78.7h1.2V85h-1.2V78.7z"/>
						<path class="st3" d="M152.9,78.7h1.2v1c0.5-0.6,1.2-1.1,2.1-1.1v1.2c-0.1,0-0.2,0-0.4,0c-0.6,0-1.4,0.4-1.7,0.9V85h-1.2V78.7z
							"/>
						<path class="st3" d="M162.6,78l-1.4,1.5l-0.8-0.8l2.3-2.4h1.1V85h-1.3V78z"/>
						<path class="st3" d="M169.1,76.2c2.4,0,3.4,2.3,3.4,4.5s-1,4.5-3.4,4.5s-3.4-2.3-3.4-4.5S166.7,76.2,169.1,76.2z M169.1,77.4
							c-1.5,0-2.1,1.6-2.1,3.3s0.5,3.3,2.1,3.3s2.1-1.6,2.1-3.3S170.6,77.4,169.1,77.4z"/>
						<path class="st3" d="M174.5,83.5c0.4,0,0.8,0.4,0.8,0.8c0,0.4-0.4,0.8-0.8,0.8s-0.8-0.4-0.8-0.8
							C173.7,83.9,174,83.5,174.5,83.5z"/>
						<path class="st3" d="M177.8,82.9c0.6,0.7,1.4,1.1,2.4,1.1c1.1,0,1.9-0.7,1.9-1.7c0-1-0.7-1.7-1.9-1.7c-0.8,0-1.4,0.2-2,0.8
							l-0.9-0.3v-4.8h5.5v1.1h-4.2v2.8c0.4-0.4,1.1-0.8,2-0.8c1.5,0,2.8,1,2.8,2.8s-1.4,2.9-3.2,2.9c-1.5,0-2.5-0.5-3.1-1.4
							L177.8,82.9z"/>
						<path class="st3" d="M184.9,76.9c0-0.4,0.3-0.7,0.7-0.7c0.4,0,0.7,0.3,0.7,0.7c0,0.2-0.4,2.9-0.4,2.9h-0.6
							C185.3,79.8,184.9,77.1,184.9,76.9z M186.9,76.9c0-0.4,0.3-0.7,0.7-0.7c0.4,0,0.7,0.3,0.7,0.7c0,0.2-0.4,2.9-0.4,2.9h-0.5
							C187.3,79.8,186.9,77.1,186.9,76.9z"/>
						<path class="st3" d="M188.9,86.2c0.4-0.3,0.8-0.8,0.9-1.2c0,0-0.1,0-0.2,0c-0.4,0-0.7-0.3-0.7-0.7c0-0.4,0.4-0.8,0.8-0.8
							c0.5,0,0.9,0.4,0.9,1.1c0,0.8-0.5,1.6-1.1,2.1L188.9,86.2z"/>
						<path class="st3" d="M201.5,83.2h-4.3l-0.7,1.8h-1.4l3.4-8.7h1.6l3.4,8.7h-1.4L201.5,83.2z M197.6,82h3.5l-1.8-4.6L197.6,82z"
							/>
						<path class="st3" d="M206.4,78l-1.4,1.5l-0.8-0.8l2.3-2.4h1.1V85h-1.3V78z"/>
						<path class="st3" d="M209.5,84c3.3-2.5,4.7-3.8,4.7-5.2c0-1-0.8-1.5-1.7-1.5c-1,0-1.8,0.4-2.4,1.1l-0.8-0.8
							c0.7-0.9,1.9-1.4,3.1-1.4c1.6,0,3,0.9,3,2.6c0,1.7-1.6,3.2-4,5h4V85h-6.1V84z"/>
						<path class="st3" d="M221.3,76.3h4.1c1.5,0,2.4,0.9,2.4,2.2c0,1.1-0.7,1.8-1.5,2c0.9,0.1,1.7,1.1,1.7,2.1
							c0,1.4-0.9,2.3-2.5,2.3h-4.2V76.3z M225.1,80c0.9,0,1.4-0.5,1.4-1.3c0-0.7-0.5-1.3-1.4-1.3h-2.5V80H225.1z M225.2,83.9
							c0.9,0,1.5-0.5,1.5-1.4c0-0.7-0.5-1.3-1.5-1.3h-2.6v2.7H225.2z"/>
						<path class="st3" d="M229.6,76.9c0-0.4,0.4-0.8,0.8-0.8c0.4,0,0.8,0.3,0.8,0.8s-0.3,0.7-0.8,0.7
							C230,77.7,229.6,77.3,229.6,76.9z M229.8,78.7h1.2V85h-1.2V78.7z"/>
						<path class="st3" d="M232.7,81.9c0-1.8,1.2-3.3,3.2-3.3c2,0,3.2,1.5,3.2,3.3c0,1.8-1.2,3.3-3.2,3.3
							C233.9,85.2,232.7,83.7,232.7,81.9z M237.8,81.9c0-1.2-0.7-2.2-2-2.2c-1.2,0-2,1.1-2,2.2c0,1.2,0.7,2.3,2,2.3
							C237.1,84.1,237.8,83,237.8,81.9z"/>
						<path class="st3" d="M245,81c0-1-0.5-1.4-1.3-1.4c-0.7,0-1.4,0.4-1.7,0.9V85h-1.2v-6.3h1.2v0.9c0.4-0.5,1.2-1,2.2-1
							c1.3,0,2,0.7,2,2V85H245V81z"/>
						<path class="st3" d="M248.1,76.9c0-0.4,0.4-0.8,0.8-0.8c0.4,0,0.8,0.3,0.8,0.8s-0.3,0.7-0.8,0.7
							C248.4,77.7,248.1,77.3,248.1,76.9z M248.3,78.7h1.2V85h-1.2V78.7z"/>
						<path class="st3" d="M254.3,78.6c1.2,0,1.9,0.5,2.4,1.1l-0.8,0.7c-0.4-0.5-0.9-0.8-1.5-0.8c-1.2,0-2,0.9-2,2.2
							c0,1.3,0.8,2.3,2,2.3c0.6,0,1.1-0.3,1.5-0.8l0.8,0.7c-0.5,0.6-1.2,1.1-2.4,1.1c-1.9,0-3.2-1.4-3.2-3.3
							C251.1,80,252.4,78.6,254.3,78.6z"/>
						<path class="st3" d="M258,86.2c0.4-0.3,0.8-0.8,0.9-1.2c0,0-0.1,0-0.2,0c-0.4,0-0.7-0.3-0.7-0.7c0-0.4,0.4-0.8,0.8-0.8
							c0.5,0,0.9,0.4,0.9,1.1c0,0.8-0.5,1.6-1.1,2.1L258,86.2z"/>
						<path class="st3" d="M264.9,76.9c0-0.4,0.4-0.8,0.8-0.8c0.4,0,0.8,0.3,0.8,0.8s-0.3,0.7-0.8,0.7
							C265.3,77.7,264.9,77.3,264.9,76.9z M265.1,78.7h1.2V85h-1.2V78.7z"/>
						<path class="st3" d="M272.4,76.2c2.6,0,4.4,1.9,4.4,4.5s-1.8,4.5-4.4,4.5c-2.6,0-4.4-1.9-4.4-4.5S269.8,76.2,272.4,76.2z
							 M272.4,77.3c-1.9,0-3,1.4-3,3.3c0,1.9,1.2,3.3,3,3.3c1.8,0,3-1.4,3-3.3C275.4,78.8,274.2,77.3,272.4,77.3z"/>
						<path class="st3" d="M278.8,82.8c0.6,0.6,1.5,1.2,2.7,1.2c1.4,0,1.9-0.7,1.9-1.3c0-0.9-1-1.2-2.1-1.5c-1.4-0.4-3-0.8-3-2.5
							c0-1.4,1.3-2.5,3.1-2.5c1.3,0,2.4,0.4,3.2,1.2l-0.8,1c-0.7-0.7-1.6-1-2.5-1c-1,0-1.6,0.5-1.6,1.2c0,0.8,0.9,1,2,1.3
							c1.4,0.4,3.1,0.8,3.1,2.7c0,1.4-0.9,2.6-3.3,2.6c-1.5,0-2.7-0.6-3.4-1.4L278.8,82.8z"/>
						<path class="st3" d="M286.3,86.2c0.4-0.3,0.8-0.8,0.9-1.2c0,0-0.1,0-0.2,0c-0.4,0-0.7-0.3-0.7-0.7c0-0.4,0.4-0.8,0.8-0.8
							c0.5,0,0.9,0.4,0.9,1.1c0,0.8-0.5,1.6-1.1,2.1L286.3,86.2z"/>
						<path class="st3" d="M298.2,78.3l-1.8,6.7h-1.4l-2.5-8.7h1.5l1.8,7l1.9-7h1.1l1.9,7l1.8-7h1.5l-2.5,8.7H300L298.2,78.3z"/>
						<path class="st3" d="M305,76.9c0-0.4,0.4-0.8,0.8-0.8c0.4,0,0.8,0.3,0.8,0.8s-0.3,0.7-0.8,0.7C305.4,77.7,305,77.3,305,76.9z
							 M305.2,78.7h1.2V85h-1.2V78.7z"/>
						<path class="st3" d="M307.9,81.3h3.1v1h-3.1V81.3z"/>
						<path class="st3" d="M312.6,76.3h5.8v1.1h-4.5V80h4.4v1.1h-4.4V85h-1.3V76.3z"/>
						<path class="st3" d="M319.9,76.9c0-0.4,0.4-0.8,0.8-0.8c0.4,0,0.8,0.3,0.8,0.8s-0.3,0.7-0.8,0.7
							C320.2,77.7,319.9,77.3,319.9,76.9z M320.1,78.7h1.2V85h-1.2V78.7z"/>
						<path class="st3" d="M323.1,86.2c0.4-0.3,0.8-0.8,0.9-1.2c0,0-0.1,0-0.2,0c-0.4,0-0.7-0.3-0.7-0.7c0-0.4,0.4-0.8,0.8-0.8
							c0.5,0,0.9,0.4,0.9,1.1c0,0.8-0.5,1.6-1.1,2.1L323.1,86.2z"/>
						<path class="st3" d="M333.6,76.2c1.1,0,1.9,0.4,2.4,1l-0.6,1c-0.4-0.5-0.9-0.8-1.8-0.8c-1.6,0-2.4,1.5-2.4,3.1
							c0,0.1,0,0.2,0,0.3c0.4-0.6,1.3-1.3,2.4-1.3c1.6,0,2.9,0.9,2.9,2.8c0,1.6-1.2,2.9-3.1,2.9c-2.5,0-3.5-2.1-3.5-4.5
							C329.9,78.3,331.1,76.2,333.6,76.2z M333.3,80.6c-0.8,0-1.6,0.5-2,1.2c0.1,1,0.6,2.2,2.1,2.2c1.2,0,1.9-0.9,1.9-1.7
							C335.2,81.2,334.3,80.6,333.3,80.6z"/>
						<path class="st3" d="M341.8,82.9h-4.1v-1.1l3.6-5.5h1.8v5.4h1.2v1.1h-1.2V85h-1.3V82.9z M339,81.8h2.8v-4.3L339,81.8z"/>
						<path class="st3" d="M350,76.2c1.6,0,2.7,0.7,3.4,1.7l-1.1,0.6c-0.5-0.7-1.4-1.2-2.4-1.2c-1.8,0-3.2,1.4-3.2,3.3
							c0,1.9,1.4,3.3,3.2,3.3c1,0,1.8-0.5,2.2-0.9v-1.6h-2.8v-1.1h4.1v3.2c-0.8,0.9-2,1.5-3.5,1.5c-2.5,0-4.5-1.8-4.5-4.5
							S347.5,76.2,350,76.2z"/>
						<path class="st3" d="M355.4,76.3h4.1c1.5,0,2.4,0.9,2.4,2.2c0,1.1-0.7,1.8-1.5,2c0.9,0.1,1.7,1.1,1.7,2.1
							c0,1.4-0.9,2.3-2.5,2.3h-4.2V76.3z M359.2,80c0.9,0,1.4-0.5,1.4-1.3c0-0.7-0.5-1.3-1.4-1.3h-2.5V80H359.2z M359.3,83.9
							c0.9,0,1.5-0.5,1.5-1.4c0-0.7-0.5-1.3-1.5-1.3h-2.6v2.7H359.3z"/>
						<path class="st3" d="M363.7,86.2c0.4-0.3,0.8-0.8,0.9-1.2c0,0-0.1,0-0.2,0c-0.4,0-0.7-0.3-0.7-0.7c0-0.4,0.4-0.8,0.8-0.8
							c0.5,0,0.9,0.4,0.9,1.1c0,0.8-0.5,1.6-1.1,2.1L363.7,86.2z"/>
						<path class="st3" d="M375,76.2c1.6,0,2.7,0.7,3.4,1.7l-1.1,0.6c-0.5-0.7-1.4-1.2-2.4-1.2c-1.8,0-3.2,1.4-3.2,3.3
							c0,1.9,1.4,3.3,3.2,3.3c1,0,1.8-0.5,2.2-0.9v-1.6h-2.8v-1.1h4.1v3.2c-0.8,0.9-2,1.5-3.5,1.5c-2.5,0-4.5-1.8-4.5-4.5
							S372.5,76.2,375,76.2z"/>
						<path class="st3" d="M380,81.9c0-1.8,1.2-3.3,3.2-3.3c2,0,3.2,1.5,3.2,3.3c0,1.8-1.2,3.3-3.2,3.3
							C381.2,85.2,380,83.7,380,81.9z M385.1,81.9c0-1.2-0.7-2.2-2-2.2c-1.2,0-1.9,1.1-1.9,2.2c0,1.2,0.7,2.3,1.9,2.3
							C384.4,84.1,385.1,83,385.1,81.9z"/>
						<path class="st3" d="M388,76.3h1.2V85H388V76.3z"/>
						<path class="st3" d="M395.8,84.1c-0.5,0.6-1.2,1.1-2.1,1.1c-1.6,0-2.8-1.2-2.8-3.3c0-2,1.2-3.3,2.8-3.3c0.8,0,1.5,0.4,2.1,1.1
							v-3.3h1.2V85h-1.2V84.1z M395.8,80.5c-0.3-0.5-1-0.9-1.7-0.9c-1.2,0-1.9,0.9-1.9,2.3c0,1.3,0.7,2.2,1.9,2.2
							c0.7,0,1.4-0.4,1.7-0.9V80.5z"/>
					</g>
					<g id="Checkboxes-_x2F_-filled-_x2F_-hover" transform="translate(13.000000, 72.000000)">
						<g id="Rectangle-18-Copy-4" transform="translate(0.000000, 1.000000)">
							<g>
								<path class="st6" d="M2.5,0.5h10.1c1.1,0,2,0.9,2,2v11c0,1.1-0.9,2-2,2H2.5c-1.1,0-2-0.9-2-2v-11C0.5,1.4,1.4,0.5,2.5,0.5z"
									/>
								<path class="st7" d="M12.6,16H2.5C1.1,16,0,14.9,0,13.5v-11C0,1.1,1.1,0,2.5,0h10.1c1.4,0,2.5,1.1,2.5,2.5v11
									C15.1,14.9,13.9,16,12.6,16z M2.5,1C1.7,1,1,1.7,1,2.5v11C1,14.3,1.7,15,2.5,15h10.1c0.8,0,1.5-0.7,1.5-1.5v-11
									c0-0.8-0.7-1.5-1.5-1.5H2.5z"/>
							</g>
						</g>
					</g>
					<g id="Line-2-Copy">
						<rect x="0.5" y="62.5" class="st1" width="675" height="1"/>
					</g>
					<g class="st2">
						<path class="st3" d="M622.3,40.2c1.1,0,1.9,0.4,2.4,1l-0.6,1c-0.4-0.5-0.9-0.8-1.8-0.8c-1.6,0-2.4,1.5-2.4,3.1
							c0,0.1,0,0.2,0,0.3c0.4-0.6,1.3-1.3,2.4-1.3c1.6,0,2.9,0.9,2.9,2.8c0,1.6-1.2,2.9-3.1,2.9c-2.5,0-3.5-2.1-3.5-4.5
							C618.6,42.3,619.8,40.2,622.3,40.2z M622,44.6c-0.8,0-1.6,0.5-2,1.2c0.1,1,0.6,2.2,2.1,2.2c1.2,0,1.9-0.9,1.9-1.7
							C623.9,45.2,623,44.6,622,44.6z"/>
						<path class="st3" d="M628.5,40.2c1.3,0,2.1,0.9,2.1,2.2c0,1.2-0.9,2.1-2.1,2.1c-1.3,0-2.1-0.9-2.1-2.1
							C626.4,41.1,627.2,40.2,628.5,40.2z M628.5,41c-0.7,0-1.2,0.6-1.2,1.4c0,0.8,0.5,1.4,1.2,1.4c0.7,0,1.2-0.6,1.2-1.4
							C629.7,41.6,629.2,41,628.5,41z M633.2,40.3h0.8l-5.6,8.7h-0.8L633.2,40.3z M633.1,44.9c1.3,0,2.1,0.9,2.1,2.2
							c0,1.2-0.9,2.1-2.1,2.1c-1.3,0-2.1-0.9-2.1-2.1C631,45.8,631.8,44.9,633.1,44.9z M633.1,45.6c-0.7,0-1.2,0.6-1.2,1.4
							c0,0.8,0.5,1.4,1.2,1.4s1.2-0.6,1.2-1.4C634.3,46.2,633.8,45.6,633.1,45.6z"/>
					</g>
					<g class="st2">
						<path class="st3" d="M553.7,48.5c-0.4,0.4-0.9,0.6-1.8,0.6c-0.6,0-1-0.2-1.3-0.3c-0.3-0.1-0.6-0.3-1-0.3c-0.4,0-1,0.2-1.5,0.5
							l-0.5-0.9c1-0.5,1.6-1.1,1.6-1.9c0-0.3-0.1-0.5-0.2-0.8h-1.8v-0.8h1.2l0,0c-0.4-0.5-0.9-1.1-0.9-1.9c0-1.5,1.4-2.6,3-2.6
							c1.2,0,2.2,0.5,2.7,1.5l-1,0.6c-0.2-0.5-0.8-1-1.6-1c-0.9,0-1.7,0.6-1.7,1.5c0,0.7,0.3,1.1,0.7,1.6l0.2,0.3h1.9v0.8h-1.5
							c0,0.1,0.1,0.3,0.1,0.5c0,0.7-0.4,1.3-0.9,1.6c0.2-0.1,0.5-0.1,0.7-0.1c0.4,0,0.7,0.1,1,0.3c0.3,0.1,0.5,0.2,0.9,0.2
							c0.6,0,1-0.3,1.2-0.5L553.7,48.5z"/>
						<path class="st3" d="M559,41.5h-4.6v-1.1h6.1v0.9l-3.5,7.8h-1.4L559,41.5z"/>
						<path class="st3" d="M565.4,40.2c1.1,0,1.9,0.4,2.4,1l-0.6,1c-0.4-0.5-0.9-0.8-1.8-0.8c-1.6,0-2.4,1.5-2.4,3.1
							c0,0.1,0,0.2,0,0.3c0.4-0.6,1.3-1.3,2.4-1.3c1.6,0,2.9,0.9,2.9,2.8c0,1.6-1.2,2.9-3.1,2.9c-2.5,0-3.5-2.1-3.5-4.5
							C561.7,42.3,562.9,40.2,565.4,40.2z M565.1,44.6c-0.8,0-1.6,0.5-2,1.2c0.1,1,0.6,2.2,2.1,2.2c1.2,0,1.9-0.9,1.9-1.7
							C567,45.2,566.1,44.6,565.1,44.6z"/>
						<path class="st3" d="M570.8,47.2c0.4,0.5,1,0.8,1.8,0.8c1.7,0,2.4-1.6,2.4-3.1v-0.3c-0.4,0.6-1.3,1.3-2.4,1.3
							c-1.6,0-2.9-0.9-2.9-2.8c0-1.5,1.2-2.9,3.1-2.9c2.5,0,3.5,2.1,3.5,4.5c0,2.4-1.2,4.5-3.7,4.5c-1.1,0-1.9-0.4-2.4-1L570.8,47.2
							z M572.8,41.3c-1.2,0-1.9,0.9-1.9,1.7c0,1.2,0.9,1.7,1.9,1.7c0.8,0,1.6-0.5,2-1.2C574.8,42.6,574.3,41.3,572.8,41.3z"/>
						<path class="st3" d="M578.3,47.5c0.4,0,0.8,0.4,0.8,0.8c0,0.4-0.4,0.8-0.8,0.8c-0.4,0-0.8-0.4-0.8-0.8
							C577.4,47.9,577.8,47.5,578.3,47.5z"/>
						<path class="st3" d="M584,40.2c2.4,0,3.4,2.3,3.4,4.5s-1,4.5-3.4,4.5c-2.4,0-3.4-2.3-3.4-4.5S581.6,40.2,584,40.2z M584,41.4
							c-1.5,0-2.1,1.6-2.1,3.3s0.5,3.3,2.1,3.3c1.5,0,2.1-1.6,2.1-3.3S585.6,41.4,584,41.4z"/>
						<path class="st3" d="M592.3,40.2c2.4,0,3.4,2.3,3.4,4.5s-1,4.5-3.4,4.5s-3.4-2.3-3.4-4.5S589.8,40.2,592.3,40.2z M592.3,41.4
							c-1.5,0-2.1,1.6-2.1,3.3s0.5,3.3,2.1,3.3s2.1-1.6,2.1-3.3S593.8,41.4,592.3,41.4z"/>
					</g>
					<g class="st2">
						<path class="st3" d="M39.7,48c3.3-2.5,4.7-3.8,4.7-5.2c0-1-0.8-1.5-1.7-1.5c-1,0-1.8,0.4-2.4,1.1l-0.8-0.8
							c0.7-0.9,1.9-1.4,3.1-1.4c1.6,0,3,0.9,3,2.6c0,1.7-1.6,3.2-4,5h4V49h-6.1V48z"/>
						<path class="st3" d="M50.9,40.2c2.4,0,3.4,2.3,3.4,4.5s-1,4.5-3.4,4.5s-3.4-2.3-3.4-4.5S48.5,40.2,50.9,40.2z M50.9,41.4
							c-1.5,0-2.1,1.6-2.1,3.3s0.5,3.3,2.1,3.3s2.1-1.6,2.1-3.3S52.4,41.4,50.9,41.4z"/>
						<path class="st3" d="M55.8,48c3.3-2.5,4.7-3.8,4.7-5.2c0-1-0.8-1.5-1.7-1.5c-1,0-1.8,0.4-2.4,1.1l-0.8-0.8
							c0.7-0.9,1.9-1.4,3.1-1.4c1.6,0,3,0.9,3,2.6c0,1.7-1.6,3.2-4,5h4V49h-6.1V48z"/>
						<path class="st3" d="M67,40.2c2.4,0,3.4,2.3,3.4,4.5s-1,4.5-3.4,4.5s-3.4-2.3-3.4-4.5S64.6,40.2,67,40.2z M67,41.4
							c-1.5,0-2.1,1.6-2.1,3.3S65.5,48,67,48s2.1-1.6,2.1-3.3S68.6,41.4,67,41.4z"/>
						<path class="st3" d="M81.3,47.2h-4.3L76.3,49h-1.4l3.4-8.7H80l3.4,8.7H82L81.3,47.2z M77.4,46h3.5l-1.8-4.6L77.4,46z"/>
						<path class="st3" d="M84.7,51.4v-8.7h1.2v0.9c0.5-0.6,1.2-1.1,2.1-1.1c1.6,0,2.8,1.2,2.8,3.3c0,2.1-1.2,3.3-2.8,3.3
							c-0.8,0-1.5-0.4-2.1-1.1v3.3H84.7z M87.6,43.6c-0.7,0-1.4,0.4-1.7,0.9v2.7c0.3,0.5,1,0.9,1.7,0.9c1.2,0,1.9-0.9,1.9-2.3
							C89.5,44.6,88.8,43.6,87.6,43.6z"/>
						<path class="st3" d="M92.4,51.4v-8.7h1.2v0.9c0.5-0.6,1.2-1.1,2.1-1.1c1.6,0,2.8,1.2,2.8,3.3c0,2.1-1.2,3.3-2.8,3.3
							c-0.8,0-1.5-0.4-2.1-1.1v3.3H92.4z M95.3,43.6c-0.7,0-1.4,0.4-1.7,0.9v2.7c0.3,0.5,1,0.9,1.7,0.9c1.2,0,1.9-0.9,1.9-2.3
							C97.2,44.6,96.5,43.6,95.3,43.6z"/>
						<path class="st3" d="M100.2,40.3h1.2V49h-1.2V40.3z"/>
						<path class="st3" d="M106.2,42.6c1.9,0,3.1,1.5,3.1,3.4v0.3h-5c0.1,1.1,0.9,2,2.1,2c0.7,0,1.4-0.3,1.9-0.7l0.5,0.8
							c-0.6,0.6-1.5,0.9-2.5,0.9c-1.9,0-3.3-1.3-3.3-3.3C103,44,104.3,42.6,106.2,42.6z M104.2,45.4h3.8c0-0.8-0.6-1.9-1.9-1.9
							C104.9,43.5,104.3,44.5,104.2,45.4z"/>
						<path class="st3" d="M114.3,40.9c0-0.4,0.4-0.8,0.8-0.8c0.4,0,0.8,0.3,0.8,0.8s-0.3,0.7-0.8,0.7
							C114.7,41.7,114.3,41.3,114.3,40.9z M114.5,42.7h1.2V49h-1.2V42.7z"/>
						<path class="st3" d="M117.8,40.3h3.7c1.8,0,2.8,1.2,2.8,2.7c0,1.4-1,2.7-2.8,2.7h-2.4V49h-1.3V40.3z M121.3,41.5h-2.2v3h2.2
							c0.9,0,1.6-0.6,1.6-1.5S122.2,41.5,121.3,41.5z"/>
						<path class="st3" d="M129.4,48.3c-0.5,0.5-1.2,0.8-2.1,0.8c-1,0-2.2-0.7-2.2-2.1c0-1.4,1.1-2.1,2.2-2.1c0.8,0,1.6,0.3,2.1,0.8
							v-1c0-0.8-0.6-1.2-1.5-1.2c-0.7,0-1.3,0.3-1.9,0.8l-0.5-0.8c0.7-0.7,1.6-1,2.6-1c1.4,0,2.5,0.6,2.5,2.2V49h-1.2V48.3z
							 M129.4,46.6c-0.4-0.5-1-0.7-1.6-0.7c-0.8,0-1.4,0.5-1.4,1.2s0.6,1.2,1.4,1.2c0.6,0,1.3-0.2,1.6-0.7V46.6z"/>
						<path class="st3" d="M137.1,48.1c-0.5,0.6-1.2,1.1-2.1,1.1c-1.6,0-2.8-1.2-2.8-3.3c0-2,1.2-3.3,2.8-3.3c0.8,0,1.5,0.4,2.1,1.1
							v-3.3h1.2V49h-1.2V48.1z M137.1,44.5c-0.3-0.5-1-0.9-1.7-0.9c-1.2,0-1.9,0.9-1.9,2.3c0,1.3,0.7,2.2,1.9,2.2
							c0.7,0,1.4-0.4,1.7-0.9V44.5z"/>
						<path class="st3" d="M144,40.3h3.7c1.8,0,2.8,1.2,2.8,2.7c0,1.4-1,2.7-2.8,2.7h-2.4V49H144V40.3z M147.5,41.5h-2.2v3h2.2
							c0.9,0,1.6-0.6,1.6-1.5S148.4,41.5,147.5,41.5z"/>
						<path class="st3" d="M152,42.7h1.2v1c0.5-0.6,1.2-1.1,2.1-1.1v1.2c-0.1,0-0.2,0-0.4,0c-0.6,0-1.4,0.4-1.7,0.9V49H152V42.7z"/>
						<path class="st3" d="M156.2,45.9c0-1.8,1.2-3.3,3.2-3.3c2,0,3.2,1.5,3.2,3.3c0,1.8-1.2,3.3-3.2,3.3
							C157.5,49.2,156.2,47.7,156.2,45.9z M161.4,45.9c0-1.2-0.7-2.2-1.9-2.2c-1.2,0-2,1.1-2,2.2c0,1.2,0.7,2.3,2,2.3
							C160.7,48.1,161.4,47,161.4,45.9z"/>
						<path class="st3" d="M169.3,42l-1.4,1.5l-0.8-0.8l2.3-2.4h1.1V49h-1.3V42z"/>
						<path class="st3" d="M174.3,42l-1.4,1.5l-0.8-0.8l2.3-2.4h1.1V49h-1.3V42z"/>
						<path class="st3" d="M177.4,40.9c0-0.4,0.3-0.7,0.7-0.7s0.7,0.3,0.7,0.7c0,0.2-0.4,2.9-0.4,2.9h-0.6
							C177.8,43.8,177.4,41.1,177.4,40.9z M179.4,40.9c0-0.4,0.3-0.7,0.7-0.7c0.4,0,0.7,0.3,0.7,0.7c0,0.2-0.4,2.9-0.4,2.9h-0.5
							C179.8,43.8,179.4,41.1,179.4,40.9z"/>
						<path class="st3" d="M181.4,50.2c0.4-0.3,0.8-0.8,0.9-1.2c0,0-0.1,0-0.2,0c-0.4,0-0.7-0.3-0.7-0.7c0-0.4,0.4-0.8,0.8-0.8
							c0.5,0,0.9,0.4,0.9,1.1c0,0.8-0.5,1.6-1.1,2.1L181.4,50.2z"/>
						<path class="st3" d="M194,47.2h-4.3l-0.7,1.8h-1.4l3.4-8.7h1.6l3.4,8.7h-1.4L194,47.2z M190.1,46h3.5l-1.8-4.6L190.1,46z"/>
						<path class="st3" d="M198.9,42l-1.4,1.5l-0.8-0.8l2.3-2.4h1.1V49h-1.3V42z"/>
						<path class="st3" d="M202,48c3.2-2.5,4.7-3.8,4.7-5.2c0-1-0.8-1.5-1.7-1.5c-1,0-1.8,0.4-2.4,1.1l-0.8-0.8
							c0.7-0.9,1.9-1.4,3.1-1.4c1.6,0,3,0.9,3,2.6c0,1.7-1.6,3.2-4,5h4V49H202V48z"/>
						<path class="st3" d="M209.9,47.9l4.7-6.5h-4.7v-1.1h6.3v1.1l-4.7,6.5h4.7V49h-6.4V47.9z"/>
						<path class="st3" d="M221.7,40.3h4.1c1.5,0,2.4,0.9,2.4,2.2c0,1.1-0.7,1.8-1.5,2c0.9,0.1,1.7,1.1,1.7,2.1
							c0,1.4-0.9,2.3-2.5,2.3h-4.2V40.3z M225.5,44c0.9,0,1.4-0.5,1.4-1.3c0-0.7-0.5-1.3-1.4-1.3H223V44H225.5z M225.6,47.9
							c0.9,0,1.5-0.5,1.5-1.4c0-0.7-0.5-1.3-1.5-1.3H223v2.7H225.6z"/>
						<path class="st3" d="M230,40.9c0-0.4,0.4-0.8,0.8-0.8c0.4,0,0.8,0.3,0.8,0.8s-0.3,0.7-0.8,0.7C230.4,41.7,230,41.3,230,40.9z
							 M230.2,42.7h1.2V49h-1.2V42.7z"/>
						<path class="st3" d="M233.1,45.9c0-1.8,1.2-3.3,3.2-3.3c2,0,3.2,1.5,3.2,3.3c0,1.8-1.2,3.3-3.2,3.3
							C234.3,49.2,233.1,47.7,233.1,45.9z M238.2,45.9c0-1.2-0.7-2.2-2-2.2c-1.2,0-2,1.1-2,2.2c0,1.2,0.7,2.3,2,2.3
							C237.5,48.1,238.2,47,238.2,45.9z"/>
						<path class="st3" d="M245.4,45c0-1-0.5-1.4-1.3-1.4c-0.7,0-1.4,0.4-1.7,0.9V49h-1.2v-6.3h1.2v0.9c0.4-0.5,1.2-1,2.2-1
							c1.3,0,2,0.7,2,2V49h-1.2V45z"/>
						<path class="st3" d="M248.5,40.9c0-0.4,0.4-0.8,0.8-0.8c0.4,0,0.8,0.3,0.8,0.8s-0.3,0.7-0.8,0.7
							C248.8,41.7,248.5,41.3,248.5,40.9z M248.6,42.7h1.2V49h-1.2V42.7z"/>
						<path class="st3" d="M254.7,42.6c1.2,0,1.9,0.5,2.4,1.1l-0.8,0.7c-0.4-0.5-0.9-0.8-1.5-0.8c-1.2,0-2,0.9-2,2.2
							c0,1.3,0.8,2.3,2,2.3c0.6,0,1.1-0.3,1.5-0.8l0.8,0.7c-0.5,0.6-1.2,1.1-2.4,1.1c-1.9,0-3.2-1.4-3.2-3.3
							C251.5,44,252.8,42.6,254.7,42.6z"/>
						<path class="st3" d="M258.4,50.2c0.4-0.3,0.8-0.8,0.9-1.2c0,0-0.1,0-0.2,0c-0.4,0-0.7-0.3-0.7-0.7c0-0.4,0.4-0.8,0.8-0.8
							c0.5,0,0.9,0.4,0.9,1.1c0,0.8-0.5,1.6-1.1,2.1L258.4,50.2z"/>
						<path class="st3" d="M265.3,40.9c0-0.4,0.4-0.8,0.8-0.8c0.4,0,0.8,0.3,0.8,0.8s-0.3,0.7-0.8,0.7
							C265.7,41.7,265.3,41.3,265.3,40.9z M265.5,42.7h1.2V49h-1.2V42.7z"/>
						<path class="st3" d="M272.8,40.2c2.6,0,4.4,1.9,4.4,4.5s-1.8,4.5-4.4,4.5c-2.6,0-4.4-1.9-4.4-4.5S270.2,40.2,272.8,40.2z
							 M272.8,41.3c-1.9,0-3,1.4-3,3.3c0,1.9,1.2,3.3,3,3.3c1.8,0,3-1.4,3-3.3C275.8,42.8,274.6,41.3,272.8,41.3z"/>
						<path class="st3" d="M279.2,46.8c0.6,0.6,1.5,1.2,2.7,1.2c1.4,0,1.9-0.7,1.9-1.3c0-0.9-1-1.2-2.1-1.5c-1.4-0.4-3-0.8-3-2.5
							c0-1.4,1.3-2.5,3.1-2.5c1.3,0,2.4,0.4,3.2,1.2l-0.8,1c-0.7-0.7-1.6-1-2.5-1c-1,0-1.6,0.5-1.6,1.2c0,0.8,0.9,1,2,1.3
							c1.4,0.4,3.1,0.8,3.1,2.7c0,1.4-0.9,2.6-3.3,2.6c-1.5,0-2.7-0.6-3.4-1.4L279.2,46.8z"/>
						<path class="st3" d="M286.6,50.2c0.4-0.3,0.8-0.8,0.9-1.2c0,0-0.1,0-0.2,0c-0.4,0-0.7-0.3-0.7-0.7c0-0.4,0.4-0.8,0.8-0.8
							c0.5,0,0.9,0.4,0.9,1.1c0,0.8-0.5,1.6-1.1,2.1L286.6,50.2z"/>
						<path class="st3" d="M298.6,42.3l-1.8,6.7h-1.4l-2.5-8.7h1.5l1.8,7l1.9-7h1.1l1.9,7l1.8-7h1.5l-2.5,8.7h-1.4L298.6,42.3z"/>
						<path class="st3" d="M305.4,40.9c0-0.4,0.4-0.8,0.8-0.8c0.4,0,0.8,0.3,0.8,0.8s-0.3,0.7-0.8,0.7
							C305.8,41.7,305.4,41.3,305.4,40.9z M305.6,42.7h1.2V49h-1.2V42.7z"/>
						<path class="st3" d="M308.3,45.3h3.1v1h-3.1V45.3z"/>
						<path class="st3" d="M313,40.3h5.8v1.1h-4.5V44h4.4v1.1h-4.4V49H313V40.3z"/>
						<path class="st3" d="M320.3,40.9c0-0.4,0.4-0.8,0.8-0.8c0.4,0,0.8,0.3,0.8,0.8s-0.3,0.7-0.8,0.7
							C320.6,41.7,320.3,41.3,320.3,40.9z M320.5,42.7h1.2V49h-1.2V42.7z"/>
						<path class="st3" d="M323.5,50.2c0.4-0.3,0.8-0.8,0.9-1.2c0,0-0.1,0-0.2,0c-0.4,0-0.7-0.3-0.7-0.7c0-0.4,0.4-0.8,0.8-0.8
							c0.5,0,0.9,0.4,0.9,1.1c0,0.8-0.5,1.6-1.1,2.1L323.5,50.2z"/>
						<path class="st3" d="M332.1,42l-1.4,1.5l-0.8-0.8l2.3-2.4h1.1V49h-1.3V42z"/>
						<path class="st3" d="M335.3,48c3.2-2.5,4.7-3.8,4.7-5.2c0-1-0.8-1.5-1.7-1.5c-1,0-1.8,0.4-2.4,1.1l-0.8-0.8
							c0.7-0.9,1.9-1.4,3.1-1.4c1.6,0,3,0.9,3,2.6c0,1.7-1.6,3.2-4,5h4V49h-6.1V48z"/>
						<path class="st3" d="M345.1,44.5c-1-0.3-1.9-0.9-1.9-2.1c0-1.6,1.6-2.3,3.1-2.3c1.5,0,3.1,0.7,3.1,2.3c0,1.1-0.9,1.8-1.9,2.1
							c1.1,0.3,2,1.1,2,2.3c0,1.5-1.5,2.4-3.2,2.4c-1.8,0-3.2-0.8-3.2-2.4C343.1,45.7,344.1,44.9,345.1,44.5z M346.4,45.1
							c-0.5,0.1-1.9,0.5-1.9,1.5c0,0.8,0.9,1.4,1.9,1.4c1,0,1.9-0.5,1.9-1.4C348.3,45.6,346.9,45.2,346.4,45.1z M346.4,41.4
							c-1,0-1.8,0.5-1.8,1.3c0,0.9,1.2,1.3,1.8,1.4c0.5-0.1,1.8-0.4,1.8-1.4C348.1,41.8,347.3,41.4,346.4,41.4z"/>
						<path class="st3" d="M355.5,40.2c1.6,0,2.7,0.7,3.4,1.7l-1.1,0.6c-0.5-0.7-1.4-1.2-2.4-1.2c-1.8,0-3.2,1.4-3.2,3.3
							c0,1.9,1.4,3.3,3.2,3.3c1,0,1.8-0.5,2.2-0.9v-1.6h-2.8v-1.1h4.1v3.2c-0.8,0.9-2,1.5-3.5,1.5c-2.5,0-4.5-1.8-4.5-4.5
							S353,40.2,355.5,40.2z"/>
						<path class="st3" d="M360.9,40.3h4.1c1.5,0,2.4,0.9,2.4,2.2c0,1.1-0.7,1.8-1.5,2c0.9,0.1,1.7,1.1,1.7,2.1
							c0,1.4-0.9,2.3-2.5,2.3h-4.2V40.3z M364.7,44c0.9,0,1.4-0.5,1.4-1.3c0-0.7-0.5-1.3-1.4-1.3h-2.5V44H364.7z M364.8,47.9
							c0.9,0,1.5-0.5,1.5-1.4c0-0.7-0.5-1.3-1.5-1.3h-2.6v2.7H364.8z"/>
						<path class="st3" d="M369.2,50.2c0.4-0.3,0.8-0.8,0.9-1.2c0,0-0.1,0-0.2,0c-0.4,0-0.7-0.3-0.7-0.7c0-0.4,0.4-0.8,0.8-0.8
							c0.5,0,0.9,0.4,0.9,1.1c0,0.8-0.5,1.6-1.1,2.1L369.2,50.2z"/>
						<path class="st3" d="M376.5,46.8c0.6,0.6,1.5,1.2,2.7,1.2c1.4,0,1.9-0.7,1.9-1.3c0-0.9-1-1.2-2.1-1.5c-1.4-0.4-3-0.8-3-2.5
							c0-1.4,1.3-2.5,3.1-2.5c1.3,0,2.4,0.4,3.2,1.2l-0.8,1c-0.7-0.7-1.6-1-2.5-1c-1,0-1.6,0.5-1.6,1.2c0,0.8,0.9,1,2,1.3
							c1.4,0.4,3.1,0.8,3.1,2.7c0,1.4-0.9,2.6-3.3,2.6c-1.5,0-2.7-0.6-3.4-1.4L376.5,46.8z"/>
						<path class="st3" d="M384.2,51.4v-8.7h1.2v0.9c0.5-0.6,1.2-1.1,2.1-1.1c1.6,0,2.8,1.2,2.8,3.3c0,2.1-1.2,3.3-2.8,3.3
							c-0.8,0-1.5-0.4-2.1-1.1v3.3H384.2z M387.1,43.6c-0.7,0-1.4,0.4-1.7,0.9v2.7c0.3,0.5,1,0.9,1.7,0.9c1.2,0,1.9-0.9,1.9-2.3
							C389,44.6,388.3,43.6,387.1,43.6z"/>
						<path class="st3" d="M395.8,48.3c-0.5,0.5-1.2,0.8-2.1,0.8c-1,0-2.2-0.7-2.2-2.1c0-1.4,1.1-2.1,2.2-2.1c0.8,0,1.6,0.3,2.1,0.8
							v-1c0-0.8-0.6-1.2-1.5-1.2c-0.7,0-1.3,0.3-1.9,0.8l-0.5-0.8c0.7-0.7,1.6-1,2.6-1c1.4,0,2.5,0.6,2.5,2.2V49h-1.2V48.3z
							 M395.8,46.6c-0.4-0.5-1-0.7-1.6-0.7c-0.8,0-1.4,0.5-1.4,1.2s0.6,1.2,1.4,1.2c0.6,0,1.3-0.2,1.6-0.7V46.6z"/>
						<path class="st3" d="M401.9,42.6c1.2,0,1.9,0.5,2.4,1.1l-0.8,0.7c-0.4-0.5-0.9-0.8-1.5-0.8c-1.2,0-2,0.9-2,2.2
							c0,1.3,0.8,2.3,2,2.3c0.6,0,1.1-0.3,1.5-0.8l0.8,0.7c-0.5,0.6-1.2,1.1-2.4,1.1c-1.9,0-3.2-1.4-3.2-3.3
							C398.7,44,400,42.6,401.9,42.6z"/>
						<path class="st3" d="M408.5,42.6c1.9,0,3.1,1.5,3.1,3.4v0.3h-5c0.1,1.1,0.9,2,2.1,2c0.7,0,1.4-0.3,1.9-0.7l0.5,0.8
							c-0.6,0.6-1.5,0.9-2.5,0.9c-1.9,0-3.2-1.3-3.2-3.3C405.4,44,406.7,42.6,408.5,42.6z M406.6,45.4h3.8c0-0.8-0.6-1.9-1.9-1.9
							C407.3,43.5,406.7,44.5,406.6,45.4z"/>
						<path class="st3" d="M421,40.2c1.6,0,2.7,0.7,3.4,1.7l-1.1,0.6c-0.5-0.7-1.4-1.2-2.4-1.2c-1.8,0-3.2,1.4-3.2,3.3
							c0,1.9,1.4,3.3,3.2,3.3c1,0,1.8-0.5,2.2-0.9v-1.6h-2.8v-1.1h4.1v3.2c-0.8,0.9-2,1.5-3.5,1.5c-2.5,0-4.5-1.8-4.5-4.5
							S418.6,40.2,421,40.2z"/>
						<path class="st3" d="M426.4,42.7h1.2v1c0.5-0.6,1.2-1.1,2.1-1.1v1.2c-0.1,0-0.2,0-0.4,0c-0.6,0-1.4,0.4-1.7,0.9V49h-1.2V42.7z
							"/>
						<path class="st3" d="M433.8,42.6c1.9,0,3.1,1.5,3.1,3.4v0.3h-5c0.1,1.1,0.9,2,2.1,2c0.7,0,1.4-0.3,1.9-0.7l0.5,0.8
							c-0.6,0.6-1.5,0.9-2.5,0.9c-1.9,0-3.2-1.3-3.2-3.3C430.6,44,432,42.6,433.8,42.6z M431.9,45.4h3.8c0-0.8-0.6-1.9-1.9-1.9
							C432.5,43.5,431.9,44.5,431.9,45.4z"/>
						<path class="st3" d="M438.9,50.5c0.4,0,0.7-0.1,0.9-0.6l0.4-0.8l-2.6-6.3h1.2l2,4.9l2-4.9h1.3l-3.1,7.5c-0.4,1-1.1,1.3-2,1.4
							c-0.2,0-0.5,0-0.7-0.1l0.2-1.1C438.6,50.5,438.8,50.5,438.9,50.5z"/>
					</g>
					<g id="Checkboxes-_x2F_--filled-_x2F_-Active_2_" transform="translate(13.000000, 36.000000)">
						<g transform="translate(0.000000, 1.000000)">
							<g id="Check_box_base_2_">
								<path class="st4" d="M2,0h11.1c1.1,0,2,0.9,2,2v12c0,1.1-0.9,2-2,2H2c-1.1,0-2-0.9-2-2V2C0,0.9,0.9,0,2,0z"/>
							</g>
							<g id="Icon-:-thick-check_2_" transform="translate(3.764706, 6.000000)">
								<g id="Stroke-23_2_">
									<path class="st5" d="M2.1,5.8c-0.3,0-0.5-0.1-0.7-0.3l-2-2.2C-1,2.8-1,2.2-0.6,1.8c0.4-0.4,1-0.3,1.4,0.1l2,2.2
										c0.4,0.4,0.3,1-0.1,1.4C2.6,5.7,2.3,5.8,2.1,5.8z"/>
								</g>
								<g id="Stroke-25_2_">
									<path class="st5" d="M2.4,5.6c-0.2,0-0.5-0.1-0.7-0.3C1.3,5,1.2,4.4,1.6,4l4.2-4.6c0.4-0.4,1-0.4,1.4-0.1
										c0.4,0.4,0.4,1,0.1,1.4L3.1,5.3C2.9,5.5,2.6,5.6,2.4,5.6z"/>
								</g>
							</g>
						</g>
					</g>
					<g id="Line-2">
						<rect x="0.5" y="26.5" class="st1" width="675" height="1"/>
					</g>
					<g class="st2">
						<path class="st3" d="M618.5,9.7c0-2.7,2-4.5,4.5-4.5c1.8,0,2.9,0.9,3.5,2l-1.3,0.7c-0.4-0.7-1.2-1.3-2.2-1.3
							c-1.7,0-2.9,1.3-2.9,3.1s1.3,3.1,2.9,3.1c1,0,1.8-0.5,2.2-1.3l1.3,0.7c-0.7,1-1.7,2-3.5,2C620.5,14.2,618.5,12.3,618.5,9.7z"
							/>
						<path class="st3" d="M627.6,10.9c0-1.8,1.2-3.3,3.2-3.3c2,0,3.2,1.5,3.2,3.3c0,1.8-1.2,3.3-3.2,3.3
							C628.8,14.2,627.6,12.7,627.6,10.9z M632.6,10.9c0-1.1-0.7-2.1-1.8-2.1c-1.2,0-1.8,1-1.8,2.1c0,1.1,0.6,2.1,1.8,2.1
							C632,12.9,632.6,12,632.6,10.9z"/>
						<path class="st3" d="M636,11.6c0.6,0.6,1.5,1.2,2.7,1.2c1.2,0,1.7-0.6,1.7-1.2c0-0.8-0.9-1-2-1.3c-1.4-0.4-3.1-0.8-3.1-2.6
							c0-1.4,1.3-2.5,3.2-2.5c1.4,0,2.4,0.4,3.2,1.2L641,7.5c-0.7-0.7-1.6-1-2.5-1c-0.9,0-1.5,0.4-1.5,1.1c0,0.7,0.9,0.9,1.9,1.2
							c1.4,0.4,3.1,0.8,3.1,2.7c0,1.4-1,2.7-3.4,2.7c-1.6,0-2.8-0.6-3.5-1.4L636,11.6z"/>
					</g>
					<g class="st2">
						<path class="st3" d="M547.9,5.3h3.8c1.8,0,2.8,1.2,2.8,2.7s-1,2.7-2.8,2.7h-2.3V14h-1.5V5.3z M551.5,6.7h-2.1v2.8h2.1
							c0.9,0,1.5-0.5,1.5-1.4S552.4,6.7,551.5,6.7z"/>
						<path class="st3" d="M556,7.7h1.4v0.9c0.5-0.6,1.2-1.1,2-1.1v1.4c-0.1,0-0.3,0-0.4,0c-0.6,0-1.3,0.4-1.6,0.8V14H556V7.7z"/>
						<path class="st3" d="M560.6,5.8c0-0.5,0.4-0.8,0.8-0.8c0.5,0,0.8,0.4,0.8,0.8c0,0.5-0.4,0.8-0.8,0.8
							C561,6.7,560.6,6.3,560.6,5.8z M560.8,7.7h1.4V14h-1.4V7.7z"/>
						<path class="st3" d="M567,7.6c1.2,0,2,0.5,2.4,1.1l-0.9,0.8c-0.4-0.5-0.8-0.7-1.4-0.7c-1.1,0-1.9,0.9-1.9,2.1
							c0,1.2,0.8,2.1,1.9,2.1c0.6,0,1.1-0.3,1.4-0.7l0.9,0.8c-0.4,0.6-1.2,1.1-2.4,1.1c-1.9,0-3.2-1.4-3.2-3.3
							C563.7,9,565.1,7.6,567,7.6z"/>
						<path class="st3" d="M573.6,7.6c1.9,0,3.1,1.4,3.1,3.4v0.3h-4.8c0.1,0.9,0.8,1.7,2,1.7c0.6,0,1.3-0.2,1.8-0.7l0.6,0.9
							c-0.6,0.6-1.5,0.9-2.5,0.9c-1.9,0-3.3-1.3-3.3-3.3C570.4,9,571.8,7.6,573.6,7.6z M571.9,10.3h3.5c0-0.7-0.5-1.7-1.8-1.7
							C572.5,8.7,571.9,9.6,571.9,10.3z"/>
					</g>
					<g class="st2">
						<path class="st3" d="M39.9,4.3h3.8c1.8,0,2.8,1.2,2.8,2.7s-1,2.7-2.8,2.7h-2.3V13h-1.5V4.3z M43.5,5.7h-2.1v2.8h2.1
							C44.4,8.4,45,7.9,45,7S44.4,5.7,43.5,5.7z"/>
						<path class="st3" d="M48,6.7h1.4v0.9c0.5-0.6,1.2-1.1,2-1.1v1.4c-0.1,0-0.3,0-0.4,0c-0.6,0-1.3,0.4-1.6,0.8V13H48V6.7z"/>
						<path class="st3" d="M52.4,9.9c0-1.8,1.2-3.3,3.2-3.3c2,0,3.2,1.5,3.2,3.3c0,1.8-1.2,3.3-3.2,3.3
							C53.6,13.2,52.4,11.7,52.4,9.9z M57.4,9.9c0-1.1-0.6-2.1-1.8-2.1c-1.2,0-1.8,1-1.8,2.1c0,1.1,0.6,2.1,1.8,2.1
							C56.8,11.9,57.4,11,57.4,9.9z"/>
						<path class="st3" d="M64.9,12.1c-0.5,0.6-1.2,1-2,1c-1.6,0-2.8-1.2-2.8-3.3c0-2,1.2-3.3,2.8-3.3c0.8,0,1.5,0.4,2,1V4.3h1.4V13
							h-1.4V12.1z M64.9,8.6c-0.3-0.5-1-0.8-1.6-0.8c-1.1,0-1.8,0.9-1.8,2.1c0,1.2,0.7,2.1,1.8,2.1c0.6,0,1.3-0.4,1.6-0.8V8.6z"/>
						<path class="st3" d="M72.5,12.2c-0.5,0.5-1.2,1-2.2,1c-1.4,0-2-0.7-2-2V6.7h1.4v4c0,1,0.5,1.3,1.3,1.3c0.7,0,1.3-0.4,1.6-0.8
							V6.7h1.4V13h-1.4V12.2z"/>
						<path class="st3" d="M78.7,6.6c1.2,0,2,0.5,2.4,1.1l-0.9,0.8c-0.4-0.5-0.8-0.7-1.4-0.7c-1.1,0-1.9,0.9-1.9,2.1
							c0,1.2,0.8,2.1,1.9,2.1c0.6,0,1.1-0.3,1.4-0.7l0.9,0.8c-0.4,0.6-1.2,1.1-2.4,1.1c-1.9,0-3.2-1.4-3.2-3.3
							C75.5,8,76.8,6.6,78.7,6.6z"/>
						<path class="st3" d="M82.8,11.5V7.9h-1V6.7h1V5h1.4v1.7h1.3v1.2h-1.3v3.3c0,0.4,0.2,0.7,0.6,0.7c0.3,0,0.5-0.1,0.6-0.2l0.3,1
							c-0.2,0.2-0.6,0.4-1.3,0.4C83.4,13.2,82.8,12.6,82.8,11.5z"/>
						<path class="st3" d="M92.6,5.7H90V4.3h6.8v1.3h-2.6V13h-1.5V5.7z"/>
						<path class="st3" d="M98.1,4.8c0-0.5,0.4-0.8,0.8-0.8c0.5,0,0.8,0.4,0.8,0.8c0,0.5-0.4,0.8-0.8,0.8
							C98.4,5.7,98.1,5.3,98.1,4.8z M98.2,6.7h1.4V13h-1.4V6.7z"/>
						<path class="st3" d="M101.9,11.5V7.9h-1V6.7h1V5h1.4v1.7h1.3v1.2h-1.3v3.3c0,0.4,0.2,0.7,0.6,0.7c0.3,0,0.5-0.1,0.6-0.2l0.3,1
							c-0.2,0.2-0.6,0.4-1.3,0.4C102.4,13.2,101.9,12.6,101.9,11.5z"/>
						<path class="st3" d="M106,4.3h1.4V13H106V4.3z"/>
						<path class="st3" d="M112.1,6.6c1.9,0,3.1,1.4,3.1,3.4v0.3h-4.8c0.1,0.9,0.8,1.7,2,1.7c0.6,0,1.3-0.2,1.8-0.7l0.6,0.9
							c-0.6,0.6-1.5,0.9-2.5,0.9c-1.9,0-3.3-1.3-3.3-3.3C109,8,110.3,6.6,112.1,6.6z M110.4,9.3h3.5c0-0.7-0.5-1.7-1.8-1.7
							C111,7.7,110.4,8.6,110.4,9.3z"/>
					</g>
					<g id="Checkboxes-_x2F_-filled-_x2F_-hover_1_" transform="translate(13.000000, 0.000000)">
						<g id="Rectangle-18-Copy-4_1_" transform="translate(0.000000, 1.000000)">
							<g>
								<path class="st6" d="M2.5,0.5h10.1c1.1,0,2,0.9,2,2v11c0,1.1-0.9,2-2,2H2.5c-1.1,0-2-0.9-2-2v-11C0.5,1.4,1.4,0.5,2.5,0.5z"
									/>
								<path class="st7" d="M12.6,16H2.5C1.1,16,0,14.9,0,13.5v-11C0,1.1,1.1,0,2.5,0h10.1c1.4,0,2.5,1.1,2.5,2.5v11
									C15.1,14.9,13.9,16,12.6,16z M2.5,1C1.7,1,1,1.7,1,2.5v11C1,14.3,1.7,15,2.5,15h10.1c0.8,0,1.5-0.7,1.5-1.5v-11
									c0-0.8-0.7-1.5-1.5-1.5H2.5z"/>
							</g>
						</g>
					</g>
				</g>
				<g id="Popover" transform="translate(432.000000, 62.000000)">
					<g id="Rectangle_2_">
						<g>
							<g id="path-2">
								<rect y="10" class="st8" width="265" height="137"/>
							</g>
						</g>
						<g>
							<rect x="0.5" y="10.5" class="st0" width="264" height="136"/>
							<path class="st1" d="M265,147H0V10h265V147z M1,146h263V11H1V146z"/>
						</g>
					</g>
					<g id="Apply-Button" transform="translate(213.000000, 108.000000)">
						<g id="Rectangle_3_">
							<path class="st9" d="M4.5,0.5h33c2.2,0,4,1.8,4,4v18c0,2.2-1.8,4-4,4h-33c-2.2,0-4-1.8-4-4v-18C0.5,2.3,2.3,0.5,4.5,0.5z"/>
							<path class="st1" d="M37.5,27h-33C2,27,0,25,0,22.5v-18C0,2,2,0,4.5,0h33C40,0,42,2,42,4.5v18C42,25,40,27,37.5,27z M4.5,1
								C2.6,1,1,2.6,1,4.5v18C1,24.4,2.6,26,4.5,26h33c1.9,0,3.5-1.6,3.5-3.5v-18C41,2.6,39.4,1,37.5,1H4.5z"/>
						</g>
						<g class="st2">
							<path class="st3" d="M11.5,15.5H7.9L7.3,17H6.1L9,9.7h1.4l2.9,7.3h-1.2L11.5,15.5z M8.2,14.5h3l-1.5-3.9L8.2,14.5z"/>
							<path class="st3" d="M14.3,19v-7.3h1v0.8c0.4-0.5,1-0.9,1.7-0.9c1.4,0,2.4,1,2.4,2.8s-1,2.8-2.4,2.8c-0.7,0-1.3-0.3-1.7-0.9
								V19H14.3z M16.8,12.4c-0.6,0-1.2,0.4-1.5,0.8v2.3c0.3,0.4,0.9,0.8,1.5,0.8c1,0,1.6-0.8,1.6-1.9
								C18.4,13.2,17.8,12.4,16.8,12.4z"/>
							<path class="st3" d="M20.9,19v-7.3h1v0.8c0.4-0.5,1-0.9,1.7-0.9c1.4,0,2.4,1,2.4,2.8s-1,2.8-2.4,2.8c-0.7,0-1.3-0.3-1.7-0.9
								V19H20.9z M23.3,12.4c-0.6,0-1.2,0.4-1.5,0.8v2.3c0.3,0.4,0.9,0.8,1.5,0.8c1,0,1.6-0.8,1.6-1.9
								C24.9,13.2,24.3,12.4,23.3,12.4z"/>
							<path class="st3" d="M27.4,9.7h1V17h-1V9.7z"/>
							<path class="st3" d="M30.5,18.3c0.4,0,0.6-0.1,0.8-0.5l0.3-0.7l-2.2-5.4h1.1l1.7,4.2l1.7-4.2h1.1L32.2,18
								c-0.3,0.8-0.9,1.1-1.7,1.1c-0.2,0-0.5,0-0.6-0.1l0.2-0.9C30.2,18.2,30.4,18.3,30.5,18.3z"/>
						</g>
					</g>
					<g id="Cancel-Button" transform="translate(169.000000, 115.000000)">
						<g class="st2">
							<path class="st3" d="M0.5,6.3c0-2.3,1.7-3.8,3.8-3.8c1.4,0,2.3,0.7,2.9,1.6L6.2,4.6C5.9,4,5.1,3.5,4.3,3.5
								c-1.5,0-2.6,1.2-2.6,2.8c0,1.6,1.1,2.8,2.6,2.8c0.9,0,1.6-0.5,2-1.1l0.9,0.5c-0.6,0.9-1.5,1.6-2.9,1.6
								C2.2,10.1,0.5,8.6,0.5,6.3z"/>
							<path class="st3" d="M11.7,9.4c-0.4,0.5-1,0.7-1.7,0.7c-0.9,0-1.8-0.6-1.8-1.8c0-1.2,1-1.7,1.8-1.7c0.7,0,1.3,0.2,1.7,0.7
								V6.5c0-0.7-0.5-1.1-1.3-1.1c-0.6,0-1.1,0.2-1.6,0.7L8.4,5.4C9,4.8,9.7,4.6,10.6,4.6c1.2,0,2.1,0.5,2.1,1.9V10h-1V9.4z
								 M11.7,7.9c-0.3-0.4-0.8-0.6-1.4-0.6c-0.7,0-1.2,0.4-1.2,1.1s0.5,1.1,1.2,1.1c0.6,0,1.1-0.2,1.4-0.6V7.9z"/>
							<path class="st3" d="M18.1,6.6c0-0.9-0.5-1.2-1.1-1.2c-0.6,0-1.2,0.4-1.5,0.8V10h-1V4.7h1v0.7c0.4-0.4,1.1-0.9,1.9-0.9
								c1.1,0,1.7,0.6,1.7,1.7V10h-1V6.6z"/>
							<path class="st3" d="M23.2,4.6c1,0,1.6,0.4,2,0.9l-0.7,0.6c-0.3-0.5-0.7-0.7-1.3-0.7c-1,0-1.7,0.8-1.7,1.9
								c0,1.1,0.7,1.9,1.7,1.9c0.5,0,1-0.2,1.3-0.7l0.7,0.6c-0.4,0.5-1,0.9-2,0.9c-1.6,0-2.7-1.2-2.7-2.8
								C20.5,5.7,21.6,4.6,23.2,4.6z"/>
							<path class="st3" d="M28.8,4.6c1.6,0,2.6,1.2,2.6,2.9v0.2h-4.2C27.3,8.6,28,9.3,29,9.3c0.6,0,1.2-0.2,1.6-0.6l0.5,0.6
								c-0.5,0.5-1.3,0.8-2.1,0.8c-1.6,0-2.8-1.1-2.8-2.8C26.2,5.8,27.3,4.6,28.8,4.6z M27.2,7h3.2c0-0.7-0.5-1.6-1.6-1.6
								C27.8,5.4,27.3,6.2,27.2,7z"/>
							<path class="st3" d="M32.9,2.7h1V10h-1V2.7z"/>
						</g>
					</g>
					<g id="Sliders-_x2F_-complex" transform="translate(6.000000, 17.000000)">
						<g transform="translate(0.000000, 17.000000)">
							<g id="Slider-Bar" transform="translate(0.000000, 2.000000)">
								<g id="Empty">
									<rect x="1" y="11" class="st10" width="180" height="6"/>
								</g>
								<g id="Full">
									<rect x="1" y="11" class="st11" width="67" height="6"/>
								</g>
								<g class="st2">
									<path class="st7" d="M5.3,20.5C7.9,20.5,9,23,9,25.3c0,2.3-1.1,4.8-3.7,4.8c-2.6,0-3.7-2.5-3.7-4.8
										C1.6,23,2.7,20.5,5.3,20.5z M5.3,21.8c-1.7,0-2.2,1.8-2.2,3.6c0,1.8,0.6,3.6,2.2,3.6c1.7,0,2.2-1.8,2.2-3.6
										C7.5,23.5,7,21.8,5.3,21.8z"/>
									<path class="st7" d="M12.5,20.5c1.4,0,2.3,1,2.3,2.3c0,1.3-0.9,2.3-2.3,2.3c-1.4,0-2.3-1-2.3-2.3
										C10.3,21.5,11.2,20.5,12.5,20.5z M12.5,21.3c-0.8,0-1.3,0.6-1.3,1.5c0,0.8,0.5,1.5,1.3,1.5c0.8,0,1.3-0.6,1.3-1.5
										C13.9,22,13.3,21.3,12.5,21.3z M17.6,20.7h0.9l-6,9.3h-0.8L17.6,20.7z M17.5,25.5c1.4,0,2.3,1,2.3,2.3
										c0,1.3-0.9,2.3-2.3,2.3c-1.4,0-2.3-1-2.3-2.3C15.2,26.6,16.1,25.5,17.5,25.5z M17.5,26.4c-0.8,0-1.3,0.6-1.3,1.5
										c0,0.9,0.5,1.5,1.3,1.5c0.8,0,1.3-0.6,1.3-1.5C18.8,27,18.3,26.4,17.5,26.4z"/>
								</g>
								<g class="st2">
									<path class="st7" d="M154.1,27.7c0.6,0.7,1.6,1.2,2.6,1.2c1.3,0,2.1-0.6,2.1-1.6c0-1-0.8-1.5-2.2-1.5c-0.4,0-0.9,0-1,0
										v-1.3c0.2,0,0.6,0,1,0c1.1,0,2.1-0.4,2.1-1.4c0-1-0.9-1.5-2-1.5c-1,0-1.8,0.4-2.4,1.1l-0.7-0.9c0.7-0.8,1.8-1.5,3.3-1.5
										c1.9,0,3.3,0.9,3.3,2.5c0,1.3-1.1,2-2,2.2c0.9,0.1,2.2,0.8,2.2,2.3c0,1.6-1.3,2.7-3.4,2.7c-1.6,0-2.8-0.7-3.4-1.5
										L154.1,27.7z"/>
									<path class="st7" d="M165.5,20.5c2.6,0,3.7,2.5,3.7,4.8c0,2.3-1.1,4.8-3.7,4.8s-3.7-2.5-3.7-4.8
										C161.8,23,162.9,20.5,165.5,20.5z M165.5,21.8c-1.7,0-2.2,1.8-2.2,3.6c0,1.8,0.6,3.6,2.2,3.6s2.2-1.8,2.2-3.6
										C167.7,23.5,167.1,21.8,165.5,21.8z"/>
									<path class="st7" d="M172.7,20.5c1.4,0,2.3,1,2.3,2.3c0,1.3-0.9,2.3-2.3,2.3c-1.4,0-2.3-1-2.3-2.3
										C170.4,21.5,171.3,20.5,172.7,20.5z M172.7,21.3c-0.8,0-1.3,0.6-1.3,1.5c0,0.8,0.5,1.5,1.3,1.5c0.8,0,1.3-0.6,1.3-1.5
										C174,22,173.5,21.3,172.7,21.3z M177.8,20.7h0.9l-6,9.3h-0.8L177.8,20.7z M177.7,25.5c1.4,0,2.3,1,2.3,2.3
										c0,1.3-0.9,2.3-2.3,2.3c-1.4,0-2.3-1-2.3-2.3C175.4,26.6,176.3,25.5,177.7,25.5z M177.7,26.4c-0.8,0-1.3,0.6-1.3,1.5
										c0,0.9,0.5,1.5,1.3,1.5c0.8,0,1.3-0.6,1.3-1.5C179,27,178.4,26.4,177.7,26.4z"/>
								</g>
								<g id="Path-4">
									<polygon class="st9" points="29,11.1 54.7,4.2 73.3,3 98.8,2.2 123.4,1 181,0 181,11.1 									"/>
								</g>
								<g class="st2">
									<path class="st3" d="M1,49.3h5.8v1.1H2.3V53h4.4v1.1H2.3v2.7h4.5V58H1V49.3z"/>
									<path class="st3" d="M10.9,55.6L9.1,58H7.8l2.4-3.2l-2.2-3.1h1.3l1.6,2.3l1.6-2.3h1.3l-2.2,3.1L14,58h-1.3L10.9,55.6z"/>
									<path class="st3" d="M15.2,60.4v-8.7h1.2v0.9c0.5-0.6,1.2-1.1,2.1-1.1c1.6,0,2.8,1.2,2.8,3.3c0,2.1-1.2,3.3-2.8,3.3
										c-0.8,0-1.5-0.4-2.1-1.1v3.3H15.2z M18.1,52.6c-0.7,0-1.4,0.4-1.7,0.9v2.7c0.3,0.5,1,0.9,1.7,0.9c1.2,0,1.9-0.9,1.9-2.3
										C20,53.6,19.3,52.6,18.1,52.6z"/>
									<path class="st3" d="M25.7,51.6c1.9,0,3.1,1.5,3.1,3.4v0.3h-5c0.1,1.1,0.9,2,2.1,2c0.7,0,1.4-0.3,1.9-0.7l0.5,0.8
										c-0.6,0.6-1.5,0.9-2.5,0.9c-1.9,0-3.3-1.3-3.3-3.3C22.6,53,23.9,51.6,25.7,51.6z M23.8,54.4h3.8c0-0.8-0.6-1.9-1.9-1.9
										C24.5,52.5,23.9,53.5,23.8,54.4z"/>
									<path class="st3" d="M33.3,51.6c1.2,0,1.9,0.5,2.4,1.1l-0.8,0.7c-0.4-0.5-0.9-0.8-1.5-0.8c-1.2,0-2,0.9-2,2.2
										c0,1.3,0.8,2.3,2,2.3c0.6,0,1.1-0.3,1.5-0.8l0.8,0.7c-0.5,0.6-1.2,1.1-2.4,1.1c-1.9,0-3.2-1.4-3.2-3.3
										C30.1,53,31.4,51.6,33.3,51.6z"/>
									<path class="st3" d="M37.4,56.6v-3.9h-1v-1h1V50h1.2v1.7h1.3v1h-1.3v3.6c0,0.4,0.2,0.8,0.6,0.8c0.3,0,0.5-0.1,0.6-0.2
										l0.3,0.9c-0.2,0.2-0.6,0.4-1.2,0.4C37.9,58.2,37.4,57.6,37.4,56.6z"/>
									<path class="st3" d="M48.8,57.3c-0.5,0.5-1.2,0.8-2.1,0.8c-1,0-2.2-0.7-2.2-2.1c0-1.4,1.1-2.1,2.2-2.1
										c0.8,0,1.6,0.3,2.1,0.8v-1c0-0.8-0.6-1.2-1.5-1.2c-0.7,0-1.3,0.3-1.9,0.8l-0.5-0.8c0.7-0.7,1.6-1,2.6-1
										c1.4,0,2.5,0.6,2.5,2.2V58h-1.2V57.3z M48.8,55.6c-0.4-0.5-1-0.7-1.6-0.7c-0.8,0-1.4,0.5-1.4,1.2s0.6,1.2,1.4,1.2
										c0.7,0,1.3-0.2,1.6-0.7V55.6z"/>
									<path class="st3" d="M56.4,54c0-1-0.5-1.4-1.3-1.4c-0.7,0-1.4,0.4-1.7,0.9V58h-1.2v-6.3h1.2v0.9c0.4-0.5,1.2-1,2.2-1
										c1.3,0,2,0.7,2,2V58h-1.2V54z"/>
									<path class="st3" d="M67.1,57.3c-0.5,0.5-1.2,0.8-2.1,0.8c-1,0-2.2-0.7-2.2-2.1c0-1.4,1.1-2.1,2.2-2.1
										c0.8,0,1.6,0.3,2.1,0.8v-1c0-0.8-0.6-1.2-1.5-1.2c-0.7,0-1.3,0.3-1.9,0.8l-0.5-0.8c0.7-0.7,1.6-1,2.6-1
										c1.4,0,2.5,0.6,2.5,2.2V58h-1.2V57.3z M67.1,55.6c-0.4-0.5-1-0.7-1.6-0.7c-0.8,0-1.4,0.5-1.4,1.2s0.6,1.2,1.4,1.2
										c0.6,0,1.3-0.2,1.6-0.7V55.6z"/>
									<path class="st3" d="M74.8,57.1c-0.5,0.6-1.2,1.1-2.1,1.1c-1.6,0-2.8-1.2-2.8-3.3c0-2,1.2-3.3,2.8-3.3
										c0.8,0,1.5,0.4,2.1,1.1v-3.3H76V58h-1.2V57.1z M74.8,53.5c-0.3-0.5-1-0.9-1.7-0.9c-1.2,0-1.9,0.9-1.9,2.3
										c0,1.3,0.7,2.2,1.9,2.2c0.7,0,1.4-0.4,1.7-0.9V53.5z"/>
									<path class="st3" d="M82.6,57.1c-0.5,0.6-1.2,1.1-2.1,1.1c-1.6,0-2.8-1.2-2.8-3.3c0-2,1.2-3.3,2.8-3.3
										c0.8,0,1.5,0.4,2.1,1.1v-3.3h1.2V58h-1.2V57.1z M82.6,53.5c-0.3-0.5-1-0.9-1.7-0.9c-1.2,0-1.9,0.9-1.9,2.3
										c0,1.3,0.7,2.2,1.9,2.2c0.7,0,1.4-0.4,1.7-0.9V53.5z"/>
									<path class="st3" d="M85.7,49.9c0-0.4,0.4-0.8,0.8-0.8c0.4,0,0.8,0.3,0.8,0.8s-0.3,0.7-0.8,0.7
										C86,50.7,85.7,50.3,85.7,49.9z M85.9,51.7H87V58h-1.2V51.7z"/>
									<path class="st3" d="M89.3,56.6v-3.9h-1v-1h1V50h1.2v1.7h1.3v1h-1.3v3.6c0,0.4,0.2,0.8,0.6,0.8c0.3,0,0.5-0.1,0.6-0.2
										l0.3,0.9c-0.2,0.2-0.6,0.4-1.2,0.4C89.9,58.2,89.3,57.6,89.3,56.6z"/>
									<path class="st3" d="M93.1,49.9c0-0.4,0.4-0.8,0.8-0.8c0.4,0,0.8,0.3,0.8,0.8s-0.3,0.7-0.8,0.7
										C93.5,50.7,93.1,50.3,93.1,49.9z M93.3,51.7h1.2V58h-1.2V51.7z"/>
									<path class="st3" d="M96.2,54.9c0-1.8,1.2-3.3,3.2-3.3c2,0,3.2,1.5,3.2,3.3c0,1.8-1.2,3.3-3.2,3.3
										C97.4,58.2,96.2,56.7,96.2,54.9z M101.3,54.9c0-1.2-0.7-2.2-2-2.2c-1.2,0-2,1.1-2,2.2c0,1.2,0.7,2.3,2,2.3
										C100.6,57.1,101.3,56,101.3,54.9z"/>
									<path class="st3" d="M108.5,54c0-1-0.5-1.4-1.3-1.4c-0.7,0-1.4,0.4-1.7,0.9V58h-1.2v-6.3h1.2v0.9c0.4-0.5,1.2-1,2.2-1
										c1.3,0,2,0.7,2,2V58h-1.2V54z"/>
									<path class="st3" d="M115.6,57.3c-0.5,0.5-1.2,0.8-2.1,0.8c-1,0-2.2-0.7-2.2-2.1c0-1.4,1.1-2.1,2.2-2.1
										c0.8,0,1.6,0.3,2.1,0.8v-1c0-0.8-0.6-1.2-1.5-1.2c-0.7,0-1.3,0.3-1.9,0.8l-0.5-0.8c0.7-0.7,1.6-1,2.6-1
										c1.4,0,2.5,0.6,2.5,2.2V58h-1.2V57.3z M115.6,55.6c-0.4-0.5-1-0.7-1.6-0.7c-0.8,0-1.4,0.5-1.4,1.2s0.6,1.2,1.4,1.2
										c0.7,0,1.3-0.2,1.6-0.7V55.6z"/>
									<path class="st3" d="M118.9,49.3h1.2V58h-1.2V49.3z"/>
									<path class="st3" d="M129.3,55.9h-4.1v-1.1l3.6-5.5h1.8v5.4h1.2v1.1h-1.2V58h-1.3V55.9z M126.5,54.8h2.8v-4.3L126.5,54.8z"
										/>
									<path class="st3" d="M132.8,54.3h3.1v1h-3.1V54.3z"/>
									<path class="st3" d="M138.1,55.9c0.6,0.7,1.4,1.1,2.4,1.1c1.1,0,1.9-0.7,1.9-1.7c0-1-0.7-1.7-1.9-1.7c-0.8,0-1.4,0.2-2,0.8
										l-0.9-0.3v-4.8h5.5v1.1H139v2.8c0.4-0.4,1.1-0.8,2-0.8c1.5,0,2.8,1,2.8,2.8s-1.4,2.9-3.2,2.9c-1.5,0-2.5-0.5-3.1-1.4
										L138.1,55.9z"/>
									<path class="st3" d="M149.1,56.3c0.4,0.5,1.3,0.9,2.1,0.9c0.9,0,1.4-0.4,1.4-0.9c0-0.6-0.7-0.8-1.5-1
										c-1.1-0.2-2.3-0.5-2.3-1.9c0-1,0.9-1.9,2.4-1.9c1.1,0,1.9,0.4,2.4,0.9l-0.5,0.8c-0.4-0.4-1.1-0.8-1.9-0.8s-1.3,0.3-1.3,0.8
										c0,0.5,0.7,0.7,1.5,0.9c1.1,0.2,2.4,0.5,2.4,2c0,1.1-0.9,1.9-2.5,1.9c-1.1,0-2-0.3-2.6-1L149.1,56.3z"/>
									<path class="st3" d="M159.3,57.3c-0.5,0.5-1.2,0.8-2.1,0.8c-1,0-2.2-0.7-2.2-2.1c0-1.4,1.1-2.1,2.2-2.1
										c0.8,0,1.6,0.3,2.1,0.8v-1c0-0.8-0.6-1.2-1.5-1.2c-0.7,0-1.3,0.3-1.9,0.8l-0.5-0.8c0.7-0.7,1.6-1,2.6-1
										c1.4,0,2.5,0.6,2.5,2.2V58h-1.2V57.3z M159.3,55.6c-0.4-0.5-1-0.7-1.6-0.7c-0.8,0-1.4,0.5-1.4,1.2s0.6,1.2,1.4,1.2
										c0.6,0,1.3-0.2,1.6-0.7V55.6z"/>
									<path class="st3" d="M162.5,49.3h1.2V58h-1.2V49.3z"/>
									<path class="st3" d="M168.6,51.6c1.9,0,3.1,1.5,3.1,3.4v0.3h-5c0.1,1.1,0.9,2,2.1,2c0.7,0,1.4-0.3,1.9-0.7l0.5,0.8
										c-0.6,0.6-1.5,0.9-2.5,0.9c-1.9,0-3.3-1.3-3.3-3.3C165.4,53,166.7,51.6,168.6,51.6z M166.6,54.4h3.8c0-0.8-0.6-1.9-1.9-1.9
										C167.3,52.5,166.7,53.5,166.6,54.4z"/>
									<path class="st3" d="M173.3,56.3c0.4,0.5,1.3,0.9,2.1,0.9c0.9,0,1.4-0.4,1.4-0.9c0-0.6-0.7-0.8-1.5-1
										c-1.1-0.2-2.3-0.5-2.3-1.9c0-1,0.9-1.9,2.4-1.9c1.1,0,1.9,0.4,2.4,0.9l-0.5,0.8c-0.4-0.4-1.1-0.8-1.9-0.8s-1.3,0.3-1.3,0.8
										c0,0.5,0.7,0.7,1.5,0.9c1.1,0.2,2.4,0.5,2.4,2c0,1.1-0.9,1.9-2.5,1.9c-1.1,0-2-0.3-2.6-1L173.3,56.3z"/>
									<path class="st3" d="M183.2,60.4v-8.7h1.2v0.9c0.5-0.6,1.2-1.1,2.1-1.1c1.6,0,2.8,1.2,2.8,3.3c0,2.1-1.2,3.3-2.8,3.3
										c-0.8,0-1.5-0.4-2.1-1.1v3.3H183.2z M186.1,52.6c-0.7,0-1.4,0.4-1.7,0.9v2.7c0.3,0.5,1,0.9,1.7,0.9c1.2,0,1.9-0.9,1.9-2.3
										C188,53.6,187.3,52.6,186.1,52.6z"/>
									<path class="st3" d="M193.7,51.6c1.9,0,3.1,1.5,3.1,3.4v0.3h-5c0.1,1.1,0.9,2,2.1,2c0.7,0,1.4-0.3,1.9-0.7l0.5,0.8
										c-0.6,0.6-1.5,0.9-2.5,0.9c-1.9,0-3.3-1.3-3.3-3.3C190.6,53,191.9,51.6,193.7,51.6z M191.8,54.4h3.8c0-0.8-0.6-1.9-1.9-1.9
										C192.5,52.5,191.9,53.5,191.8,54.4z"/>
									<path class="st3" d="M198.5,51.7h1.2v1c0.5-0.6,1.2-1.1,2.1-1.1v1.2c-0.1,0-0.2,0-0.4,0c-0.6,0-1.4,0.4-1.7,0.9V58h-1.2
										V51.7z"/>
									<path class="st3" d="M214.3,53.8c0-0.7-0.3-1.2-1.1-1.2c-0.6,0-1.3,0.4-1.6,0.9V58h-1.2v-4.2c0-0.7-0.3-1.2-1.1-1.2
										c-0.6,0-1.2,0.5-1.5,0.9V58h-1.2v-6.3h1.2v0.9c0.3-0.4,1.1-1,2-1c0.9,0,1.5,0.5,1.7,1.2c0.4-0.6,1.2-1.2,2.1-1.2
										c1.2,0,1.8,0.6,1.8,1.9V58h-1.2V53.8z"/>
									<path class="st3" d="M217.2,54.9c0-1.8,1.2-3.3,3.2-3.3c2,0,3.2,1.5,3.2,3.3c0,1.8-1.2,3.3-3.2,3.3
										C218.4,58.2,217.2,56.7,217.2,54.9z M222.3,54.9c0-1.2-0.7-2.2-2-2.2c-1.2,0-2,1.1-2,2.2c0,1.2,0.7,2.3,2,2.3
										C221.6,57.1,222.3,56,222.3,54.9z"/>
									<path class="st3" d="M229.5,54c0-1-0.5-1.4-1.3-1.4c-0.7,0-1.4,0.4-1.7,0.9V58h-1.2v-6.3h1.2v0.9c0.4-0.5,1.2-1,2.2-1
										c1.3,0,2,0.7,2,2V58h-1.2V54z"/>
									<path class="st3" d="M233,56.6v-3.9h-1v-1h1V50h1.2v1.7h1.3v1h-1.3v3.6c0,0.4,0.2,0.8,0.6,0.8c0.3,0,0.5-0.1,0.6-0.2
										l0.3,0.9c-0.2,0.2-0.6,0.4-1.2,0.4C233.5,58.2,233,57.6,233,56.6z"/>
									<path class="st3" d="M241.2,54c0-1-0.5-1.4-1.3-1.4c-0.7,0-1.4,0.4-1.7,0.9V58H237v-8.7h1.2v3.3c0.4-0.5,1.3-1,2.2-1
										c1.3,0,2,0.7,2,2V58h-1.2V54z"/>
								</g>
							</g>
							<g id="Slider-Control" transform="translate(59.000000, 6.000000)">
								<g id="Cirlcle-Copy">
									<g>
										<g id="path-4">
											<circle class="st8" cx="10" cy="10" r="10"/>
										</g>
									</g>
									<g>
										<g id="path-4_1_">
											<circle class="st4" cx="10" cy="10" r="10"/>
											<path class="st5" d="M10,21.5C3.7,21.5-1.5,16.3-1.5,10S3.7-1.5,10-1.5S21.5,3.7,21.5,10S16.3,21.5,10,21.5z M10,1.5
												c-4.7,0-8.5,3.8-8.5,8.5s3.8,8.5,8.5,8.5s8.5-3.8,8.5-8.5S14.7,1.5,10,1.5z"/>
										</g>
									</g>
								</g>
							</g>
							<g id="Slider-Value" transform="translate(197.000000, 0.000000)">
								<g class="st2">
									<path class="st7" d="M28.8,8.5c1.1,0,2.1,0.4,2.8,1L30.7,11c-0.5-0.5-1-0.7-1.9-0.7c-1.4,0-2.3,1.2-2.3,2.7
										c0,0.1,0,0.1,0,0.2c0.4-0.6,1.4-1.2,2.4-1.2c1.7,0,3.2,1,3.2,3c0,1.8-1.4,3.2-3.6,3.2c-2.8,0-4-2.2-4-4.8
										C24.5,10.5,26.1,8.5,28.8,8.5z M28.3,13.6c-0.7,0-1.4,0.4-1.8,0.9c0.1,0.9,0.6,1.9,1.9,1.9c1.1,0,1.7-0.7,1.7-1.4
										C30.1,14,29.2,13.6,28.3,13.6z"/>
								</g>
								<g id="Rectangle_4_">
									<path class="st1" d="M34.5,27h-30C2,27,0,25,0,22.5v-18C0,2,2,0,4.5,0h30C37,0,39,2,39,4.5v18C39,25,37,27,34.5,27z M4.5,1
										C2.6,1,1,2.6,1,4.5v18C1,24.4,2.6,26,4.5,26h30c1.9,0,3.5-1.6,3.5-3.5v-18C38,2.6,36.4,1,34.5,1H4.5z"/>
								</g>
								<g class="st2">
									<path class="st7" d="M43.7,8.5c1.4,0,2.4,1,2.4,2.4c0,1.3-0.9,2.3-2.4,2.3c-1.4,0-2.4-1-2.4-2.3
										C41.4,9.6,42.3,8.5,43.7,8.5z M43.7,9.6c-0.6,0-1.1,0.5-1.1,1.2c0,0.7,0.5,1.2,1.1,1.2c0.6,0,1.1-0.5,1.1-1.2
										C44.8,10.1,44.4,9.6,43.7,9.6z M48.8,8.7h1.1l-6,9.3h-1.1L48.8,8.7z M48.9,13.5c1.4,0,2.4,1,2.4,2.4c0,1.3-1,2.3-2.4,2.3
										s-2.4-1-2.4-2.3C46.5,14.5,47.4,13.5,48.9,13.5z M48.9,14.6c-0.6,0-1.1,0.5-1.1,1.2c0,0.8,0.5,1.2,1.1,1.2
										c0.6,0,1.1-0.5,1.1-1.2C50,15.1,49.5,14.6,48.9,14.6z"/>
								</g>
							</g>
						</g>
					</g>
					<g id="Triangle">
						<path class="st0" d="M178,0.7l-8.9,9.8h17.7L178,0.7z"/>
						<path class="st1" d="M188,11h-20l10-11L188,11z M170.3,10h15.5L178,1.5L170.3,10z"/>
					</g>
					<g id="Triangle_1_">
						<polygon class="st0" points="178,1 188,12 168,12 						"/>
					</g>
				</g>
				<g id="Set-CoS-Button" transform="translate(524.000000, 32.000000)">
					<g id="Rectangle_5_">
						<path class="st9" d="M4.5,0.5h163c2.2,0,4,1.8,4,4v20c0,2.2-1.8,4-4,4H4.5c-2.2,0-4-1.8-4-4v-20C0.5,2.3,2.3,0.5,4.5,0.5z"/>
						<path class="st1" d="M167.5,29H4.5C2,29,0,27,0,24.5v-20C0,2,2,0,4.5,0h163c2.5,0,4.5,2,4.5,4.5v20C172,27,170,29,167.5,29z
							 M4.5,1C2.6,1,1,2.6,1,4.5v20C1,26.4,2.6,28,4.5,28h163c1.9,0,3.5-1.6,3.5-3.5v-20c0-1.9-1.6-3.5-3.5-3.5H4.5z"/>
					</g>
					<g class="st2">
						<path class="st3" d="M8.2,16.8c0.6,0.6,1.5,1.2,2.7,1.2c1.4,0,1.9-0.7,1.9-1.3c0-0.9-1-1.2-2.1-1.5c-1.4-0.4-3-0.8-3-2.5
							c0-1.4,1.3-2.5,3.1-2.5c1.3,0,2.4,0.4,3.2,1.2l-0.8,1c-0.7-0.7-1.6-1-2.5-1c-1,0-1.6,0.5-1.6,1.2c0,0.8,0.9,1,2,1.3
							c1.4,0.4,3.1,0.8,3.1,2.7c0,1.4-0.9,2.6-3.3,2.6c-1.5,0-2.7-0.6-3.4-1.4L8.2,16.8z"/>
						<path class="st3" d="M18.6,12.6c1.9,0,3.1,1.5,3.1,3.4v0.3h-5c0.1,1.1,0.9,2,2.1,2c0.7,0,1.4-0.3,1.9-0.7l0.5,0.8
							c-0.6,0.6-1.5,0.9-2.5,0.9c-1.9,0-3.3-1.3-3.3-3.3C15.4,14,16.8,12.6,18.6,12.6z M16.7,15.4h3.8c0-0.8-0.6-1.9-1.9-1.9
							C17.3,13.5,16.7,14.5,16.7,15.4z"/>
						<path class="st3" d="M23.6,17.6v-3.9h-1v-1h1V11h1.2v1.7H26v1h-1.3v3.6c0,0.4,0.2,0.8,0.6,0.8c0.3,0,0.5-0.1,0.6-0.2l0.3,0.9
							c-0.2,0.2-0.6,0.4-1.2,0.4C24.1,19.2,23.6,18.6,23.6,17.6z"/>
						<path class="st3" d="M38.6,12.1L35.8,19h-0.5l-2.8-6.9V19h-1.3v-8.7H33l2.5,6.2l2.5-6.2h1.9V19h-1.3V12.1z"/>
						<path class="st3" d="M45.9,18.3c-0.5,0.5-1.2,0.8-2.1,0.8c-1,0-2.2-0.7-2.2-2.1c0-1.4,1.1-2.1,2.2-2.1c0.8,0,1.6,0.3,2.1,0.8
							v-1c0-0.8-0.6-1.2-1.5-1.2c-0.7,0-1.3,0.3-1.9,0.8L42,13.6c0.7-0.7,1.6-1,2.6-1c1.4,0,2.5,0.6,2.5,2.2V19h-1.2V18.3z
							 M45.9,16.6c-0.4-0.5-1-0.7-1.6-0.7c-0.8,0-1.4,0.5-1.4,1.2s0.6,1.2,1.4,1.2c0.7,0,1.3-0.2,1.6-0.7V16.6z"/>
						<path class="st3" d="M51.5,16.6L49.7,19h-1.3l2.4-3.2l-2.2-3.1h1.3l1.6,2.3l1.6-2.3h1.3l-2.2,3.1l2.4,3.2h-1.3L51.5,16.6z"/>
						<path class="st3" d="M55.7,10.9c0-0.4,0.4-0.8,0.8-0.8c0.4,0,0.8,0.3,0.8,0.8s-0.3,0.7-0.8,0.7C56,11.7,55.7,11.3,55.7,10.9z
							 M55.8,12.7H57V19h-1.2V12.7z"/>
						<path class="st3" d="M66.7,14.8c0-0.7-0.3-1.2-1.1-1.2c-0.6,0-1.3,0.4-1.6,0.9V19h-1.2v-4.2c0-0.7-0.3-1.2-1.1-1.2
							c-0.6,0-1.2,0.5-1.5,0.9V19h-1.2v-6.3h1.2v0.9c0.3-0.4,1.1-1,2-1c0.9,0,1.5,0.5,1.7,1.2c0.4-0.6,1.2-1.2,2.1-1.2
							c1.2,0,1.8,0.6,1.8,1.9V19h-1.2V14.8z"/>
						<path class="st3" d="M74.2,18.1c-0.5,0.5-1.3,1-2.2,1c-1.3,0-2-0.7-2-2v-4.4h1.2v4c0,1,0.5,1.4,1.3,1.4c0.7,0,1.4-0.4,1.7-0.9
							v-4.5h1.2V19h-1.2V18.1z"/>
						<path class="st3" d="M85.1,14.8c0-0.7-0.3-1.2-1.1-1.2c-0.6,0-1.3,0.4-1.6,0.9V19h-1.2v-4.2c0-0.7-0.3-1.2-1.1-1.2
							c-0.6,0-1.2,0.5-1.5,0.9V19h-1.2v-6.3h1.2v0.9c0.3-0.4,1.1-1,2-1c0.9,0,1.5,0.5,1.7,1.2c0.4-0.6,1.2-1.2,2.1-1.2
							c1.2,0,1.8,0.6,1.8,1.9V19h-1.2V14.8z"/>
						<path class="st3" d="M91.6,14.7c0-2.7,2-4.5,4.4-4.5c1.7,0,2.8,0.8,3.4,1.8l-1.1,0.6c-0.5-0.7-1.3-1.3-2.3-1.3
							c-1.8,0-3.1,1.4-3.1,3.3c0,1.9,1.4,3.3,3.1,3.3c1,0,1.9-0.5,2.3-1.3l1.1,0.6c-0.7,1-1.7,1.8-3.4,1.8
							C93.6,19.2,91.6,17.3,91.6,14.7z"/>
						<path class="st3" d="M100.7,15.9c0-1.8,1.2-3.3,3.2-3.3c2,0,3.2,1.5,3.2,3.3c0,1.8-1.2,3.3-3.2,3.3
							C101.9,19.2,100.7,17.7,100.7,15.9z M105.8,15.9c0-1.2-0.7-2.2-2-2.2c-1.2,0-2,1.1-2,2.2c0,1.2,0.7,2.3,2,2.3
							C105.1,18.1,105.8,17,105.8,15.9z"/>
						<path class="st3" d="M108.7,17.3c0.4,0.5,1.3,0.9,2.1,0.9c0.9,0,1.4-0.4,1.4-0.9c0-0.6-0.7-0.8-1.5-1
							c-1.1-0.2-2.3-0.5-2.3-1.9c0-1,0.9-1.9,2.4-1.9c1.1,0,1.9,0.4,2.4,0.9l-0.5,0.8c-0.4-0.4-1.1-0.8-1.9-0.8s-1.3,0.3-1.3,0.8
							c0,0.5,0.7,0.7,1.5,0.9c1.1,0.2,2.4,0.5,2.4,2c0,1.1-0.9,1.9-2.5,1.9c-1.1,0-2-0.3-2.6-1L108.7,17.3z"/>
						<path class="st3" d="M115.3,17.6v-3.9h-1v-1h1V11h1.2v1.7h1.3v1h-1.3v3.6c0,0.4,0.2,0.8,0.6,0.8c0.3,0,0.5-0.1,0.6-0.2
							l0.3,0.9c-0.2,0.2-0.6,0.4-1.2,0.4C115.8,19.2,115.3,18.6,115.3,17.6z"/>
						<path class="st3" d="M122.4,15.9c0-1.8,1.2-3.3,3.2-3.3c2,0,3.2,1.5,3.2,3.3c0,1.8-1.2,3.3-3.2,3.3
							C123.7,19.2,122.4,17.7,122.4,15.9z M127.6,15.9c0-1.2-0.7-2.2-1.9-2.2c-1.2,0-2,1.1-2,2.2c0,1.2,0.7,2.3,2,2.3
							C126.9,18.1,127.6,17,127.6,15.9z"/>
						<path class="st3" d="M130.8,13.7h-1v-1h1v-0.4c0-1.4,0.8-2.1,1.9-2.1c0.4,0,0.8,0.1,1,0.2l-0.3,0.9c-0.2-0.1-0.4-0.1-0.6-0.1
							c-0.6,0-0.9,0.4-0.9,1.1v0.4h1.3v1H132V19h-1.2V13.7z"/>
						<path class="st3" d="M138.4,16.8c0.6,0.6,1.5,1.2,2.7,1.2c1.4,0,1.9-0.7,1.9-1.3c0-0.9-1-1.2-2.1-1.5c-1.4-0.4-3-0.8-3-2.5
							c0-1.4,1.3-2.5,3.1-2.5c1.3,0,2.4,0.4,3.2,1.2l-0.8,1c-0.7-0.7-1.6-1-2.5-1c-1,0-1.6,0.5-1.6,1.2c0,0.8,0.9,1,2,1.3
							c1.4,0.4,3.1,0.8,3.1,2.7c0,1.4-0.9,2.6-3.3,2.6c-1.5,0-2.7-0.6-3.4-1.4L138.4,16.8z"/>
						<path class="st3" d="M149.9,18.3c-0.5,0.5-1.2,0.8-2.1,0.8c-1,0-2.2-0.7-2.2-2.1c0-1.4,1.1-2.1,2.2-2.1c0.8,0,1.6,0.3,2.1,0.8
							v-1c0-0.8-0.6-1.2-1.5-1.2c-0.7,0-1.3,0.3-1.9,0.8l-0.5-0.8c0.7-0.7,1.6-1,2.6-1c1.4,0,2.5,0.6,2.5,2.2V19h-1.2V18.3z
							 M149.9,16.6c-0.4-0.5-1-0.7-1.6-0.7c-0.8,0-1.4,0.5-1.4,1.2s0.6,1.2,1.4,1.2c0.7,0,1.3-0.2,1.6-0.7V16.6z"/>
						<path class="st3" d="M153.2,10.3h1.2V19h-1.2V10.3z"/>
						<path class="st3" d="M159.2,12.6c1.9,0,3.1,1.5,3.1,3.4v0.3h-5c0.1,1.1,0.9,2,2.1,2c0.7,0,1.4-0.3,1.9-0.7l0.5,0.8
							c-0.6,0.6-1.5,0.9-2.5,0.9c-1.9,0-3.2-1.3-3.2-3.3C156.1,14,157.4,12.6,159.2,12.6z M157.3,15.4h3.8c0-0.8-0.6-1.9-1.9-1.9
							C158,13.5,157.4,14.5,157.3,15.4z"/>
					</g>
				</g>
			</g>
		</g>
	</g>
</g>
</svg>
