<?xml version="1.0" encoding="utf-8"?>
<!-- Generator: Adobe Illustrator 24.1.3, SVG Export Plug-In . SVG Version: 6.00 Build 0)  -->
<svg version="1.1" id="Layer_1" xmlns="http://www.w3.org/2000/svg" xmlns:xlink="http://www.w3.org/1999/xlink" x="0px" y="0px"
	 viewBox="0 0 847 1058.8" style="enable-background:new 0 0 847 1058.8;" xml:space="preserve">
<style type="text/css">
	.st0{fill-rule:evenodd;clip-rule:evenodd;fill:#6F727A;}
</style>
<g>
	<path class="st0" d="M423,11c228,0,413,185,413,412c0,228-185,413-413,413C196,836,11,651,11,423C11,196,196,11,423,11z M423,343
		l115-114c52-53,132,27,80,80L503,423l115,115c52,52-28,132-80,80L423,503L309,618c-53,52-132-28-80-80l114-115L229,309
		c-53-53,27-133,80-80L423,343z"/>
</g>
</svg>
