<?xml version="1.0" encoding="utf-8"?>
<!-- Generator: Adobe Illustrator 24.3.0, SVG Export Plug-In . SVG Version: 6.00 Build 0)  -->
<svg version="1.1" id="ae8e3b67-68ad-47ca-99a9-8e5b053c0a6f"
	 xmlns="http://www.w3.org/2000/svg" xmlns:xlink="http://www.w3.org/1999/xlink" x="0px" y="0px" viewBox="0 0 974.8 674.1"
	 style="enable-background:new 0 0 974.8 674.1;" xml:space="preserve">
<style type="text/css">
	.st0{fill:#2F2E41;}
	.st1{fill:#FFB9B9;}
	.st2{fill:#E6E6E6;}
	.st3{fill:#FFFFFF;}
	.st4{fill:#496FEE;}
	.st5{fill:#3F3D56;}
</style>
<path class="st0" d="M88.1,294.4c-18,14.8,11.5,144.4,11.5,144.4s6.6,197.7,20.5,206.7s45.1-0.8,57.4-2.5s1.6-123.9-16.4-169
	S157,363.3,157,363.3l97.6,18.9c0,0-59.1,50-56.6,60.7s65.6,46.8,77.1,48.4s33.6-65.6,53.3-111.6s-134.5-75.5-134.5-75.5l-21.3-40.2
	C172.6,264.1,106.1,279.6,88.1,294.4z"/>
<path class="st0" d="M137.1,648.9c0,0-6,20.8,0,20.8s16.9,6,33.7,4s11.9-22.8,0-25.8s-8.9-26.8-8.9-26.8c-4-7.9-22.8,2-22.8,2
	L137.1,648.9z"/>
<path class="st0" d="M221.6,483.2c0,0-10.2,19.1-4.4,20.4s15.2,9.4,32.1,11s16.4-19.8,5.4-25.2s-3.1-28.1-3.1-28.1
	c-2.2-8.6-22.7-2.9-22.7-2.9L221.6,483.2z"/>
<path class="st1" d="M99.2,116.8c1.6,3.3-5.7,44.3-5.7,44.3l6.6,11.5c0,0,37.7-14.8,32-17.2c-5.7-2.5-4.9-32.8-4.9-32.8
	S97.5,113.5,99.2,116.8z"/>
<circle class="st0" cx="113.4" cy="79.2" r="50.3"/>
<circle class="st0" cx="109.9" cy="32.1" r="20.8"/>
<path class="st0" d="M119,41.5c0.7,0.1,1.4,0.1,2.2,0.1c11.5,0,20.8-9.3,20.8-20.8C142,9.3,132.7,0,121.2,0c-0.7,0-1.4,0-2.2,0.1
	c11.4,1.2,19.7,11.4,18.5,22.9C136.5,32.8,128.8,40.5,119,41.5z"/>
<circle class="st1" cx="114.8" cy="103.7" r="34.5"/>
<path class="st2" d="M65.1,156.6c-10.7,2.5-28.7,28.7-28.7,28.7L65.1,214c0,0,20.5,77.1,23,80.4c16.1,21.5,88.6-26.2,88.6-26.2
	s-2.9-23.4-1.2-34.9c1.6-11-6.2-33.2-6.2-33.2s27.1-11.5,21.3-23s-41-37.7-55.8-28.7c-14.8,9-44.3,0-44.3,0S75.8,154.1,65.1,156.6z"
	/>
<path class="st1" d="M274.7,321.9c0,0,46.8,40.2,58.2,32S288.7,317,288.7,317L274.7,321.9z"/>
<path class="st1" d="M64.7,307.9c6.6,7.4,37.7-11.5,33.7-19.9s-28.8,8.4-28.8,8.4S58.2,300.6,64.7,307.9z"/>
<path class="st2" d="M65.1,196.8l-34.5,64c0,0,39.4,32.8,44.3,33.6s-9.8,22.1-9.8,22.1s-44.3-31.2-61.5-46.8s32.8-84.5,32.8-84.5
	l14.8-9L65.1,196.8z"/>
<path class="st2" d="M165.2,194.3l40.2,62.3c0,0,61.5,68.9,69.7,72.2c8.2,3.3,18-12.3,18-12.3l-73.8-89.4l-27.9-50l-10.7-4.1
	L165.2,194.3z"/>
<ellipse class="st0" cx="113.4" cy="62.8" rx="34.7" ry="20.8"/>
<path class="st2" d="M210.7,511.8c-2.4,0-4.3,1.9-4.3,4.3v146.2c0,2.4,1.9,4.3,4.3,4.3h498.7c2.4,0,4.3-1.9,4.3-4.3V516.1
	c0-2.4-1.9-4.3-4.3-4.3L210.7,511.8z"/>
<path class="st3" d="M217.1,655.9h485.8V522.5H217.1V655.9z"/>
<path class="st4" d="M641.6,628.2c-3.9,0-7.1,3.2-7.1,7.1c0,3.9,3.2,7.1,7.1,7.1c0,0,0,0,0,0H670c3.9,0,7.1-3.2,7.1-7.1
	s-3.2-7.1-7.1-7.1c0,0,0,0,0,0H641.6z"/>
<rect x="349.1" y="614.4" class="st2" width="328" height="1.9"/>
<circle class="st4" cx="280.6" cy="589.2" r="41.4"/>
<polygon class="st5" points="349.6,604 348.6,602.4 382.7,579.7 406.1,590.9 439.7,569.5 506.5,598 559.8,571.8 611.5,592.8 
	676.5,535.2 677.7,536.6 611.9,595 559.9,573.9 506.6,600 439.8,571.6 406.2,593.1 382.8,581.9 "/>
<path class="st2" d="M355.2,629.2c-3.4,0-6.1,2.7-6.1,6.1c0,3.4,2.7,6.1,6.1,6.1c0,0,0,0,0,0h63.5c3.4,0,6.1-2.7,6.1-6.1
	c0-3.3-2.7-6.1-6.1-6.1H355.2z"/>
<path class="st2" d="M275.6,43.4c-2.4,0-4.3,1.9-4.3,4.3v146.2c0,2.4,1.9,4.3,4.3,4.3h498.7c2.4,0,4.3-1.9,4.3-4.3V47.6
	c0-2.4-1.9-4.3-4.3-4.3L275.6,43.4z"/>
<path class="st3" d="M282.1,187.4h485.8V54.1H282.1V187.4z"/>
<path class="st4" d="M706.5,159.8c-3.9,0-7.1,3.2-7.1,7.1c0,3.9,3.2,7.1,7.1,7.1c0,0,0,0,0,0h28.4c3.9,0,7.1-3.2,7.1-7.1
	c0-3.9-3.2-7.1-7.1-7.1H706.5z"/>
<rect x="414.1" y="146" class="st2" width="328" height="1.9"/>
<circle class="st4" cx="345.5" cy="120.8" r="41.4"/>
<polygon class="st5" points="414.6,135.6 413.5,134 447.6,111.3 471,122.5 504.6,101 505.1,101.2 571.5,129.5 624.7,103.4 
	676.4,124.4 741.4,66.8 742.6,68.2 676.8,126.5 624.8,105.4 571.5,131.6 504.8,103.1 471.1,124.6 447.8,113.4 "/>
<path class="st2" d="M420.1,160.7c-3.4,0-6.1,2.7-6.1,6.1c0,3.4,2.7,6.1,6.1,6.1h63.5c3.4,0,6.1-2.7,6.1-6.1c0-3.4-2.7-6.1-6.1-6.1
	H420.1z"/>
<path class="st2" d="M471.8,277.6c-2.4,0-4.3,1.9-4.3,4.3v146.2c0,2.4,1.9,4.3,4.3,4.3h498.7c2.4,0,4.3-1.9,4.3-4.3V281.9
	c0-2.4-1.9-4.3-4.3-4.3L471.8,277.6z"/>
<path class="st3" d="M478.3,421.6H964V288.3H478.3V421.6z"/>
<path class="st4" d="M902.7,394c-3.9,0-7.1,3.2-7.1,7.1c0,3.9,3.2,7.1,7.1,7.1c0,0,0,0,0,0h28.4c3.9,0,7.1-3.2,7.1-7.1
	c0-3.9-3.2-7.1-7.1-7.1c0,0,0,0,0,0H902.7L902.7,394z"/>
<rect x="610.2" y="380.2" class="st2" width="328" height="1.9"/>
<ellipse transform="matrix(0.1602 -0.9871 0.9871 0.1602 104.5214 832.8142)" class="st4" cx="541.7" cy="355" rx="41.4" ry="41.4"/>
<polygon class="st5" points="610.8,369.8 609.7,368.2 643.8,345.5 667.2,356.7 700.8,335.2 701.2,335.4 767.7,363.8 820.9,337.6 
	872.6,358.6 937.6,301 938.8,302.4 873,360.7 821,339.7 767.7,365.8 701,337.3 667.3,358.9 644,347.6 "/>
<path class="st2" d="M616.3,395c-3.4,0-6.1,2.7-6.1,6.1c0,3.3,2.7,6.1,6.1,6.1h63.5c3.4,0,6.1-2.7,6.1-6.1s-2.7-6.1-6.1-6.1H616.3z"
	/>
<path class="st3" d="M327.8,145.7C327.8,145.7,327.8,145.7,327.8,145.7l-8-0.3c-0.5,0-0.9-0.4-1-0.9c-0.6-4.9-2.8-30,6.7-40.4
	c2.7-3,6.7-4.7,10.8-4.5c0.2,0,0.3-0.1,0.4-0.2l1.9-3c0.2-0.3,0.6-0.5,1-0.5c1.6,0.2,9.5,1.1,12.8,0.1c0.4-0.1,0.8,0,1.1,0.3
	l2.5,3.1c0.1,0.1,0.2,0.2,0.4,0.2c1.3,0,5.8,0.2,9.8,4.7c4.3,4.8,8.7,15.7,5.5,40.1c-0.1,0.5-0.5,0.9-1,0.9h-6.3c-0.5,0-1-0.4-1-0.9
	l-2.1-14.2c0-0.3-0.3-0.4-0.5-0.4c-0.2,0-0.4,0.2-0.4,0.5l-0.1,6.7c0,0.4-0.3,0.8-0.6,0.9c-2.2,1-14.1,5.6-27.3-0.2
	c-0.4-0.2-0.6-0.5-0.6-0.9l-0.3-6.1c0-0.3-0.2-0.5-0.5-0.5c-0.2,0-0.4,0.2-0.4,0.4l-1.6,14.2C328.8,145.3,328.4,145.7,327.8,145.7z"
	/>
<path class="st3" d="M556.9,378L556.9,378l-31-0.2c-0.5,0-0.9-0.4-0.9-0.8l-3.1-26.5c0-0.4-0.3-0.6-0.7-0.6
	c-2.5-0.1-8.3-0.6-9.5-4.1c-1.1-3.1,1.9-7.6,8.8-13.5c0.4-0.3,1-0.3,1.3,0.1c0.1,0.1,0.1,0.2,0.2,0.3l3.6,12.4
	c0.1,0.3,0.4,0.5,0.7,0.5l29.3,0.2c0.3,0,0.6-0.2,0.7-0.5l4-12.7c0.2-0.5,0.7-0.8,1.2-0.6c0.1,0,0.2,0.1,0.3,0.1
	c2.7,2.1,11.5,9.2,10,13.8c-0.8,2.4-4.2,3.7-10.1,4c-0.4,0-0.6,0.3-0.7,0.6l-3.1,26.7C557.7,377.6,557.4,378,556.9,378z"/>
<path class="st3" d="M271.1,561.6L271.1,561.6c0,0-3.3,0.8-8.4,14.7c-5.1,13.9-7,31.9-7,31.9s-2.9,4.9,9.4,5.2c0,0-1,3.2,6,2.7
	c7-0.5,6-0.5,6-0.5s4.5-2.8,6.5-2.3c2,0.5,3.2,0.7,5.4,2.5c2.2,1.8,9,1.1,9.1-0.3c0.1-0.7,0.1-1.4,0-2.1c0,0,10.5,0.7,8.5-7
	c-2-7.6-3.6-20.1-3.6-20.1s-5.4-24.4-11.5-24.8C285.2,561.3,271.1,561.6,271.1,561.6z"/>
</svg>
