<?xml version="1.0" encoding="UTF-8"?>
<svg width="328px" height="61px" viewBox="0 0 328 61" version="1.1" xmlns="http://www.w3.org/2000/svg" xmlns:xlink="http://www.w3.org/1999/xlink">
    <title>Welcome</title>
    <defs>
        <polygon id="path-1" points="0.280945276 0.242169231 22.4787733 0.242169231 22.4787733 39.4581508 0.280945276 39.4581508"></polygon>
        <polygon id="path-3" points="0.04752 0.1415568 13.0730615 0.1415568 13.0730615 13.2 0.04752 13.2"></polygon>
    </defs>
    <g id="Welcome" stroke="none" stroke-width="1" fill="none" fill-rule="evenodd">
        <g id="Desktop-HD" transform="translate(-40.000000, -15.000000)">
            <g id="Header" transform="translate(1.000000, 0.000000)">
                <rect id="Background" fill="#37F4A8" x="0" y="0" width="1440" height="90"></rect>
                <g id="Logo" transform="translate(39.000000, 15.000000)">
                    <path d="M39.1711346,9.6984799 C39.0042831,9.63348317 38.8278828,9.6 38.6494723,9.6 C38.0303123,9.6 37.4779934,9.99785881 37.2764649,10.5902154 C37.0206594,11.3440791 37.4262293,12.1777115 38.2011844,12.4879232 C42.3724732,14.1714371 45.7858941,17.2878336 47.8102255,21.2614977 C49.8400852,25.234177 50.3341066,29.7785321 49.2018278,34.0599459 C48.9922582,34.8546787 49.427982,35.6705847 50.1959012,35.9241705 C50.3511938,35.9739028 50.5100043,36 50.6713276,36 C51.3231543,36 51.8950732,35.5770288 52.060417,34.973347 C53.4359372,29.94841 52.880603,24.611784 50.4959325,19.946791 C48.1162876,15.2763816 44.093758,11.6370568 39.1711346,9.6984799" id="Fill-1" fill="#FFFFFF"></path>
                    <g id="Group-5" transform="translate(39.600000, 0.000000)">
                        <mask id="mask-2" fill="white">
                            <use xlink:href="#path-1"></use>
                        </mask>
                        <g id="Clip-4"></g>
                        <path d="M19.148808,15.6717508 C15.623928,8.58842769 9.629048,3.14342769 2.26971467,0.335889231 C2.10454133,0.273443077 1.931768,0.241966154 1.75747467,0.241966154 C1.124648,0.241966154 0.561741333,0.654212308 0.358061333,1.26852 C0.0991546667,2.05442769 0.512088,2.90633538 1.29843467,3.21145846 C7.89675467,5.75652 13.274008,10.6643815 16.440168,17.0283046 C19.6195013,23.3800431 20.3065413,30.6364892 18.375128,37.4578431 C18.1445947,38.2737046 18.5783013,39.1154585 19.3636347,39.3784431 C19.519688,39.4307354 19.680808,39.4581508 19.841928,39.4581508 C20.5051547,39.4581508 21.0721147,39.0357508 21.252488,38.4041815 C23.435208,30.8141815 22.6863547,22.7418738 19.148808,15.6717508" id="Fill-3" fill="#FFFFFF" mask="url(#mask-2)"></path>
                    </g>
                    <path d="M41.2925156,35.8887384 C40.8762449,38.9516513 39.4685661,41.2179987 37.3309053,42.269683 C36.4687021,42.6932299 35.5139942,42.9102048 34.4919189,42.9102048 C30.1271092,42.9102048 25.3053066,39.1874505 22.493971,33.6466645 C18.9285218,26.6177675 19.7816757,19.0503963 24.3963483,16.7746367 C25.2590543,16.3510898 26.2142649,16.1356011 27.234832,16.1356011 C31.6006472,16.1356011 36.4224498,19.8583554 39.2337854,25.3991413 C41.0064552,28.8950132 41.7384481,32.6202444 41.2925156,35.8887384 M27.234832,13.2 C25.74772,13.2 24.3430576,13.5200132 23.0625727,14.1501321 C20.2331383,15.5456077 18.4071779,18.3132761 17.6947919,21.7269155 C11.9333637,27.3880779 4.47970459,32.3864267 4.40177951,32.4379458 C0.309456206,35.1699472 -1.14095568,40.1415456 0.951458278,44.2610964 C2.53710787,47.3879128 5.74460452,49.2 9.2416808,49.2 C10.3532443,49.2 11.4949723,49.0167107 12.6226236,48.6347754 C12.7106035,48.6045575 21.2054422,45.7388045 29.2488182,44.589531 C30.9762411,45.4004624 32.7554466,45.8477873 34.4914161,45.8477873 C35.9805392,45.8477873 37.3836933,45.526288 38.6636755,44.8981506 C41.7107973,43.3961691 43.6946189,40.3362285 44.2466301,36.2805812 C44.7719959,32.4329921 43.9374435,28.1034016 41.8998285,24.0878798 C38.594297,17.5766513 32.7016531,13.2 27.234832,13.2" id="Fill-6" fill="#FFFFFF"></path>
                    <path d="M30.6624895,25.2 C30.3940475,25.2 30.1427282,25.2511777 29.9168171,25.3535331 C28.625423,25.9400697 28.4238153,27.9645993 29.469966,29.8641951 C30.2918627,31.3573798 31.7307342,32.4 32.9674457,32.4 C33.2375448,32.4 33.4883117,32.3478188 33.7120134,32.2454634 C34.9597718,31.6789965 35.1691125,29.5696725 34.1588645,27.7322927 C33.3369678,26.241115 31.8997533,25.2 30.6624895,25.2" id="Fill-8" fill="#FFFFFF"></path>
                    <path d="M28.363467,30.6722511 C27.4172219,28.6918527 27.365895,26.6195775 28.0900621,25.2 L21.6,27.2149185 C21.8906832,29.1746047 22.5040655,31.2346651 23.4609825,33.2347133 C24.4082439,35.2151116 25.6167137,36.970863 26.9537549,38.4 L32.4,34.178443 C30.84952,33.9219312 29.2782044,32.5798914 28.363467,30.6722511" id="Fill-10" fill="#FFFFFF"></path>
                    <g id="Group-14" transform="translate(13.200000, 46.800000)">
                        <mask id="mask-4" fill="white">
                            <use xlink:href="#path-3"></use>
                        </mask>
                        <g id="Clip-13"></g>
                        <path d="M9.80841231,0.1415568 C5.26964308,1.2255408 1.39950462,2.5038288 0.04752,2.9647728 L3.69173538,10.5452688 C4.24258154,11.6889168 5.19095077,12.5442768 6.36422769,12.9487248 C6.84653538,13.1176848 7.34204308,13.2000528 7.83450462,13.2000528 C8.54121231,13.2000528 9.24132,13.0305648 9.88862769,12.6931728 L10.5207046,12.3647568 C12.7982123,11.1783408 13.7247508,8.2880688 12.5859969,5.9194608 L9.80841231,0.1415568 Z" id="Fill-12" fill="#FFFFFF" mask="url(#mask-4)"></path>
                    </g>
                </g>
                <path d="M122.6,66 L128.12,40.56 L130.64,66 L134.54,66 L148.28,40.56 L142.7,66 L152.24,66 L161.06,25.98 L148.04,25.98 L136.34,47.7 L134.36,25.98 L121.76,25.98 L112.94,66 L122.6,66 Z M168.38,66.72 C171.08,66.72 173.42,65.52 175.58,62.64 L174.86,66 L183.5,66 L189.92,37.02 L181.28,37.02 L180.5,40.5 C179.12,37.62 176.36,36.3 173.12,36.3 C164.06,36.3 159.56,47.88 159.56,55.92 C159.56,63 162.92,66.72 168.38,66.72 Z M172.64,59.04 C170.18,59.04 168.5,57.3 168.5,54.36 C168.5,50.34 170.9,43.98 174.92,43.98 C176.84,43.98 178.4,45.06 179.18,46.68 L177.02,56.34 C175.94,57.9 174.32,59.04 172.64,59.04 Z M197.96,66 L201.98,47.58 C203.54,45.66 205.7,44.46 207.98,44.46 C209,44.46 209.9,44.64 210.32,44.82 L212.24,36.3 C208.52,36.3 205.52,38.1 203.54,40.62 L204.38,37.02 L195.68,37.02 L189.26,66 L197.96,66 Z M218.06,66 L219.5,59.28 L223.04,55.32 L225.8,66 L235.76,66 L230.12,50.04 L241.7,37.02 L231.38,37.02 L221.9,48.36 L226.88,25.98 L218.18,25.98 L209.36,66 L218.06,66 Z M252.26,66.72 C255.62,66.72 259.34,65.58 261.98,63.48 L259.22,57.9 C257.78,59.1 255.5,59.88 253.4,59.88 C249.02,59.88 247.46,56.94 247.46,55.32 C247.46,55.02 247.52,54.6 247.58,54.3 L265.28,54.3 C265.64,52.98 266.18,50.34 266.18,48 C266.18,40.74 261.8,36.3 254.72,36.3 C245.12,36.3 239.18,45.9 239.18,54.48 C239.18,62.22 244.28,66.72 252.26,66.72 Z M258.32,48.48 L248.6,48.48 C249.02,46.2 250.94,43.14 254.18,43.14 C257.06,43.14 258.5,45.18 258.5,47.16 C258.5,47.64 258.44,48.06 258.32,48.48 Z M278.36,66.72 C280.28,66.72 281.84,66.3 282.74,65.7 L282.74,58.62 C282.44,58.8 281.72,59.04 281.18,59.04 C279.68,59.04 279.02,58.32 279.02,57.12 C279.02,56.76 279.14,56.22 279.2,55.8 L281.72,44.52 L286.4,44.52 L288.08,37.02 L283.4,37.02 L285.14,29.1 L276.44,29.1 L274.7,37.02 L271.04,37.02 L269.3,44.52 L273.02,44.52 L270.02,58.08 C269.84,59.04 269.78,59.82 269.78,60.48 C269.78,64.74 273.08,66.72 278.36,66.72 Z M300.2,66.72 C303.56,66.72 307.28,65.58 309.92,63.48 L307.16,57.9 C305.72,59.1 303.44,59.88 301.34,59.88 C296.96,59.88 295.4,56.94 295.4,55.32 C295.4,55.02 295.46,54.6 295.52,54.3 L313.22,54.3 C313.58,52.98 314.12,50.34 314.12,48 C314.12,40.74 309.74,36.3 302.66,36.3 C293.06,36.3 287.12,45.9 287.12,54.48 C287.12,62.22 292.22,66.72 300.2,66.72 Z M306.26,48.48 L296.54,48.48 C296.96,46.2 298.88,43.14 302.12,43.14 C305,43.14 306.44,45.18 306.44,47.16 C306.44,47.64 306.38,48.06 306.26,48.48 Z M329.24,66.72 C332.6,66.72 336.32,65.58 338.96,63.48 L336.2,57.9 C334.76,59.1 332.48,59.88 330.38,59.88 C326,59.88 324.44,56.94 324.44,55.32 C324.44,55.02 324.5,54.6 324.56,54.3 L342.26,54.3 C342.62,52.98 343.16,50.34 343.16,48 C343.16,40.74 338.78,36.3 331.7,36.3 C322.1,36.3 316.16,45.9 316.16,54.48 C316.16,62.22 321.26,66.72 329.24,66.72 Z M335.3,48.48 L325.58,48.48 C326,46.2 327.92,43.14 331.16,43.14 C334.04,43.14 335.48,45.18 335.48,47.16 C335.48,47.64 335.42,48.06 335.3,48.48 Z M352.52,66 L356.54,47.58 C358.1,45.66 360.26,44.46 362.54,44.46 C363.56,44.46 364.46,44.64 364.88,44.82 L366.8,36.3 C363.08,36.3 360.08,38.1 358.1,40.62 L358.94,37.02 L350.24,37.02 L343.82,66 L352.52,66 Z" id="Marketeer" fill="#FFFFFF" fill-rule="nonzero"></path>
            </g>
        </g>
    </g>
</svg>
