<?xml version="1.0" encoding="UTF-8"?>
<svg width="576px" height="529px" viewBox="0 0 576 529" version="1.1" xmlns="http://www.w3.org/2000/svg" xmlns:xlink="http://www.w3.org/1999/xlink">
    <title>Pattern</title>
    <defs>
        <polygon id="path-1" points="0.000514851485 0.309108911 257.557545 0.309108911 257.557545 257.865366 0.000514851485 257.865366"></polygon>
        <polygon id="path-3" points="0.000514851485 0.309108911 257.557545 0.309108911 257.557545 257.865366 0.000514851485 257.865366"></polygon>
        <polygon id="path-5" points="0.784922628 0.108154955 349.205828 0.108154955 349.205828 284 0.784922628 284"></polygon>
        <polygon id="path-7" points="0.784922628 0.108154955 349.205828 0.108154955 349.205828 284 0.784922628 284"></polygon>
        <polygon id="path-9" points="0.000621984555 0.620583333 165.032127 0.620583333 165.032127 119.254112 0.000621984555 119.254112"></polygon>
        <polygon id="path-11" points="0.764449259 0.231699259 4.53295074 0.231699259 4.53295074 4 0.764449259 4"></polygon>
    </defs>
    <g id="Welcome" stroke="none" stroke-width="1" fill="none" fill-rule="evenodd">
        <g id="Desktop" transform="translate(-448.000000, 0.000000)">
            <g id="Pattern" transform="translate(448.000000, 0.000000)">
                <g id="Group-3">
                    <mask id="mask-2" fill="white">
                        <use xlink:href="#path-1"></use>
                    </mask>
                    <g id="Clip-2"></g>
                    <path d="M257.557545,129.088139 C257.557545,200.209723 199.901901,257.865366 128.780317,257.865366 C57.6561584,257.865366 0.000514851485,200.209723 0.000514851485,129.088139 C0.000514851485,57.9639802 57.6561584,0.308336634 128.780317,0.308336634 C199.901901,0.308336634 257.557545,57.9639802 257.557545,129.088139" id="Fill-1" fill="#37F4A8" mask="url(#mask-2)"></path>
                </g>
                <g id="Group-3" transform="translate(318.000000, 271.000000)">
                    <mask id="mask-4" fill="white">
                        <use xlink:href="#path-3"></use>
                    </mask>
                    <g id="Clip-2"></g>
                    <path d="M257.557545,129.088139 C257.557545,200.209723 199.901901,257.865366 128.780317,257.865366 C57.6561584,257.865366 0.000514851485,200.209723 0.000514851485,129.088139 C0.000514851485,57.9639802 57.6561584,0.308336634 128.780317,0.308336634 C199.901901,0.308336634 257.557545,57.9639802 257.557545,129.088139" id="Fill-1" fill="#37F4A8" mask="url(#mask-4)"></path>
                </g>
                <g id="Group-6" transform="translate(155.000000, 136.000000)">
                    <mask id="mask-6" fill="white">
                        <use xlink:href="#path-5"></use>
                    </mask>
                    <g id="Clip-5"></g>
                    <polygon id="Fill-4" fill="#F7C6BF" mask="url(#mask-6)" points="0.784922628 0.108154955 349.205828 284.000515 0.784922628 284.000515"></polygon>
                </g>
                <g id="Group-6" transform="translate(177.000000, 116.000000)">
                    <mask id="mask-8" fill="white">
                        <use xlink:href="#path-7"></use>
                    </mask>
                    <g id="Clip-5"></g>
                    <polygon id="Fill-4" fill="#FC998D" mask="url(#mask-8)" points="0.784922628 0.108154955 349.205828 284.000515 0.784922628 284.000515"></polygon>
                </g>
                <g id="Group-89" transform="translate(258.000000, 188.000000)">
                    <g id="Group-3">
                        <mask id="mask-10" fill="white">
                            <use xlink:href="#path-9"></use>
                        </mask>
                        <g id="Clip-2"></g>
                        <path d="M3.39702857,115.004775 C2.99588571,114.721192 2.61188571,114.396608 2.25531429,114.034442 C-0.874971429,110.846692 -0.700114286,105.643108 2.49531429,102.520275 C10.0381714,95.1471083 22.5044571,97.948775 34.5627429,100.651358 C39.8118857,101.830108 49.5730286,104.016775 51.9833143,102.817525 C52.7958857,100.870025 50.7936,91.0983583 49.7136,85.8503583 C47.2381714,73.7861083 44.6804571,61.3016083 52.2198857,53.9318583 C59.7661714,46.5586917 72.2358857,49.3569417 84.2976,52.059525 C89.5398857,53.2348583 99.3044571,55.4283583 101.714743,54.222275 C102.527314,52.2781917 100.5216,42.506525 99.4450286,37.2551083 C96.9696,25.1908583 94.4084571,12.7131917 101.954743,5.33660833 C109.494171,-2.029725 121.963886,0.765108333 134.022171,3.47110833 C139.267886,4.64644167 149.035886,6.836525 151.446171,5.63044167 C154.6416,2.500775 159.6576,2.63060833 162.774171,5.83885833 C165.904457,9.019775 165.736457,14.2301917 162.541029,17.3496083 C154.994743,24.722775 142.525029,21.924525 130.466743,19.2219417 C125.2176,18.0466083 115.463314,15.8531083 113.046171,17.0626083 C112.237029,18.9998583 114.242743,28.771525 115.322743,34.0229417 C117.794743,46.0906083 120.355886,58.568275 112.8096,65.9448583 C105.266743,73.3146083 92.7970286,70.5163583 80.7387429,67.8103583 C75.4930286,66.6384417 65.7284571,64.4449417 63.3181714,65.651025 C62.5056,67.5951083 64.5113143,77.3633583 65.5878857,82.614775 C68.0633143,94.6824417 70.6244571,107.163525 63.0781714,114.533275 C55.5353143,121.906442 43.0690286,119.104775 31.0073143,116.402192 C25.7616,115.223442 16.0004571,113.036775 13.5901714,114.239442 C10.7547429,117.006942 6.50674286,117.208525 3.39702857,115.004775" id="Fill-1" fill="#0C153E" mask="url(#mask-10)"></path>
                    </g>
                    <path d="M175.160032,41.3685936 C176.058079,42.0123581 176.270275,43.2582316 175.629896,44.1595018 C174.989517,45.060772 173.742862,45.2690487 172.841026,44.6290711 C171.93919,43.9890935 171.730782,42.74322 172.371162,41.8419498 C173.011541,40.9444665 174.258196,40.728616 175.160032,41.3685936" id="Fill-4" fill="#000000"></path>
                    <path d="M170.159052,33.3677887 C171.058148,34.0086106 171.26924,35.2550873 170.632055,36.1577084 C169.99096,37.056422 168.743953,37.2713318 167.840948,36.6305099 C166.941852,35.989688 166.73076,34.7432113 167.367945,33.8405902 C168.00904,32.9418766 169.259956,32.7308743 170.159052,33.3677887" id="Fill-6" fill="#000000"></path>
                    <path d="M164.159081,43.369113 C165.058112,44.0080938 165.269868,45.2600503 164.630887,46.1590814 C163.988191,47.0581125 162.73995,47.2698678 161.840919,46.630887 C160.941888,45.9881912 160.730132,44.7399497 161.369113,43.8409186 C162.008094,42.9418875 163.256335,42.7301322 164.159081,43.369113" id="Fill-8" fill="#000000"></path>
                    <path d="M158.157313,36.3690699 C159.059114,37.0113054 159.269535,38.2582186 158.630759,39.1596017 C157.991982,40.057229 156.740732,40.2713074 155.842687,39.629072 C154.940886,38.9905923 154.730465,37.7399233 155.369241,36.842296 C156.008018,35.940913 157.259268,35.7305903 158.157313,36.3690699" id="Fill-10" fill="#000000"></path>
                    <path d="M151.157805,42.3706009 C152.056472,43.0093586 152.271856,44.2571643 151.62942,45.1558816 C150.990697,46.0583125 149.74296,46.2699938 148.840579,45.6312361 C147.941911,44.9887647 147.730241,43.740959 148.368964,42.8422417 C149.0114,41.9435245 150.259137,41.7281295 151.157805,42.3706009" id="Fill-12" fill="#000000"></path>
                    <path d="M146.329266,32.3334286 C146.971266,32.7894286 147.124266,33.6834286 146.665266,34.3284286 C146.209266,34.9734286 145.315266,35.1234286 144.670266,34.6644286 C144.025266,34.2084286 143.878266,33.3144286 144.334266,32.6694286 C144.790266,32.0274286 145.684266,31.8774286 146.329266,32.3334286" id="Fill-14" fill="#000000"></path>
                    <path d="M140.157581,39.369113 C141.056487,40.0080938 141.271928,41.2600503 140.629321,42.1590814 C139.990429,43.0581125 138.74236,43.2698678 137.843454,42.630887 C136.940833,41.9881912 136.729107,40.7399497 137.371714,39.8409186 C138.010606,38.9418875 139.258675,38.7301322 140.157581,39.369113" id="Fill-16" fill="#000000"></path>
                    <path d="M133.158569,31.3704677 C134.059051,32.0109775 134.270042,33.2580878 133.629532,34.1585692 C132.99279,35.0590506 131.741912,35.2700421 130.841431,34.6295323 C129.940949,33.9890225 129.729958,32.7419122 130.370468,31.8414308 C131.010978,30.9409494 132.261855,30.7299579 133.158569,31.3704677" id="Fill-18" fill="#000000"></path>
                    <path d="M129.159081,41.369113 C130.058112,42.0118088 130.269868,43.2600503 129.630887,44.1590814 C128.991906,45.0581125 127.743665,45.2698678 126.840919,44.630887 C125.941888,43.9919062 125.730132,42.7436647 126.369113,41.8409186 C127.011809,40.9418875 128.26005,40.7301322 129.159081,41.369113" id="Fill-20" fill="#000000"></path>
                    <path d="M128.159081,52.369113 C129.058112,53.0118088 129.269868,54.2600503 128.630887,55.1590814 C127.988191,56.0581125 126.73995,56.2698678 125.840919,55.630887 C124.941888,54.9919062 124.730132,53.7436647 125.369113,52.8409186 C126.008094,51.9418875 127.256335,51.7301322 128.159081,52.369113" id="Fill-22" fill="#000000"></path>
                    <path d="M121.159081,59.3717139 C122.058112,60.0106061 122.269868,61.2586745 121.630887,62.1575809 C120.991906,63.0564874 119.73995,63.2719278 118.840919,62.6293211 C117.941888,61.9904289 117.730132,60.7423605 118.369113,59.8434541 C119.008094,58.9408332 120.26005,58.7291073 121.159081,59.3717139" id="Fill-24" fill="#000000"></path>
                    <path d="M119.156732,46.3703454 C120.058275,47.011076 120.270622,48.2590107 119.629856,49.1567786 C118.98909,50.0582716 117.741086,50.2706068 116.843268,49.6298762 C115.941725,48.9891455 115.729378,47.7412109 116.370144,46.8397178 C117.01091,45.9419499 118.258914,45.7296148 119.156732,46.3703454" id="Fill-26" fill="#000000"></path>
                    <path d="M122.157307,35.3683964 C123.05735,36.0107504 123.270223,37.2581122 122.631604,38.1581547 C121.98925,39.0581971 120.741888,39.2710703 119.841845,38.6287163 C118.941803,37.9900969 118.72893,36.7390005 119.371284,35.8426927 C120.009903,34.9426502 121.257265,34.729777 122.157307,35.3683964" id="Fill-28" fill="#000000"></path>
                    <path d="M81.3686758,76.2768193 C82.046452,76.7555569 82.2010326,77.6951909 81.7224274,78.3672076 C81.2438223,79.0451714 80.3074209,79.2027682 79.6326174,78.7210571 C78.9548411,78.2423195 78.7972879,77.3056591 79.2788657,76.6306688 C79.7574709,75.9556786 80.6938723,75.7980818 81.3686758,76.2768193" id="Fill-30" fill="#000000"></path>
                    <path d="M92.1602822,77.3701238 C93.0580501,78.0108545 93.2703852,79.2587891 92.6296546,80.1602822 C91.9926492,81.0580501 90.7409893,81.2703852 89.8432214,80.6296546 C88.9417284,79.988924 88.7293932,78.7409893 89.3701238,77.8432214 C90.0108545,76.9417284 91.2587891,76.7293932 92.1602822,77.3701238" id="Fill-32" fill="#000000"></path>
                    <path d="M104.158569,79.367476 C105.059051,80.007849 105.270042,81.2584598 104.629532,82.1587489 C103.989022,83.059038 102.741912,83.2699844 101.841431,82.6296114 C100.940949,81.9892384 100.729958,80.7423945 101.370468,79.8421054 C102.010978,78.9418162 103.258088,78.7308698 104.158569,79.367476" id="Fill-34" fill="#000000"></path>
                    <path d="M117.156957,81.3699739 C118.058259,82.0104449 118.27055,83.2578739 117.629954,84.1590017 C116.989359,85.0564059 115.741688,85.2723787 114.840385,84.628184 C113.942807,83.9914366 113.730517,82.740284 114.367388,81.8428798 C115.007983,80.941752 116.259378,80.7295029 117.156957,81.3699739" id="Fill-36" fill="#000000"></path>
                    <path d="M124.159081,72.369113 C125.058112,73.0080938 125.269868,74.2563353 124.630887,75.1590814 C123.988191,76.0581125 122.73995,76.2698678 121.840919,75.630887 C120.941888,74.9881912 120.730132,73.7399497 121.369113,72.8409186 C122.008094,71.9418875 123.256335,71.7301322 124.159081,72.369113" id="Fill-38" fill="#000000"></path>
                    <path d="M130.160085,64.369113 C131.058942,65.0118088 131.270656,66.2600503 130.628085,67.1590814 C129.989228,68.0581125 128.741229,68.2698678 127.842372,67.630887 C126.943516,66.9919062 126.728087,65.7399497 127.370658,64.8409186 C128.009515,63.9418875 129.257514,63.7301322 130.160085,64.369113" id="Fill-40" fill="#000000"></path>
                    <path d="M132.159421,75.3716178 C133.058089,76.0103447 133.269759,77.2580902 132.631036,78.1567641 C131.9886,79.0591515 130.740863,79.2708227 129.842195,78.6283822 C128.943528,77.9896553 128.728144,76.7419098 129.37058,75.8432359 C130.009303,74.9408485 131.260754,74.7291773 132.159421,75.3716178" id="Fill-42" fill="#000000"></path>
                    <path d="M128.159081,84.369113 C129.058112,85.0080938 129.269868,86.2563353 128.630887,87.1590814 C127.988191,88.0581125 126.73995,88.2698678 125.840919,87.630887 C124.941888,86.9881912 124.730132,85.7399497 125.369113,84.8409186 C126.008094,83.9418875 127.256335,83.7301322 128.159081,84.369113" id="Fill-44" fill="#000000"></path>
                    <path d="M120.158569,91.3704677 C121.059051,92.0109775 121.270042,93.2580878 120.629532,94.1585692 C119.989022,95.0590506 118.741912,95.2700421 117.841431,94.6295323 C116.940949,93.9890225 116.729958,92.7419122 117.370468,91.8414308 C118.010978,90.9409494 119.258088,90.7299579 120.158569,91.3704677" id="Fill-46" fill="#000000"></path>
                    <path d="M109.156764,88.3718189 C110.059152,89.0105104 110.270823,90.2581868 109.628382,91.1568109 C108.989655,92.0591483 107.74191,92.2708077 106.843236,91.6284028 C105.940848,90.9897113 105.729177,89.7420349 106.371618,88.8396976 C107.010345,87.9410735 108.25809,87.7294141 109.156764,88.3718189" id="Fill-48" fill="#000000"></path>
                    <path d="M97.1560999,85.3705805 C98.0582974,86.009303 98.269924,87.25704 97.6313315,88.1594213 C96.9890263,89.058089 95.7415432,89.2697587 94.8430584,88.6310362 C93.9408609,87.9886001 93.7292343,86.7408631 94.3715396,85.8421954 C95.0101321,84.9435276 96.2576151,84.7281445 97.1560999,85.3705805" id="Fill-50" fill="#000000"></path>
                    <path d="M84.1565459,86.369113 C85.0591668,87.0118088 85.2708927,88.2600503 84.6282861,89.1590814 C83.9893939,90.0581125 82.7413255,90.2698678 81.8424191,89.630887 C80.9435126,88.9919062 80.7280722,87.7399497 81.3706789,86.8409186 C82.0095711,85.9418875 83.2576395,85.7301322 84.1565459,86.369113" id="Fill-52" fill="#000000"></path>
                    <path d="M74.1593529,83.3686693 C75.0590222,84.0079726 75.2695831,85.2559539 74.6302436,86.1594004 C73.9909041,87.0590188 72.7428523,87.2695678 71.8431829,86.6302645 C70.9435136,85.9909613 70.7291243,84.7391518 71.3684638,83.8395334 C72.0116317,82.9437432 73.2596836,82.729366 74.1593529,83.3686693" id="Fill-54" fill="#000000"></path>
                    <path d="M74.1590814,94.369113 C75.0581125,95.0118088 75.2698678,96.2600503 74.630887,97.1590814 C73.9919062,98.0581125 72.7436647,98.2698678 71.8409186,97.630887 C70.9418875,96.9919062 70.7301322,95.7436647 71.369113,94.8409186 C72.0080938,93.9418875 73.2563353,93.7301322 74.1590814,94.369113" id="Fill-56" fill="#000000"></path>
                    <path d="M82.1590814,98.369113 C83.0581125,99.0080938 83.2698678,100.26005 82.630887,101.159081 C81.9881912,102.058112 80.7399497,102.269868 79.8409186,101.630887 C78.9418875,100.991906 78.7301322,99.7399497 79.369113,98.8409186 C80.0080938,97.9418875 81.2563353,97.7301322 82.1590814,98.369113" id="Fill-58" fill="#000000"></path>
                    <path d="M76.1580865,106.368764 C77.0607885,107.011235 77.2688186,108.259041 76.629869,109.157758 C75.9909194,110.056475 74.7427389,110.271871 73.8400369,109.629399 C72.9410497,108.990641 72.7293048,107.742836 73.3719691,106.844118 C74.0109187,105.941688 75.2590993,105.730006 76.1580865,106.368764" id="Fill-60" fill="#000000"></path>
                    <path d="M84.1590814,110.369113 C85.0581125,111.011809 85.2698678,112.26005 84.630887,113.159081 C83.9919062,114.058112 82.7436647,114.269868 81.8409186,113.630887 C80.9418875,112.991906 80.7301322,111.73995 81.369113,110.840919 C82.0118088,109.941888 83.2600503,109.730132 84.1590814,110.369113" id="Fill-62" fill="#000000"></path>
                    <path d="M78.1568109,118.369113 C79.0591483,119.011809 79.2708077,120.26005 78.6284028,121.159081 C77.9897113,122.058112 76.7420349,122.269868 75.8396976,121.630887 C74.9410735,120.991906 74.7294141,119.743665 75.3718189,118.840919 C76.0105104,117.941888 77.2581868,117.730132 78.1568109,118.369113" id="Fill-64" fill="#000000"></path>
                    <path d="M87.1587356,120.369684 C88.0572705,121.010151 88.2706726,122.257377 87.6304665,123.160023 C86.9902603,124.058924 85.7397993,124.268668 84.8412644,123.631946 C83.9427295,122.991479 83.7293274,121.740508 84.3695335,120.841607 C85.0097397,119.942706 86.2602007,119.729217 87.1587356,120.369684" id="Fill-66" fill="#000000"></path>
                    <path d="M82.1590814,129.371618 C83.0581125,130.010345 83.2698678,131.25809 82.630887,132.156764 C81.9881912,133.059152 80.7399497,133.270823 79.8409186,132.628382 C78.9418875,131.989655 78.7301322,130.74191 79.369113,129.843236 C80.0080938,128.940848 81.2600503,128.729177 82.1590814,129.371618" id="Fill-68" fill="#000000"></path>
                    <path d="M70.1591198,126.370124 C71.0607439,127.010854 71.2693842,128.258789 70.6285604,129.160282 C69.9914624,130.05805 68.7433464,130.270385 67.8417223,129.629655 C66.9400982,128.992649 66.7314579,127.740989 67.3685559,126.843221 C68.0093797,125.941728 69.2574957,125.729393 70.1591198,126.370124" id="Fill-70" fill="#000000"></path>
                    <path d="M58.1581547,124.368396 C59.0581971,125.01075 59.2710703,126.258112 58.6287163,127.158155 C57.9900969,128.058197 56.7427351,128.27107 55.8426927,127.628716 C54.9426502,126.990097 54.729777,125.739001 55.3683964,124.842693 C56.0107504,123.94265 57.2581122,123.729777 58.1581547,124.368396" id="Fill-72" fill="#000000"></path>
                    <path d="M47.1587356,121.369783 C48.0572705,122.010422 48.2706726,123.257981 47.6304665,124.157123 C46.9902603,125.060011 45.7435432,125.269811 44.8412644,124.629173 C43.9427295,123.988534 43.7293274,122.740975 44.3695335,121.841833 C45.0097397,120.942691 46.2602007,120.729145 47.1587356,121.369783" id="Fill-74" fill="#000000"></path>
                    <path d="M34.3565,121.293436 C35.0225,121.767436 35.1785,122.691436 34.7045,123.354436 C34.2305,124.020436 33.3095,124.179436 32.6435,123.705436 C31.9775,123.231436 31.8215,122.310436 32.2955,121.641436 C32.7665,120.978436 33.6905,120.822436 34.3565,121.293436" id="Fill-76" fill="#000000"></path>
                    <path d="M29.1586597,129.371614 C30.057268,130.010404 30.2703001,131.257013 29.6312037,132.159063 C28.9921073,133.057241 27.7410277,133.270171 26.8424194,132.63138 C25.9399378,131.988718 25.730779,130.742109 26.3698754,129.84006 C27.0089718,128.941882 28.2600514,128.728952 29.1586597,129.371614" id="Fill-78" fill="#000000"></path>
                    <path d="M40.1580865,129.369113 C41.0607885,130.008094 41.2688186,131.26005 40.629869,132.159081 C39.9909194,133.058112 38.7427389,133.269868 37.8400369,132.630887 C36.9410497,131.991906 36.7293048,130.73995 37.3719691,129.840919 C38.0109187,128.941888 39.2590993,128.730132 40.1580865,129.369113" id="Fill-80" fill="#000000"></path>
                    <path d="M51.1577462,130.369113 C52.0608131,131.008094 52.2689272,132.26005 51.6297194,133.159081 C50.9905116,134.058112 49.7418266,134.269868 48.8387598,133.630887 C47.9394093,132.988191 47.7312951,131.73995 48.3705029,130.840919 C49.0097107,129.941888 50.2583957,129.730132 51.1577462,130.369113" id="Fill-82" fill="#000000"></path>
                    <path d="M63.1590814,133.371618 C64.0581125,134.010345 64.2698678,135.25809 63.630887,136.156764 C62.9919062,137.059152 61.7436647,137.270823 60.8409186,136.628382 C59.9418875,135.989655 59.7301322,134.74191 60.369113,133.843236 C61.0080938,132.940848 62.2563353,132.729177 63.1590814,133.371618" id="Fill-84" fill="#000000"></path>
                    <g id="Group-88" transform="translate(70.000000, 134.000000)">
                        <mask id="mask-12" fill="white">
                            <use xlink:href="#path-11"></use>
                        </mask>
                        <g id="Clip-87"></g>
                        <path d="M3.7407,0.57945 C4.5877,1.18145 4.7872,2.36095 4.1852,3.20795 C3.5832,4.05495 2.4072,4.25445 1.5567,3.65245 C0.7097,3.04695 0.5102,1.87095 1.1122,1.02395 C1.7142,0.17695 2.8937,-0.02255 3.7407,0.57945" id="Fill-86" fill="#000000" mask="url(#mask-12)"></path>
                    </g>
                </g>
            </g>
        </g>
    </g>
</svg>
