<?xml version="1.0" encoding="utf-8"?>
<!-- Generator: Adobe Illustrator 24.2.1, SVG Export Plug-In . SVG Version: 6.00 Build 0)  -->
<svg version="1.1" id="Layer_1" xmlns="http://www.w3.org/2000/svg" xmlns:xlink="http://www.w3.org/1999/xlink" x="0px" y="0px"
	 viewBox="0 0 1000 215" style="enable-background:new 0 0 1000 215;" xml:space="preserve">
<style type="text/css">
	.st0{fill-rule:evenodd;clip-rule:evenodd;fill:#0086CC;}
	.st1{fill:#FFFFFF;}
	.st2{fill:#0086CC;}
</style>
<g>
	<g>
		<g>
			<path class="st0" d="M215,166.1c0,27-21.9,48.9-48.9,48.9H48.9C21.9,215,0,193.1,0,166.1V48.9C0,21.9,21.9,0,48.9,0h117.2
				c27,0,48.9,21.9,48.9,48.9L215,166.1L215,166.1z"/>
			<path class="st1" d="M53.5,150.6c-10.2,0-18.5,8.3-18.5,18.6c0,10.2,8.3,18.6,18.5,18.6c10.2,0,18.6-8.3,18.6-18.6
				C72,158.9,63.7,150.6,53.5,150.6z M53.5,175.8c-3.7,0-6.7-3-6.7-6.7c0-3.7,3-6.7,6.7-6.7c3.7,0,6.7,3,6.7,6.7
				S57.1,175.8,53.5,175.8z"/>
			<path class="st1" d="M160.7,151.4c-10.2,0-18.6,8.3-18.6,18.6c0,10.2,8.3,18.6,18.6,18.6c10.2,0,18.6-8.3,18.6-18.6
				C179.2,159.8,170.9,151.4,160.7,151.4z M160.7,176.7c-3.7,0-6.6-3-6.6-6.7c0-3.7,3-6.7,6.6-6.7c3.7,0,6.7,3,6.7,6.7
				C167.3,173.7,164.4,176.7,160.7,176.7z"/>
			<path class="st1" d="M191.2,33.6c-0.2-0.1-0.5-0.1-0.8-0.1h-2.7c-7.8,0-14.6,5.3-16.7,12.8l-15.5,57.8
				c-2.9,10.7-13.6,18.1-24.6,18.1l-4.4,0c-4.8,0-8.4-2.6-10.3-4.8c-1-1.1-2.4-1.7-3.9-1.7l-10.4,0c-1.6,0-3.1,0.7-4.1,1.8
				c-2,2.2-5.4,4.7-10.2,4.7l-4.7,0c-10.7,0-21.1-6.8-24.3-17l-12-37.6c-2.3-7.2-8.9-12-16.4-12l-3.1,0c-1.1,0-2.1,0.5-2.7,1.4
				c-0.6,0.9-0.8,2-0.5,3L40.1,111c5.8,18.2,20.3,29.1,39.4,29.1h13.9c4.2,0,10.2-2.3,12.7-4.6c0.4-0.4,1.1-0.4,1.5,0
				c2.5,2.4,8.6,4.6,12.7,4.6H133c19.7,0,35.9-12,41-31l19.2-71.4C193.7,36.1,192.9,34.4,191.2,33.6z"/>
			<g>
				<circle class="st1" cx="134.4" cy="94.9" r="9.7"/>
				<circle class="st1" cx="107.1" cy="94.9" r="9.7"/>
				<circle class="st1" cx="79.8" cy="94.9" r="9.7"/>
				<circle class="st1" cx="134.4" cy="67.5" r="9.7"/>
				<circle class="st1" cx="107.1" cy="67.5" r="9.7"/>
				<circle class="st1" cx="79.8" cy="67.5" r="9.7"/>
			</g>
		</g>
		<g>
			<g>
				<path class="st2" d="M574.1,162.6c-4.8,0-10.1-0.2-12.5,4c-7.3,13.3-24.1,17.4-37.9,17.4c-27.4,0-48.2-22.2-48.2-49.6
					s20.8-49.6,48.2-49.6c12.2,0,28,2.3,37.4,16.6c2.7,4,7.9,3.1,12.8,3.1c6.8,0,5.1-8.1,2.5-12.1c-13.7-20.7-36.2-25-52.6-25
					c-37,0-67.1,30.1-67.1,67.1s30.1,67.1,67.1,67.1c23.9,0,44.5-10.4,53.8-27C579.8,170.3,581.2,162.6,574.1,162.6z"/>
				<path class="st2" d="M826.3,70.9c-4.8,0-8.7,2.1-8.7,6.9v115.7c0,4.8,3.9,6.3,8.7,6.3s8.7-1.5,8.7-6.3V77.8
					C835.1,73,831.2,70.9,826.3,70.9z"/>
				<path class="st2" d="M826.3,14c-6.1,0-11.1,5-11.1,11.1s5,11.1,11.1,11.1s11.1-5,11.1-11.1C837.5,19,832.5,14,826.3,14z"/>
				<path class="st2" d="M776.9,71.5c-0.2,0-0.5,0-0.5,0c0,0-8.2,0-10.7,6.2c-2.4,6.1-15.5,47.4-29.4,87.6c-0.5,1.3-1,2.6-1.5,3.9
					l-29.9-75.1c-1.3-3.2-3.3-5.6-5.9-7.1c-1.5-0.9-3.2-1.5-5.2-1.5c0,0,0,0,0,0c0,0,0,0,0,0c-2.1,0-3.7,0.6-5.2,1.5
					c-2.6,1.4-4.6,3.9-5.9,7.1l-29.9,75.1c-0.5-1.3-1-2.6-1.5-3.9c-14-40.6-27-81.6-29.4-87.6c-2.5-6.2-11.1-6.2-11.2-6.2
					c-4.4,0.1-6.2,1.2-6,4.1c0,0.7,0,1.3,0.2,2.2c0.7,2.6,21.6,66.3,38.6,114.7c1.1,3.1,3.5,7.6,9.2,7.6c3.8,0,6.5-2.5,7.6-5
					l32-81.5c0.3-0.8,1-1.1,1.7-1.1c0.7,0,1.4,0.4,1.7,1.1l32,81.5c1,2.6,4,5,7.6,5c5.8,0,8.1-4.4,9.2-7.6
					c16-48.6,37.9-112.1,38.6-114.7c0.2-0.8,0.3-1.5,0.2-2.2C783,72.8,781.3,71.6,776.9,71.5z"/>
				<path class="st2" d="M431.5,181.8H316.9c-1.9,0-3.5-1.6-3.5-3.5v-64.9h100.2c4.7,0,6.7-4.1,6.7-9.1c0-5-2-9.1-6.7-9.1H313.4
					V37.1c0-2,1.6-3.7,3.7-3.7h114.4c4.7,0,6.7-4.1,6.7-9.1s-2-9.1-6.7-9.1H302.2c-5,0-8.2,4.8-8.2,12.2c0,0,0,162.8,0,162.9
					c0.1,4.8,2.8,9.7,7.4,9.7h130.1c4.7,0,6.7-4.1,6.7-9.1C438.2,185.9,436.1,181.8,431.5,181.8z"/>
				<path class="st2" d="M991.3,14c-4.8,0-8.7,2.1-8.7,6.9v68.4c-9.9-16.2-29.1-21.8-46-21.8c-37,0-67.1,30.1-67.1,67
					s30.1,67,67.1,67c14.4,0,36.9-7.2,46-22.9v14.7c0,0,0,0.1,0,0.1c0,0.2,0,0.3,0.1,0.3c0.2,4.5,4,6,8.7,6c4.8,0,8.7-1.5,8.7-6.3
					V175V33V20.9C1000,16.1,996.1,14,991.3,14z M936.5,184.1c-27.4,0-47.9-22.2-47.9-49.5S909.1,85,936.5,85
					c15.9,0,45.8,9.5,46,44.9v8C982.3,172.7,950.9,184.1,936.5,184.1z"/>
			</g>
		</g>
	</g>
</g>
</svg>
