<?xml version="1.0" encoding="utf-8"?>
<!-- Generator: Adobe Illustrator 24.2.1, SVG Export Plug-In . SVG Version: 6.00 Build 0)  -->
<svg version="1.1" id="Layer_1" xmlns="http://www.w3.org/2000/svg" xmlns:xlink="http://www.w3.org/1999/xlink" x="0px" y="0px"
	 viewBox="0 0 570.1 269" style="enable-background:new 0 0 570.1 269;" xml:space="preserve">
<style type="text/css">
	.st0{fill:#009CDE;}
</style>
<g id="Livello_2">
	<g id="Livello_1-2">
		<path class="st0" d="M347.4,117.6h-17.6l0,32.9c0,9.6-4.1,17.4-13.8,17.4c-9.6,0-13.8-7.8-13.8-17.4v-32.9h-17.6l0,32.9
			c0,19,12.2,34.4,31.3,34.4c19,0,31.4-15.4,31.4-34.4L347.4,117.6z"/>
		<rect x="506.1" y="97.5" class="st0" width="17.5" height="85.7"/>
		<polygon class="st0" points="536.6,100.7 536.6,97.6 550.2,97.6 550.2,100.7 545.3,100.7 545.3,114.3 541.6,114.3 541.6,100.7 		
			"/>
		<polygon class="st0" points="557.3,97.6 561.2,109 561.3,109 564.9,97.6 570.1,97.6 570.1,114.3 566.7,114.3 566.7,102.4 
			566.6,102.4 562.5,114.3 559.7,114.3 555.6,102.6 555.6,102.6 555.6,114.3 552.2,114.3 552.2,97.6 		"/>
		<path class="st0" d="M270.4,116.9c-15.1-3.5-24.6,11.5-25,12.3c-0.2,0.4-0.2,0.6-0.9,0.6c-0.6,0-0.6-0.6-0.6-0.6l-1.9-11.5h-15.7
			v65.5h17.6v-35.4c0-2.9,7.8-16.8,22.9-13.2c7.6,1.8,10.9,5.1,10.9,5.1v-20C275.4,118.4,273,117.4,270.4,116.9"/>
		<path class="st0" d="M388.3,133.5c9.7,0,17.6,7.9,17.6,17.5c0,9.7-7.9,17.6-17.5,17.6c-9.7,0-17.6-7.9-17.6-17.5c0,0,0,0,0,0
			C370.8,141.3,378.6,133.5,388.3,133.5 M371.3,204.8v-23.6l0,0l0-8.8c0,0,0-0.7,0.7-0.7c0.6,0,0.7,0.4,0.8,0.7
			c1.3,3.3,8.7,16,24.9,12c18.4-5.2,29.2-24.4,24-42.8c-5.2-18.4-24.4-29.2-42.8-24c-14.9,4.2-25.3,17.8-25.3,33.4v53.8H371.3z"/>
		<path class="st0" d="M481.9,151c0,9.7-7.9,17.6-17.5,17.6c-9.7,0-17.6-7.9-17.6-17.5s7.9-17.6,17.5-17.6c0,0,0,0,0,0
			C474,133.5,481.9,141.3,481.9,151 M481.4,183.2H499V151c0-19.2-15.5-34.7-34.7-34.7c-19.2,0-34.7,15.5-34.7,34.7
			c0,15.5,10.3,29.2,25.3,33.4c16.3,4,23.6-8.7,24.9-12c0.1-0.3,0.3-0.7,0.8-0.7c0.6,0,0.7,0.7,0.7,0.7"/>
		<path class="st0" d="M176,112.3h-7.1v55.9l7.3,0.2c14.9,0,24.5-1.4,24.5-28.1C200.7,114.6,192.2,112.3,176,112.3 M171.2,183.1h-20
			V97.5h21.5c26,0,45.7,4.8,45.7,42.8C218.4,178,197.5,183.1,171.2,183.1"/>
		<path class="st0" d="M76.1,94.1c-9.9-9.9-19.4-19.3-22.2-30c-2.8,10.6-12.3,20.1-22.2,30C16.8,108.9,0,125.8,0,151
			c0,29.8,24.1,53.9,53.9,53.9c29.8,0,53.9-24.1,53.9-53.9c0,0,0,0,0,0C107.8,125.8,90.9,108.9,76.1,94.1 M22.9,163.6
			c-3.3-0.1-15.5-21.1,7.1-43.5l15,16.3c0.5,0.5,0.5,1.3,0,1.8c0,0-0.1,0.1-0.1,0.1c-3.6,3.7-18.8,18.9-20.7,24.2
			C23.8,163.6,23.2,163.6,22.9,163.6 M53.9,191.3c-10.2,0-18.5-8.3-18.5-18.5c0,0,0,0,0,0c0.1-4.5,1.7-8.8,4.6-12.2
			c3.3-4.1,13.9-15.6,13.9-15.6s10.4,11.7,13.9,15.5c3,3.4,4.7,7.7,4.6,12.3C72.4,183,64.1,191.3,53.9,191.3 M89.3,161.2
			c-0.4,0.9-1.3,2.3-2.5,2.4c-2.2,0.1-2.4-1-4-3.4c-3.5-5.2-34.4-37.5-40.2-43.7c-5.1-5.5-0.7-9.4,1.3-11.4c2.5-2.5,10-10,10-10
			s22.1,21,31.3,35.3S91.2,157.1,89.3,161.2"/>
	</g>
</g>
</svg>
