<?xml version="1.0" encoding="utf-8"?>
<!-- Generator: Adobe Illustrator 24.2.1, SVG Export Plug-In . SVG Version: 6.00 Build 0)  -->
<svg version="1.1" id="Layer_1" xmlns="http://www.w3.org/2000/svg" xmlns:xlink="http://www.w3.org/1999/xlink" x="0px" y="0px"
	 viewBox="0 0 496 118.2" style="enable-background:new 0 0 496 118.2;" xml:space="preserve">
<style type="text/css">
	.st0{fill:#34313F;}
</style>
<g>
	<g>
		<path class="st0" d="M143.1,56.8c7.3,0,12.2,3.3,15.2,7.4V5.8c0-1.1-1.3-1.8-2.2-1.1L84,57.4h1.9c7.5,0,11.3,4.8,11.3,10
			c0,4.1-2.1,7.1-5,8.4c-0.5,0.2-0.5,0.9,0,1.1c3.3,1.4,5.7,4.9,5.7,9.1c0,6-3.9,10.7-11.4,10.7H66c-0.4,0-0.8-0.3-0.8-0.8V71.1
			l-53.7,39.3c-0.9,0.8-0.5,2.2,0.7,2.2H157c0.7,0,1.2-0.5,1.2-1.2V91.5c-3.9,3.6-9,5.9-15.2,5.9c-11.6,0-21-8-21-20.3
			C122.1,64.7,131.6,56.8,143.1,56.8z M114.4,96c0,0.4-0.3,0.7-0.7,0.7h-6.9c-0.4,0-0.7-0.3-0.7-0.7V58.1c0-0.4,0.3-0.7,0.7-0.7h6.9
			c0.4,0,0.7,0.3,0.7,0.7V96z"/>
	</g>
	<path class="st0" d="M74.4,73h9.7c2.8,0,4.6-1.6,4.6-4.1c0-2.4-1.8-4.1-4.6-4.1H74c-0.2,0-0.4,0.2-0.4,0.4v7.1
		C73.6,72.7,74,73,74.4,73z"/>
	<path class="st0" d="M74.4,89.4h10.1c3.1,0,5-1.7,5-4.5c0-2.5-1.8-4.5-5-4.5H74.4c-0.4,0-0.8,0.3-0.8,0.8v7.4
		C73.6,89,74,89.4,74.4,89.4z"/>
	<path class="st0" d="M152,68.7c-1.9-2.5-5.1-4.5-8.9-4.5c-7.2,0-12.4,5.5-12.4,12.9S135.9,90,143.1,90c3.3,0,6.4-1.4,8.1-2.8
		c0.1-0.1,0.2-0.3,0.2-0.5v-3.8c0-0.3-0.3-0.6-0.6-0.6h-8.9c-0.5,0-0.8-0.4-0.8-0.8v-5.6c0-0.5,0.4-0.8,0.8-0.8h16.5v-8.9l-5.3,2.9
		C152.7,69.2,152.2,69,152,68.7z"/>
	<path class="st0" d="M164.5,77.1c0-12.1,8.7-20.3,19.9-20.3c7.3,0,12,3.7,14.8,8.2c0.2,0.3,0.1,0.8-0.3,0.9l-4.5,2.4
		c-0.3,0.2-0.7,0.1-0.8-0.2c-1.9-3-5.4-5.2-9.2-5.2c-7.5,0-13.1,5.9-13.1,14.2c0,8.2,5.6,14.2,13.1,14.2c3.8,0,7.3-2.2,9.2-5.2
		c0.2-0.3,0.5-0.4,0.8-0.2l4.5,2.3c0.4,0.2,0.5,0.6,0.3,1c-2.9,4.5-7.6,8.3-14.8,8.3C173.2,97.4,164.5,89.1,164.5,77.1z"/>
	<path class="st0" d="M203.1,77.1c0-9.8,5.6-17.4,14-19.6c14.3-3.8,27.4,9.6,24.3,24.5c-1.9,9.2-9.2,15.5-18.9,15.5
		C211.1,97.4,203.1,88.8,203.1,77.1z M235,77.1c0-8.1-5-14.2-12.6-14.2c-7.7,0-12.6,6.1-12.6,14.2c0,8.1,4.9,14.2,12.6,14.2
		S235,85.1,235,77.1z"/>
	<path class="st0" d="M282.6,96.2V66.3l-11.9,30.1c0,0.1-0.2,0.2-0.3,0.2h-2.5c-0.1,0-0.3-0.1-0.3-0.2l-12-30.1v29.9
		c0,0.3-0.2,0.5-0.5,0.5h-6c-0.3,0-0.5-0.2-0.5-0.5V57.8c0-0.3,0.2-0.5,0.5-0.5h8.6c0.4,0,0.7,0.2,0.9,0.6l10.5,27l10.4-27
		c0.1-0.4,0.5-0.6,0.9-0.6h8.6c0.3,0,0.5,0.2,0.5,0.5v38.4c0,0.3-0.2,0.5-0.5,0.5h-6C282.9,96.7,282.6,96.5,282.6,96.2z"/>
	<path class="st0" d="M350.6,96V58.1c0-0.4,0.3-0.7,0.7-0.7h25.5c0.4,0,0.7,0.3,0.7,0.7v4.6c0,0.4-0.3,0.7-0.7,0.7h-18.6
		c-0.4,0-0.7,0.3-0.7,0.7v8.7c0,0.4,0.3,0.7,0.7,0.7h18.2c0.4,0,0.7,0.3,0.7,0.7v4.6c0,0.4-0.3,0.7-0.7,0.7h-18.2
		c-0.4,0-0.7,0.3-0.7,0.7v9.5c0,0.4,0.3,0.7,0.7,0.7h18.6c0.4,0,0.7,0.3,0.7,0.7v4.6c0,0.4-0.3,0.7-0.7,0.7h-25.5
		C350.9,96.7,350.6,96.4,350.6,96z"/>
	<path class="st0" d="M409.5,96.3l-8.3-14c-0.1-0.2-0.4-0.3-0.6-0.3h-5.8c-0.4,0-0.7,0.3-0.7,0.7V96c0,0.4-0.3,0.7-0.7,0.7H388
		c-0.4,0-0.7-0.3-0.7-0.7V58.1c0-0.4,0.3-0.7,0.7-0.7h16.6c7.8,0,12.9,5,12.9,12.3c0,6.5-4,10.2-8.4,11.3c-0.5,0.1-0.7,0.6-0.5,1.1
		c1.6,2.6,6.6,10.6,8.5,13.5c0.3,0.5,0,1.1-0.6,1.1h-6.3C409.9,96.7,409.7,96.6,409.5,96.3z M410.4,69.6c0-3.8-2.8-6.2-6.7-6.2h-8.8
		c-0.4,0-0.7,0.3-0.7,0.7v11.1c0,0.4,0.3,0.7,0.7,0.7h8.8C407.6,75.9,410.4,73.5,410.4,69.6z"/>
	<path class="st0" d="M464.1,96V58.1c0-0.4,0.3-0.7,0.7-0.7h25.6c0.4,0,0.7,0.3,0.7,0.7v4.7c0,0.4-0.3,0.7-0.7,0.7h-18.7
		c-0.4,0-0.7,0.3-0.7,0.7V73c0,0.4,0.3,0.7,0.7,0.7h18.2c0.4,0,0.7,0.3,0.7,0.7v4.7c0,0.4-0.3,0.7-0.7,0.7h-18.2
		c-0.4,0-0.7,0.3-0.7,0.7v9.6c0,0.4,0.3,0.7,0.7,0.7h18.7c0.4,0,0.7,0.3,0.7,0.7v4.7c0,0.4-0.3,0.7-0.7,0.7h-25.6
		C464.4,96.7,464.1,96.4,464.1,96z"/>
	<path class="st0" d="M422.5,76.9c0-12.1,8.7-20.3,19.9-20.3c7.3,0,12,3.7,14.8,8.2c0.2,0.3,0.1,0.8-0.3,0.9l-4.5,2.4
		c-0.3,0.2-0.7,0.1-0.8-0.2c-1.9-3-5.4-5.2-9.2-5.2c-7.5,0-13.1,5.9-13.1,14.2c0,8.2,5.6,14.2,13.1,14.2c3.8,0,7.3-2.2,9.2-5.2
		c0.2-0.3,0.5-0.4,0.8-0.2l4.5,2.3c0.4,0.2,0.5,0.6,0.3,1c-2.9,4.5-7.6,8.3-14.8,8.3C431.2,97.2,422.5,89,422.5,76.9z"/>
	<path class="st0" d="M333.6,96.2V66.3l-11.9,30.1c0,0.1-0.2,0.2-0.3,0.2h-2.5c-0.1,0-0.3-0.1-0.3-0.2l-12-30.1v29.9
		c0,0.3-0.2,0.5-0.5,0.5h-6c-0.3,0-0.5-0.2-0.5-0.5V57.8c0-0.3,0.2-0.5,0.5-0.5h8.6c0.4,0,0.7,0.2,0.9,0.6l10.5,27l10.4-27
		c0.1-0.4,0.5-0.6,0.9-0.6h8.6c0.3,0,0.5,0.2,0.5,0.5v38.4c0,0.3-0.2,0.5-0.5,0.5h-6C333.8,96.7,333.6,96.5,333.6,96.2z"/>
</g>
</svg>
