<?xml version="1.0" encoding="utf-8"?>
<!-- Generator: Adobe Illustrator 24.2.1, SVG Export Plug-In . SVG Version: 6.00 Build 0)  -->
<svg version="1.1" id="Layer_1" xmlns="http://www.w3.org/2000/svg" xmlns:xlink="http://www.w3.org/1999/xlink" x="0px" y="0px"
	 viewBox="0 0 738 153.8" style="enable-background:new 0 0 738 153.8;" xml:space="preserve">
<style type="text/css">
	.st0{fill-rule:evenodd;clip-rule:evenodd;fill:#9B5C8F;}
	.st1{fill:#FFFFFF;}
</style>
<g>
	<path class="st0" d="M30.7,3.1h199.1c12.6,0,22.8,10.2,22.8,22.8v76c0,12.6-10.2,22.8-22.8,22.8h-71.4l9.8,24l-43.1-24H30.8
		C18.2,124.7,8,114.5,8,101.9v-76C7.9,13.4,18.1,3.1,30.7,3.1z"/>
	<path class="st1" d="M20.2,23.8c1.4-1.9,3.5-2.9,6.3-3.1c5.1-0.4,8,2,8.7,7.2c3.1,20.9,6.5,38.6,10.1,53.1l21.9-41.7
		c2-3.8,4.5-5.8,7.5-6c4.4-0.3,7.1,2.5,8.2,8.4c2.5,13.3,5.7,24.6,9.5,34.2c2.6-25.4,7-43.7,13.2-55c1.5-2.8,3.7-4.2,6.6-4.4
		c2.3-0.2,4.4,0.5,6.3,2c1.9,1.5,2.9,3.4,3.1,5.7c0.1,1.8-0.2,3.3-1,4.8c-3.9,7.2-7.1,19.3-9.7,36.1c-2.5,16.3-3.4,29-2.8,38.1
		c0.2,2.5-0.2,4.7-1.2,6.6c-1.2,2.2-3,3.4-5.3,3.6c-2.6,0.2-5.3-1-7.9-3.7C84.4,100.2,77,86,71.6,67.1
		c-6.5,12.8-11.3,22.4-14.4,28.8c-5.9,11.3-10.9,17.1-15.1,17.4c-2.7,0.2-5-2.1-7-6.9C30,93.3,24.5,68,18.6,30.5
		C18.3,27.9,18.8,25.6,20.2,23.8z"/>
	<path class="st1" d="M235.2,39.5c-3.6-6.3-8.9-10.1-16-11.6c-1.9-0.4-3.7-0.6-5.4-0.6c-9.6,0-17.4,5-23.5,15
		c-5.2,8.5-7.8,17.9-7.8,28.2c0,7.7,1.6,14.3,4.8,19.8c3.6,6.3,8.9,10.1,16,11.6c1.9,0.4,3.7,0.6,5.4,0.6c9.7,0,17.5-5,23.5-15
		c5.2-8.6,7.8-18,7.8-28.3C240,51.4,238.4,44.9,235.2,39.5L235.2,39.5z M222.6,67.2c-1.4,6.6-3.9,11.5-7.6,14.8
		c-2.9,2.6-5.6,3.7-8.1,3.2c-2.4-0.5-4.4-2.6-5.9-6.5c-1.2-3.1-1.8-6.2-1.8-9.1c0-2.5,0.2-5,0.7-7.3c0.9-4.1,2.6-8.1,5.3-11.9
		c3.3-4.9,6.8-6.9,10.4-6.2c2.4,0.5,4.4,2.6,5.9,6.5c1.2,3.1,1.8,6.2,1.8,9.1C223.3,62.4,223,64.9,222.6,67.2L222.6,67.2z"/>
	<path class="st1" d="M172.5,39.5c-3.6-6.3-9-10.1-16-11.6c-1.9-0.4-3.7-0.6-5.4-0.6c-9.6,0-17.4,5-23.5,15
		c-5.2,8.5-7.8,17.9-7.8,28.2c0,7.7,1.6,14.3,4.8,19.8c3.6,6.3,8.9,10.1,16,11.6c1.9,0.4,3.7,0.6,5.4,0.6c9.7,0,17.5-5,23.5-15
		c5.2-8.6,7.8-18,7.8-28.3C177.3,51.4,175.7,44.9,172.5,39.5L172.5,39.5z M159.9,67.2c-1.4,6.6-3.9,11.5-7.6,14.8
		c-2.9,2.6-5.6,3.7-8.1,3.2c-2.4-0.5-4.4-2.6-5.9-6.5c-1.2-3.1-1.8-6.2-1.8-9.1c0-2.5,0.2-5,0.7-7.3c0.9-4.1,2.6-8.1,5.3-11.9
		c3.3-4.9,6.8-6.9,10.4-6.2c2.4,0.5,4.4,2.6,5.9,6.5c1.2,3.1,1.8,6.2,1.8,9.1C160.6,62.4,160.4,64.9,159.9,67.2L159.9,67.2z"/>
	<g>
		<g>
			<path d="M277.9,38.6c-6.7,6.6-10,15-10,25.2c0,10.9,3.3,19.8,9.9,26.5s15.2,10.1,25.9,10.1c3.1,0,6.6-0.5,10.4-1.6V82.6
				c-3.5,1-6.5,1.5-9.1,1.5c-5.3,0-9.5-1.8-12.7-5.3c-3.2-3.6-4.8-8.4-4.8-14.5c0-5.7,1.6-10.4,4.7-14c3.2-3.7,7.1-5.5,11.9-5.5
				c3.1,0,6.4,0.5,10,1.5V30.1c-3.3-0.9-7-1.3-10.9-1.3C293,28.7,284.6,32,277.9,38.6z M347.3,28.7c-9.2,0-16.4,3.1-21.6,9.2
				S318,52.6,318,63.6c0,11.9,2.6,21,7.7,27.3s12.6,9.5,22.4,9.5c9.5,0,16.8-3.2,21.9-9.5s7.7-15.2,7.7-26.6s-2.6-20.2-7.8-26.4
				C364.6,31.8,357.1,28.7,347.3,28.7z M355.2,80.7c-1.8,2.8-4.5,4.2-7.9,4.2c-3.2,0-5.6-1.4-7.3-4.2c-1.7-2.8-2.5-8.4-2.5-16.9
				c0-13.1,3.3-19.6,10-19.6c7,0,10.6,6.6,10.6,19.9C358,72.3,357,77.9,355.2,80.7z M427.1,30.6l-3.6,15.3c-0.9,3.9-1.8,7.9-2.6,12
				l-2,10.6c-1.9-10.6-4.5-23.2-7.8-37.9h-23.2l-8.7,68.1h17.4l4.7-46.9l11.9,46.9h12.4L437,51.9l4.9,46.8h18.2l-9.2-68.1
				L427.1,30.6L427.1,30.6z M510.4,30.6l-3.6,15.3c-0.9,3.9-1.8,7.9-2.6,12l-2,10.6c-1.9-10.6-4.5-23.2-7.8-37.9h-23.2l-8.7,68.1
				h17.4l4.7-46.9l11.9,46.9h12.4l11.3-46.8l4.9,46.8h18.2l-9.2-68.1H510.4z M567,71.8h16.3V57.7H567V45.2h18.8V30.7h-37.2v68.1
				h37.3V84.3H567V71.8z M637.7,61c1.9-3.1,2.9-6.3,2.9-9.6c0-6.4-2.5-11.5-7.5-15.2s-11.9-5.6-20.5-5.6h-21.4v68.1h18.4v-31h0.3
				l14.9,31h19.4L629.5,68C633,66.4,635.8,64.1,637.7,61z M609.5,59.9V43.7c4.4,0.1,7.5,0.8,9.4,2.2c1.9,1.4,2.8,3.6,2.8,6.8
				C621.7,57.4,617.6,59.8,609.5,59.9z M651.4,38.6c-6.7,6.6-10,15-10,25.2c0,10.9,3.3,19.8,9.9,26.5c6.6,6.7,15.2,10.1,25.9,10.1
				c3.1,0,6.6-0.5,10.4-1.6V82.6c-3.5,1-6.5,1.5-9.1,1.5c-5.3,0-9.5-1.8-12.7-5.3c-3.2-3.6-4.8-8.4-4.8-14.5c0-5.7,1.6-10.4,4.7-14
				c3.2-3.7,7.1-5.5,11.9-5.5c3.1,0,6.4,0.5,10,1.5V30.1c-3.3-0.9-7-1.3-10.9-1.3C666.6,28.7,658.1,32,651.4,38.6z M711.1,84.1V71.7
				h16.3V57.6h-16.3V45.1H730V30.6h-37.2v68.1h37.3V84.2h-19V84.1z"/>
		</g>
	</g>
</g>
</svg>
