<?xml version="1.0" encoding="utf-8"?>
<!-- Generator: Adobe Illustrator 24.1.3, SVG Export Plug-In . SVG Version: 6.00 Build 0)  -->
<svg version="1.1"
	 id="Layer_1" xmlns:cc="http://creativecommons.org/ns#" xmlns:dc="http://purl.org/dc/elements/1.1/" xmlns:inkscape="http://www.inkscape.org/namespaces/inkscape" xmlns:rdf="http://www.w3.org/1999/02/22-rdf-syntax-ns#" xmlns:sodipodi="http://sodipodi.sourceforge.net/DTD/sodipodi-0.dtd" xmlns:svg="http://www.w3.org/2000/svg"
	 xmlns="http://www.w3.org/2000/svg" xmlns:xlink="http://www.w3.org/1999/xlink" x="0px" y="0px" viewBox="0 0 100 125"
	 style="enable-background:new 0 0 100 125;" xml:space="preserve">
<style type="text/css">
	.st0{fill:#37F4A8;}
</style>
<g>
	<g>
		<g>
			<path class="st0" d="M38.4,68.2C20.3,71.3,7.1,80,7.1,99.7v4.5h85.8v-4.5c0-19.7-13.3-28.4-31.4-31.5"/>
			<path class="st0" d="M92.9,104.7H7.1c-0.3,0-0.5-0.2-0.5-0.5v-4.5c0-17.6,10.7-28.4,31.8-32.1c0.3,0,0.6,0.1,0.6,0.4
				c0.1,0.3-0.1,0.6-0.4,0.6c-20.8,3.6-30.9,13.7-30.9,31v4h84.8v-4c0-17.3-10.1-27.4-30.9-31c-0.3-0.1-0.5-0.3-0.4-0.6
				c0.1-0.3,0.3-0.5,0.6-0.4c21.1,3.6,31.8,14.4,31.8,32.1v4.5C93.5,104.5,93.2,104.7,92.9,104.7z"/>
		</g>
		<g>
			<path class="st0" d="M74.3,41.4c0,13.4-10.9,31.3-24.3,31.3S25.7,54.8,25.7,41.4C25.7,28,36.6,17.1,50,17.1S74.3,28,74.3,41.4z"
				/>
			<path class="st0" d="M50,73.3c-13.4,0-24.8-17.5-24.8-31.8c0-13.7,11.1-24.8,24.8-24.8s24.8,11.1,24.8,24.8
				C74.8,55.7,63.4,73.3,50,73.3z M50,17.6c-13.1,0-23.8,10.7-23.8,23.8c0,13.9,11,30.8,23.8,30.8s23.8-16.9,23.8-30.8
				C73.8,28.3,63.1,17.6,50,17.6z"/>
		</g>
	</g>
</g>
</svg>
