<?xml version="1.0" encoding="utf-8"?>
<!-- Generator: Adobe Illustrator 24.1.3, SVG Export Plug-In . SVG Version: 6.00 Build 0)  -->
<svg version="1.1" id="Layer_1" xmlns="http://www.w3.org/2000/svg" xmlns:xlink="http://www.w3.org/1999/xlink" x="0px" y="0px"
	 viewBox="0 0 64 80" style="enable-background:new 0 0 64 80;" xml:space="preserve">
<style type="text/css">
	.st0{fill:#37F4A8;}
</style>
<g>
	<path class="st0" d="M61.4,8.6c-0.1-3.2-2.8-5.8-6-6l-22-1.1c-0.4,0-0.8,0.1-1,0.4L3.6,30.5c-2.9,2.9-2.9,7.8,0,10.8l0,0l19.1,19.1
		c2.9,2.9,7.8,2.9,10.8,0l0,0l28.7-28.7c0.3-0.3,0.4-0.6,0.4-1L61.4,8.6z M49.8,19.9c-1.7,1.7-4.2,1.7-5.8,0c-1.7-1.7-1.7-4.2,0-5.8
		c1.7-1.7,4.2-1.7,5.8,0C51.4,15.7,51.6,18.3,49.8,19.9C49.9,19.9,49.9,20,49.8,19.9L49.8,19.9z"/>
</g>
</svg>
