<?xml version="1.0" encoding="UTF-8"?>
<svg width="274px" height="50px" viewBox="0 0 274 50" version="1.1" xmlns="http://www.w3.org/2000/svg" xmlns:xlink="http://www.w3.org/1999/xlink">
    <title>Shake</title>
    <defs>
        <rect id="path-1" x="0" y="0" width="1439" height="477"></rect>
        <polygon id="path-3" points="0 0.0342 35.5859 0.0342 35.5859 12 0 12"></polygon>
        <polygon id="path-5" points="0.9772 0.0342 15.2792 0.0342 15.2792 12 0.9772 12"></polygon>
        <polygon id="path-7" points="0.3425 0.0342 14.6475 0.0342 14.6475 12 0.3425 12"></polygon>
        <polygon id="path-9" points="0.4228 0.0342 42.8348 0.0342 42.8348 12 0.4228 12"></polygon>
        <polygon id="path-11" points="0.5417 0.0342 14.8217 0.0342 14.8217 12 0.5417 12"></polygon>
        <polygon id="path-13" points="0.3799 0.0342 17.5619 0.0342 17.5619 12 0.3799 12"></polygon>
        <polygon id="path-15" points="0.0242 0.971 33.4682 0.971 33.4682 12.9368 0.0242 12.9368"></polygon>
        <polygon id="path-17" points="0.2913 0.971 14.5923 0.971 14.5923 12.9365 0.2913 12.9365"></polygon>
        <polygon id="path-19" points="0.9608 0.971 15.2278 0.971 15.2278 12.9365 0.9608 12.9365"></polygon>
        <polygon id="path-21" points="0.0217 0.971 21.1307 0.971 21.1307 12.9365 0.0217 12.9365"></polygon>
        <polygon id="path-23" points="0.4898 0.971 14.7918 0.971 14.7918 12.9365 0.4898 12.9365"></polygon>
        <polygon id="path-25" points="0.3619 0.971 24.2099 0.971 24.2099 12.9365 0.3619 12.9365"></polygon>
        <polygon id="path-27" points="0.2902 0.971 31.8742 0.971 31.8742 12.9365 0.2902 12.9365"></polygon>
        <polygon id="path-29" points="-0.0001 0.0342 35.5859 0.0342 35.5859 12 -0.0001 12"></polygon>
        <polygon id="path-31" points="0.9772 0.0342 15.2792 0.0342 15.2792 12 0.9772 12"></polygon>
        <polygon id="path-33" points="0.3425 0.0342 14.6475 0.0342 14.6475 12 0.3425 12"></polygon>
        <polygon id="path-35" points="0.4228 0.0342 42.8348 0.0342 42.8348 12 0.4228 12"></polygon>
        <polygon id="path-37" points="0.5417 0.0342 14.8217 0.0342 14.8217 12 0.5417 12"></polygon>
        <polygon id="path-39" points="0.3799 0.0342 17.5619 0.0342 17.5619 12 0.3799 12"></polygon>
        <polygon id="path-41" points="0.0242 0.971 33.4682 0.971 33.4682 12.9368 0.0242 12.9368"></polygon>
        <polygon id="path-43" points="0.2913 0.971 14.5923 0.971 14.5923 12.9365 0.2913 12.9365"></polygon>
        <polygon id="path-45" points="0.9608 0.971 15.2278 0.971 15.2278 12.9365 0.9608 12.9365"></polygon>
        <polygon id="path-47" points="0.0217 0.971 21.1307 0.971 21.1307 12.9365 0.0217 12.9365"></polygon>
        <polygon id="path-49" points="0.4898 0.971 14.7918 0.971 14.7918 12.9365 0.4898 12.9365"></polygon>
        <polygon id="path-51" points="0.3619 0.971 24.2099 0.971 24.2099 12.9365 0.3619 12.9365"></polygon>
        <polygon id="path-53" points="0.2902 0.971 31.874 0.971 31.874 12.9365 0.2902 12.9365"></polygon>
        <polygon id="path-55" points="-0.0001 0.0342 35.5859 0.0342 35.5859 12 -0.0001 12"></polygon>
        <polygon id="path-57" points="0.9772 0.0342 15.2792 0.0342 15.2792 12 0.9772 12"></polygon>
        <polygon id="path-59" points="0.3425 0.0342 14.6475 0.0342 14.6475 12 0.3425 12"></polygon>
        <polygon id="path-61" points="0.4228 0.0342 42.8348 0.0342 42.8348 12 0.4228 12"></polygon>
        <polygon id="path-63" points="0.5417 0.0342 14.8217 0.0342 14.8217 12 0.5417 12"></polygon>
        <polygon id="path-65" points="0.3799 0.0342 17.5619 0.0342 17.5619 12 0.3799 12"></polygon>
        <polygon id="path-67" points="0.0242 0.971 33.4682 0.971 33.4682 12.9368 0.0242 12.9368"></polygon>
        <polygon id="path-69" points="0.2913 0.971 14.5923 0.971 14.5923 12.9365 0.2913 12.9365"></polygon>
        <polygon id="path-71" points="0.9608 0.971 15.2278 0.971 15.2278 12.9365 0.9608 12.9365"></polygon>
        <polygon id="path-73" points="0.0217 0.971 21.1307 0.971 21.1307 12.9365 0.0217 12.9365"></polygon>
        <polygon id="path-75" points="0.4898 0.971 14.7918 0.971 14.7918 12.9365 0.4898 12.9365"></polygon>
        <polygon id="path-77" points="0.3619 0.971 24.2099 0.971 24.2099 12.9365 0.3619 12.9365"></polygon>
        <polygon id="path-79" points="0.2902 0.971 31.8742 0.971 31.8742 12.9365 0.2902 12.9365"></polygon>
    </defs>
    <g id="Welcome" stroke="none" stroke-width="1" fill="none" fill-rule="evenodd">
        <g id="Desktop-HD" transform="translate(-637.000000, -1685.000000)">
            <g id="Disrupt" transform="translate(1.000000, 1571.000000)">
                <g id="Background">
                    <mask id="mask-2" fill="white">
                        <use xlink:href="#path-1"></use>
                    </mask>
                    <g></g>
                </g>
                <g id="Shake" transform="translate(636.000000, 114.000000)">
                    <polygon id="Fill-1" fill="#37F4A8" points="137.5127 15.2871 137.4397 12.9661 136.4717 12.9661 135.3967 15.2871"></polygon>
                    <polygon id="Fill-2" fill="#37F4A8" points="189.4883 15.2871 191.3623 12.9661 187.1743 12.9661 186.6653 15.2871"></polygon>
                    <g id="Group-346" transform="translate(0.000000, 0.029300)">
                        <path d="M25.082,20.1221 L7.437,20.1221 C7.84,21.1891 8.382,22.1531 9.038,23.0191 L29.89,23.0191 C28.324,21.9041 26.648,20.9661 25.082,20.1221" id="Fill-5" fill="#37F4A8"></path>
                        <path d="M23.6162,34.1357 C23.7562,34.4897 23.8342,34.8577 23.8342,35.2457 C23.8342,35.8757 23.7052,36.4807 23.4652,37.0337 L35.5862,37.0337 C35.7972,36.0917 35.9222,35.1227 35.9662,34.1357 L23.6162,34.1357 Z" id="Fill-7" fill="#37F4A8"></path>
                        <path d="M18.8662,14.3652 C18.8662,13.8692 18.9682,13.3882 19.1442,12.9362 L7.0242,12.9362 C6.8582,13.7032 6.7712,14.4792 6.7332,15.2582 L19.0202,15.2582 C18.9232,14.9702 18.8662,14.6742 18.8662,14.3652" id="Fill-9" fill="#37F4A8"></path>
                        <path d="M6.7949,34.1357 L6.6049,34.1357 L4.2809,37.0337 L9.9349,37.0337 C8.7209,36.2097 7.6439,35.2387 6.7949,34.1357" id="Fill-11" fill="#37F4A8"></path>
                        <polygon id="Fill-13" fill="#37F4A8" points="96.0068 20.1221 58.7068 20.1221 58.0688 23.0191 95.3678 23.0191"></polygon>
                        <polygon id="Fill-15" fill="#37F4A8" points="97.0781 15.2578 97.5901 12.9368 85.9611 12.9368 85.4571 15.2578"></polygon>
                        <polygon id="Fill-17" fill="#37F4A8" points="71.4307 15.2578 71.9447 12.9368 60.2907 12.9368 59.7797 15.2578"></polygon>
                        <polygon id="Fill-19" fill="#37F4A8" points="55.6182 34.1357 54.9792 37.0337 66.6472 37.0337 67.2872 34.1357"></polygon>
                        <polygon id="Fill-21" fill="#37F4A8" points="81.2568 34.1357 80.6168 37.0337 92.2788 37.0337 92.9178 34.1357"></polygon>
                        <polygon id="Fill-23" fill="#37F4A8" points="135.3965 15.2578 136.4715 12.9368 126.0215 12.9368 124.8245 15.2578"></polygon>
                        <polygon id="Fill-25" fill="#37F4A8" points="147.3047 15.2578 147.1307 12.9368 137.4397 12.9368 137.5127 15.2578"></polygon>
                        <polygon id="Fill-27" fill="#37F4A8" points="137.666 20.1221 137.757 23.0191 147.887 23.0191 147.67 20.1221"></polygon>
                        <polygon id="Fill-29" fill="#37F4A8" points="115.0889 34.1357 113.5939 37.0337 148.9379 37.0337 148.7209 34.1357"></polygon>
                        <polygon id="Fill-31" fill="#37F4A8" points="122.3154 20.1221 120.8214 23.0191 131.8004 23.0191 133.1434 20.1221"></polygon>
                        <polygon id="Fill-33" fill="#37F4A8" points="183.8691 34.1357 170.8181 34.1357 170.1801 37.0337 181.8211 37.0337 181.9441 36.4707"></polygon>
                        <polygon id="Fill-35" fill="#37F4A8" points="187.375 34.1357 188.38 37.0337 200.708 37.0337 199.532 34.1357"></polygon>
                        <polygon id="Fill-37" fill="#37F4A8" points="202.4805 15.2578 204.5475 12.9368 191.3625 12.9368 189.4885 15.2578"></polygon>
                        <polygon id="Fill-39" fill="#37F4A8" points="186.665 15.2578 187.174 12.9368 175.49 12.9368 174.978 15.2578"></polygon>
                        <polygon id="Fill-41" fill="#37F4A8" points="173.2686 23.0195 195.5646 23.0195 198.1466 20.1225 173.9076 20.1225"></polygon>
                        <polygon id="Fill-43" fill="#37F4A8" points="225.9795 37.0342 237.6615 37.0342 238.2865 34.1362 226.6185 34.1362"></polygon>
                        <polygon id="Fill-45" fill="#37F4A8" points="229.0674 23.0195 257.5064 23.0195 258.1534 20.1225 229.7064 20.1225"></polygon>
                        <polygon id="Fill-47" fill="#37F4A8" points="231.29 12.9365 230.778 15.2575 242.47 15.2575 242.992 12.9365"></polygon>
                        <g id="Group-51" transform="translate(0.000000, 37.000000)">
                            <mask id="mask-4" fill="white">
                                <use xlink:href="#path-3"></use>
                            </mask>
                            <g id="Clip-50"></g>
                            <path d="M35.5859,0.0342 L23.4649,0.0342 C22.7699,1.6292 21.1089,2.7832 18.6489,2.7832 C15.5759,2.7832 12.4529,1.7422 9.9349,0.0342 L4.2809,0.0342 L-0.0001,5.3752 C2.3599,8.4242 6.3679,10.7992 11.1709,12.0002 L24.2599,12.0002 C30.3069,10.1662 34.3469,5.5662 35.5859,0.0342" id="Fill-49" fill="#37F4A8" mask="url(#mask-4)"></path>
                        </g>
                        <g id="Group-54" transform="translate(77.000000, 37.000000)">
                            <mask id="mask-6" fill="white">
                                <use xlink:href="#path-5"></use>
                            </mask>
                            <g id="Clip-53"></g>
                            <polygon id="Fill-52" fill="#37F4A8" mask="url(#mask-6)" points="3.6172 0.0342 0.9772 12.0002 12.6412 12.0002 15.2792 0.0342"></polygon>
                        </g>
                        <g id="Group-57" transform="translate(52.000000, 37.000000)">
                            <mask id="mask-8" fill="white">
                                <use xlink:href="#path-7"></use>
                            </mask>
                            <g id="Clip-56"></g>
                            <polygon id="Fill-55" fill="#37F4A8" mask="url(#mask-8)" points="2.9795 0.0342 0.3425 12.0002 12.0075 12.0002 14.6475 0.0342"></polygon>
                        </g>
                        <g id="Group-60" transform="translate(107.000000, 37.000000)">
                            <mask id="mask-10" fill="white">
                                <use xlink:href="#path-9"></use>
                            </mask>
                            <g id="Clip-59"></g>
                            <polygon id="Fill-58" fill="#37F4A8" mask="url(#mask-10)" points="6.5938 0.0342 0.4228 12.0002 12.8798 12.0002 16.3358 4.5112 31.0968 4.5112 31.3138 12.0002 42.8348 12.0002 41.9378 0.0342"></polygon>
                        </g>
                        <g id="Group-63" transform="translate(167.000000, 37.000000)">
                            <mask id="mask-12" fill="white">
                                <use xlink:href="#path-11"></use>
                            </mask>
                            <g id="Clip-62"></g>
                            <polygon id="Fill-61" fill="#37F4A8" mask="url(#mask-12)" points="3.1797 0.0342 0.5417 12.0002 12.2077 12.0002 14.8217 0.0342"></polygon>
                        </g>
                        <g id="Group-66" transform="translate(188.000000, 37.000000)">
                            <mask id="mask-14" fill="white">
                                <use xlink:href="#path-13"></use>
                            </mask>
                            <g id="Clip-65"></g>
                            <polygon id="Fill-64" fill="#37F4A8" mask="url(#mask-14)" points="0.3799 0.0342 4.5279 12.0002 17.5619 12.0002 12.7079 0.0342"></polygon>
                        </g>
                        <polygon id="Fill-67" fill="#37F4A8" points="223.3428 49 252.2878 49 254.4498 38.99 237.2388 38.99 237.6608 37.034 225.9798 37.034"></polygon>
                        <polygon id="Fill-69" fill="#37F4A8" points="137.3779 10.9805 136.4719 12.9365 137.4399 12.9365"></polygon>
                        <g id="Group-73" transform="translate(10.000000, 0.000000)">
                            <mask id="mask-16" fill="white">
                                <use xlink:href="#path-15"></use>
                            </mask>
                            <g id="Clip-72"></g>
                            <path d="M16.6182,10.2598 C19.2802,10.2598 22.3502,11.1638 24.7802,12.9368 L28.5012,12.9368 L33.4682,6.6598 C30.9382,3.8928 27.3582,1.9678 23.4752,0.9708 L11.6692,0.9708 C5.3322,2.8088 1.1762,7.6228 0.0242,12.9368 L12.1442,12.9368 C12.7372,11.4178 14.2872,10.2598 16.6182,10.2598" id="Fill-71" fill="#37F4A8" mask="url(#mask-16)"></path>
                        </g>
                        <g id="Group-76" transform="translate(63.000000, 0.000000)">
                            <mask id="mask-18" fill="white">
                                <use xlink:href="#path-17"></use>
                            </mask>
                            <g id="Clip-75"></g>
                            <polygon id="Fill-74" fill="#37F4A8" mask="url(#mask-18)" points="11.9443 12.9365 14.5923 0.9705 2.9273 0.9705 0.2913 12.9365"></polygon>
                        </g>
                        <g id="Group-79" transform="translate(88.000000, 0.000000)">
                            <mask id="mask-20" fill="white">
                                <use xlink:href="#path-19"></use>
                            </mask>
                            <g id="Clip-78"></g>
                            <polygon id="Fill-77" fill="#37F4A8" mask="url(#mask-20)" points="12.5898 12.9365 15.2278 0.9705 3.5618 0.9705 0.9608 12.9365"></polygon>
                        </g>
                        <g id="Group-82" transform="translate(129.000000, 0.000000)">
                            <mask id="mask-22" fill="white">
                                <use xlink:href="#path-21"></use>
                            </mask>
                            <g id="Clip-81"></g>
                            <polygon id="Fill-80" fill="#37F4A8" mask="url(#mask-22)" points="10.4717 12.9365 11.3777 10.9805 11.4397 12.9365 21.1307 12.9365 20.2337 0.9705 6.1927 0.9705 0.0217 12.9365"></polygon>
                        </g>
                        <g id="Group-85" transform="translate(178.000000, 0.000000)">
                            <mask id="mask-24" fill="white">
                                <use xlink:href="#path-23"></use>
                            </mask>
                            <g id="Clip-84"></g>
                            <polygon id="Fill-83" fill="#37F4A8" mask="url(#mask-24)" points="12.1738 12.9365 14.7918 0.9705 3.1278 0.9705 0.4898 12.9365"></polygon>
                        </g>
                        <g id="Group-88" transform="translate(194.000000, 0.000000)">
                            <mask id="mask-26" fill="white">
                                <use xlink:href="#path-25"></use>
                            </mask>
                            <g id="Clip-87"></g>
                            <polygon id="Fill-86" fill="#37F4A8" mask="url(#mask-26)" points="13.5479 12.9365 24.2099 0.9705 10.0269 0.9705 0.3619 12.9365"></polygon>
                        </g>
                        <g id="Group-91" transform="translate(234.000000, 0.000000)">
                            <mask id="mask-28" fill="white">
                                <use xlink:href="#path-27"></use>
                            </mask>
                            <g id="Clip-90"></g>
                            <polygon id="Fill-89" fill="#37F4A8" mask="url(#mask-28)" points="11.9922 12.9365 12.4322 10.9805 29.6412 10.9805 31.8742 0.9705 2.9272 0.9705 0.2902 12.9365"></polygon>
                        </g>
                        <path d="M24.5537,19.8369 C21.8387,18.3569 19.6057,16.9809 19.0207,15.2579 L6.7337,15.2579 C6.7217,15.4879 6.6967,15.7189 6.6967,15.9489 C6.6967,17.5099 6.9727,18.8859 7.4377,20.1219 L25.0817,20.1219 C24.9057,20.0259 24.7267,19.9299 24.5537,19.8369" id="Fill-92" fill="#37F4A8"></path>
                        <polygon id="Fill-94" fill="#37F4A8" points="97.0781 15.2578 85.4571 15.2578 84.6021 19.1898 70.5601 19.1898 71.4311 15.2578 59.7791 15.2578 58.7071 20.1218 96.0071 20.1218"></polygon>
                        <polygon id="Fill-96" fill="#37F4A8" points="147.6699 20.1221 147.3049 15.2581 137.5129 15.2581 137.6659 20.1221"></polygon>
                        <polygon id="Fill-98" fill="#37F4A8" points="133.1436 20.1221 135.3966 15.2581 124.8246 15.2581 122.3156 20.1221"></polygon>
                        <polygon id="Fill-100" fill="#37F4A8" points="185.6162 20.0527 186.6652 15.2577 174.9782 15.2577 173.9072 20.1217 198.1462 20.1217 202.4802 15.2577 189.4882 15.2577"></polygon>
                        <polygon id="Fill-102" fill="#37F4A8" points="229.7061 20.1221 258.1531 20.1221 258.2651 19.6211 241.4871 19.6211 242.4701 15.2581 230.7781 15.2581"></polygon>
                        <path d="M23.1455,29.7012 C25.8215,31.1292 27.9535,32.4592 28.6165,34.1362 L40.9655,34.1362 C40.9775,33.8822 41.0025,33.6312 41.0025,33.3742 C41.0025,28.5562 38.2105,25.3872 34.8895,23.0192 L14.0385,23.0192 C16.3745,26.1042 20.0525,28.0432 23.1455,29.7012" id="Fill-104" fill="#37F4A8"></path>
                        <path d="M6.6963,34.0215 L6.6043,34.1355 L6.7953,34.1355 C6.7643,34.0955 6.7263,34.0615 6.6963,34.0215" id="Fill-106" fill="#37F4A8"></path>
                        <polygon id="Fill-108" fill="#37F4A8" points="63.0684 23.0195 60.6184 34.1355 72.2874 34.1355 73.3294 29.4145 87.2974 29.4145 86.2564 34.1355 97.9184 34.1355 100.3684 23.0195"></polygon>
                        <polygon id="Fill-110" fill="#37F4A8" points="142.7568 23.0195 143.0248 31.5015 132.8718 31.5015 136.8008 23.0195 125.8208 23.0195 120.0888 34.1355 153.7208 34.1355 152.8868 23.0195"></polygon>
                        <polygon id="Fill-112" fill="#37F4A8" points="175.8184 34.1357 188.8694 34.1357 191.3374 31.1427 192.3754 34.1357 204.5324 34.1357 200.1924 23.4377 200.5644 23.0197 178.2684 23.0197"></polygon>
                        <polygon id="Fill-114" fill="#37F4A8" points="231.6182 34.1357 243.2862 34.1357 244.2572 29.6297 261.0342 29.6297 262.5072 23.0197 234.0672 23.0197"></polygon>
                        <polygon id="Fill-116" fill="#FC998D" points="145.5127 15.2578 145.4397 12.9368 144.4717 12.9368 143.3967 15.2578"></polygon>
                        <polygon id="Fill-118" fill="#FC998D" points="197.4883 15.2578 199.3623 12.9368 195.1743 12.9368 194.6653 15.2578"></polygon>
                        <path d="M33.082,20.1221 L15.437,20.1221 C15.84,21.1891 16.382,22.1531 17.038,23.0191 L37.89,23.0191 C36.324,21.9041 34.648,20.9661 33.082,20.1221" id="Fill-122" fill="#FC998D"></path>
                        <path d="M31.6162,34.1357 C31.7562,34.4897 31.8342,34.8577 31.8342,35.2457 C31.8342,35.8757 31.7052,36.4807 31.4652,37.0337 L43.5862,37.0337 C43.7972,36.0917 43.9222,35.1227 43.9662,34.1357 L31.6162,34.1357 Z" id="Fill-124" fill="#FC998D"></path>
                        <path d="M26.8662,14.3652 C26.8662,13.8692 26.9682,13.3882 27.1442,12.9362 L15.0242,12.9362 C14.8582,13.7032 14.7712,14.4792 14.7332,15.2582 L27.0202,15.2582 C26.9232,14.9702 26.8662,14.6742 26.8662,14.3652" id="Fill-126" fill="#FC998D"></path>
                        <path d="M14.7949,34.1357 L14.6049,34.1357 L12.2809,37.0337 L17.9349,37.0337 C16.7209,36.2097 15.6439,35.2387 14.7949,34.1357" id="Fill-128" fill="#FC998D"></path>
                        <polygon id="Fill-130" fill="#FC998D" points="104.0068 20.1221 66.7068 20.1221 66.0688 23.0191 103.3678 23.0191"></polygon>
                        <polygon id="Fill-132" fill="#FC998D" points="105.0781 15.2578 105.5901 12.9368 93.9611 12.9368 93.4571 15.2578"></polygon>
                        <polygon id="Fill-134" fill="#FC998D" points="79.4307 15.2578 79.9447 12.9368 68.2907 12.9368 67.7797 15.2578"></polygon>
                        <polygon id="Fill-136" fill="#FC998D" points="63.6182 34.1357 62.9792 37.0337 74.6472 37.0337 75.2872 34.1357"></polygon>
                        <polygon id="Fill-138" fill="#FC998D" points="89.2568 34.1357 88.6168 37.0337 100.2788 37.0337 100.9178 34.1357"></polygon>
                        <polygon id="Fill-140" fill="#FC998D" points="143.3965 15.2578 144.4715 12.9368 134.0215 12.9368 132.8245 15.2578"></polygon>
                        <polygon id="Fill-142" fill="#FC998D" points="155.3047 15.2578 155.1307 12.9368 145.4397 12.9368 145.5127 15.2578"></polygon>
                        <polygon id="Fill-144" fill="#FC998D" points="145.666 20.1221 145.757 23.0191 155.887 23.0191 155.67 20.1221"></polygon>
                        <polygon id="Fill-146" fill="#FC998D" points="123.0889 34.1357 121.5939 37.0337 156.9379 37.0337 156.7209 34.1357"></polygon>
                        <polygon id="Fill-148" fill="#FC998D" points="130.3154 20.1221 128.8214 23.0191 139.8004 23.0191 141.1434 20.1221"></polygon>
                        <polygon id="Fill-150" fill="#FC998D" points="191.8691 34.1357 178.8181 34.1357 178.1801 37.0337 189.8211 37.0337 189.9441 36.4707"></polygon>
                        <polygon id="Fill-152" fill="#FC998D" points="195.375 34.1357 196.38 37.0337 208.708 37.0337 207.532 34.1357"></polygon>
                        <polygon id="Fill-154" fill="#FC998D" points="210.4805 15.2578 212.5475 12.9368 199.3625 12.9368 197.4885 15.2578"></polygon>
                        <polygon id="Fill-156" fill="#FC998D" points="194.665 15.2578 195.174 12.9368 183.49 12.9368 182.978 15.2578"></polygon>
                        <polygon id="Fill-158" fill="#FC998D" points="181.2686 23.0195 203.5646 23.0195 206.1466 20.1225 181.9076 20.1225"></polygon>
                        <polygon id="Fill-160" fill="#FC998D" points="233.9795 37.0342 245.6615 37.0342 246.2865 34.1362 234.6185 34.1362"></polygon>
                        <polygon id="Fill-162" fill="#FC998D" points="237.0674 23.0195 265.5064 23.0195 266.1534 20.1225 237.7064 20.1225"></polygon>
                        <polygon id="Fill-164" fill="#FC998D" points="239.29 12.9365 238.778 15.2575 250.47 15.2575 250.992 12.9365"></polygon>
                        <g id="Group-168" transform="translate(8.000000, 37.000000)">
                            <mask id="mask-30" fill="white">
                                <use xlink:href="#path-29"></use>
                            </mask>
                            <g id="Clip-167"></g>
                            <path d="M35.5859,0.0342 L23.4649,0.0342 C22.7699,1.6292 21.1089,2.7832 18.6489,2.7832 C15.5759,2.7832 12.4529,1.7422 9.9349,0.0342 L4.2809,0.0342 L-0.0001,5.3752 C2.3599,8.4242 6.3679,10.7992 11.1709,12.0002 L24.2599,12.0002 C30.3069,10.1662 34.3469,5.5662 35.5859,0.0342" id="Fill-166" fill="#FC998D" mask="url(#mask-30)"></path>
                        </g>
                        <g id="Group-171" transform="translate(85.000000, 37.000000)">
                            <mask id="mask-32" fill="white">
                                <use xlink:href="#path-31"></use>
                            </mask>
                            <g id="Clip-170"></g>
                            <polygon id="Fill-169" fill="#FC998D" mask="url(#mask-32)" points="3.6172 0.0342 0.9772 12.0002 12.6412 12.0002 15.2792 0.0342"></polygon>
                        </g>
                        <g id="Group-174" transform="translate(60.000000, 37.000000)">
                            <mask id="mask-34" fill="white">
                                <use xlink:href="#path-33"></use>
                            </mask>
                            <g id="Clip-173"></g>
                            <polygon id="Fill-172" fill="#FC998D" mask="url(#mask-34)" points="2.9795 0.0342 0.3425 12.0002 12.0075 12.0002 14.6475 0.0342"></polygon>
                        </g>
                        <g id="Group-177" transform="translate(115.000000, 37.000000)">
                            <mask id="mask-36" fill="white">
                                <use xlink:href="#path-35"></use>
                            </mask>
                            <g id="Clip-176"></g>
                            <polygon id="Fill-175" fill="#FC998D" mask="url(#mask-36)" points="6.5938 0.0342 0.4228 12.0002 12.8798 12.0002 16.3358 4.5112 31.0968 4.5112 31.3138 12.0002 42.8348 12.0002 41.9378 0.0342"></polygon>
                        </g>
                        <g id="Group-180" transform="translate(175.000000, 37.000000)">
                            <mask id="mask-38" fill="white">
                                <use xlink:href="#path-37"></use>
                            </mask>
                            <g id="Clip-179"></g>
                            <polygon id="Fill-178" fill="#FC998D" mask="url(#mask-38)" points="3.1797 0.0342 0.5417 12.0002 12.2077 12.0002 14.8217 0.0342"></polygon>
                        </g>
                        <g id="Group-183" transform="translate(196.000000, 37.000000)">
                            <mask id="mask-40" fill="white">
                                <use xlink:href="#path-39"></use>
                            </mask>
                            <g id="Clip-182"></g>
                            <polygon id="Fill-181" fill="#FC998D" mask="url(#mask-40)" points="0.3799 0.0342 4.5279 12.0002 17.5619 12.0002 12.7079 0.0342"></polygon>
                        </g>
                        <polygon id="Fill-184" fill="#FC998D" points="231.3428 49 260.2878 49 262.4498 38.99 245.2388 38.99 245.6608 37.034 233.9798 37.034"></polygon>
                        <polygon id="Fill-186" fill="#FC998D" points="145.3779 10.9805 144.4719 12.9365 145.4399 12.9365"></polygon>
                        <g id="Group-190" transform="translate(18.000000, 0.000000)">
                            <mask id="mask-42" fill="white">
                                <use xlink:href="#path-41"></use>
                            </mask>
                            <g id="Clip-189"></g>
                            <path d="M16.6182,10.2598 C19.2802,10.2598 22.3502,11.1638 24.7802,12.9368 L28.5012,12.9368 L33.4682,6.6598 C30.9382,3.8928 27.3582,1.9678 23.4752,0.9708 L11.6692,0.9708 C5.3322,2.8088 1.1762,7.6228 0.0242,12.9368 L12.1442,12.9368 C12.7372,11.4178 14.2872,10.2598 16.6182,10.2598" id="Fill-188" fill="#FC998D" mask="url(#mask-42)"></path>
                        </g>
                        <g id="Group-193" transform="translate(71.000000, 0.000000)">
                            <mask id="mask-44" fill="white">
                                <use xlink:href="#path-43"></use>
                            </mask>
                            <g id="Clip-192"></g>
                            <polygon id="Fill-191" fill="#FC998D" mask="url(#mask-44)" points="11.9443 12.9365 14.5923 0.9705 2.9273 0.9705 0.2913 12.9365"></polygon>
                        </g>
                        <g id="Group-196" transform="translate(96.000000, 0.000000)">
                            <mask id="mask-46" fill="white">
                                <use xlink:href="#path-45"></use>
                            </mask>
                            <g id="Clip-195"></g>
                            <polygon id="Fill-194" fill="#FC998D" mask="url(#mask-46)" points="12.5898 12.9365 15.2278 0.9705 3.5618 0.9705 0.9608 12.9365"></polygon>
                        </g>
                        <g id="Group-199" transform="translate(137.000000, 0.000000)">
                            <mask id="mask-48" fill="white">
                                <use xlink:href="#path-47"></use>
                            </mask>
                            <g id="Clip-198"></g>
                            <polygon id="Fill-197" fill="#FC998D" mask="url(#mask-48)" points="10.4717 12.9365 11.3777 10.9805 11.4397 12.9365 21.1307 12.9365 20.2337 0.9705 6.1927 0.9705 0.0217 12.9365"></polygon>
                        </g>
                        <g id="Group-202" transform="translate(186.000000, 0.000000)">
                            <mask id="mask-50" fill="white">
                                <use xlink:href="#path-49"></use>
                            </mask>
                            <g id="Clip-201"></g>
                            <polygon id="Fill-200" fill="#FC998D" mask="url(#mask-50)" points="12.1738 12.9365 14.7918 0.9705 3.1278 0.9705 0.4898 12.9365"></polygon>
                        </g>
                        <g id="Group-205" transform="translate(202.000000, 0.000000)">
                            <mask id="mask-52" fill="white">
                                <use xlink:href="#path-51"></use>
                            </mask>
                            <g id="Clip-204"></g>
                            <polygon id="Fill-203" fill="#FC998D" mask="url(#mask-52)" points="13.5479 12.9365 24.2099 0.9705 10.0269 0.9705 0.3619 12.9365"></polygon>
                        </g>
                        <g id="Group-208" transform="translate(242.000000, 0.000000)">
                            <mask id="mask-54" fill="white">
                                <use xlink:href="#path-53"></use>
                            </mask>
                            <g id="Clip-207"></g>
                            <polygon id="Fill-206" fill="#FC998D" mask="url(#mask-54)" points="11.9922 12.9365 12.4322 10.9805 29.6412 10.9805 31.8742 0.9705 2.9272 0.9705 0.2902 12.9365"></polygon>
                        </g>
                        <path d="M32.5537,19.8369 C29.8387,18.3569 27.6057,16.9809 27.0207,15.2579 L14.7337,15.2579 C14.7217,15.4879 14.6967,15.7189 14.6967,15.9489 C14.6967,17.5099 14.9727,18.8859 15.4377,20.1219 L33.0817,20.1219 C32.9057,20.0259 32.7267,19.9299 32.5537,19.8369" id="Fill-209" fill="#FC998D"></path>
                        <polygon id="Fill-211" fill="#FC998D" points="105.0781 15.2578 93.4571 15.2578 92.6021 19.1898 78.5601 19.1898 79.4311 15.2578 67.7791 15.2578 66.7071 20.1218 104.0071 20.1218"></polygon>
                        <polygon id="Fill-213" fill="#FC998D" points="155.6699 20.1221 155.3049 15.2581 145.5129 15.2581 145.6659 20.1221"></polygon>
                        <polygon id="Fill-215" fill="#FC998D" points="141.1436 20.1221 143.3966 15.2581 132.8246 15.2581 130.3156 20.1221"></polygon>
                        <polygon id="Fill-217" fill="#FC998D" points="193.6162 20.0527 194.6652 15.2577 182.9782 15.2577 181.9072 20.1217 206.1462 20.1217 210.4802 15.2577 197.4882 15.2577"></polygon>
                        <polygon id="Fill-219" fill="#FC998D" points="237.7061 20.1221 266.1531 20.1221 266.2651 19.6211 249.4871 19.6211 250.4701 15.2581 238.7781 15.2581"></polygon>
                        <path d="M31.1455,29.7012 C33.8215,31.1292 35.9535,32.4592 36.6165,34.1362 L48.9655,34.1362 C48.9775,33.8822 49.0025,33.6312 49.0025,33.3742 C49.0025,28.5562 46.2105,25.3872 42.8895,23.0192 L22.0385,23.0192 C24.3745,26.1042 28.0525,28.0432 31.1455,29.7012" id="Fill-221" fill="#FC998D"></path>
                        <path d="M14.6963,34.0215 L14.6043,34.1355 L14.7953,34.1355 C14.7643,34.0955 14.7263,34.0615 14.6963,34.0215" id="Fill-223" fill="#FC998D"></path>
                        <polygon id="Fill-225" fill="#FC998D" points="71.0684 23.0195 68.6184 34.1355 80.2874 34.1355 81.3294 29.4145 95.2974 29.4145 94.2564 34.1355 105.9184 34.1355 108.3684 23.0195"></polygon>
                        <polygon id="Fill-227" fill="#FC998D" points="150.7568 23.0195 151.0248 31.5015 140.8718 31.5015 144.8008 23.0195 133.8208 23.0195 128.0888 34.1355 161.7208 34.1355 160.8868 23.0195"></polygon>
                        <polygon id="Fill-229" fill="#FC998D" points="183.8184 34.1357 196.8694 34.1357 199.3374 31.1427 200.3754 34.1357 212.5324 34.1357 208.1924 23.4377 208.5644 23.0197 186.2684 23.0197"></polygon>
                        <polygon id="Fill-231" fill="#FC998D" points="239.6182 34.1357 251.2862 34.1357 252.2572 29.6297 269.0342 29.6297 270.5072 23.0197 242.0672 23.0197"></polygon>
                        <path d="M30.082,20.1221 L12.437,20.1221 C12.84,21.1891 13.382,22.1531 14.038,23.0191 L34.89,23.0191 C33.324,21.9041 31.648,20.9661 30.082,20.1221" id="Fill-235" fill="#232323"></path>
                        <path d="M28.6162,34.1357 C28.7562,34.4897 28.8342,34.8577 28.8342,35.2457 C28.8342,35.8757 28.7052,36.4807 28.4652,37.0337 L40.5862,37.0337 C40.7972,36.0917 40.9222,35.1227 40.9662,34.1357 L28.6162,34.1357 Z" id="Fill-237" fill="#232323"></path>
                        <path d="M23.8662,14.3652 C23.8662,13.8692 23.9682,13.3882 24.1442,12.9362 L12.0242,12.9362 C11.8582,13.7032 11.7712,14.4792 11.7332,15.2582 L24.0202,15.2582 C23.9232,14.9702 23.8662,14.6742 23.8662,14.3652" id="Fill-239" fill="#232323"></path>
                        <path d="M11.7949,34.1357 L11.6049,34.1357 L9.2809,37.0337 L14.9349,37.0337 C13.7209,36.2097 12.6439,35.2387 11.7949,34.1357" id="Fill-241" fill="#232323"></path>
                        <polygon id="Fill-243" fill="#232323" points="101.0068 20.1221 63.7068 20.1221 63.0688 23.0191 100.3678 23.0191"></polygon>
                        <polygon id="Fill-245" fill="#232323" points="102.0781 15.2578 102.5901 12.9368 90.9611 12.9368 90.4571 15.2578"></polygon>
                        <polygon id="Fill-247" fill="#232323" points="76.4307 15.2578 76.9447 12.9368 65.2907 12.9368 64.7797 15.2578"></polygon>
                        <polygon id="Fill-249" fill="#232323" points="60.6182 34.1357 59.9792 37.0337 71.6472 37.0337 72.2872 34.1357"></polygon>
                        <polygon id="Fill-251" fill="#232323" points="86.2568 34.1357 85.6168 37.0337 97.2788 37.0337 97.9178 34.1357"></polygon>
                        <polygon id="Fill-253" fill="#232323" points="140.3965 15.2578 141.4715 12.9368 131.0215 12.9368 129.8245 15.2578"></polygon>
                        <polygon id="Fill-255" fill="#232323" points="152.3047 15.2578 152.1307 12.9368 142.4397 12.9368 142.5127 15.2578"></polygon>
                        <polygon id="Fill-257" fill="#232323" points="142.666 20.1221 142.757 23.0191 152.887 23.0191 152.67 20.1221"></polygon>
                        <polygon id="Fill-259" fill="#232323" points="120.0889 34.1357 118.5939 37.0337 153.9379 37.0337 153.7209 34.1357"></polygon>
                        <polygon id="Fill-261" fill="#232323" points="127.3154 20.1221 125.8214 23.0191 136.8004 23.0191 138.1434 20.1221"></polygon>
                        <polygon id="Fill-263" fill="#232323" points="188.8691 34.1357 175.8181 34.1357 175.1801 37.0337 186.8211 37.0337 186.9441 36.4707"></polygon>
                        <polygon id="Fill-265" fill="#232323" points="192.375 34.1357 193.38 37.0337 205.708 37.0337 204.532 34.1357"></polygon>
                        <polygon id="Fill-267" fill="#232323" points="207.4805 15.2578 209.5475 12.9368 196.3625 12.9368 194.4885 15.2578"></polygon>
                        <polygon id="Fill-269" fill="#232323" points="191.665 15.2578 192.174 12.9368 180.49 12.9368 179.978 15.2578"></polygon>
                        <polygon id="Fill-271" fill="#232323" points="178.2686 23.0195 200.5646 23.0195 203.1466 20.1225 178.9076 20.1225"></polygon>
                        <polygon id="Fill-273" fill="#232323" points="230.9795 37.0342 242.6615 37.0342 243.2865 34.1362 231.6185 34.1362"></polygon>
                        <polygon id="Fill-275" fill="#232323" points="234.0674 23.0195 262.5064 23.0195 263.1534 20.1225 234.7064 20.1225"></polygon>
                        <polygon id="Fill-277" fill="#232323" points="236.29 12.9365 235.778 15.2575 247.47 15.2575 247.992 12.9365"></polygon>
                        <g id="Group-281" transform="translate(5.000000, 37.000000)">
                            <mask id="mask-56" fill="white">
                                <use xlink:href="#path-55"></use>
                            </mask>
                            <g id="Clip-280"></g>
                            <path d="M35.5859,0.0342 L23.4649,0.0342 C22.7699,1.6292 21.1089,2.7832 18.6489,2.7832 C15.5759,2.7832 12.4529,1.7422 9.9349,0.0342 L4.2809,0.0342 L-0.0001,5.3752 C2.3599,8.4242 6.3679,10.7992 11.1709,12.0002 L24.2599,12.0002 C30.3069,10.1662 34.3469,5.5662 35.5859,0.0342" id="Fill-279" fill="#232323" mask="url(#mask-56)"></path>
                        </g>
                        <g id="Group-284" transform="translate(82.000000, 37.000000)">
                            <mask id="mask-58" fill="white">
                                <use xlink:href="#path-57"></use>
                            </mask>
                            <g id="Clip-283"></g>
                            <polygon id="Fill-282" fill="#232323" mask="url(#mask-58)" points="3.6172 0.0342 0.9772 12.0002 12.6412 12.0002 15.2792 0.0342"></polygon>
                        </g>
                        <g id="Group-287" transform="translate(57.000000, 37.000000)">
                            <mask id="mask-60" fill="white">
                                <use xlink:href="#path-59"></use>
                            </mask>
                            <g id="Clip-286"></g>
                            <polygon id="Fill-285" fill="#232323" mask="url(#mask-60)" points="2.9795 0.0342 0.3425 12.0002 12.0075 12.0002 14.6475 0.0342"></polygon>
                        </g>
                        <g id="Group-290" transform="translate(112.000000, 37.000000)">
                            <mask id="mask-62" fill="white">
                                <use xlink:href="#path-61"></use>
                            </mask>
                            <g id="Clip-289"></g>
                            <polygon id="Fill-288" fill="#232323" mask="url(#mask-62)" points="6.5938 0.0342 0.4228 12.0002 12.8798 12.0002 16.3358 4.5112 31.0968 4.5112 31.3138 12.0002 42.8348 12.0002 41.9378 0.0342"></polygon>
                        </g>
                        <g id="Group-293" transform="translate(172.000000, 37.000000)">
                            <mask id="mask-64" fill="white">
                                <use xlink:href="#path-63"></use>
                            </mask>
                            <g id="Clip-292"></g>
                            <polygon id="Fill-291" fill="#232323" mask="url(#mask-64)" points="3.1797 0.0342 0.5417 12.0002 12.2077 12.0002 14.8217 0.0342"></polygon>
                        </g>
                        <g id="Group-296" transform="translate(193.000000, 37.000000)">
                            <mask id="mask-66" fill="white">
                                <use xlink:href="#path-65"></use>
                            </mask>
                            <g id="Clip-295"></g>
                            <polygon id="Fill-294" fill="#232323" mask="url(#mask-66)" points="0.3799 0.0342 4.5279 12.0002 17.5619 12.0002 12.7079 0.0342"></polygon>
                        </g>
                        <polygon id="Fill-297" fill="#232323" points="228.3428 49 257.2878 49 259.4498 38.99 242.2388 38.99 242.6608 37.034 230.9798 37.034"></polygon>
                        <polygon id="Fill-299" fill="#232323" points="142.3779 10.9805 141.4719 12.9365 142.4399 12.9365"></polygon>
                        <g id="Group-303" transform="translate(15.000000, 0.000000)">
                            <mask id="mask-68" fill="white">
                                <use xlink:href="#path-67"></use>
                            </mask>
                            <g id="Clip-302"></g>
                            <path d="M16.6182,10.2598 C19.2802,10.2598 22.3502,11.1638 24.7802,12.9368 L28.5012,12.9368 L33.4682,6.6598 C30.9382,3.8928 27.3582,1.9678 23.4752,0.9708 L11.6692,0.9708 C5.3322,2.8088 1.1762,7.6228 0.0242,12.9368 L12.1442,12.9368 C12.7372,11.4178 14.2872,10.2598 16.6182,10.2598" id="Fill-301" fill="#232323" mask="url(#mask-68)"></path>
                        </g>
                        <g id="Group-306" transform="translate(68.000000, 0.000000)">
                            <mask id="mask-70" fill="white">
                                <use xlink:href="#path-69"></use>
                            </mask>
                            <g id="Clip-305"></g>
                            <polygon id="Fill-304" fill="#232323" mask="url(#mask-70)" points="11.9443 12.9365 14.5923 0.9705 2.9273 0.9705 0.2913 12.9365"></polygon>
                        </g>
                        <g id="Group-309" transform="translate(93.000000, 0.000000)">
                            <mask id="mask-72" fill="white">
                                <use xlink:href="#path-71"></use>
                            </mask>
                            <g id="Clip-308"></g>
                            <polygon id="Fill-307" fill="#232323" mask="url(#mask-72)" points="12.5898 12.9365 15.2278 0.9705 3.5618 0.9705 0.9608 12.9365"></polygon>
                        </g>
                        <g id="Group-312" transform="translate(134.000000, 0.000000)">
                            <mask id="mask-74" fill="white">
                                <use xlink:href="#path-73"></use>
                            </mask>
                            <g id="Clip-311"></g>
                            <polygon id="Fill-310" fill="#232323" mask="url(#mask-74)" points="10.4717 12.9365 11.3777 10.9805 11.4397 12.9365 21.1307 12.9365 20.2337 0.9705 6.1927 0.9705 0.0217 12.9365"></polygon>
                        </g>
                        <g id="Group-315" transform="translate(183.000000, 0.000000)">
                            <mask id="mask-76" fill="white">
                                <use xlink:href="#path-75"></use>
                            </mask>
                            <g id="Clip-314"></g>
                            <polygon id="Fill-313" fill="#232323" mask="url(#mask-76)" points="12.1738 12.9365 14.7918 0.9705 3.1278 0.9705 0.4898 12.9365"></polygon>
                        </g>
                        <g id="Group-318" transform="translate(199.000000, 0.000000)">
                            <mask id="mask-78" fill="white">
                                <use xlink:href="#path-77"></use>
                            </mask>
                            <g id="Clip-317"></g>
                            <polygon id="Fill-316" fill="#232323" mask="url(#mask-78)" points="13.5479 12.9365 24.2099 0.9705 10.0269 0.9705 0.3619 12.9365"></polygon>
                        </g>
                        <g id="Group-321" transform="translate(239.000000, 0.000000)">
                            <mask id="mask-80" fill="white">
                                <use xlink:href="#path-79"></use>
                            </mask>
                            <g id="Clip-320"></g>
                            <polygon id="Fill-319" fill="#232323" mask="url(#mask-80)" points="11.9922 12.9365 12.4322 10.9805 29.6412 10.9805 31.8742 0.9705 2.9272 0.9705 0.2902 12.9365"></polygon>
                        </g>
                        <path d="M29.5537,19.8369 C26.8387,18.3569 24.6057,16.9809 24.0207,15.2579 L11.7337,15.2579 C11.7217,15.4879 11.6967,15.7189 11.6967,15.9489 C11.6967,17.5099 11.9727,18.8859 12.4377,20.1219 L30.0817,20.1219 C29.9057,20.0259 29.7267,19.9299 29.5537,19.8369" id="Fill-322" fill="#232323"></path>
                        <polygon id="Fill-324" fill="#232323" points="102.0781 15.2578 90.4571 15.2578 89.6021 19.1898 75.5601 19.1898 76.4311 15.2578 64.7791 15.2578 63.7071 20.1218 101.0071 20.1218"></polygon>
                        <polygon id="Fill-326" fill="#232323" points="152.6699 20.1221 152.3049 15.2581 142.5129 15.2581 142.6659 20.1221"></polygon>
                        <polygon id="Fill-328" fill="#232323" points="138.1436 20.1221 140.3966 15.2581 129.8246 15.2581 127.3156 20.1221"></polygon>
                        <polygon id="Fill-330" fill="#232323" points="190.6162 20.0527 191.6652 15.2577 179.9782 15.2577 178.9072 20.1217 203.1462 20.1217 207.4802 15.2577 194.4882 15.2577"></polygon>
                        <polygon id="Fill-332" fill="#232323" points="234.7061 20.1221 263.1531 20.1221 263.2651 19.6211 246.4871 19.6211 247.4701 15.2581 235.7781 15.2581"></polygon>
                        <path d="M28.1455,29.7012 C30.8215,31.1292 32.9535,32.4592 33.6165,34.1362 L45.9655,34.1362 C45.9775,33.8822 46.0025,33.6312 46.0025,33.3742 C46.0025,28.5562 43.2105,25.3872 39.8895,23.0192 L19.0385,23.0192 C21.3745,26.1042 25.0525,28.0432 28.1455,29.7012" id="Fill-334" fill="#232323"></path>
                        <path d="M11.6963,34.0215 L11.6043,34.1355 L11.7953,34.1355 C11.7643,34.0955 11.7263,34.0615 11.6963,34.0215" id="Fill-336" fill="#232323"></path>
                        <polygon id="Fill-338" fill="#232323" points="68.0684 23.0195 65.6184 34.1355 77.2874 34.1355 78.3294 29.4145 92.2974 29.4145 91.2564 34.1355 102.9184 34.1355 105.3684 23.0195"></polygon>
                        <polygon id="Fill-340" fill="#232323" points="147.7568 23.0195 148.0248 31.5015 137.8718 31.5015 141.8008 23.0195 130.8208 23.0195 125.0888 34.1355 158.7208 34.1355 157.8868 23.0195"></polygon>
                        <polygon id="Fill-342" fill="#232323" points="180.8184 34.1357 193.8694 34.1357 196.3374 31.1427 197.3754 34.1357 209.5324 34.1357 205.1924 23.4377 205.5644 23.0197 183.2684 23.0197"></polygon>
                        <polygon id="Fill-344" fill="#232323" points="236.6182 34.1357 248.2862 34.1357 249.2572 29.6297 266.0342 29.6297 267.5072 23.0197 239.0672 23.0197"></polygon>
                    </g>
                </g>
            </g>
        </g>
    </g>
</svg>
